<?xml version="1.0" encoding="UTF-8"?>
<svg id="Calque_2" data-name="Calque 2" xmlns="http://www.w3.org/2000/svg" viewBox="0 0 1434.04 1843.94">
  <defs>
    <style>
      .cls-1 {
        fill: #f3c055;
      }

      .cls-2 {
        fill: #f6c75f;
      }

      .cls-3 {
        fill: #eaae37;
      }

      .cls-4 {
        fill: #cf9232;
      }

      .cls-5 {
        fill: #fcd688;
      }

      .cls-6 {
        fill: #f4bc4b;
      }

      .cls-7 {
        fill: #60370c;
      }

      .cls-8 {
        fill: #ae691d;
      }

      .cls-9 {
        fill: #8a4e16;
      }

      .cls-10 {
        fill: #fcd787;
      }

      .cls-11 {
        fill: #ca8826;
      }

      .cls-12 {
        fill: #8e5117;
      }

      .cls-13 {
        fill: #fcd78b;
      }

      .cls-14 {
        fill: #f3bc4e;
      }

      .cls-15 {
        fill: #edb13b;
      }

      .cls-16 {
        fill: #f2bb4c;
      }

      .cls-17 {
        fill: #cf9030;
      }

      .cls-18 {
        fill: #d29637;
      }

      .cls-19 {
        fill: #ae6a1f;
      }

      .cls-20 {
        fill: #fc9e22;
      }

      .cls-21 {
        fill: #fcc143;
      }

      .cls-22 {
        fill: #c6ab58;
      }

      .cls-23 {
        fill: #ce8f2f;
      }

      .cls-24 {
        fill: #5e360c;
      }

      .cls-25 {
        fill: #fba025;
      }

      .cls-26 {
        fill: #f2bc50;
      }

      .cls-27 {
        fill: #e5af45;
      }

      .cls-28 {
        fill: #a7641e;
      }

      .cls-29 {
        fill: #fcd789;
      }
    </style>
  </defs>
  <g id="Calque_1-2" data-name="Calque 1">
    <polygon class="cls-5" points="491.66 1474.62 491.48 1474.04 491.7 1469.98 491.64 1436.97 491.63 1395.99 491.61 1365.97 491.62 1339.98 491.63 1313.02 490.51 1311.03 491.57 1309.04 491.57 1269.18 508.48 1269.87 523.74 1269.57 532.67 1269.72 532.68 1231.97 532.63 1187.91 491.5 1187.96 491.65 1179.96 491.49 1146.84 205.53 1146.86 163.92 1146.76 164.36 1105.86 594.15 1105.84 594.22 1167.3 573.83 1167.34 573.75 1228.7 553.23 1228.87 553.18 1310.64 532.71 1310.85 532.68 1392.55 512.23 1392.7 512.2 1474.4 491.66 1474.62"/>
    <path class="cls-10" d="M1106.44,432.86l-.15,12.12-.33,5.68h-39.53l-1.33,3.11.26,7.24-.19,28.97.12,11.99v22.97l-.23,8.69c-.91-.44.35.17.66.32l.06,26.03-.13,13-2.19.29-39.29.04-.12,40.75-40.76.05.07,123.01,25.29.04,163.66.03,15.1-.1,2.08.03,5.11.08,33.05-.13,1.42.7-.43,7.12.13,7.11.25,25.07,1.16,1.31.4,9.49-1.84.22-.33-1.18.61-8.62h-11.6l-7.17-.23-1.77.18-54.93-.07-10.11-.18-1.9.04-8.11.04-3.9-.09h-111.09l-3.87.08-8.13-.04h-15.99s-1.9.04-1.9.04h-4.11l-1.89-.03-7.11.03-2.89-.08-51.09.02h-4.92l-14.07.14-39.84.05-1.99.16-.39-2.35.02-18.4,20.55-.09.03-40.79,20.4-.03v-40.87l20.43-.14.03-20.39,20.46-.11.02-40.85,20.48-.05.07-20.48h20.49l-.05-40.87,20.24-.02v-41.03l20.62-.02v-40.95l20.56-.07.12-20.26,20.74-.15,1.79-1.85,3.84-3.73,3.8.47,1.58-2.43.72-3.3-5.29-1.39-3.99-4.74-.36-7.68-.81-4.26-.15-6.39.98-4.58,2.73-3.46,2.82,1.46,5.45,2.3,3.39,4.38,1.1,3.69,1.85,2.74.48,3.37,2.23,6.97,1.15,2.91,1.57,7.18,1.58,1.85,3.21-.32,3.06,1.53,3.11-.62,1.89-.68.42-2.14.5-5.76.1-3.19,2.22.04v.06ZM1085.72,448.57l3.81-1.56-2.39-4.5-2.19-2.84-.11,2.12-2.19,2.45-1.87,1.29.35,2.47,4.59.56h0Z"/>
    <path class="cls-29" d="M286.43,695.77v1.24l.23,23.94.33,16.25-20.64.02.02,22.77-.07,38.66-18.78.12-2.17.35.51,6.88.49,1.89-.33,2.06.02,29.5-3.46.2-17.16-.04.02,46.4-.03,15.01h-20.24l.13,5.91-.2,2.04v33.01l-20.55.09v40.74l-20.51.14.32,122.91h-41.32l.06-37.78-.53-3.28.78-4.97-.28-26.52.13-11.35-.09-38.78-.04-39.2.14-2.03,40.66.02-.06-32.01.59-6.03-.47-2.94-.08-38.99-.32-2.02.46-.25,1.52.31,39.39-.06.03-79.93-.71-1.38.85-3.55-.16-6.4.18-3.72c-.19-2.3-.16-4.7.17-7.05l-.25-8.35c-.48-4.24-.55-8.67.29-12.62l38.4.28,2.31-2.06-.06-39.14,32.56.17,7.94-.44-.02-.02Z"/>
    <polygon class="cls-6" points="901.5 122.96 901.4 163.99 532.76 163.98 532.65 123.84 536.72 123.34 684.69 123.46 696.63 122.85 778.68 122.72 782.51 123.39 797.59 123.34 885.41 123.31 894.08 123.67 901.5 122.96"/>
    <polygon class="cls-26" points="491.5 1187.96 454.52 1188.08 444.34 1188.03 289.56 1187.98 287.49 1190.62 287.59 1205.12 286.65 1207.61 283.8 1208.51 274.53 1208.71 269.27 1209.14 266.42 1206.27 266.63 1189.51 263.53 1188 204.82 1187.94 205.07 1187.05 205.02 1152.99 205.53 1146.86 491.49 1146.84 491.65 1179.96 491.5 1187.96"/>
    <polygon class="cls-14" points="1024.07 614.06 1023.53 615.52 1024.69 616.1 1024.76 683.9 1024.38 695.32 1026.65 696.91 1188.47 696.91 1187.8 698.99 1187.92 733.98 1187.67 735.89 1187.42 737.08 1172.33 737.19 1008.66 737.16 983.38 737.12 983.3 614.11 1024.07 614.06"/>
    <path class="cls-13" d="M491.48,1474.04l.17.58.05,81.72-20.41.08v81.85l-20.63.16v81.85h102.51s.02-20.49.02-20.49l19.62.04.86-1.74-.03-18.85h20.49l.03-40.81,20.46-.09-.02-20.42,20.57-.02-.04-20.54,20.46-.02.02-20.5,20.29-.05.08-20.41,20.35-.04.21-20.41,20.26-.05.1-20.43,20.54-.38v1.96l-.04,28.94-.02,11.12v38.02l-.32,1.89-1.52.34-39.03-.04v39.64l-.48,1.22-1.23.17-38.47.07-.68,1.59.09,37.04-.68,2.05-1.47.26-38.08-.07-1.07.15.08,1.57.04,38.07-.97,1.12-39.88.11.03,38.84-1.19,2.22-121.49-.12-.58-11.23.2-29.68-11.19-.27-24.03.16-5.71-.3v-120.94l-.31-2.14.07-2.57.97-.04.8,2.4,2.13.58h37.05l.16-8.27.18-6.48,2.03-.88c1.29-2.05,2.98-3.48,5.62-4.15l3.65-3.96,3.04-.56,1.2-3.16.67-3.55-.32-4.85-3.11-1.94-2.79-2.61-2.78-4.34-1.48-4.52-2.83-6.35-3.14-2.73.08-58.86,3.46-.36,6.84,7.27c.65.76,1.44,3.41,1.56,4.79l.4,5.82,2.23,1.51,4.31.06,4.9-.1,5.91.17,2.56,1.66,2.93,1.46,2.91-1.09c-.11-1.59-.61-3.85-1.33-5.84-.69-3.15-2.79-5.65-6.08-5.86l-2.33-4.88-1.99-1.12.96-1.95,5.13-5.81-.61-1.4,9.04-.33.04.05Z"/>
    <path class="cls-4" d="M122.57,1064.8l.53,3.28-.06,37.78h41.32l-.43,40.9,41.61.1-.51,6.13.05,34.06-.25.89-76.28.07c-2.21-.28-3.49-.56-5.45-1.17l-.1-5.22-.23-7,.03-23.33-.17-4.24h-34.19c-1.92.08-4.05-.34-5.93-1.23l.05-79.04,1.22-1.88,38.8-.11h0Z"/>
    <polygon class="cls-17" points="532.65 123.84 532.76 163.98 491.68 163.96 491.61 204.83 450.7 204.93 450.59 245.96 448.5 245.56 411.21 245.52 409.62 244.93 409.9 243.01 410.14 229.68 410.15 221.28 410.03 210.69 410.05 206.28 410.1 195.68 410.11 189.28 410.17 181.65 410.29 170.38 410.02 165.03 417.46 164.22 440.49 164.4 450.32 163.94 450.82 160.96 450.84 126.73 452.43 123.39 524.44 123.31 532.65 123.84"/>
    <polygon class="cls-27" points="572.57 1761.38 572.48 1799.04 571.24 1800.96 537.46 1801.03 531.59 1802.31 457.57 1802.56 452.5 1802.19 451.01 1801.93 450.58 1802.9 447.75 1802.59 447.33 1800.98 411.52 1800.97 411.46 1766.94 411.05 1761.79 409.5 1759.24 409.76 1754.97 409.77 1719.94 415.48 1720.24 439.51 1720.08 450.7 1720.35 450.5 1750.04 451.08 1761.26 572.57 1761.38"/>
    <path class="cls-4" d="M1145.62,123.2l.3,1.07,1.4-.4.18,24.08-.25,14.51,2.04,2.06,37.2-.09,1.92,3.84v77.78l-5.92-.48-33.01-.02-2.2.39-.2-1.97.03-59.73-37.61-.04-3.21-.18-.35-.03.17-20-40.9-.07-.06-33.91.18-7.11-5.92-.1-.65-3.99.94-1.52,3.05-3.62.76-7.7-.03-56.92-.62-3.95-2.15-2.13-24.03.11-1.2,1.51-2.48-.12-.52,2.6-.38,2.45,1.1,3.39c-.27,2.31-.19,3.76.11,5.85l4.11,4.18,6.22,1.14,1.46,4.4-2.2,3.36-1.81,5.88-2.1,1.92.38,2.96-1.07,2.23-3.44,3.33.38,1.54c1.68,1.07,3.15,3.22,3.27,4.94l.14,3.86-2.24,4.97-4.5,1.36-5.47.18-3.18.22-1.44,2.78-5.74-.52-1.98-.4-3,1.6-3.18.5-2.94-1.27-1.22-2.98-.27-2.64,2.32-2.07,3-1.65,5.33,3,3.8-1.51,2.81.07,5.29.79,1.86-1.81.98-1.18,2.48-.3.05-2.52-.81-2.51.37-2.93-3.49.47-6.84-.17-3.12-.52-3.42.65-1.68-1.9-5.62-.47-3.72-.55-2.23-1.33-1.6-1.8h-66.8c-2.22.48-4.34,2.5-3.35,5.48l-4.09,4.36-2.61-.14-4.01-1.87-2.68.45-3.77-.56-1.27-1.71-2.92-3.33-4.25,2.8-.1,20.62.76,5.87,2.95,6.51-5.65.48.05-39.81,7.3-.71,8.66-.02,20.07-.28h55.86l28.26.34,2.73-2.68-.05-37.25c1.53-.71,4.03-1.16,6.01-1.13l12.14-.26,12.93-.07,8.47.24,1.88,2.28-.27,7.43-.09,49.51-1.41,4.4,1.31,4.5.4,7.49-.15,5.97,8.95.47,53.92-.1,17.15-.08.04-.06Z"/>
    <polygon class="cls-26" points="490.51 1311.03 491.63 1313.02 491.62 1339.98 491.61 1365.97 491.63 1395.99 491.64 1436.97 491.7 1469.98 491.48 1474.04 482.44 1474.37 455.49 1474.39 450.66 1473.95 450.66 1449.99 450.82 1442.98 450.66 1427.85 450.64 1316.11 451.87 1311.91 454.52 1311.11 472.51 1311.19 490.51 1311.03"/>
    <polygon class="cls-16" points="450.59 245.96 450.64 257.99 450.63 286.89 409.7 286.9 409.78 299.64 409.79 304.57 409.72 350.98 409.47 352.77 409.68 357.88 409.74 367.65 405.62 368.39 398.5 368.32 390.5 368.78 381.52 368.69 371.44 368.71 368.62 368.21 369.4 365.61 369.21 338.31 369.29 329.59 369.39 248 371.41 246 408.22 246.07 409.62 244.93 411.21 245.52 448.5 245.56 450.59 245.96"/>
    <path class="cls-4" d="M406.37,1598.06l3.41.95v120.94l-.02,35.03-.26,4.27-37.18-.19-2.72-2.42.6-2.56.4-3.47-1.62-1.68.52-2.81,1.2-1.84-.49-8.63.26-2.03.02-127.46-.76-4.72c.98-1.76,3.12-2.94,5.98-2.76l.66-.7,29.99.08h.01Z"/>
    <path class="cls-18" d="M204.29,1270.03l1.18,6.85-.09,32.25-2.87,1.81-77.26-.14-2.24-2.52.04-79.06,37.63-.24c1.16.52,2.31,1.43,3.62,2.71l.05,37.16,3.01,1.23,36.92-.05h.01Z"/>
    <polygon class="cls-16" points="1188.43 246.03 1188.51 357.86 1188.38 368.82 1176.49 368.44 1147.2 368.89 1147.24 360.96 1147.22 348.99 1147.17 316.99 1147.38 312.96 1147.14 276.36 1147.18 266.99 1147.29 245.93 1149.49 245.54 1182.5 245.56 1188.43 246.03"/>
    <polygon class="cls-17" points="778.68 122.72 696.63 122.85 696.62 109.92 696.64 45.33 697.77 42 712.2 41.6 735.91 41.33 737.67 43.81 737.82 78 738.14 81.6 741.82 82.84 770.36 82.81 775.51 82 778.25 82.84 778.91 85.97 778.68 122.72"/>
    <polygon class="cls-26" points="449.31 1474.98 450.57 1475.1 450.69 1480.03 450.61 1538.89 450.77 1579.97 450.83 1582.49 450.64 1588.97 450.48 1597.23 413.42 1597.24 411.3 1596.66 410.5 1594.26 409.99 1587.16 409.99 1486.79 410.18 1483.32 409.91 1476.68 412.48 1475.02 449.31 1474.98"/>
    <polygon class="cls-4" points="1065.44 1513.92 1060.57 1514.01 1060.45 1515.99 1046.55 1515.99 1046.31 1513.98 986.82 1513.98 986.55 1515.98 983.49 1515.98 983.49 1474.8 985.1 1474.45 1024.08 1474.44 1024.14 1436.01 1024.77 1434.04 1065.45 1434.04 1065.44 1513.92"/>
    <path class="cls-26" d="M1147.52,411.03l-.1,41.91.11,13.11-.88,4.99-7.17.07-9.33.28-3.62-2.07v-18.04l-19.04-.16-.83,2.7.09,10.21v64.9l-1.15,4.06-7.08.02-2.01-1.49-1.99,1.44h-5l-.71-1.08-5.18.14-.13.95h-11l-.98-1.58-2.11,1.46-3.21.1-.46.98c-.31-.15-1.57-.77-.66-.32l.23-8.69v-22.97l-.12-11.99.19-28.97-.26-7.24,1.33-3.09h39.53l.33-5.69.15-12.12-.19-5.87.2-15.94,2.48.35,1.15,2.26.7,5.22.2,2.44-1.28,5.03-.8,3.43,1.66,5.08,4.79.73.72,5.98c-1.36,1.59-1.72,2.01-1.52,1.78l.57,2.58,2.65-.36,4.85-.63,1.91,1.05,2.28,1.69,2.55,4.19.11,9.73,3.11,6.49,10.04.05c1.07-2.22,1.86-4.31,2.2-6.04l.14-2.98.31-3.71.25-18.62-.03-7.81v-10l-.05-5.8-.17-2.63,1.16-1.61,1.09,2.09h-.02Z"/>
    <path class="cls-10" d="M325.09,532.36l.73,1.23-1.54,1.69.82,3.77,4.14-1.19-.5,1.53c-.91,1.12-2.11,3.03-2.56,4.03l-.28,3.88,1.36,3.25,2.98.6c.38.73,1.52,2.92,1.07,2.07l.51,5.02,2.75,4.84.09,4.2-3.49,2.81-1.97,2.88-1.3.48-.63.44-.73,1.97-.95,4.08-.87,5.25.74,3.82-.03,40.62-1.3,3.37-3.67-.56-1.61-1.63-2.78,1.88-5.67-1.36-5.41-3.57-3.67-.39-3.15-.39-2.89-1.38c-2.01.91-3.81-2.58-2.2-4.06l.27-7.32-4.31-.42-2.67,1.58-.28-.86.65-2.51v-36.01l-.45-2.22.59-3.77v-38.94l2.62,1.58,20.94-.37,14.61.11.04-.03Z"/>
    <polygon class="cls-26" points="123.11 983.19 123.2 1021.97 123.07 1033.32 123.35 1059.83 122.57 1064.8 83.77 1064.91 82.54 1066.79 81.58 1066.53 81.44 1065.23 82.33 1063.15 82.12 1042.11 82.17 1033.98 82.2 1018.99 82.1 1010.92 82.18 992.97 82.52 983.04 120.49 982.9 123.11 983.19"/>
    <polygon class="cls-16" points="491.57 1269.18 491.5 1187.96 532.63 1187.91 532.68 1231.97 532.67 1269.72 523.74 1269.57 508.48 1269.87 491.57 1269.18"/>
    <polygon class="cls-16" points="286.12 614.5 286.41 615.36 286.72 615.87 286.87 622.87 286.64 627.01 286.59 656.06 286.71 664.99 286.82 687.99 286.43 695.77 278.49 696.22 245.93 696.04 245.99 657.24 245.19 655.67 246.43 652.64 246.45 614.12 249.5 614.36 286.12 614.5"/>
    <polygon class="cls-17" points="89.28 901.26 89.65 902.98 115.36 902.98 115.67 901.45 122.78 900.99 123.08 902.52 123.21 941.95 123.07 943.99 123.11 983.19 120.49 982.9 82.52 983.04 82.5 903.15 88.07 900.82 89.28 901.26"/>
    <polygon class="cls-17" points="245.19 655.67 245.99 657.24 245.93 696.04 245.99 735.18 243.68 737.25 205.27 736.97 205.41 658 207.52 657.6 207.51 655.94 243.49 655.98 245.19 655.67"/>
    <polygon class="cls-16" points="204.2 778.67 204.91 780.04 204.88 859.97 165.49 860.04 164.13 858.82 164.47 856.91 164.5 780.27 166.81 779.02 204.2 778.67"/>
    <polygon class="cls-17" points="1334.56 901.31 1333.1 900.65 1332.78 899.32 1317.52 899.05 1310.93 899.19 1310.78 819.95 1314.48 820.57 1317.52 820.99 1344.46 820.9 1350.75 820.83 1350.56 827.1 1350.43 899.04 1345.42 899.59 1334.45 898.98 1334.56 901.31"/>
    <path class="cls-1" d="M1187.38,1064.98l1.03,1.11.11,38.08-2.82,1.95-35.21-.18-2.97,2.21.21,12.8-.29,23.31c.02.94,1.71,2.74,2.63,2.96l15.85-.32,2.06,2.84.16,8.31-.63,8.99-2.88.63-13.38-.67c-.98-.28-3.36-1.14-3.85-1.39l.07-14.7-1.25-3.88-38.47-.07-1.12,2.33.07,13.67-.2,25-2.02-.17-39.03.04-.16-40.87,31.79-.28,8.03-.08,1.43-1.6h33.99l4.27-1.13.84-3.95-1-7.85-.72-2.98-.33-7.42.9-2.05.76-5.99-.31-4.64-1.19-3.1,2.91-.19,1.04-2.54,2.29.84,33.81.07,2.16-2.98-.17-13.96c-2.09-2.57-3.21-4.99-3.71-7.49l-.35-3.28c-.36.34.79-.74,1.2-1.12l-.76-4.95-3.34-1.78-2.42,1.19-4.1.07-2.44-1.06-3.47.07-4.9-.81-6.15-.85.16-2.19,31.88.07v-.02ZM1157.47,1165.21l7.99-.17.29-2.96-.23-13.14-14.45.22c-1.08,1.69-1.65,4.29-1.63,6.56l-.31,4.58,1.43,4.91h6.91Z"/>
    <polygon class="cls-6" points="339.58 369.09 340.08 372.29 344.52 372.93 349.53 372.62 349.56 369.08 366.63 369.03 367.46 369.97 368.75 370.92 368.84 389.98 367.16 390.14 364.98 391.97 362.12 390.35 357.48 389.87 354.81 388.64 350.35 387.78 344.77 389.17 347.66 393.28 350.84 392.85 352.62 393.5 354.53 395.68 353.08 398.31 355.18 402.22 357.95 406.06 355.47 409.75 356.67 411.95 358.49 416.84 358.86 422.09 360.23 424.22 362.44 427.01 364.71 427.81 367.22 429.17 368.83 428.98 368.86 447.98 365.23 449.28 359.47 446.77 355.29 446.1 350.98 443.97 347.91 444.17 344.14 441.39 338.7 439.11 335.97 437.79 332.91 439.36 330.43 438.34 330.09 430.85 330.24 427.1 330.35 419.23 327.79 418.58 328.08 415.31 330.39 414.6 330.21 406.95 330.41 392.21 327.64 391.48 327.51 389.94 330.32 389.77 330.33 374.83 330.19 370.26 335.46 369.58 339.58 369.09"/>
    <path class="cls-18" d="M82.52,983.04l-.34,9.93-.08,17.96-3.26-.27-4.36-3.19-2.59-5.95c-3.7-3.52-9.03-5.29-14.09-4.37l-2.85,2.33-2.95,1.84-2.17,3-.96,4.69-1.03,5.03-1.83-.61-.69-5.48-1.8.25-.09,4.74v20.11l.56,7.44,2.46-2.37,1.57-.1.73,2.99,4.36,3.58,5.43,1.78c1.07.11,3.62.09,4.82,0l7.7-.86,7.05-2.17,4.03-1.22.21,21.04-.89,2.08-32.91-.2-4.89.55-2.19-3.56.07-77.83,6.26-.47,30.64.2,4.09-.89h-.01Z"/>
    <polygon class="cls-1" points="1270.45 491.29 1270.4 532.93 1228.82 532.88 1228.87 491.03 1235.12 491.51 1253.88 491.53 1270.45 491.29"/>
    <path class="cls-4" d="M1065.67,572.98l-.05,20.97.02,16.19c.1,1.88-.72,3.56-2.19,4.82l-10.99-.25-10.94-.09-3.98.23-11.16-.14-1.68,1.4-1.16-.58.54-1.46.12-40.75,39.29-.04,2.19-.29h-.01Z"/>
    <rect class="cls-1" x="286.61" y="164.03" width="41.76" height="40.93"/>
    <rect class="cls-18" x="1310.99" y="1187.71" width="40.93" height="41.69" transform="translate(121.862 2539.0672) rotate(-89.9552)"/>
    <rect class="cls-1" x="327.62" y="1270.02" width="41.75" height="40.95"/>
    <rect class="cls-18" x="1187.74" y="1352.02" width="41.68" height="40.92"/>
    <rect class="cls-18" x="1229.15" y="245.83" width="41.02" height="41.41" transform="translate(981.3905 1515.8228) rotate(-89.9204)"/>
    <rect class="cls-1" x="1146.66" y="573.94" width="41.6" height="40.94"/>
    <rect class="cls-18" x=".29" y="1187.74" width="40.82" height="41.38" transform="translate(-1187.7371 1228.8177) rotate(-89.985)"/>
    <rect class="cls-26" x="614.86" y="40.84" width="40.89" height="41.44" transform="translate(573.62 696.85) rotate(-89.99)"/>
    <rect class="cls-1" x="1229.06" y="1187.71" width="40.92" height="41.63" transform="translate(39.1073 2456.2105) rotate(-89.9131)"/>
    <path class="cls-4" d="M1188.38,368.82l.09,37.28c-.02,1.68-1.24,3.19-2.94,3.87h-36.81l-1.19,1.06-1.09-2.09.85-.87-.52-6.26.21-1.82.22-31.1,29.29-.44,11.89.38h0Z"/>
    <rect class="cls-18" x="286.63" y="1474.99" width="41.61" height="40.9"/>
    <rect class="cls-4" x=".26" y="818.87" width="40.88" height="41.39" transform="translate(-818.87 860.07) rotate(-89.99)"/>
    <polygon class="cls-1" points="164.48 573.71 162.15 573.26 125.51 573.34 122.95 573.11 122.9 532.18 164.43 532.13 164.48 573.71"/>
    <rect class="cls-18" x="901.51" y="-.07" width="41.02" height="41.18" transform="translate(901.06 942.53) rotate(-89.97)"/>
    <rect class="cls-4" x="1351.65" y="737.91" width="41.84" height="40.54"/>
    <rect class="cls-18" x="690.27" y="1765.46" width="41.27" height="40.85"/>
    <rect class="cls-18" x="1393.02" y="983" width="40.65" height="41.29" transform="translate(406.3751 2414.6141) rotate(-89.865)"/>
    <polygon class="cls-2" points="1147.32 123.87 1145.92 124.27 1145.62 123.2 1147 121.76 1147.39 110.98 1147.32 83.25 1150.01 82.26 1153.11 82.69 1184.52 82.35 1188.12 82.69 1188.55 85.95 1188.26 107 1188.19 119.96 1187.24 122.95 1152.5 122.99 1147.32 123.87"/>
    <rect class="cls-1" x="41.5" y="655.09" width="40.05" height="41.73" transform="translate(-614.46 737.16) rotate(-89.97)"/>
    <polygon class="cls-1" points="1024.77 1434.04 1024.14 1436.01 1024.08 1474.44 985.1 1474.45 983.49 1474.8 983.5 1434.03 1024.77 1434.04"/>
    <polygon class="cls-4" points="1268.43 450.98 1268.53 453.91 1270.5 454.08 1270.45 491.29 1253.88 491.53 1235.12 491.51 1228.87 491.03 1228.92 450.93 1268.43 450.98"/>
    <polygon class="cls-26" points="163.92 900.99 164.39 903.93 163.8 909.96 163.87 941.97 123.21 941.95 123.08 902.52 122.78 900.99 123.29 901.02 163.92 900.99"/>
    <rect class="cls-18" x="737.77" y="1720.31" width="40.61" height="40.97" transform="translate(-982.9036 2498.4366) rotate(-89.9858)"/>
    <polygon class="cls-14" points="326.34 492.04 327.66 494 327.91 497.61 327.59 502.96 327.64 508.95 327.73 531.39 325.09 532.36 310.48 532.25 289.54 532.62 286.91 531.05 286.93 497.98 286.65 495.09 288.55 494.55 288.51 492.15 326.34 492.04"/>
    <polygon class="cls-17" points="164.48 573.71 164.51 604.9 162.51 605.09 162.45 614.97 159.49 614.98 159.3 612.99 130.41 612.96 129.49 615.01 125.54 615.02 125.09 611.95 123 611.9 122.9 532.18 164.43 532.13 164.52 614.97 123 615.02 122.95 573.11 125.51 573.34 162.15 573.26 164.48 573.71"/>
    <polygon class="cls-4" points="981.67 1310.8 981.51 1330.83 983.49 1331.05 983.37 1350.01 983.76 1351.82 973.5 1352.46 973.27 1350.86 946.56 1351.24 943.25 1352.08 942.35 1351.19 942.37 1310.75 981.67 1310.8"/>
    <path class="cls-17" d="M163.52,859.98l.32,2.02.08,38.99-40.62.02.13-39.33c1.5-1.16,4.06-1.56,6.06-.85h27.7l6.33-.86h0Z"/>
    <polygon class="cls-23" points="286.33 573.76 286.79 575.97 286.78 611.99 286.12 614.5 249.5 614.36 246.45 614.12 246.47 575.21 248.84 573.99 286.33 573.76"/>
    <polygon class="cls-4" points="653.6 1679.36 653.52 1720.11 625.85 1720.16 622.54 1720.92 622.41 1719.18 614.58 1719.08 614.54 1681.01 615.51 1680.51 615.53 1679.29 653.6 1679.36"/>
    <path class="cls-10" d="M368.62,368.21l2.82.51,10.07-.03,8.98.09,8-.46,7.13.08-.08,1.13-2.14,1.17-3.87.08-3.09,1.14,1.54,2.88.8,4.16,1.73,2.2,1.73,3.2c.51,3.34,1.77,6.12,4.81,8.72l.58,10.7-.89,2.1-.28,10.73-.74,2.36,1.34,7.98-1.66,3.24-3.87-.19-.78-1.73-.69-2.69-1.89-3.78-5.49-3.16-.21-3.81-4.03-2.24-.77-3.13-3.07-.23-.78,1.46h-2.05l-3.11-2.12-1.93-5-.18-2.66-3-5.72-2.76,2.4-1.89-.02-.05-7.57-.09-19.06-1.29-.95-.83-.95.43-.96,1.56.14h0Z"/>
    <polygon class="cls-18" points="367.52 1762.01 367.73 1766.12 367.5 1768.94 367.56 1801.02 361.47 1801.01 335.62 1801.08 328.94 1801.51 329.38 1795.98 329.53 1762.2 367.52 1762.01"/>
    <polygon class="cls-10" points="341.11 459.58 338.86 458.7 332.4 456.89 336.27 460.31 344.65 469.62 345.44 471.92 347.07 473.92 349.49 473.9 351.45 478.31 348.87 482.43 347.03 485.61 342.95 487.33 343.43 492.07 344.27 494.91 347.03 494.51 350.54 494.36 351.37 499.02 350.71 502.22 349.62 504.82 346.76 504.19 344.16 504.33 342.09 504.76 340.63 502.09 337.1 500.93 334.74 497.74 331.53 495.9 327.91 497.61 327.66 494 326.34 492.04 328.03 489.96 328.05 486.33 327.83 481 327.8 455.97 327.95 449.93 331.5 450.45 342.54 450.51 351.46 450.81 362.49 450.76 366.33 450.59 368.67 449.57 368.86 447.98 368.83 428.98 368.74 422.15 371.83 424.25 373.59 428.68 377.46 434.81 378.91 436.83 379.55 442.95 379.67 447.19 376.44 450.48 373.25 450.75 370.18 451.26 366.41 452.82 360.85 453.35 356.71 454.01 353.2 453.58 350.57 454.01 342.03 453.6 340.75 455.98 341.11 459.58"/>
    <path class="cls-22" d="M819.68,1514.98v2.99l.43,5.35.06,31.1-2.45,2.61-36.47-.13-2.41,2.62-.19,6.77-.16,23.7-.1,7.84-38.73.12-1.83,1.65v38.4l-8.27,1.02-26.05-.04-4.57-.66-2.17,2.59.15,35.54c-.75,1.25-2.03,2.61-3.21,3.52l-11.3-.34-6.91.02-13.06-.19-5.99.45-.37,12.12-.04,18.96v8.37l-2.53.76.09-40.76,1.47-.26.68-2.05,38.18.06c1.2-1.42,1.63-4.26.71-6.39l.1-13.32c.43-3.25.48-6.57.12-9.76l-.06-9.3,1.23-.17.47-1.22,39.03.1.1-19.07-.08-20.63,1.52-.34.3-1.89,31.11.05,8.06-.19.02-33,.33-5.6,1.61-1.3,39.06-.16-.02-39.84,2.14-.09h0Z"/>
    <path class="cls-22" d="M1333.1,900.65l-4.26.68-17.37.35.07,79.4c-.96,1.1-2.78,2.23-3.87,2.53l-10.21-.12-5.29-.19-11.68.3-6.37-.35c-1.45-.05-3.59,1.78-3.61,3.57v35.92l-2.28,1.63-26.75.32-3.89-.18-6.93-.24-.55,4.01.12,13.71-.64,10v11.18l-2.33,2.66-28.74-.18-10.08.46-1.03-1.11.48-1.88,39.61-.07.19-10.05-.1-28.97,1.07-.64.47-1.33,39.43-.03v-35.04l.23-3.84,1.21-1.9,39.55-.16-.04-39.1.03-34.99.83-5.02.58-2.78,6.58-.13,15.27.27.31,1.33v-.02Z"/>
    <path class="cls-22" d="M622.54,1720.92l-5.89-.66c-1.22,2.03-1.75,5.49-1.18,8.65l-.04,23.02-.6,8.35-2.28,1.67-24.03-.22-11.48-.26c-.91.51-2.36,2.2-2.64,3.28l.14,29.99-1.26.98,1.36,2.72-1.1,2.8-2.44,1.71-30.58.02-4.61-.6-2.45,2.75.09,31.91c-.12,2.29-.49,4.69-1.12,6.91h-74.92l-6.59-.22-.4-8.74.05-32.09.43-.97,1.49.26-.74.92.8,1.78-.21,32.2c.12,1.74.81,4.11,1.42,5.07l10.87-.2,5.93-.81,20.57.2,26.55.16,8.88.42,4.88-1,.14-38.62,5.87-1.28,33.77-.07,1.25-1.92.09-37.66,1.19-2.22h33.78c1.96-.04,4.32-.45,5.91-1.05l.16-37.9.97-1.12,7.84.1.13,1.74h0Z"/>
    <path class="cls-2" d="M942.35,1351.19l.89.89-.27,2.93-.16,33.98-1.41,4.03-37.2-.07-2.34,2.77-.16,26.28.03,9.62c-.1.44-2.11,2.13-2.99,2.48l-34.5-.24-3.31,2.2.62,4.96-.23,22.86-.43,9.46c-.34.24-2.77,1.45-4.15,2.08l-15.28-.1-18.02-.22-2.64.55-.41,2.33-.11,22.03v9.86l-.61,5.13-2.14.09.14-40.96,1.34.05.57-1.11,38.79-.08,1.05-3.36.08-35.7.98-1.83,8.01-.07,31.14.03-.07-39.17,1.86-1.85h36.2c1.42.05,3.1-1.53,3-2.87l-.09-36.38,1.81-.57v-.03Z"/>
    <path class="cls-18" d="M1106.51,1187.96l.04,32.02-.15,8.83-8.9.21-29.79-.03-2.17,2.19-.1,38.77-39.97.04-1,8.96.17,28.17c-.29,1.16-1.22,3.19-1.79,3.87h-32.4l-3.08-.05-2.58.73-.47,2.26-.69,7.04-.07,8.99-.06,1.08-1.98-.21.16-20.03,1.98-1.7,37.69-.13,1.62-3.86-.49-3.17.15-31.97c.58-.56,1.44-1.94,1.75-2.77l4.12.1,27.97-.12,3.05.29,3.3-.82.67-3.65.09-34,1.81-1.89,37.36-.1c1.38-.64,2.12-3.08,1.8-4.89l-.06-34.31,2.02.17v-.02Z"/>
    <path class="cls-22" d="M1334.56,901.31l-.11-2.33,10.97.61,5.02-.55.13-71.94.18-6.28-6.28.07-26.94.09-3.03-.43-3.7-.62-1.02-.75.05-1.31-.25-3.89-.08-8.01.02-3v-59.98l-.28-.49.35-3.64-3.68.46-1.29-.37-10.1.02h-14l-4.01.04-5.42-.21-2.53-2.24-.09-33.58.6-1.93-.59-4.3,2.03,1.53v38.69l37.08.06,3.92,1.11v79.69c1.66,1.3,3.95,1.78,5.98,1.22l26.97-.03,7.48.37.61,7.63-.04,69.97-1.47,4.47-16.46-.13-.02-.02Z"/>
    <path class="cls-22" d="M409.5,1759.24l1.55,2.55.41,5.15.06,34.04h35.81l.42,1.61-1.28.42-34.53-.08-2.42-2.4v-33.47l.16-5.18-4.16-.32h-16.01l-7.01-.06h-13.06l.09,35.52-.57,5.51-7.44.42-28.09.09c-2.06.2-4.63-.52-5.93-1.83v-38.03l2.03-.98-.15,33.77-.43,5.54,6.68-.43,25.85-.07h6.09l-.06-32.08.23-2.82-.21-4.11,1.64-2.02-.25-7.17.08-3.9,1.62,1.68-.4,3.47-.6,2.56,2.72,2.42,37.18.19h-.02Z"/>
    <polygon class="cls-2" points="983.76 1351.82 983.37 1350.01 983.49 1331.05 983.55 1329.97 987.36 1331.24 1001.95 1330.83 1004.87 1333.29 1004.82 1339.89 1004.67 1346.01 1004.13 1352.49 998.18 1352.2 983.76 1351.82"/>
    <polygon class="cls-2" points="389.41 1432.06 387.72 1433.83 370.59 1433.81 368.48 1430.2 369.03 1413.31 388.53 1413.07 389.47 1416.89 389.41 1432.06"/>
    <polygon class="cls-2" points="938.98 1434.1 932.15 1433.28 922.77 1432.84 921.58 1430.87 921.82 1413.26 939.56 1413.07 941.55 1413.42 942.38 1415.13 942.4 1432.68 938.98 1434.1"/>
    <rect class="cls-2" x="365.5" y="1517.32" width="20.84" height="20.09"/>
    <polygon class="cls-2" points="798.98 1613.59 798.61 1617.98 780.26 1618.02 778.54 1616.14 778.56 1597.94 796.8 1597.91 798.98 1599.5 798.98 1613.59"/>
    <polygon class="cls-2" points="287.31 469.23 284.91 470.99 269.33 470.99 266.54 469.85 266.63 451.06 286.32 451.04 287.21 453.28 287.31 469.23"/>
    <polygon class="cls-2" points="674.07 1740.97 658.46 1740.85 656.13 1740.18 655.67 1727.96 655.72 1720.94 675.42 1720.99 676.05 1726.87 675.95 1739.94 674.07 1740.97"/>
    <polygon class="cls-2" points="432.22 1249.08 429.73 1247.34 429.89 1231.77 430.95 1229.82 433.42 1229 450.46 1229.09 450.48 1248.92 432.22 1249.08"/>
    <polygon class="cls-2" points="880.87 1535.95 862.55 1535.92 860.62 1534.7 860.63 1516.04 880.64 1515.9 880.87 1535.95"/>
    <polygon class="cls-2" points="1086.1 1283.86 1085.31 1289.94 1067.37 1290.02 1065.41 1288.16 1065.44 1269.98 1085.22 1270.06 1086.17 1272.81 1086.1 1283.86"/>
    <path class="cls-2" d="M1273.49,1065.13c-.96-.38-3.3-2.14-3.12-2.34l-.49-6.93.81-10.94,19.78.06v19.87l-16.98.28h0Z"/>
    <path class="cls-2" d="M163.65,755.6c.08-.09-1.54,1.83-1.92,2.28l-15.03-.17-3.21-2.31.04-15.92,2.77-1.55,16.95.14.84,3.7-.13,7.46-.31,6.36h0Z"/>
    <rect class="cls-1" x="1065.45" y="655.9" width="20.12" height="20.11" transform="translate(408.1466 1740.5848) rotate(-89.9248)"/>
    <path class="cls-2" d="M327.46,306.99l-19.83.02-.09-17.45c.92-.87,3.27-2.24,4.62-2.71l12.43.25,2.06.29.97,2.51-.15,17.09h0Z"/>
    <polygon class="cls-26" points="368.86 447.98 368.67 449.57 366.33 450.59 362.49 450.76 351.46 450.81 342.54 450.51 331.5 450.45 327.95 449.93 327.72 443.97 327.7 429.99 327.79 418.58 330.35 419.23 330.24 427.1 330.09 430.85 330.43 438.34 332.91 439.36 335.97 437.79 338.7 439.11 344.14 441.39 347.91 444.17 350.98 443.97 355.29 446.1 359.47 446.77 365.23 449.28 368.86 447.98"/>
    <path class="cls-22" d="M376.38,1597.98l-.66.7c-2.86-.18-5,1-5.98,2.76l.76,4.72-.02,127.46-.26,2.03.49,8.63-1.2,1.84-1.03-2.27.04-137.65.69-7.79,5.18-1.19,1.99.77h0Z"/>
    <polygon class="cls-17" points="1268.47 696.74 1269.06 701.04 1266.25 698.86 1237.48 699.09 1231.57 699.74 1222.75 698.99 1218.9 699.62 1216.16 699.64 1209.28 699.17 1187.8 698.99 1188.47 696.91 1241.46 696.88 1260.51 696.97 1268.47 696.74"/>
    <polygon class="cls-1" points="1046.55 1515.99 986.55 1515.98 986.82 1513.98 1046.31 1513.98 1046.55 1515.99"/>
    <polygon class="cls-26" points="328.08 415.31 327.66 412 327.64 391.48 330.41 392.21 330.21 406.95 330.39 414.6 328.08 415.31"/>
    <polygon class="cls-1" points="159.49 614.98 129.49 615.01 130.41 612.96 159.3 612.99 159.49 614.98"/>
    <polygon class="cls-2" points="973.5 1352.46 946.7 1353.04 946.56 1351.24 973.27 1350.86 973.5 1352.46"/>
    <polygon class="cls-26" points="115.67 901.45 115.36 902.98 89.65 902.98 89.28 901.26 91.47 900.97 114.54 900.98 115.67 901.45"/>
    <polygon class="cls-26" points="327.51 389.94 327.83 380.29 327.92 374.74 330.19 370.26 330.33 374.83 330.32 389.77 327.51 389.94"/>
    <polygon class="cls-26" points="349.56 369.08 349.53 372.62 344.52 372.93 340.08 372.29 339.58 369.09 349.56 369.08"/>
    <polygon class="cls-1" points="164.51 604.9 164.52 614.97 162.45 614.97 162.51 605.09 164.51 604.9"/>
    <polygon class="cls-1" points="1065.44 1513.92 1065.44 1515.99 1060.45 1515.99 1060.57 1514.01 1065.44 1513.92"/>
    <polygon class="cls-10" points="1089.51 532.97 1083.5 532.98 1083.62 532.03 1088.8 531.89 1089.51 532.97"/>
    <polygon class="cls-22" points="409.46 1596.86 409.78 1599.01 406.37 1598.06 409.46 1596.86"/>
    <polygon class="cls-1" points="1270.5 454.08 1268.53 453.91 1268.43 450.98 1270.5 450.98 1270.5 454.08"/>
    <polygon class="cls-10" points="288.51 492.15 288.55 494.55 286.65 495.09 286.87 493.04 288.51 492.15"/>
    <polygon class="cls-10" points="1098.51 533.02 1094.5 532.97 1096.5 531.53 1098.51 533.02"/>
    <polygon class="cls-22" points="207.51 655.94 207.52 657.6 205.41 658 205.9 655.96 207.51 655.94"/>
    <polygon class="cls-1" points="125.54 615.02 123 615.02 123 611.9 125.09 611.95 125.54 615.02"/>
    <polygon class="cls-10" points="1072.49 532.97 1069.4 532.86 1071.51 531.4 1072.49 532.97"/>
    <polygon class="cls-2" points="165.49 860.04 163.97 859.73 164.13 858.82 165.49 860.04"/>
    <polygon class="cls-10" points="450.57 1475.1 449.31 1474.98 450.66 1473.95 450.57 1475.1"/>
    <path class="cls-24" d="M245.81,944.99l.07,15.96-15.46.08-4.68.46-1.73,2.15-1.09,1.34-2.35.73-2.62.16-3.1-1.49-2.29.23-3.56,2.01-2.62-2.07.87-5.32-3.64-.07-1.39,6.65.43,3.08-.03,4.39,1.4,2.88,2.26,3.98,2.12-2.41,4.82-1,1.13,5.37,2.47,3.37-5.14.66-1.61,2.34,2.09,3.48-3,1.49-1.4,3.88-.91,4-.22,2.27-1.54,1.38-.12,57.06,1.78,2.95,287.67-.04h140.84l.03,39.03.24,1.51-.23,2.53-.15,58.94-1.79.18-16.76.03-1.63-.24-.28,1.03.02,58.99-.3,1.88-20.17-.05v19.18l.29.8-.31,2.26.02,57.93-.28,2.08-.54-.3-19.8.11v43.25l-.03,13.88-.03,3.04-.02,3.97v6.03l.04,5.95-.16,4.99-.08.95-20.05-.2-.07,39.23.32.74-.04,1.32-1.03.88v25.18l.93,1.99v3.87l-.98.85.06,7.44-19.75.21-.09,39.57.06,1.7-.04,40.27-2.15.36-18.35.08v18.62l.35,1.92-.33,2.03.05,59.18-20.55.3-.14,37.52.62,3.31,16.37.02,3.62-.36,1.2.89,2.07-.18,2.02.03h1.98l5.06.03,2-.05,2.03.2,3.85-.69.34-2.15-.05-17.12,1.42-1.13,3.38.23,1.98-.07,10.07-.07,2.09.18,1.68-.64-.02-2.42v-2.01l.05-1.95-.04-13.63,18.3-.03,2.09-1.17-.09-16.29.38-2.9,2.5-.08h11.03l6.65.04-.02-19.2,1.17-1.43,19.35-.07-.04-18.52,1.4-1.95,13.61.14,2-.16,2.47.43,1.5-1.66-.33-2.51.06-9.11-.03-1.97.06-2.02-.15-2.07.48-1.51,12.85-.04,1.96.02,2.01.05,2.51-.35.58-2.02-.03-15.1.13-2.42,1.72-.62,15.12.04,2.27.15,1.39-.83.04-5.36-.28-1.53-.05-12.18.82-.85,17.96-.04,1.89-1.07-.03-38.22.64-1.66,19.63.12.02-20.41,20.54-.03.06-20.55,18.53.11,1.85-2.19-.02-18.37,20.24-.06.36-2.94.09-17.24,20.31-.2v-20.46l20.69-.07-.06-17.16.78-3.31,18.5.07,1.02-1.58-.08-39.23,19.85-.06.92-.82.03-19.71,20.28-.17.18-20.46,20.43-.03.13-20.42,20.28-.08.15-20.24,20.31-.13.25-20.41,20.19-.19.11-40.83,17.91-.03,2.78-1.03v-19.39l20.22-.07.11-20.37,20.41-.19.13-20.25,20.48-.25.03-20.45,20.46-.15.05-40.73,20.32-.22.1-20.26,20.43-.05.14-20.58h20.36l.12-40.82,15.74-.17,4.81-.21,4.68.16c2.08,1.26,4.13,2.26,5.46,2.64l2.76-1.61-.47-7.09c4.09.04,5.1-.71,6.96-2.64l3.57-1.49,1.31-2.5,3.52-.34-1.31,3.18-1.89,7.89-5.36.85-4.39,1.84-1.08,1.36,1.08,5.68.17,6.24,1.8,4.04,3.39,2.6.07,20.4-20.43.09v20.47l-20.49.07-.04,40.94-20.37.04-.13,20.42h-20.43l-.06,20.52-20.38.05-.11,20.42-20.39.03-.04,20.39-20.58.13v40.93l-20.56.02.02,20.42-20.32.1v20.43l-20.61.06-.05,20.32-20.36.13-.07,20.33h-20.37l-.08,41.04-20.46.15-.03,20.36-20.44.09-.12,20.39-20.34.04v20.41l-20.63.09-.06,20.49h-20.1l-.02,20.39-20.71.05-.06,20.4-20.48.03.05,40.66-10.85.05-9.68.42-.08,20.25-20.38.02.04,13.28v6.88l-20.53.38-.1,20.43-20.26.05-.21,20.41-20.35.04-.08,20.41-20.29.05-.02,20.5-20.46.02.04,20.54-20.57.02.02,20.42-20.46.09-.03,40.81h-20.49l.03,18.85-.86,1.74-19.62-.04-.02,20.48h-102.51v-81.84l20.63-.16v-81.85l20.41-.08-.05-81.72,20.55-.22.03-81.7,20.45-.15.03-81.7,20.47-.21.06-81.77,20.52-.17.08-61.36,20.4-.04-.08-61.46-429.79.02-.32-122.91,20.51-.14v-40.74l20.54-.09v-33.01l.21-2.04,4.44.29,3.16.19,3.1,2.18,3.19,1.48,2.34,2.16,3.94,4.61c2.09.28,4.43,1.06,5.76,2.05l2.87,3.68,1.87,3.02,1.92,1.84,3.92,4.49,1.35,4.37.38,7.63,2.27.08.03.02Z"/>
    <path class="cls-7" d="M1105.94,183.98l.35.03-.24,1.95.04,18.92,20.48.06v122.66l-20.44.02v37.36l.29,3.87-2.58.17-5.43.81-11.65.17c-1.09-.61-1.29-.71-1.16-.64v14.45l.44,3.95-.46,1.33-20.47-.03.17,24.91.03,12.01-.27,22.01.42,2.47-20.74.15-.12,20.26-20.55.07v40.95l-20.64.02v41.03l-20.23.02.05,40.89h-20.49l-.07,20.47-20.48.05-.02,40.85-20.46.11-.03,20.39-20.42.14v40.87l-20.41.03-.03,40.79-20.55.09-.02,18.4.39,2.35-4.08,2.02-2.94,1.15-1.09,3.72-.02,7.16c-2.54,1.22-2.61,4.88-.68,6.17l3.57,5.81-.43,2.49c-1.85,1.27-4.81,1.9-7.95-.05l-3.71,1.28-1.29,2.01-2.09-.84-3.63-.09-3.92-1.96-2.48-2.43-1.82-1.4-2.7-.26-4.84.77,1.19-2.93-3.49-3.29-2.82-.76-4.93-1.12-2.79-1.13-3.23-.82.75,9.72,3.73.37,2.51,2.59c1.23,1.15,3.55,1.67,6.36,1.31,2.84,1.83,5.16,5.24,6.13,9.18l42.15-.17,7.49-.9,3.7-.98,1.71,1.67,1.75.31,4.42-.26,5.27-1.5,3.23.18,4.93,2.15c3.23-.75,6.57-1.76,8.92-2.81l1.62-3.48,2.53.23.48,1.58,2.36,1.28,5.93,2.29,6.14-.13,2.95.51,30.05-.02,4.11-.91,7.24-1.04,3.23,2.34,5.57-.75c1.59-.06,3.74.08,5.84.4l10-.6,23.03.18,2.22.3,74.69.17,7-1.57c-.15-.09,1.27.74,2.29,1.33l10.83.13,2.5-1.38,4.58.28,2.4.1,2.22-1.11,6.61-2.5,4.49-.03,2.46,1.45,3.03,1.21,1.33-1.89,2.06.42,2.75-1.63,2.5,1.42,1.98.86,3.23,1.29,2.53,1.67,9.19-.18.08,2.04-2.04.09-73.03-.07-136.93.04-120.92-.03-37.96.05.26-40.87,20.53-.06.02-40.34,2.97-.72h17.26l.13-20.27,19.22.03,1.38-2.75-.03-38.17,20.44-.21.07-40.75,20.42-.09.03-19.06,1-1.44,19.29-.14.08-40.95,20.45.02.18-20.26,20.34-.09.03-41,20.67-.06v-40.81l20.2-.23.07-40.78,20.52-.07-.1-38.1.44-2.42,2.97-.4,17.2-.08.05-40.89,20.06-.12.53-8.95.03-11.32,20.3-.11v-102.28s-20.2-.12-20.2-.12l-532.63-.02-.11,20.36-20.69.06.03,41-20.36.13-.1,40.82-20.24.2v60.3l-1.68.94h-19.02l.06,61.52-20.4.18-.04,40.7-20.51.2-.08,61.27-20.31.07-.03,40.9-20.48.04-.04,61.19-20.47.23-.04,40.88-20.51.13-.22,15.66-2.2-.05.51-6.08-1.66-7.19-2.49-4.65c-.55-2.45-1.5-4.6-2.59-6.26l-2.9-2.75-5.18-1.43-3.55-.43.02-48.19,20.28-.09-.26-9.88.02-31.94.25-13.99-.53-5.12.63-.44,1.3-.48,19.14.25v-40.74l20.59-.04-.25-26.46.11-14.55,20.46.05.06-61.4,12.2-.1,3.87.19,4.34-.31.04-40.75,20.47-.07.1-43.06.18-18.3,7.65-.1,5.24-.25,4.51.05c-.1-.07.57.38,2.13,1.4l.61-2.46-.03-39.46,20.68-.19-.02-61.38h20.39l.03-20.37,20.24-.14.47-20.6h590.73l2.78-.24h-.06Z"/>
    <path class="cls-24" d="M862.63,778.2l.03,1.27,2.29.36,2.05,1.53,2.73,1.57,1.11,4.01,3.89,2.75,1.52,1.82.97,4.68,2.04,2.02,3.55,3.14,1.97.12,6.69-.99,1.55,1.49,2.38-.08,4.49-.32,3.04,4.67,2.99-.46.83-1.89.85-2.98.98-2.4-1.22-1.49-5.03-2.76-2.12-2.2.76-5.18c-2.8-2.24-4.06-4.5-4.32-6.87l19.76-.04.13-1.95h4.92l.16,2.03,15.64-.22,1.49.05,10.51-.03,1.5.03,21.59.15.19-2.04,2.89.08.14,1.91h6.83l.14-1.94,1.89.03.04,1.5,2.02.65,2.02-.65.03-1.51,1.9-.05.16,1.97h13.77l.16-1.96h1.9l.14,1.96h7.82l.17-1.91,3.87-.08.3,1.99h110.52l.27-1.99,3.9.09.16,1.9h7.82l.13-1.95,1.9-.04.19,1.95,15.47.13,2.15.64,6.33-.63-1.1,3.66-2.66,1.52-4.34-.57-3.94-.13-3.83.31-1.66,1.68,1.38,2.08-.58,1.66-.62,3.94,3.01,1.7,3.46-.91,2.36,2.48-.66,2.42-3.72-.1-3.56,1.21-2.02-2.7-3.54.62-6.05-3.25-3.01,1.38-2.45.48-2.43,1.85,1.42,1.6,5.37.59,2.19,1.99.51,3.19,2.65.27,2.82,1.56,2.85-.5,8.57-.34,2.51-.84,3.37.67,1.96.46,2.74-1c3.32-1.76,6.04-3.63,8.7-6.43l5.19-.59,4.53-.65,1.43-2.58c-.36-2.2,1.71-5.28,3.79-4.65l5-1.72,3.48-1.4,2.96-1.66.3-3.05v-3.49l3.91-.6,2.38-2.13,7.17.24,1.73,4.99,3.56,2.61,5.69,1.01.33,1.18.56,7.27-.21,9.45-.1,1.52-.19,22.51v4.27l.21,19.91-.43,2.02.37,1.92-.24,3.19.43,2.11.11,4.71-.21,4.82-.13,27.09-.41,1.02.22,8.2-.1,5.78c-2.45-.09-4.92-1.14-7.24-2.79l-4.42-1.57c.41,1.08.12.31-.37-.97l-5.09-3.34-.46-3.64-2.87-4.5-3.76-2.13-1.79-1.91-.7-2.38-2.3,1.28-2.99-.62.3-2.74c-.66-2.13-1.8-4.27-3.48-6.57l2.02-7.69,1.56-3.39-.8-4.42,2.83-3.89-1.48-3.34-2.44-2.74-2.64-4.21-2.61-1.55-.76-1.79-1.29-.21-.1-29.52-18.25-.25-.08-2.04-9.19.18-2.53-1.67-3.23-1.29-1.98-.86-2.5-1.42-2.75,1.63-2.06-.42-1.33,1.89-3.03-1.21-2.46-1.45-4.49.03-6.61,2.5-2.22,1.11-2.4-.1-4.58-.28-2.5,1.38-10.83-.13c-1.02-.6-2.44-1.42-2.29-1.33l-7,1.57-74.69-.17-2.22-.3-23.03-.18-10,.6c-2.1-.32-4.25-.45-5.84-.4l-5.57.75-3.23-2.34-7.24,1.04-4.11.91-30.05.02-2.95-.51-6.14.13-5.93-2.29-2.36-1.28-.48-1.58-2.53-.23-1.62,3.48c-2.35,1.05-5.69,2.06-8.92,2.81l-4.93-2.15-3.23-.18-5.27,1.5-4.42.26-1.75-.31-1.71-1.67-3.7.98-7.49.9-42.15.17c-.96-3.94-3.29-7.35-6.13-9.18-2.81.36-5.13-.16-6.36-1.31l-2.51-2.59-3.73-.37-.75-9.72,3.23.82,2.79,1.13,4.93,1.12,2.82.76,3.49,3.29-1.19,2.93,4.84-.77,2.7.26,1.82,1.4,2.48,2.43,3.92,1.96,3.63.09,2.09.84,1.29-2.01,3.71-1.28c3.14,1.94,6.1,1.32,7.95.05l.43-2.49-3.57-5.81c-1.92-1.29-1.86-4.95.68-6.17l.02-7.16,1.09-3.72,2.94-1.15,4.08-2.02,1.99-.16.1-.07Z"/>
    <path class="cls-23" d="M1269.06,701.04l-.6,1.93.09,33.58,2.53,2.24,5.42.21.06,1.96h3.91l.05-2h6l.08,2h7.84l.08-2,10.1-.02,1.29.37,2.14,1.69,1.19,1.5.28.49v18.98l-2,.11v15.77l2,.11v3l-2,.08v7.84l2,.08v5l-2,.09v8.83l2,.09-.02,3-1.98.08v7.84l2.06.09.25,3.89-1.31,1.21-6.49-.09-.56-1.95c-1.65-1.81-3.06-4.32-3.81-6.23l-1.33-2.89-4.32,1.64-4.59.34-2.84.94-4.35-.62-2.54,2.19-3.74,2.06-1.17,1.8-2.54-.22.03-9.94h2.77l1.71-2.99-.8-4.2c-.13-1.9,0-3.58.55-6.04l-4.23-4.46.31-6.43,1.29-1.58-1.63-2.82-1.54-1.83-3.11-1.39-2.9,1.91-2.63-.66-2.48,2.43-2,.18-13.08-.08-2.17-6.15-.61-3.15-1.71-5.22-3.37-4.08-4.03-1.85-.23-5.66.24-6.98-1.92-.19.43-7.12-1.42-.7-.7-2.01-2.27-.09-4.2-4.24-2.88-1.78-4.24-1.54-1.69-2.09-3.05,1.98-2.81.86-2.96,1.87-3.29,3.1-4.86,2.58-.07,1.49-5.11-.08-.47-1.15-1.37-.07.26-1.91-.13-34.99,21.49.18,6.88.47,2.74-.02,3.85-.63,8.83.75,5.91-.64,28.77-.23,2.81,2.18h-.09Z"/>
    <path class="cls-7" d="M1210.26,778.06l-2.38,2.13-3.91.6v3.49l-.3,3.05-2.96,1.66-3.48,1.4-5,1.72c-2.08-.62-4.15,2.46-3.79,4.65l-1.43,2.58-4.53.65-5.19.59c-2.66,2.8-5.39,4.68-8.7,6.43l-2.74,1-1.96-.46-3.37-.67-2.51.84-8.57.34-2.85.5-2.82-1.56-2.65-.27-.51-3.19-2.19-1.99-5.37-.59-1.42-1.6,2.43-1.85,2.45-.48,3.01-1.38,6.05,3.25,3.54-.62,2.02,2.7,3.56-1.21,3.72.1.66-2.42-2.36-2.48-3.46.91-3.01-1.7.62-3.94.58-1.66-1.38-2.08,1.66-1.68,3.83-.31,3.94.13,4.34.57,2.66-1.52,1.1-3.66-6.33.63-2.15-.64-15.47-.13-.19-1.95,10.11.18,54.93.07,1.77-.18v.05Z"/>
    <path class="cls-7" d="M916.54,778.02l-.13,1.95-19.76.04c.26,2.37,1.52,4.63,4.32,6.87l-.76,5.18,2.12,2.2,5.03,2.76,1.22,1.49-.98,2.4-.85,2.98-.83,1.89-2.99.46-3.04-4.67-4.49.32-2.38.08-1.55-1.49-6.69.99-1.97-.12-3.55-3.14-2.04-2.02-.97-4.68-1.52-1.82-3.89-2.75-1.11-4.01-2.73-1.57-2.05-1.53-2.29-.36-.03-1.27,39.84-.05,14.07-.13h0Z"/>
    <polygon class="cls-17" points="1242.45 778.17 1238.43 778.12 1230.19 778.37 1229.03 777.06 1228.78 751.99 1228.65 744.89 1230.57 745.08 1230.33 752.06 1230.56 757.72 1234.59 759.57 1237.96 763.65 1239.67 768.87 1240.28 772.02 1242.45 778.17"/>
    <polygon class="cls-7" points="1129.53 777.99 1129.26 779.98 1018.74 779.98 1018.45 777.99 1129.53 777.99"/>
    <polygon class="cls-17" points="1227.66 737.07 1194.61 737.2 1194.68 735.71 1199.55 733.13 1202.84 730.03 1205.8 728.16 1208.62 727.3 1211.67 725.31 1213.36 727.41 1217.6 728.95 1220.49 730.73 1224.69 734.97 1226.96 735.05 1227.66 737.07"/>
    <polygon class="cls-7" points="972.55 777.99 972.36 780.03 950.77 779.88 949.27 779.85 938.76 779.88 937.27 779.83 921.62 780.05 921.46 778.01 972.55 777.99"/>
    <polygon class="cls-5" points="1238.43 778.12 1239.3 781.27 1236.52 784.02 1232.52 787.88 1231.88 791.47 1229.31 795.36 1228.75 788.08 1230.6 787.86 1230.19 778.37 1238.43 778.12"/>
    <polygon class="cls-7" points="1228.42 786.9 1222.73 785.9 1219.16 783.28 1217.43 778.3 1229.03 778.29 1228.42 786.9"/>
    <polygon class="cls-7" points="1004.55 778.02 1004.39 779.98 990.61 779.98 990.46 778.01 1004.55 778.02"/>
    <polygon class="cls-7" points="1014.57 778.07 1014.41 779.98 1006.59 779.98 1006.45 778.03 1014.57 778.07"/>
    <polygon class="cls-7" points="1141.54 778.03 1141.41 779.98 1133.59 779.98 1133.43 778.08 1141.54 778.03"/>
    <polygon class="cls-7" points="982.55 778.04 982.42 779.98 975.58 779.98 975.44 778.07 982.55 778.04"/>
    <polygon class="cls-7" points="988.55 778.06 988.52 779.57 986.5 780.23 984.48 779.57 984.44 778.07 988.55 778.06"/>
    <polygon class="cls-17" points="1189.5 737.11 1187.42 737.08 1187.67 735.89 1189.03 735.96 1189.5 737.11"/>
    <path class="cls-7" d="M288.51,697.07l-.1,28.03,1.46,2.14,3.96,2.2,2.65,1.21,2.45,3.17,2.24,2,4.79,2.15,3.32-1.68,3.67,3.37,2.15,1.46,2.97.2c2.25,2,4.46,2.75,7.11,2.99l.81-6.5c.11.28-.14-.35-.43-1.12l-.06-15.57,2.03-.11.08,17.97.21,18.56-20.38.14v40.94l-7.93.25-12.83.13.41-2.01,18.57-.03-.32-9.79-6.9-7.01-4.68-6.88-2.44.09-2.73-3.33-5.89-.04-3.46-4.05-5.33.14-2.94-5.31-4.57-.78-.02-22.77,20.64-.02-.33-16.25-.24-23.94,1.08-.05,1.01.1h-.03Z"/>
    <path class="cls-24" d="M286.66,798.99l-.15,2.03-1.02.83-.02,35.38-3.64-1.78-6.11-3.72c-1.22-.79-2.98-2.31-3.38-3.07l-3.13-4.56-3.99-1.16-3.91-4.56-4.86-6.53-7.11-3.87-3-.09-.49-1.89,1.72-.63-.06-6.6,18.78-.12.07-38.66,4.57.78,2.94,5.31,5.33-.14,3.46,4.05,5.89.04,2.73,3.33,2.44-.09,4.68,6.88,6.9,7.01.32,9.79-18.57.03-.41,2.01h.02Z"/>
    <path class="cls-24" d="M242.58,839.65l-.07,6.34,5.07.85,2.01,1.61,4.86.84,3.85,2.21,2.76,6.98,1.35,3.45,1.96,2.44.19,21.47,1.92.2-.03,1.91-1.27,2.05-1,4.87.06,3.36-3.55,1.01-4.72-.67-5.3-3.54-5.51-2.73-3.36-2.23c-2.35.72-5.91,1.02-7.08.42-2.41-2.27-3.53-3.03-5.53-4.2l-3.73-.27-.02-46.4,17.16.04h-.02Z"/>
    <path class="cls-7" d="M266.47,886.03l-1.92-.2-.19-21.47-1.96-2.44-1.35-3.45-2.76-6.98-3.85-2.21-4.86-.84-2.01-1.61-5.07-.85.07-6.34,3.46-.2-.02-29.5.33-2.06,3,.09,7.11,3.87,4.86,6.53,3.91,4.56,3.99,1.16,3.13,4.56c.4.76,2.16,2.28,3.38,3.07l6.11,3.72,3.64,1.78.02-35.38,1.02-.83.19,29.95.23,29.08h-20.68l.17,9.94.04,16.05h.01Z"/>
    <path class="cls-7" d="M266.44,887.95l-.29,12.95-20.22.11-.05,40.94-.07,3.05-2.27-.08-.38-7.63-1.35-4.37-3.92-4.49-1.92-1.84-1.87-3.02-2.87-3.68c-1.33-.99-3.67-1.78-5.76-2.05l-3.94-4.61-2.34-2.16-3.19-1.48-3.1-2.18-3.16-.19-4.44-.29-.13-5.89h20.24l.03-15.03,3.73.27c2,1.17,3.12,1.92,5.53,4.2,1.17.6,4.73.3,7.08-.42l3.36,2.23,5.51,2.73,5.3,3.54,4.72.67,3.55-1.01-.06-3.36,1-4.87,1.27-2.05h0Z"/>
    <path class="cls-10" d="M287.5,696.97l-1.08.05v-1.24l.4-7.79-.11-23-.12-8.93,1.8-.71,1.56,4.52-.74,3.37.88,3.23c1.19,2.29,2.37,3.88,5.83,3.36l2.3,3.05c.72,3.23,1.88,5.44,3.42,7.72l3.44,4.32.72,8.97-5.29,1.08-12.96.03-.05,1.98h0Z"/>
    <polygon class="cls-7" points="247.51 798.78 247.58 805.38 245.85 806.01 245.34 799.12 247.51 798.78"/>
    <polygon class="cls-10" points="982.7 122.83 983.54 122.78 983.34 138.98 983.48 163.96 1058.44 164 1065.21 163.91 1106.11 163.98 1105.94 183.98 1103.16 184.22 512.42 184.22 511.95 204.81 491.71 204.95 491.68 225.31 471.29 225.32 471.3 286.7 450.63 286.89 450.64 257.99 450.59 245.96 450.7 204.93 491.61 204.83 491.68 163.96 532.76 163.98 901.4 163.99 901.5 122.96 907.15 122.48 908.47 122.8 932.46 122.74 934.57 122.3 939.52 122.85 982.7 122.83"/>
    <path class="cls-5" d="M482.44,1474.37l.61,1.4-5.13,5.81-.96,1.95,1.99,1.12,2.33,4.88c3.29.21,5.39,2.71,6.08,5.86.72,1.99,1.22,4.25,1.33,5.84l-2.91,1.09-2.93-1.46-2.56-1.66-5.91-.17-4.9.1-4.31-.06-2.23-1.51-.4-5.82c-.12-1.38-.9-4.03-1.56-4.79l-6.84-7.27-3.46.36-.12-4.93.09-1.15,4.83.44,26.95-.03h0ZM479.96,1489.07l-4.46,2.5,2.7,1.49,1.75-3.99h.01Z"/>
    <path class="cls-5" d="M450.83,1582.49l-.05-2.53-.17-41.07,3.14,2.73,2.83,6.35,1.48,4.52,2.78,4.34,2.79,2.61,3.11,1.94.32,4.85-.67,3.55-1.2,3.16-3.04.56-3.65,3.96c-2.65.67-4.34,2.09-5.62,4.15l-2.03.88h-.02Z"/>
    <path class="cls-4" d="M531.59,1802.31l-.14,38.62-4.88,1-8.88-.42-26.55-.16-20.57-.2-5.93.81-10.87.2c-.61-.96-1.3-3.33-1.42-5.07l.21-32.2-.8-1.78.74-.92,5.07.37,74.02-.24h0Z"/>
    <polygon class="cls-5" points="1147.29 245.93 1147.18 266.99 1147.14 276.36 1147.38 312.96 1147.17 316.99 1147.22 348.99 1147.24 360.96 1147.2 368.89 1142.51 368.7 1135.5 368.63 1121.5 368.79 1106.43 368.86 1106.13 364.99 1106.14 327.63 1126.57 327.6 1126.58 204.94 1106.1 204.88 1106.06 185.96 1106.29 184.01 1109.51 184.19 1147.12 184.23 1147.09 243.96 1147.29 245.93"/>
    <polygon class="cls-6" points="1059.41 122.78 1065.33 122.89 1065.15 129.99 1065.21 163.91 1058.44 164 983.48 163.96 983.34 138.98 983.54 122.78 1059.41 122.78"/>
    <path class="cls-29" d="M430.52,327.7l-.18,18.3-.1,43.06-20.47.07-.04,40.75-4.34.31,1.66-3.24-1.34-7.98.74-2.36.28-10.73.89-2.1-.58-10.7c-3.04-2.59-4.3-5.38-4.81-8.72l-1.73-3.2-1.73-2.2-.8-4.16-1.54-2.88,3.09-1.14,3.87-.08,2.14-1.17.08-1.13,4.12-.74-.06-9.77-.22-5.11,4.22-2.25,2.33-2.15,3.83-1.3,1.95.84,2.91,8.25c2.04-1.53,3.75-4.4,3.84-7.02l-.08-21.02,2.04-.41.03-.02Z"/>
    <path class="cls-10" d="M443.41,327.35l-5.24.25-7.65.1-2.04.41.08,21.02c-.09,2.62-1.79,5.49-3.84,7.02l-2.91-8.25-1.95-.84-3.83,1.3-2.33,2.15-4.22,2.25.26-1.79.07-46.41,2.44,1.6,3.16,3.2,4.2,1.3,4.37,2.67,3.91-.32,3,2.69,1.87,2.94,3.57-1.26,3.86,1.99,3.64,3.78-.42,4.19h0Z"/>
    <path class="cls-13" d="M450.63,286.89l.03,39.46-2.07.47-.63-2.07c-.74-2.47-2.23-5.03-3.89-7.12l-5.13-3.7,1.45-6.26-5-2.52-3.83-1.15-8.46-3.11-1.2-2.27-.82-1.7-2.9.35-.85,3.66-1.68,1.2-2.64.09-.84-1.83-2.4-.74-.08-12.74h40.93v-.02Z"/>
    <path class="cls-29" d="M450.66,326.35l-.61,2.46c-1.56-1.03-2.23-1.47-2.13-1.4l-4.51-.05.42-4.19-3.64-3.78-3.86-1.99-3.57,1.26-1.87-2.94-3-2.69-3.91.32-4.37-2.67-4.2-1.3-3.16-3.2-2.44-1.6v-4.94l2.39.74.84,1.83,2.64-.09,1.68-1.2.85-3.66,2.9-.35.82,1.7,1.2,2.27,8.46,3.11,3.83,1.15,5,2.52-1.45,6.26,5.13,3.7c1.65,2.09,3.15,4.65,3.89,7.12l.63,2.07,2.07-.47h-.03Z"/>
    <path class="cls-6" d="M1145.44,413.18l.06,5.8-2.01.09v9.82l1.99.09.03,7.81-2.56,2.67-.43,5.04-1.32,2.19.54,4.02.29,5.22,1.58,3.05-1.1,2.83,2.3.3c-.33,1.73-1.13,3.82-2.2,6.04l-10.04-.05-3.11-6.49-.11-9.73-2.55-4.19-2.28-1.69-1.91-1.05-4.85.63-2.65.36-.57-2.58c-.2.24.16-.18,1.52-1.78l-.72-5.98-4.79-.73-1.66-5.08.8-3.43,1.28-5.03-.2-2.44-.7-5.22-1.15-2.26-2.48-.35-.21-12.08v-5.98l.03-7.99-.11-12.01,4.69.17,4.9,2.23,2.52,1.78,3.41-1.53,5.8-.19-.79,5.98-2.11,1.71.19,4.63,1.87,2.09,2.67,2.99,4.44,6.02,5.81,3.5,4.1,4.65.13,2.95-.13,2.37,1.79.84h0Z"/>
    <polygon class="cls-13" points="1106.45 411.05 1106.25 426.99 1106.44 432.86 1104.22 432.81 1104.12 436 1103.62 441.76 1103.21 443.9 1101.32 444.58 1098.21 445.2 1095.14 443.67 1091.94 443.99 1090.35 442.14 1088.78 434.96 1087.63 432.05 1085.4 425.08 1084.92 421.71 1083.07 418.97 1081.97 415.28 1078.58 410.9 1073.13 408.6 1070.31 407.13 1067.59 410.59 1066.61 415.17 1066.76 421.56 1067.56 425.82 1067.92 433.49 1071.91 438.23 1077.2 439.63 1076.48 442.92 1074.91 445.35 1071.1 444.88 1067.27 448.61 1065.48 450.46 1065.06 447.99 1065.33 425.98 1065.3 413.98 1065.12 389.06 1085.6 389.09 1086.06 387.76 1088.34 387.97 1088.57 391.68 1089.87 393.19 1094.55 397.84 1099.33 405.25 1101.28 406.52 1104.53 410.42 1106.45 411.05"/>
    <path class="cls-16" d="M1146.77,401.81l.52,6.26-.85.87-1.16,1.61.17,2.63-1.79-.84.13-2.37-.13-2.95-4.1-4.65-5.81-3.5-4.44-6.02-2.67-2.99-1.87-2.09-.19-4.63,2.11-1.71.79-5.98-5.8.19-3.41,1.53-2.52-1.78-4.9-2.23-4.69-.17.2-2,3.41-.53,1.05.49,13.68.04,4.61.44c1.24-.65,3.21.66,3.94,2.1l-1.53,4.42-2.31,5.33,3.57,11.36,2.4,1.75,1.63,2.55,4.03-.77,5.92,3.66v-.02Z"/>
    <polygon class="cls-16" points="1145.53 436.79 1145.28 455.41 1144.97 459.12 1144.82 462.1 1142.53 461.8 1143.63 458.97 1142.05 455.92 1141.75 450.7 1141.21 446.68 1142.53 444.49 1142.96 439.46 1145.53 436.79"/>
    <polygon class="cls-16" points="1145.51 418.98 1145.49 428.98 1143.5 428.89 1143.5 419.07 1145.51 418.98"/>
    <path class="cls-29" d="M401.53,429.99l-12.2.1-.06,61.4-20.46-.05-.11,14.55.25,26.46-20.6.04v40.74l-19.13-.25,1.97-2.88,3.49-2.81-.09-4.2-2.75-4.84-.51-5.02c.44.85-.69-1.33-1.07-2.07l-2.98-.6-1.36-3.25.28-3.88c.44-1,1.64-2.91,2.56-4.03l.5-1.53-4.14,1.19-.82-3.77,1.54-1.69-.73-1.23,2.63-.97-.09-22.44-.05-5.99.32-5.36,3.62-1.71,3.21,1.85,2.36,3.18,3.53,1.16,1.46,2.67,2.07-.43.28,3.69.76,4.23,7.87,4.8,1.75,1.99c1.11.84,3.6,1.94,4.54,1.86l2.83,6.38,1.32,1.37,2.41-.08-.13-2.79.32-6.09-.15-7.08c1.04-4.44,1.74-9.55,1.46-14.27l-.31-2.48-.04-4.41,1.25-2.66,1.86-3.34-2.81-2.64-2.14-3.66-1.71-3.55-4.87-.91-2.33-4.15-5.05-2.13-1.52-2.69-3.82-1.8-2.73-.39-2.06-3.93-.36-3.6,1.28-2.38,8.54.41,2.63-.43,3.51.43,4.14-.66,5.56-.53,3.77-1.56,3.07-.5,3.19-.28,3.23-3.29-.12-4.24-.65-6.12-1.44-2.02-3.87-6.13-1.76-4.43-3.09-2.1v-13.17l.15-11.42,1.89.02,2.76-2.4,3,5.72.18,2.66,1.93,5,3.11,2.13h2.05l.78-1.48,3.07.23.77,3.13,4.03,2.24.21,3.81,5.49,3.16,1.89,3.78.69,2.69.78,1.73h-.03Z"/>
    <path class="cls-29" d="M307.5,683.11v12.93l-8.04.67-10.95.36-1.01-.1.05-1.98,12.96-.03,5.29-1.08-.72-8.97-3.44-4.32c-1.54-2.28-2.69-4.49-3.42-7.72l-2.3-3.05c-3.46.51-4.64-1.07-5.83-3.36l-.88-3.23.74-3.37-1.56-4.52-1.8.71.05-29.04,2.26-.34.38-2.87-2.4-.94-.15-7-.31-.51,2.67-1.58,4.31.42-.27,7.32c-1.61,1.48.19,4.97,2.2,4.06l2.89,1.38,3.15.39,3.67.39,5.41,3.57,5.67,1.36,2.78-1.88,1.61,1.63,3.67.56,1.3-3.37.03-40.62-.74-3.82.87-5.25.95-4.08.73-1.97.53,5.12-.25,13.99-.02,31.94.26,9.88-20.28.09-.02,48.19-.04.04Z"/>
    <path class="cls-27" d="M82.1,1010.92l.1,8.06-.03,14.99-.05,8.13-4.03,1.22-7.05,2.17-7.7.86c-1.2.1-3.75.12-4.82,0l-5.43-1.78-4.36-3.58-.73-2.99-1.57.1-2.46,2.37-.57-7.44v-20.11l.1-4.74,1.8-.25.69,5.48,1.83.61,1.03-5.03.96-4.69,2.17-3,2.95-1.84,2.85-2.33c5.07-.92,10.39.85,14.09,4.37l2.59,5.95,4.36,3.19,3.26.27h.02Z"/>
    <polygon class="cls-10" points="286.64 627.01 286.87 622.87 289.27 623.81 288.89 626.68 286.64 627.01"/>
    <polygon class="cls-16" points="1302.01 819 1308.5 819.1 1309.76 819.2 1310.78 819.95 1310.93 899.19 1310.36 901.97 1309.52 906.99 1309.49 941.98 1270.41 942.02 1270.07 937.94 1270.19 888.01 1270.28 866.98 1270.22 853.98 1270.23 830.99 1270.35 819.2 1300.53 819.14 1302.01 819"/>
    <path class="cls-5" d="M1267.37,941.97l-38.02.02-.61,15.03.2,25.98.16,39.05-.47,1.33-1.07.64-39.6-.14-.09,39.23-.48,1.88-31.88-.07-2.93.1-3.96.03-1.3,1.02v33.91l.41,3.17-1.04,2.54-2.91.19h-4.25l-33.02.08-.08,10.19.13,28.85-1.43,1.6-8.03.08-31.79.28.16,40.87-37.99.06-3.14.89.14,40.01-.22,3.19.13,35.23c-.31.84-1.17,2.22-1.75,2.77l-4.83.25c1.07,1.18.3.33-.54-.6h-28.8l-1.46.26-3.58.21.24,39.01-1.98,1.7-39.3-.05-.02,40.44-1.81.57-15.99-.06-21.45-.14-1.76,2.13.02,29.34.08,7.99-1.86,1.85-30.07-.22-9.05.29.04,39.14-.98,1.83-6.98-.24-32.95-.02v39.39l-.57,1.11-1.34-.05-35.84.02-2.87.74-.58,3.07.09,18.22-3.06-2.11-1.09-2.8-7.54-7.31-2.69-1.44-1.8-1.33-1.1-2.78,1.94-2.44,12.87.2,2.38-1.97-.05-40.66,20.48-.03.06-20.4,20.71-.05.02-20.38h20.1l.06-20.51,20.63-.09v-20.41l20.35-.04.12-20.39,20.44-.09.03-20.36,20.46-.15.08-41.03h20.37l.07-20.34,20.36-.13.05-20.32,20.61-.06v-20.43l20.32-.1-.02-20.42,20.55-.02v-40.93l20.59-.13.04-20.39,20.39-.03.11-20.42,20.38-.05.06-20.53h20.43l.13-20.41,20.37-.04.04-40.94,20.49-.07v-20.47l20.44-.09-.07-20.4,20.29-.06v-30.83l-.13-1.07.2-8.96,20.57-.04-.04-16.88.07-2.05,19.67-.05,2.29-1.23.06-7.65-1.88-.18.1-5.78,1.76-.21v-7.82l-1.98-.17.41-1.02.13-27.09,1.87.56.16,2.9,1.13,3.11-.41,3.2-1.31,4.21,2.24,5.87c-.27,1.68-.47,2.91-.42,2.57l2.44,5.12,2.15,2.31,2.71-.2,4.8,2.79,4.16,1.94,4.51,1.79.71,4.18,3.93,1.59,3.9,1.65.35,4.74c-2.57,3.05.03,6.31,2.07,8.2l1.9,4.18,1.95,2.24.24,5.64-.77,1.59h-.07Z"/>
    <path class="cls-4" d="M1104.49,1187.79l.06,34.31c.32,1.81-.42,4.25-1.8,4.89l-37.36.1.06-39.27,39.03-.04h0Z"/>
    <polygon class="cls-16" points="1143.76 1105.87 1144.95 1108.98 1145.26 1113.62 1144.51 1119.61 1143.6 1121.66 1143.93 1129.08 1144.65 1132.06 1145.64 1139.91 1144.8 1143.86 1140.53 1144.99 1106.54 1144.99 1106.41 1116.14 1110.07 1113.84 1112.14 1114.21 1114.98 1116.4 1119.05 1115.15 1120.34 1110.84 1124.75 1110.95 1127.38 1112.4 1131.57 1110.97 1135.99 1110.39 1139.51 1105.87 1143.76 1105.87"/>
    <path class="cls-16" d="M1152.57,1065.01l-.73,1.43,3.78,4.16,3.14,1.9,2.49,3.19,3.91,1.89,3.97,2.09,1.05,1.96,2.53,2.93c.72.43,1.99,1.18,1.56.92l1.61,4.58.46,6.5,4.48,2.22,2.2.94,2.93,1.33-2.16,2.98-33.81-.07-2.29-.84-.4-3.17v-33.91l1.29-1.02,3.96-.03.03.02Z"/>
    <path class="cls-14" d="M1155.51,1064.91l-.16,2.19,6.15.85,4.9.81,3.47-.07,2.44,1.06,4.1-.07,2.42-1.19,3.34,1.78.76,4.95c-.4.38-1.55,1.46-1.2,1.12l.35,3.28c.5,2.5,1.62,4.91,3.71,7.49l.17,13.96-2.93-1.33-2.2-.94-4.48-2.22-.46-6.5-1.61-4.58c.43.26-.83-.49-1.56-.92l-2.53-2.93-1.05-1.96-3.97-2.09-3.91-1.89-2.49-3.19-3.14-1.9-3.78-4.16.73-1.43,2.93-.1v-.02Z"/>
    <path class="cls-14" d="M1157.47,1165.21h-6.9l-1.43-4.91.31-4.58c-.02-2.27.55-4.86,1.63-6.56l14.45-.22.23,13.14-.29,2.96-7.99.17h0Z"/>
    <polygon class="cls-14" points="368.84 389.98 368.89 397.56 368.73 408.98 368.74 422.15 368.83 428.98 367.22 429.17 364.71 427.81 362.44 427.01 360.23 424.22 358.86 422.09 358.49 416.84 356.67 411.95 355.47 409.75 357.95 406.06 355.18 402.22 353.08 398.31 354.53 395.68 352.62 393.5 350.84 392.85 347.66 393.28 344.77 389.17 350.35 387.78 354.81 388.64 357.48 389.87 362.12 390.35 364.98 391.97 367.16 390.14 368.84 389.98"/>
    <path class="cls-26" d="M368.75,370.92l-1.29-.95,1.29.95Z"/>
    <path class="cls-23" d="M1059.41,122.78h-75.86l-.85.05-.37-5.57-1.43-2.09-5.36-1.07-7.25-.53-2.62-.89-3.47-.15-2.21-2.52-5.54-.47-.84,2.44-1.69,1.75-5.5-1.62-5.12.05-3.67.16-2.99-.35-6.09-1.05-1.42,2.63,1.06,1.69,2.36,1.85,2.76,1.11,1.26,4.09-2.11.45-23.99.06-1.33-.32-2.95-6.51-.76-5.87.1-20.62,4.25-2.8,2.92,3.33,1.27,1.71,3.77.56,2.68-.45,4.01,1.87,2.61.14,4.09-4.36c-.98-2.98,1.14-5,3.35-5.48h66.8l1.6,1.8,2.23,1.33,3.72.55,5.62.47,1.68,1.9,3.42-.65,3.12.52,6.84.17,3.49-.47-.37,2.93.81,2.51-.05,2.52-2.48.3-.98,1.18-1.86,1.81-5.29-.79-2.81-.07-3.8,1.51-5.33-3-3,1.65-2.32,2.07.27,2.64,1.22,2.98,2.94,1.27,3.18-.5,3-1.6,1.98.4,5.74.52,1.44-2.78,3.18-.22,5.47-.18,4.5-1.36,2.24-4.97-.14-3.86c-.11-1.72-1.59-3.87-3.27-4.94l-.38-1.54,3.44-3.33,1.07-2.23-.38-2.96,2.1-1.92,1.81-5.88,2.2-3.36-1.46-4.4-6.22-1.14-4.11-4.18c-.3-2.08-.38-3.53-.11-5.85l-1.1-3.39.38-2.45.52-2.6,2.48.12,1.2-1.51,24.03-.11,2.15,2.13.62,3.95.03,56.92-.76,7.7-3.05,3.62-.94,1.52.65,3.99-.03.04Z"/>
    <path class="cls-26" d="M1147.2,368.89l-.22,31.1-.21,1.82-5.92-3.66-4.03.77-1.63-2.55-2.4-1.75-3.57-11.36,2.31-5.33,1.53-4.42c-.74-1.44-2.71-2.75-3.94-2.1l-4.61-.44-13.68-.04-1.05-.49-3.41.53.06-2.12,15.08-.07,13.99-.16,7.02.07,4.69.19h-.01Z"/>
    <polygon class="cls-22" points="614.54 1681.01 614.46 1679.44 615.53 1679.29 615.51 1680.51 614.54 1681.01"/>
    <path class="cls-5" d="M341.11,459.58l2.06,3.93,2.73.39,3.82,1.8,1.52,2.69,5.05,2.13,2.33,4.15,4.87.91,1.71,3.55,2.14,3.66,2.81,2.64-1.86,3.34-1.25,2.66-2.41.3c-2.69-.66-5.44-2.6-6.45-4.94l-1.29-1.79-1.85.63,3.18,6.51c-.03,1.82-.33,4.62-.67,6.26l-1.99,2.36.52,3.15-2.32.86-1.21,4.39-2.52-1.84-5.61.68-.28-3.69,2.6-.13,2.86.62,1.09-2.59.66-3.2-.83-4.66-3.51.15-2.76.4-.84-2.84-.48-4.74,4.09-1.73,1.84-3.18,2.58-4.12-1.96-4.41-2.42.02-1.62-2.01-.8-2.3-8.37-9.31-3.88-3.43,6.46,1.81,2.25.89v.03Z"/>
    <polygon class="cls-17" points="735.55 1597.34 735.64 1617.98 735.54 1637.05 696.51 1636.95 696.52 1597.3 735.55 1597.34"/>
    <polygon class="cls-4" points="817.55 1515.07 817.56 1554.91 778.51 1555.07 778.34 1540.02 778.46 1516.22 780.4 1515.46 812.51 1515.37 817.55 1515.07"/>
    <path class="cls-4" d="M694.81,1638.34l.06,9.3c.35,3.18.31,6.5-.12,9.76l-.1,13.32c.92,2.13.49,4.97-.71,6.39l-38.18-.06-.09-37.04.68-1.59,38.47-.07h0Z"/>
    <polygon class="cls-17" points="748.01 1556.13 749.43 1556.35 776.89 1556.37 776.56 1561.97 776.54 1594.97 768.48 1595.16 737.38 1595.11 737.39 1557.09 742.46 1556.3 748.01 1556.13"/>
    <path class="cls-16" d="M745.8,1514.92l.37,1.83,4.73,1.84,5.36,1.67,3.6,6.38c2.07,2.34,4.49,4.4,7.23,5.9l4.52,2.93.79,3.26,5.94,1.3.17,15.05-1.61,1.3-27.46-.02-1.41-.22-.52-1.68-2.03-.34-1.87-3.27-3.91-4.16-2.26-.7.03-28.94,1.64-.03.52-1.89,6.19-.2h-.02Z"/>
    <polygon class="cls-14" points="1267.37 941.97 1270.41 942.02 1270.02 943.98 1269.98 981.24 1268.77 983.13 1256.5 982.87 1228.95 982.99 1228.74 957.01 1229.35 941.99 1267.37 941.97"/>
    <polygon class="cls-17" points="1227.56 1024 1227.66 1052.97 1227.48 1063.02 1187.87 1063.09 1187.96 1023.86 1227.56 1024"/>
    <polygon class="cls-17" points="1309.49 941.98 1309.53 981.07 1269.98 981.24 1270.02 943.98 1270.41 942.02 1309.49 941.98"/>
    <polygon class="cls-23" points="1268.77 983.13 1268.52 986.97 1268.53 1022.01 1229.1 1022.04 1228.95 982.99 1256.5 982.87 1268.77 983.13"/>
    <path class="cls-4" d="M613.61,1720.2l-.16,37.9c-1.59.6-3.96,1.01-5.91,1.06h-33.78l-.03-38.85,39.88-.11h0Z"/>
    <polygon class="cls-16" points="817.69 1474.1 817.55 1515.07 812.51 1515.37 780.4 1515.46 778.46 1516.22 778.44 1514.96 778.48 1496.15 778.4 1477.93 778.98 1474.86 781.85 1474.12 817.69 1474.1"/>
    <polygon class="cls-26" points="859.52 1433.91 859.44 1469.61 858.39 1472.97 819.6 1473.05 819.6 1433.65 852.54 1433.67 859.52 1433.91"/>
    <polygon class="cls-26" points="899.59 1392.86 899.65 1432.03 868.51 1432 860.5 1432.08 860.46 1392.93 869.52 1392.64 899.59 1392.86"/>
    <path class="cls-26" d="M940.55,1351.76l.09,36.38c.11,1.34-1.58,2.92-3,2.88h-36.2l-.08-8-.02-29.34,1.76-2.13,21.45.14,15.99.06h.01Z"/>
    <polygon class="cls-16" points="1065.45 1187.82 1065.39 1227.09 1063.58 1228.99 1024.47 1228.78 1024.33 1188.77 1027.47 1187.88 1065.45 1187.82"/>
    <polygon class="cls-23" points="1063.58 1228.99 1063.49 1262.99 1062.82 1266.64 1059.52 1267.47 1056.47 1267.18 1028.5 1267.3 1024.38 1267.2 1024.25 1231.97 1024.47 1228.78 1063.58 1228.99"/>
    <path class="cls-23" d="M986.99,1269.89l-.52,2.5,1.73,1.9,5.01,4.65,6.22.49,3.71,6.99,2.11,3.23,2.76.96c2.05.09,4.49,1.79,4.03,4.54l3.96,6.09,3.78,3.6,3.17.27-1.62,3.86-37.69.13-.24-39.01,3.58-.21h.01Z"/>
    <path class="cls-4" d="M1022.63,1269.97l-.15,31.97.49,3.17-3.17-.27-3.78-3.6-3.96-6.09c.46-2.75-1.99-4.45-4.03-4.54l-2.76-.96-2.11-3.23-3.71-6.99-6.22-.49-5.01-4.65-1.73-1.9.52-2.5,1.46-.26h28.8c.84.93,1.61,1.78.54.6l4.83-.25h-.01Z"/>
    <polygon class="cls-17" points="1309.5 761.98 1309.5 777.98 1307.5 777.87 1307.5 762.09 1309.5 761.98"/>
    <polygon class="cls-17" points="1309.5 793.98 1309.5 802.98 1307.5 802.89 1307.5 794.07 1309.5 793.98"/>
    <polygon class="cls-17" points="1309.5 780.98 1309.5 788.98 1307.5 788.9 1307.5 781.06 1309.5 780.98"/>
    <polygon class="cls-17" points="1294.5 738.98 1294.42 740.98 1286.58 740.98 1286.5 738.98 1294.5 738.98"/>
    <polygon class="cls-17" points="1309.48 805.98 1309.56 813.99 1307.5 813.9 1307.5 806.06 1309.48 805.98"/>
    <polygon class="cls-17" points="1280.5 738.98 1280.45 740.97 1276.55 740.97 1276.49 739.01 1280.5 738.98"/>
    <polygon class="cls-17" points="1309.22 742.52 1308.03 741.02 1305.89 739.33 1309.56 738.88 1309.22 742.52"/>
    <polygon class="cls-17" points="1309.76 819.2 1308.5 819.1 1309.81 817.88 1309.76 819.2"/>
    <path class="cls-11" d="M1044.51,962.92l-19.16-.37-1.17,2.31.05,18.03h-20.43l-.1,20.33-20.28.12-.11,20.47-20.63.09-.02,40.98-20.46.04.13,20.16-20.41.26-.38,20.56h-20.1l-.15,20.46h-20.51l.03,20.37-20.5.14.07,40.96-20.49-.03-.16,20.48-20.23.07-.04,20.37-20.58.11-.12,20.35-20.25.11-.1,20.28-20.49.12.05,38.37-.99,2.74-19.57-.08.03,20.5-20.61.03v20.43l-20.32.04-.02,20.33-20.51.07.02,20.47-20.27.09-.27,20.33-20.21.08-.08,20.49-20.46.06-.13,40.7-20.43.19.05,20.48-20.55-.1v-61.14l-19.3-.27-.78-.78-.32-.74.07-39.23,20.05.2.33,2.02v18.17l20.47-.12.04-61.2-19.76-.1-.81,2.42v-43.25l19.8-.11.54.3.23,1.08.08,19,18.73.18,1.7-2.25-.04-79.91,20.55.07.03-81.19-1.87-.87,1.79-.18,4.31.41,16.21-.13-.04-61.36,18.95-.02,1.38-1.8v-37.08l-.52-2.12.41-1.85.1-41.39.11-4.64v-7.97l-.07-5.65h-15.79l-403.4-.07-10.15-.13-.74-3.09.11-5.47.06-9.67.51-1.89,19.74-.18v-38.9l.6-2.08,3.53.08,15.13.07,1.3-.9-.06-33.16v-2l.04-2.02-.04-2.39,1.57-.57,8.1.04h8.03l2.48-.04.44-2.03v-59.2l20.31-.26.02-40.84,18.79.05,1.77-.27.03-2.47-.05-58.64,20.51-.25.14-38.16,1.18-2.8,17.78.1,1.67-1.56-.33-2.66.04-20.04v-25.98l.05-11.07h19.19l1.15-.87.04-39.09,1.29-1.26,2.39.28,2.08-.07,2.02.03,2,.08,2-.08h4.01l2.01.11,2.48-.16.3-1.87v-13.04l-.1-43.09,1.65-3.51,16.79.16,1.99-.03.07-2.52.04-38.39,20.61.02-.02-61.61,18.59.05,1.74-1.89-.05-58.25,2.61-1.39,16.56.16,1.35-1.63-.03-33.07-.11-25.06,1.09-1.83,14.54.03,2,.17,2.92-.71.15-2.57.05-36.89,1.76-.89,18.16-.23.4-20.4,469.15-.02,2.09.77-.26,2.77.03,14.94-.68,2.12-19.74.12v20.36l-20.36.15-.05,40.82h-19.23l-1.37,2.16.09,37.29-2.01,1.33-15.3.07-2.91.96-.26,2.47.08,16.34-1.69.78-18.9.03.04,39.29c-.37.31-2.23,1.46-2.86,1.8l-15.95-.36-1.63,1.95.06,37.47-1.2,1.86-18.29-.25-1.08,1.88.02,18.77-20.56.05.07,38.61-1.3,2.3-19.36.02.18,17.69-1.01,2.83-19.44.05.02,40.7-20.59.29-.14,40.86-20.27.02-.1,18.15-.37,2.01-2.44.19-17.54.05.1,12.72-.04,28.24-20.61.05-.07,20.45-20.5.07.06,39.29-1.24,1.48-19.17.14-.04,40.87-20.6.14.02,20.4,20.67.09-.13,19.14,1.37,1.24,424.41-.02,4.48.86-.1,19.62-17.17-.04-3.26.75v19.76l-20.45.14-.08,20.29h-17.23l-3.16.76.05,19.65-20.56.13.03,39.44-.25,1.97-.07-.05ZM471.45,695.99l-20.72.18-.03,40.84-20.38.13-.12,41.01h-20.47l-.11,61.53-20.11.12-.05,61.18-20.62.07.04,81.93h368.57l.04,102.08-18,.11-2.12.29-.52,2.52.02,32,.02,25.03-.41,1.88-19.91.1-.05,82-19.58-.31-1.14,5.18.12,14.12.04,19.03.51,3.13-.5,2.91-.02,10.96.23,6.05,20.38.08v-18.21l.2-2.07.8-.11,19.26-.18.02-20.44,20.63-.03.04-19.05-.1-.83.07-20.9,20.36-.15.31-20.34,17.44.02,2.92-.59.07-18.32,1.66-1.37,4.27-.47,11.04.29,2.5-.33.91-3.01-.23-17.15,20.69-.07.15-17.86-.25-2.44.11-3.52.12-17.17,20.21-.1.03-11.79-.12-8.81,18.97.08,1.72-1.12-.05-19.11,20.43-.04-.03-20.51.16-20.61,20.58.12-.05-20.68,20.21-.11.13-20.19,20.48-.04.16-20.17,19.57-.2.77-2.55-.05-38.15,17.77-.21,2.61-.63.33-3.01.03-36.04-2.14-1.36h-254.31l-4.84-.03-107.54.05v-20.55h-20.09s-.39-2.09-.39-2.09l.03-37.01.38-2.12,1.01.27,19-.12v-19.94l.03-21.11,20.7.27.19-20.4,19.98-.18.12-17.69-.35-2.37.38-2.58.04-18.2h16.89l3.01-.34.72-3.19-.18-17.25-.15-20.25,20.68-.07-.09-20.65,9.96.23,10.33-.16-.11-19.72.22-3.4-.03-17.89,19.75.22.84-2.28-.04-17.92.03-21.2,1.94.22,15.41.19,3.09-1.64.1-10.12.4-8.54,20-.13.05-20.65-.04-20.33,20.29-.04.1-20.11,18.61-.1,2.11-2.37-.2-18.11.14-20.35,20.17-.24-.03-20.2.19-3.41-.04-17.28,20.61-.08v-20.6l20.31-.03.04-12.04-.03-7.96.2-21.04,20.51.06.05-39.31c-.26-.25-1.22-.96-2.17-1.61l-284.66.03-.11,20.5h-17.14l-3.19,1.29.02,38.07-.05,22.05-20.53.05-.02,39.99-1.96.88-18.27.07v24.98l-.16,36.24-6.67.52-13.23-.06-.74,2.21.06,38.22-16.34.08c-1.09.3-3.04,1-4.05,1.47v37.36l-.11,6.86.26,14.26-1.75,1.76-19.04.02v40.89l-20.23.13.08,61.02.03-.02Z"/>
    <polygon class="cls-11" points="716.42 1372.35 716.89 1373.93 716.5 1392.76 698.46 1392.62 696.53 1393.12 696.47 1372.02 716.42 1372.35"/>
    <path class="cls-3" d="M1065.41,225.19l-.19,20.36-20.5.19v41.1l-20.55-.1-.06,20.34-20.45.07-.04,40.9-20.3-.04.04,20.6-19.9-.02-.78,1.4v39.14l-.04.81-1.22-.39-19.15.17v41.01l-20.41-.16-.28,20.35-20.21.05-.02,40.97-20.49-.06.04,18.16-1.1,2.47-19.51-.09.18,40.81-20.72.04-.03,40.83-20.3.3v20.55l-20.6-.1v41.13l-20.42-.18v20.47l-20.29-.07v40.84l-20.69.16.08,40.95-18.93.08-1.62-.3-.04,1.07-.1,38.97.58,1.14,19.95-.04h61.29l37.96-.05,120.92.03,136.93-.04,73.03.07.13,20.53-20.27.13v20.31l-20.6.06-.02,40.87-20.38.12-.11,20.22-3.65.37-16.82-.06-.11,20.37-20.32.03v20.58l-18.83-.05-1.95.37.25-1.97-.03-39.44,20.56-.13-.05-19.65,3.16-.75h17.23l.08-20.3,20.43-.14v-19.76l3.27-.75,17.17.04.1-19.62-4.48-.86-424.41.02-1.37-1.24.13-19.14-20.67-.09-.02-20.4,20.6-.14.04-40.87,19.17-.14,1.24-1.48-.06-39.29,20.5-.07.07-20.45,20.61-.05.04-28.24-.1-12.72,17.54-.05,2.44-.19.37-2.01.1-18.15,20.27-.02.14-40.86,20.59-.29-.02-40.7,19.44-.05,1.01-2.83-.18-17.69,19.36-.02,1.3-2.3-.07-38.61,20.56-.05-.02-18.77,1.08-1.88,18.29.25,1.2-1.86-.06-37.47,1.63-1.95,15.95.36c.63-.34,2.49-1.5,2.86-1.8l-.04-39.29,18.9-.03,1.69-.78-.08-16.34.26-2.47,2.91-.96,15.3-.07,2.01-1.33-.09-37.29,1.37-2.17h19.23l.05-40.82,20.37-.15v-20.36l19.74-.12.68-2.12-.03-14.94.26-2.77-2.09-.77-469.15.02-.4,20.4-18.16.23-1.76.89-.05,36.89-.15,2.57-2.92.71-2-.17-14.54-.03-1.09,1.83.11,25.06.03,33.07-1.35,1.63-16.56-.16-2.61,1.39.05,58.25-1.74,1.89-18.59-.05.02,61.61-20.61-.02-.04,38.39-.07,2.52-1.99.03-16.79-.16-1.65,3.51.1,43.09v13.04l-.3,1.87-2.48.16-2.01-.11-2.01.02h-2l-2,.06-2-.08-2.02-.03-2.08.07-2.39-.28-1.29,1.26-.04,39.09-1.15.87h-19.19l-.05,11.07v25.98l-.04,20.04.33,2.66-1.67,1.56-17.78-.1-1.18,2.8-.14,38.16-20.51.25.05,58.64-.03,2.47-1.77.27-18.79-.05-.02,40.84-20.32.26v59.2l-.43,2.03-2.48.05h-8.03l-8.1-.05-1.57.57.04,2.39-.03,2.02v2l.05,33.16-1.3.9-15.13-.07-3.53-.08-.61,2.08v38.9l-19.73.18-.51,1.89-.06,9.67-.11,5.47.74,3.09-1.21.3-20.16-.24.12-38.26.97-2.67,4.16.63,14.8.09.55-2.05-.07-15.96.07-3.05.05-40.94,20.22-.11.29-12.95.03-1.91-.04-16.05-.17-9.92h20.68l-.23-29.09-.19-29.95.15-2.03,12.83-.13,7.93-.25v-40.94l20.38-.14-.21-18.56-.08-17.97.09-2.02.04-3-.09-4.01.22-15.66,20.51-.13.04-40.88,20.47-.23.04-61.19,20.48-.04.03-40.9,20.31-.07.08-61.27,20.51-.2.04-40.7,20.4-.18-.06-61.53h19.02l1.69-.94v-60.3l20.23-.2.1-40.82,20.36-.13-.03-41,20.69-.06.11-20.36,532.63.02v-.02Z"/>
    <polygon class="cls-19" points="1187.61 859.91 1187.79 862.01 1187.78 914.93 1187.81 918.05 1186.97 921.08 1175.53 921.18 1167.58 921.54 1167.55 942.03 1152.45 941.94 1147.18 942.56 1147.33 962.09 1142.53 962.3 1126.79 962.47 1126.67 1003.29 1106.31 1003.29 1106.17 1023.88 1085.75 1023.93 1085.64 1044.19 1065.32 1044.41 1065.27 1085.14 1044.81 1085.29 1044.78 1105.74 1024.3 1105.99 1024.18 1126.25 1003.77 1126.43 1003.66 1146.8 983.42 1146.87 983.44 1166.26 980.66 1167.29 962.75 1167.33 962.63 1208.15 942.44 1208.34 942.2 1228.75 921.89 1228.88 921.74 1249.11 901.46 1249.19 901.33 1269.61 880.9 1269.64 880.72 1290.1 860.44 1290.27 860.42 1309.98 859.49 1310.8 839.65 1310.87 839.73 1350.09 838.71 1351.67 820.2 1351.6 819.43 1354.91 819.49 1372.07 798.81 1372.14 798.8 1392.6 778.49 1392.8 778.39 1410.04 778.04 1412.97 757.79 1413.03 757.82 1431.4 755.96 1433.58 737.43 1433.47 737.37 1454.02 716.84 1454.06 716.82 1474.47 697.19 1474.35 696.55 1476.01 696.58 1514.23 694.69 1515.29 676.73 1515.33 675.91 1516.18 675.96 1528.36 676.24 1529.89 676.21 1535.25 674.82 1536.08 672.55 1535.93 657.43 1535.89 655.7 1536.51 655.58 1538.94 655.61 1554.03 655.03 1556.05 652.52 1556.4 650.51 1556.35 648.55 1556.34 635.7 1556.37 635.22 1557.88 635.37 1559.95 635.31 1561.97 635.33 1563.94 635.27 1573.05 635.6 1575.56 634.09 1577.21 631.62 1576.78 629.62 1576.94 616.01 1576.8 614.61 1578.75 614.65 1597.26 595.31 1597.34 594.14 1598.77 594.16 1617.97 587.5 1617.93 576.47 1617.92 573.98 1618 573.59 1620.9 573.68 1637.19 571.59 1638.37 553.29 1638.4 553.33 1652.04 553.27 1653.99 553.29 1656 553.31 1658.42 551.63 1659.06 549.54 1658.88 539.47 1658.95 537.49 1659.01 534.12 1658.78 532.69 1659.92 532.75 1677.04 532.41 1679.19 528.56 1679.87 526.53 1679.67 524.53 1679.72 519.47 1679.7 517.49 1679.69 515.47 1679.66 513.4 1679.84 512.2 1678.94 512.32 1638.39 529.52 1638.34 532.08 1638.01 532.74 1635.03 532.78 1617.97 553.16 1617.8 553.33 1597.38 572.53 1597.31 573.59 1595.99 573.6 1557.05 568.6 1556.23 567.65 1556.4 568.34 1555.17 569.99 1553.6 570.83 1550.47 569.1 1547.56 562.98 1540.64 562.9 1538.79 567.55 1538.27 569.41 1537.45 569.51 1535.9 573.59 1535.99 573.61 1556.28 594.13 1556.32 594.16 1540.96 594.51 1535.9 613.65 1535.92 614.62 1534.12 614.64 1515.39 635.16 1515.35 635.34 1495.84 637.39 1494.86 655.46 1494.96 655.53 1476 657.36 1474.43 676.19 1474.52 676.05 1457.87 677.08 1453.99 696.43 1453.85 696.54 1412.97 716.75 1412.95 716.85 1394.04 716.5 1392.76 726.49 1392.67 734.69 1392.49 737.41 1391.13 737.47 1372.18 757.76 1372.06 757.95 1351.7 778.35 1351.6 778.36 1331.32 788.45 1331.1 797.17 1331.33 798.85 1329.14 798.81 1290.08 819.44 1290.12 819.46 1269.98 839.69 1269.5 839.7 1251.88 840.4 1249.2 860.3 1249.08 860.23 1231.88 861.19 1228.82 880.7 1228.8 880.9 1208.17 899.65 1208.29 901.41 1207.04 901.47 1167.29 920.64 1167.18 921.82 1165.12 921.73 1146.86 942.31 1146.78 942.35 1128.7 944.12 1126.43 956.56 1126.29 962.7 1126.54 962.78 1105.97 982.73 1105.86 983.39 1102.99 983.4 1064.94 1003.75 1064.97 1003.74 1044.32 1024.09 1044.3 1024.23 1035.98 1024.53 1023.93 1044.78 1023.83 1044.74 1003.07 1064.92 1003.31 1065.34 998.02 1065.38 983.05 1085.64 982.84 1085.73 962.77 1093.5 962.44 1099.52 962.78 1106.18 962.05 1106.24 923.93 1106.5 922.01 1111.6 921.41 1126.57 921.23 1126.68 900.96 1147.16 900.95 1147.2 883.89 1147.92 880.87 1150.47 880.49 1160.43 880.63 1167.57 880.03 1167.5 862.93 1168.09 860.28 1170.47 859.99 1187.61 859.91"/>
    <polygon class="cls-28" points="225.29 1003.22 225.39 1023.35 229.44 1023.99 245.73 1023.8 246.01 1006.95 245.45 1003.46 246.65 1003.16 256.8 1003.29 660.2 1003.37 675.99 1003.36 676.06 1009.01 676.06 1016.97 675.95 1021.61 675.85 1063 675.44 1064.85 655.61 1064.95 655.57 1105.85 636.6 1105.85 635.54 1105.49 635.3 1103.99 635.27 1064.96 494.43 1064.95 206.76 1064.99 204.98 1062.04 205.1 1004.98 206.64 1003.61 208.91 1003.43 225.29 1003.22"/>
    <polygon class="cls-15" points="696.47 1372.02 696.53 1393.12 696.54 1412.97 676.23 1413.02 676.06 1433.57 655.55 1433.68 655.49 1453.98 635.33 1454 635.28 1474.27 614.67 1474.41 614.69 1494.92 594.18 1494.93 594.18 1515.17 573.61 1515.39 573.59 1535.99 569.51 1535.9 553.31 1536.03 553.21 1555.01 553.56 1556.28 553.28 1556.97 553.24 1576.91 532.6 1576.86 532.7 1555.96 532.74 1515.69 553.15 1515.25 553.27 1477 553.42 1465.92 553.43 1462.05 553.52 1433.99 553.56 1432.67 554.33 1433.45 573.64 1433.73 573.63 1494.87 594.18 1494.97 594.13 1474.49 614.56 1474.31 614.69 1433.61 635.15 1433.54 635.23 1413.05 655.44 1412.98 655.71 1392.64 675.98 1392.55 675.96 1372.09 696.47 1372.02"/>
    <polygon class="cls-15" points="921.54 1105.89 921.88 1107.05 921.88 1146.84 901.42 1146.88 901.47 1167.29 880.83 1167.27 880.73 1187.8 860.4 1187.89 860.42 1208.26 839.77 1208.33 839.68 1228.81 819.53 1228.92 819.46 1269.98 817.57 1269.66 801.41 1269.57 798.9 1270.51 798.95 1290.2 778.4 1290.28 778.4 1310.74 757.92 1310.81 757.9 1331.14 737.44 1331.2 737.43 1351.67 716.88 1351.65 716.84 1370.98 716.42 1372.35 696.47 1372.02 696.49 1351.69 716.81 1351.65 716.82 1331.23 737.43 1331.2 737.4 1310.7 756.97 1310.78 757.96 1308.03 757.91 1269.67 778.4 1269.55 778.49 1249.28 798.75 1249.16 798.87 1228.81 819.45 1228.7 819.49 1208.33 839.73 1208.27 839.88 1187.79 860.38 1187.82 860.31 1146.86 880.81 1146.72 880.78 1126.34 901.29 1126.35 901.44 1105.88 921.54 1105.89"/>
    <polygon class="cls-12" points="567.65 1556.4 568.6 1556.23 573.6 1557.05 573.59 1595.99 572.53 1597.31 553.33 1597.38 553.16 1617.8 532.78 1617.97 532.74 1635.03 532.08 1638.01 529.52 1638.34 512.32 1638.39 512.2 1678.94 508.58 1679.31 492.2 1679.29 491.58 1675.98 491.72 1638.46 512.28 1638.16 512.22 1578.99 512.55 1576.95 532.6 1576.86 553.24 1576.91 553.28 1556.97 553.56 1556.28 567.65 1556.4"/>
    <polygon class="cls-15" points="633.37 1167.14 635.24 1168.01 635.21 1249.2 614.66 1249.14 614.71 1329.04 613 1331.29 594.28 1331.11 594.2 1312.11 593.97 1311.03 594.25 1308.95 594.23 1251.02 594.54 1248.76 595.54 1249.18 614.6 1249.11 614.76 1230.93 614.42 1228.83 614.72 1226.95 614.7 1167.96 616.01 1168 616.61 1167.17 633.37 1167.14"/>
    <polygon class="cls-15" points="573.36 1392.9 573.44 1391.94 574.88 1390.08 573.6 1386.95 573.57 1381 574.82 1377.98 573.56 1374.97 573.58 1371 574.65 1369.48 573.61 1367.96 573.64 1354.08 574.44 1351.66 594.2 1351.76 594.16 1412.96 573.68 1413.08 573.69 1394.91 573.36 1392.9"/>
    <polygon class="cls-15" points="675.44 1064.85 675.96 1066.97 675.96 1104.05 674.58 1105.85 655.63 1105.88 655.67 1167.24 639.47 1167.37 635.16 1166.96 635.3 1108.02 635.54 1105.49 636.6 1105.85 655.57 1105.85 655.61 1064.95 675.44 1064.85"/>
    <path class="cls-7" d="M1186.97,921.08l-.67,1.94-14.82-.19-2.24.52-.49,2.51-.27,5.35,2.24,3.55,2.98,5.24c.8,2.19,1.57,4.61,2.02,6.87-.2,1.18-.06,1.69.15,2.25l3.95-.48,4.13,1.85,3.74.4.14,1.07v30.83l-20.3.06-3.39-2.6-1.8-4.04-.17-6.24-1.08-5.68,1.08-1.36,4.39-1.84,5.36-.85,1.89-7.89,1.31-3.18-3.52.34-1.31,2.5-3.57,1.49c-1.85,1.94-2.86,2.68-6.96,2.64l.47,7.09-2.76,1.61c-1.33-.39-3.38-1.38-5.46-2.64l-4.68-.16-.16-19.53,5.27-.62,15.09.09.03-20.49,7.95-.36,11.44-.1.02.05ZM1173.13,967.85l-.76-2.73-5.19.17,2.1,3.14,3.85-.58h0Z"/>
    <path class="cls-13" d="M778.38,1474.17l-2.38,1.97-12.87-.2-1.94,2.44,1.1,2.78,1.8,1.33,2.69,1.44,7.54,7.31,1.09,2.8,3.06,2.11-.05,18.81-8.04.28-1.94.05-3.87-2.78-4.95-.54-4.93.46-6.39-.71c-.89-2.05-1.29-3.32-2.14-7.32l-5.31-1.76-1.12,2.61-.6,2.7-1.71.24-.04-13.28,20.38-.02.08-20.25,9.68-.42,10.85-.05h.01Z"/>
    <polygon class="cls-8" points="532.74 1515.69 532.67 1513.99 532.76 1474.42 552.51 1474.21 552.45 1466.77 553.42 1465.92 553.27 1477 553.15 1515.25 532.74 1515.69"/>
    <polygon class="cls-7" points="245.88 960.95 245.33 963.01 230.53 962.92 226.37 962.29 225.41 964.96 225.29 1003.22 208.91 1003.43 206.64 1003.61 206.87 1001.33 207.78 997.33 209.18 993.45 212.18 991.96 210.08 988.48 211.7 986.13 216.84 985.48 214.36 982.1 213.23 976.74 208.4 977.73 206.29 980.14 204.02 976.16 202.63 973.28 202.66 968.89 202.23 965.81 203.62 959.16 207.26 959.23 206.39 964.55 209.01 966.62 212.56 964.61 214.86 964.38 217.96 965.86 220.58 965.7 222.93 964.98 224.02 963.63 225.75 961.49 230.42 961.03 245.88 960.95"/>
    <polygon class="cls-8" points="532.7 1555.96 532.6 1576.86 512.55 1576.95 512.21 1575.04 512.2 1556.41 530.55 1556.33 532.7 1555.96"/>
    <polygon class="cls-19" points="614.42 1228.83 614.76 1230.93 614.6 1249.11 595.54 1249.18 594.54 1248.76 594.24 1247.96 594.25 1228.78 614.42 1228.83"/>
    <path class="cls-5" d="M768.46,1515.3l-12.94.37-8.05-.62-1.67-.13-6.19.2-2.15-.04v-6.88l1.7-.24.6-2.7,1.12-2.61,5.31,1.76c.85,4,1.25,5.28,2.14,7.32l6.39.71,4.93-.46,4.95.54,3.87,2.78h-.01Z"/>
    <polygon class="cls-8" points="553.43 1462.05 552.48 1460.05 552.49 1434.87 553.52 1433.99 553.43 1462.05"/>
    <polygon class="cls-11" points="573.57 1381 573.56 1374.97 574.82 1377.98 573.57 1381"/>
    <polygon class="cls-11" points="573.44 1391.94 573.6 1386.95 574.88 1390.08 573.44 1391.94"/>
    <polygon class="cls-11" points="573.58 1371 573.61 1367.96 574.65 1369.48 573.58 1371"/>
    <polygon class="cls-11" points="616.61 1167.17 616.01 1168 614.7 1167.96 614.98 1166.93 616.61 1167.17"/>
    <polygon class="cls-8" points="1085.63 265.99 1085.61 327.59 1065.31 327.7 1065.28 339.02 1064.76 347.97 1044.69 348.1 1044.65 388.99 1027.45 389.07 1024.48 389.47 1024.04 391.9 1024.14 429.99 1003.62 430.06 1003.56 470.84 983.37 471.08 983.36 511.89 962.69 511.94 962.66 552.95 942.32 553.04 942.14 573.3 921.69 573.28 921.62 614.23 902.32 614.37 901.32 615.81 901.29 634.87 880.88 634.96 880.81 675.71 860.37 675.92 860.4 714.09 859.02 716.84 839.8 716.81 839.67 737.09 822.41 737.08 819.44 737.8 819.42 778.14 798.89 778.2 798.63 819.07 737.34 819.07 737.51 778.15 749.5 778.15 757.82 777.98 758.17 761.98 758.12 737.27 775.54 737.05 777.95 736.92 778.36 734.03 778.5 716.83 798.77 716.71 798.83 675.99 819.44 675.81 819.46 634.96 839.69 634.82 839.75 614.11 857.57 614.41 860.2 613.48 860.27 610.97 860.5 573.24 877.84 573.49 880.92 571.51 880.82 552.91 901.36 552.9 901.39 512.03 921.66 511.74 921.75 491.39 929.86 491.6 942.22 491.56 942.33 451.09 947.48 450.44 959.53 450.2 962.06 450 962.71 446.99 962.65 409.95 962.68 409.13 974.5 409.57 983.27 409.06 983.31 369.03 990.46 368.59 1003.63 368.53 1003.62 348.05 1024.15 348.04 1024.16 316.98 1024.4 307.08 1043.81 307.19 1044.76 304.09 1044.56 286.84 1065.17 286.59 1065.21 266.35 1085.63 265.99"/>
    <polygon class="cls-9" points="1169.5 818.98 1187.76 819.23 1187.86 848.74 1187.86 851.97 1187.61 859.91 1170.47 859.99 1168.09 860.28 1167.5 862.93 1167.57 880.03 1160.43 880.63 1150.47 880.49 1147.92 880.87 1147.2 883.89 1147.16 900.95 1126.68 900.96 1126.71 860.09 1147.31 860.04 1147.31 839.73 1167.59 839.6 1167.46 819.07 1169.5 818.98"/>
    <polygon class="cls-9" points="1085.63 265.99 1065.21 266.35 1065.17 286.59 1044.56 286.84 1044.76 304.09 1043.81 307.19 1024.4 307.08 1024.16 316.98 1024.15 348.04 1003.62 348.05 1003.66 307.15 1024.11 307.08 1024.17 286.74 1044.72 286.84 1044.72 245.74 1065.23 245.55 1065.41 225.19 1085.63 225.31 1085.63 265.99"/>
    <path class="cls-24" d="M327.56,711.96l.09,4.01-2.23.42.45,2.61,1.74-.02-.09,2.02-2.03.11.06,15.57c.3.77.54,1.4.43,1.12l-.81,6.5c-2.65-.23-4.86-.98-7.11-2.99l-2.97-.2-2.15-1.46-3.67-3.37-3.32,1.68-4.79-2.15-2.24-2-2.45-3.17-2.65-1.21-3.96-2.2-1.46-2.14.1-28.03,10.95-.36,8.04-.67v-12.93l3.55.43,5.18,1.43,2.9,2.75c1.09,1.66,2.04,3.81,2.59,6.26l2.49,4.65,1.66,7.19-.51,6.08,2.2.05v.02Z"/>
    <path class="cls-10" d="M1106.43,368.86l-.06,2.12-.2,2,.11,12.01-.03,7.99v5.98l.21,12.08-1.93-.63-3.25-3.9-1.95-1.26-4.77-7.42-4.68-4.64-1.3-1.51-.22-3.71-2.29-.2-.46-3.95v-14.45c-.12-.07.08.03,1.17.64l11.65-.17,5.43-.81,2.58-.17h0Z"/>
    <path class="cls-10" d="M1242.45,778.17l13.08.08,2-.18,9.99.21,2.28.14.17,3.17.57.42-.31,6.43-.14,2.52-.07,13.05.21,2.13-.03,9.94.15,3.12-.12,11.79v22.99l.05,13-.09,21.03-.11,49.93.33,4.09-3.03-.05.77-1.59-.24-5.64-1.95-2.24-1.9-4.18c-2.04-1.89-4.64-5.15-2.07-8.2l-.35-4.74-3.9-1.65-3.93-1.59-.71-4.18-4.51-1.79-4.16-1.94-4.8-2.79-2.71.2-2.15-2.31-2.44-5.12c-.06.34.14-.88.42-2.57l-2.24-5.87,1.31-4.21.41-3.2-1.13-3.11-.16-2.9-1.87-.56.21-4.82,1.36-2.11.9-1.44-.46-1.5-1.9.35-.43-2.11,2.03.7.03-4.67-1.82.77-.37-1.92,2.08-.13.2-4.3,3.3-3.95,1.21-1.19-.07-2.38-1.5-2.21,2.18-3.62c1.11-1.12,1.66-2.11,2.69-4.68l1.19-.77,1.8,1.45.55,2.69-1.42,7.05v3.64l5.17-3.05,2.99-4.05,2.34-5.15c-.25-.89-.68-2.43-.53-1.89l.36-3.73,1.68-1.5,2.39-2.08,3.22-3.69,4.93-.67c-.21.4.9-1.73,1.34-2.58l.49-3.42,1.29-3.8,1.46-4.93.14-3.44,1.15-1.17-.93-1.51-.42-2.87-.55-6.44c-1.78.23-3.66,1.41-4.18,3.01l-3.76,3.58.04,2.13,3.32,2.18-1.65,2.47-5.2-2.22-.2,2.29,3.27,1.07-3.03,2.89-3.29-3.59c-2.05-1.47-5.73-1.3-8.13.37l-3.27.46-1.31,2.4-1.06,2.94-1.88,1.98-2.9.83-1.23-1.9-1.78-5.15-1.97-1.58.21-9.45,2.57-3.88.65-3.59,3.99-3.86,2.78-2.75-.87-3.15,4.02.06-.04-.05ZM1257.62,839.98c0-.62-.5-1.12-1.12-1.12s-1.12.5-1.12,1.12.5,1.12,1.12,1.12,1.12-.5,1.12-1.12ZM1251.5,853.98h-2v5h2v-5Z"/>
    <path class="cls-5" d="M1228.59,855.04l.43-2.02-.22-19.91,1.3-.11.64-2.01-.64-2.01-1.29-.13.19-22.51.1-1.52,1.97,1.58,1.78,5.15,1.23,1.9,2.9-.83,1.88-1.98,1.06-2.94,1.31-2.4,3.27-.46c2.4-1.67,6.08-1.84,8.13-.37l3.29,3.59,3.03-2.89-3.27-1.07.2-2.29,5.2,2.22,1.65-2.47-3.32-2.18-.04-2.13,3.76-3.58c.52-1.6,2.4-2.78,4.18-3.01l.55,6.44.42,2.87.93,1.51-1.15,1.17-.14,3.44-1.46,4.93-1.29,3.8-.49,3.42c-.45.86-1.55,2.99-1.34,2.58l-4.93.67-3.22,3.69-2.39,2.08-1.68,1.5-.36,3.73c-.15-.54.28,1,.53,1.89l-2.34,5.15-2.99,4.05-5.17,3.05v-3.64l1.41-7.05-.55-2.69-1.8-1.45-1.19.77c-1.03,2.57-1.58,3.56-2.69,4.68l-2.18,3.62,1.5,2.21.07,2.38-1.21,1.19-3.3,3.95-.2,4.3-2.08.13h.02ZM1258.38,812.41l-4.17,3.23,3.79,2.77.37-6h.01Z"/>
    <path class="cls-7" d="M1228.64,913.87l-.24,8.29-3.8-1.11-15.97-.1-.14,2.03-.07,2.05-6.3-3.43.41-7.95c-.15-1.83.49-3.93,2.12-5.62l.62-3.26-6.02.54-2.21,1.3-1.11,1.56-2.67-1.78-3.78,3.15.02,8.35-1.68.15-.03-3.12v-52.92l-.17-2.1.25-7.93v-3.23l1.28.21.76,1.79,2.61,1.55,2.64,4.21,2.44,2.74,1.48,3.34-2.83,3.89.8,4.42-1.56,3.39-2.02,7.69c1.69,2.29,2.82,4.43,3.48,6.57l-.3,2.74,2.99.62,2.3-1.28.7,2.38,1.79,1.91,3.76,2.13,2.87,4.5.46,3.64,5.09,3.34c.49,1.28.78,2.05.37.97l4.42,1.57c2.32,1.65,4.79,2.7,7.24,2.79v.02Z"/>
    <polygon class="cls-10" points="1228.73 908.1 1228.52 899.9 1230.5 900.07 1230.5 907.89 1228.73 908.1"/>
    <polygon class="cls-5" points="1228.72 860.15 1228.96 856.96 1230.78 856.19 1230.75 860.86 1228.72 860.15"/>
    <polygon class="cls-10" points="1228.8 833.11 1228.81 828.84 1230.1 828.97 1230.74 830.98 1230.1 832.99 1228.8 833.11"/>
    <polygon class="cls-5" points="1229.26 866.97 1229.15 862.26 1231.06 861.91 1231.52 863.41 1230.62 864.85 1229.26 866.97"/>
    <path class="cls-11" d="M1302.01,819l-1.49.14-30.17.05-.15-3.12,2.54.22,1.17-1.8,3.74-2.06,2.54-2.19,4.35.62,2.84-.94,4.59-.34,4.32-1.64,1.33,2.89c.75,1.9,2.16,4.42,3.81,6.23l.56,1.95h.02Z"/>
    <path class="cls-17" d="M1270.23,806.14l-.21-2.13.07-13.05.14-2.52,4.23,4.46c-.54,2.46-.67,4.14-.55,6.04l.8,4.2-1.71,2.98h-2.77v.02Z"/>
    <polygon class="cls-17" points="1270.54 782.01 1269.97 781.59 1269.8 778.42 1267.52 778.28 1257.53 778.07 1260.01 775.64 1262.64 776.3 1265.54 774.39 1268.66 775.78 1270.2 777.61 1271.83 780.43 1270.54 782.01"/>
    <polygon class="cls-4" points="982.7 122.83 939.52 122.85 934.57 122.3 933.31 118.2 930.54 117.09 928.19 115.24 927.12 113.55 928.55 110.92 934.64 111.97 937.63 112.31 941.3 112.16 946.42 112.1 951.92 113.73 953.61 111.98 954.45 109.54 960 110.01 962.21 112.53 965.67 112.68 968.29 113.56 975.54 114.1 980.9 115.17 982.33 117.26 982.7 122.83"/>
    <polygon class="cls-13" points="479.96 1489.07 478.21 1493.06 475.51 1491.57 479.96 1489.07"/>
    <polygon class="cls-26" points="748.01 1556.13 742.46 1556.3 737.39 1557.09 737.41 1545.98 739.67 1546.68 743.59 1550.84 745.46 1554.12 747.49 1554.46 748.01 1556.13"/>
    <polygon class="cls-26" points="739.6 1515.12 739.08 1517.01 737.44 1517.04 737.45 1515.07 739.6 1515.12"/>
    <path class="cls-22" d="M655.66,1640l.68-1.59-.68,1.59Z"/>
    <polygon class="cls-13" points="1085.72 448.57 1081.13 448.01 1080.78 445.54 1082.65 444.25 1084.84 441.8 1084.95 439.67 1087.14 442.52 1089.53 447.01 1085.72 448.57"/>
    <path class="cls-10" d="M367.06,491.45l.04,4.41.31,2.48c.28,4.72-.42,9.82-1.46,14.27l.15,7.08-.32,6.09.13,2.79-2.41.08-1.32-1.37,1.4-.8-.62-1.86-.64-4.43-2.98.71c-.93.08-3.42-1.02-4.54-1.86l-1.75-1.99-7.87-4.8-.76-4.23,5.61-.68,2.52,1.84,1.21-4.39,2.32-.86-.52-3.15,1.99-2.36c.34-1.64.64-4.44.67-6.26l-3.18-6.51,1.85-.63,1.29,1.79c1.02,2.33,3.76,4.28,6.45,4.94l2.41-.3h.02ZM360.1,515.68l-.92-4.55-2.44.02-1.94.63-.19,2.16v3.52l5.49-1.78Z"/>
    <polygon class="cls-5" points="362.18 527.28 359.35 520.9 362.33 520.19 362.97 524.61 363.59 526.47 362.18 527.28"/>
    <path class="cls-24" d="M1208.41,925.03l.04,16.88-20.57.04-.2,8.96-3.74-.4-4.13-1.85-3.95.48c-.21-.56-.35-1.07-.15-2.25-.46-2.26-1.22-4.68-2.02-6.87l-2.98-5.24-2.24-3.55.27-5.35.49-2.51,2.24-.52,14.82.19.67-1.94.84-3.03,1.68-.15-.02-8.35,3.78-3.15,2.67,1.78,1.11-1.56,2.21-1.3,6.02-.54-.62,3.26c-1.63,1.68-2.26,3.78-2.12,5.62l-.41,7.95,6.3,3.43v-.03Z"/>
    <polygon class="cls-1" points="1139.51 1105.87 1135.99 1110.39 1131.57 1110.97 1127.38 1112.4 1124.75 1110.95 1120.34 1110.84 1119.05 1115.15 1114.98 1116.4 1112.14 1114.21 1110.07 1113.84 1106.41 1116.14 1106.49 1105.95 1139.51 1105.87"/>
    <polygon class="cls-10" points="1208.49 922.98 1208.63 920.95 1224.6 921.05 1228.4 922.16 1228.64 913.87 1230.52 914.05 1230.45 921.7 1228.16 922.93 1208.49 922.98"/>
    <path class="cls-1" d="M1147.31,1066.06l1.3-1.02-1.3,1.02Z"/>
    <path class="cls-26" d="M768.46,1515.3l1.94-.05,8.04-.28.02,1.26-.12,23.8-5.94-1.3-.79-3.26-4.52-2.93c-2.74-1.51-5.16-3.56-7.23-5.9l-3.6-6.38-5.36-1.67-4.73-1.84-.37-1.83,1.67.13,8.05.62,12.94-.37h0Z"/>
    <polygon class="cls-21" points="880.88 347.96 880.69 369 878.56 368.52 860.39 368.8 860.28 388.91 839.72 389.04 839.51 406.03 839.76 409.72 839.8 426.99 839.61 430.4 837.57 429.92 819.41 429.99 819.29 450.01 819.48 450.84 819.34 471.2 814.52 470.79 799.1 470.96 798.61 473.98 798.66 491.63 778.45 491.68 778.42 511.93 778.46 532.25 759.62 532.09 757.91 532.86 757.63 534.95 757.65 552.78 737.36 552.97 737.47 572.92 737.43 594.13 733.56 593.87 716.92 593.88 716.65 602.94 716.88 614.11 716.91 632 716.69 635.4 714.57 634.77 696.44 634.88 696.52 655.06 676.02 655.39 675.75 663 675.93 675.78 676.07 696.03 655.47 696.05 655.44 715.03 655.64 716.81 655.59 735.01 655.21 737.59 653.55 736.94 635.5 737.03 634.92 742 635.45 757.83 632.54 757.65 614.44 757.79 614.56 777.97 614.53 799.07 607.53 798.69 594.22 798.82 594.11 817.97 594.52 818.86 594.13 820.98 594.1 857.99 594.49 860.07 594.14 861.92 594.21 880.76 606.52 880.79 614.33 880.78 614.91 901.17 962.44 901.15 962.59 921.57 942.24 921.65 942.23 942.98 942.11 962.19 927.41 962.01 921.54 962.78 921.56 982.85 901.38 982.91 901.27 1003.15 887.49 1003.2 884.39 1003 880.59 1003.85 880.61 1022.07 880.86 1023.83 880.7 1044.43 867.45 1043.98 860.38 1044.52 860.35 1064.87 839.73 1064.88 839.57 1085.11 827.47 1085.19 819.35 1085.39 819.34 1103.05 819.54 1105.83 819.41 1123 819.3 1126.51 800.35 1126.13 798.58 1127.85 798.71 1143.04 798.51 1146.74 778.55 1146.81 778.34 1167.15 757.99 1167.17 757.76 1173.01 758.04 1181.27 758.12 1187.82 757.81 1208.16 737.45 1208.31 737.38 1229.21 733.54 1228.68 716.71 1228.8 716.89 1246.15 715.86 1249.06 696.6 1249.01 696.5 1228.99 716.91 1228.82 716.9 1149.03 716.46 1146.88 737.55 1146.98 737.57 1085.25 757.71 1085.24 758.12 1070.65 758.3 1054.98 758.26 1043.98 758.15 1024.96 758.21 1014 758.35 987.11 757.44 982.83 737.56 982.92 737.41 962.54 542.71 962.57 537.34 962.58 397.72 962.55 389.53 961.96 389.51 901.83 391.37 901.12 409.76 901.06 409.77 841.99 410.02 839.63 416.56 839.96 430.34 839.43 430.36 798.9 450.77 798.8 450.77 758.04 455.44 757.67 469.64 757.94 471.5 756.03 471.45 695.99 488.6 696.32 491.69 695.19 491.66 655.33 508.65 655.3 512.44 653.88 512.25 627.26 512.12 622.69 512.47 614.25 532.64 614.17 532.7 553.1 553.36 552.99 553.3 510 553.46 491.81 567.52 491.86 573.63 491.41 573.7 450.92 594.33 450.61 594.35 409.87 614.54 409.8 614.57 402.94 614.6 348.03 635.14 347.94 635.43 327.82 880.43 327.86 880.67 346.01 880.88 347.96"/>
    <path class="cls-20" d="M880.88,347.96l-.21-1.95-.25-18.15-244.99-.04-.3,20.13-20.54.08-.03,54.92-.03,6.85-20.19.08-.03,40.74-20.63.31-.07,40.49-6.11.45-14.06-.05-.16,18.19.06,42.99-20.66.11-.06,61.06-20.17.08-.34,8.44.13,4.57.18,26.62-3.79,1.42-16.99.02.02,39.86-3.08,1.13-17.15-.33-.08-61.02,20.22-.13v-40.89l19.05-.02,1.75-1.76-.26-14.26.11-6.86v-37.36c1.01-.47,2.96-1.17,4.05-1.47l16.34-.08-.06-38.22.74-2.21,13.23.06,6.67-.52.16-36.24v-24.98l18.27-.07,1.96-.88.02-39.99,20.53-.05.05-22.05-.02-38.07,3.19-1.29h17.14l.11-20.5,284.66-.03c.95.65,1.91,1.35,2.17,1.61l-.05,39.31-20.51-.06h.01Z"/>
    <polygon class="cls-25" points="471.45 695.99 471.5 756.03 469.64 757.94 455.44 757.67 450.77 758.04 450.77 798.8 430.36 798.9 430.34 839.43 416.56 839.96 410.02 839.63 409.77 841.99 409.76 901.06 391.37 901.12 389.51 901.83 389.53 961.96 397.72 962.55 537.34 962.58 542.71 962.57 737.41 962.54 737.56 982.92 757.44 982.83 758.35 987.11 758.21 1014 758.15 1024.96 758.26 1043.98 758.3 1054.98 758.12 1070.65 757.71 1085.24 737.57 1085.25 737.55 1146.98 716.46 1146.88 716.87 1145.01 716.85 1119.98 716.83 1087.97 717.35 1085.46 719.47 1085.17 737.47 1085.05 737.43 982.97 368.86 982.97 368.82 901.05 389.44 900.98 389.49 839.8 409.6 839.67 409.72 778.15 430.18 778.14 430.3 737.13 450.69 737.01 450.72 696.17 471.45 695.99"/>
    <polygon class="cls-25" points="880.86 1023.83 880.61 1022.07 880.59 1003.85 884.39 1003 887.49 1003.2 901.27 1003.15 901.38 982.91 921.56 982.85 921.54 962.78 927.41 962.01 942.11 962.19 942.23 942.98 942.24 921.65 962.59 921.57 962.44 901.15 614.91 901.17 614.33 880.78 606.52 880.79 594.21 880.76 594.14 861.92 594.49 860.07 614.57 860.08 614.58 880.62 722.12 880.57 726.95 880.6 981.26 880.61 983.4 881.96 983.37 918.01 983.04 921.01 980.43 921.64 962.66 921.86 962.71 960.01 961.94 962.55 942.37 962.75 942.22 982.93 921.74 982.97 921.61 1003.16 901.4 1003.27 901.45 1023.95 880.86 1023.83"/>
    <polygon class="cls-15" points="1044.51 962.92 1044.82 964.99 1044.74 1003.07 1025.61 1003.35 1024.3 1004.04 1024.25 1021.99 1024.53 1023.93 1004.56 1023.91 1003.68 1025 1003.69 1044.28 983.4 1044.37 983.4 1064.94 962.7 1064.93 962.73 1085.29 942.33 1085.07 942.2 1064.91 962.66 1064.88 962.68 1023.9 983.31 1023.81 983.42 1003.35 1003.7 1003.22 1003.8 982.89 1024.22 982.9 1024.18 964.86 1025.35 962.56 1044.51 962.92"/>
    <polygon class="cls-20" points="716.46 1146.88 716.9 1149.03 716.91 1228.82 696.5 1228.99 696.55 1146.98 716.46 1146.88"/>
    <polygon class="cls-25" points="696.5 1228.99 696.6 1249.01 715.86 1249.06 716.89 1246.15 716.71 1228.8 733.54 1228.68 737.38 1229.21 737.49 1230.04 737.45 1249.09 716.82 1249.12 716.8 1269.57 697.53 1269.75 696.74 1269.86 682.49 1269.58 676.44 1270.15 675.93 1267.02 675.89 1247.99 675.78 1233.87 676.91 1228.68 696.5 1228.99"/>
    <polygon class="cls-25" points="778.46 532.25 778.41 552.9 758.41 553.03 758.01 561.57 757.91 571.69 754.82 573.33 739.4 573.14 737.47 572.92 737.36 552.97 757.65 552.78 757.63 534.95 757.91 532.86 759.62 532.09 778.46 532.25"/>
    <polygon class="cls-25" points="819.3 1126.51 819.55 1128.95 819.4 1146.81 798.71 1146.89 798.94 1164.04 798.03 1167.05 795.53 1167.38 784.49 1167.09 780.22 1167.56 778.55 1168.93 778.49 1187.25 775.56 1187.85 758.12 1187.82 758.04 1181.27 757.76 1173.01 757.99 1167.17 778.34 1167.15 778.55 1146.81 798.51 1146.74 798.71 1143.04 798.58 1127.85 800.35 1126.13 819.3 1126.51"/>
    <polygon class="cls-20" points="880.69 369 880.72 376.96 880.68 389 860.36 389.03 860.37 409.64 839.76 409.72 839.51 406.03 839.72 389.04 860.28 388.91 860.39 368.8 878.56 368.52 880.69 369"/>
    <polygon class="cls-3" points="942.33 1085.07 942.28 1105.87 921.54 1105.89 921.92 1085.33 942.33 1085.07"/>
    <polygon class="cls-25" points="696.52 655.06 696.61 675.71 675.93 675.78 675.75 663 676.02 655.39 696.52 655.06"/>
    <polygon class="cls-20" points="819.34 471.2 819.53 489.31 817.42 491.68 798.81 491.78 798.71 511.89 778.42 511.93 778.45 491.68 798.66 491.63 798.61 473.98 799.1 470.96 814.52 470.79 819.34 471.2"/>
    <polygon class="cls-25" points="676.07 696.03 676.26 713.28 675.54 716.47 672.53 716.8 655.64 716.81 655.44 715.03 655.47 696.05 676.07 696.03"/>
    <polygon class="cls-20" points="655.21 737.59 655.56 739.96 655.44 757.65 635.45 757.83 634.92 742 635.5 737.03 653.55 736.94 655.21 737.59"/>
    <polygon class="cls-25" points="635.45 757.83 635.26 778.23 614.56 777.97 614.44 757.79 632.54 757.65 635.45 757.83"/>
    <polygon class="cls-25" points="880.7 1044.43 880.73 1064.95 860.3 1064.99 860.35 1084.1 858.63 1085.22 839.66 1085.13 839.78 1093.95 839.75 1105.74 819.54 1105.83 819.34 1103.05 819.35 1085.39 827.47 1085.19 839.57 1085.11 839.73 1064.88 860.35 1064.87 860.38 1044.52 867.45 1043.98 880.7 1044.43"/>
    <polygon class="cls-25" points="839.61 430.4 839.65 450.6 819.48 450.84 819.29 450.01 819.41 429.99 837.57 429.92 839.61 430.4"/>
    <polygon class="cls-25" points="737.43 594.13 737.47 612.04 736.63 614.32 716.88 614.11 716.65 602.94 716.92 593.88 733.56 593.87 737.43 594.13"/>
    <polygon class="cls-20" points="696.74 1269.86 696.55 1271.93 696.53 1290.14 676.16 1290.06 675.92 1284.02 675.94 1273.06 676.44 1270.15 682.49 1269.58 696.74 1269.86"/>
    <polygon class="cls-20" points="716.69 635.4 716.8 655.12 706.47 655.29 696.52 655.06 696.44 634.88 714.57 634.77 716.69 635.4"/>
    <polygon class="cls-20" points="614.53 799.07 614.52 819.02 595.52 819.13 594.52 818.86 594.11 817.97 594.22 798.82 607.53 798.69 614.53 799.07"/>
    <polygon class="cls-12" points="962.65 409.95 962.71 446.99 962.06 450 959.53 450.2 947.48 450.44 942.33 451.09 942.22 491.56 929.86 491.6 921.75 491.39 921.66 511.74 901.39 512.03 901.36 552.9 880.82 552.91 880.92 571.51 877.84 573.49 860.5 573.24 860.32 532.43 879.82 532.52 880.92 530.05 880.88 511.89 901.37 511.95 901.39 470.98 921.6 470.93 921.88 450.59 942.29 450.74 942.28 409.73 961.44 409.56 962.65 409.95"/>
    <polygon class="cls-12" points="1003.62 348.05 1003.63 368.53 990.46 368.59 983.31 369.03 983.27 409.06 974.5 409.57 962.68 409.13 962.69 370 963.47 368.6 983.36 368.62 983.32 348.01 1003.62 348.05"/>
    <polygon class="cls-11" points="245.45 1003.46 246.01 1006.95 245.73 1023.8 229.44 1023.99 225.39 1023.35 225.29 1003.22 245.45 1003.46"/>
    <polygon class="cls-7" points="327.65 715.98 327.61 718.98 325.87 719 325.41 716.4 327.65 715.98"/>
    <path class="cls-8" d="M962.69,370l.78-1.4-.78,1.4Z"/>
    <polygon class="cls-12" points="696.54 1412.97 696.43 1453.85 677.08 1453.99 676.05 1457.87 676.19 1474.52 657.36 1474.43 655.53 1476 655.46 1494.96 637.39 1494.86 635.34 1495.84 635.16 1515.35 614.64 1515.39 614.62 1534.12 613.65 1535.92 594.51 1535.9 594.21 1534 594.18 1515.17 594.18 1494.93 614.69 1494.92 614.67 1474.41 635.28 1474.27 635.33 1454 655.49 1453.98 655.55 1433.68 676.06 1433.57 676.23 1413.02 696.54 1412.97"/>
    <polygon class="cls-9" points="901.47 1167.29 901.41 1207.04 899.65 1208.29 880.9 1208.17 880.7 1228.8 861.19 1228.82 860.23 1231.88 860.3 1249.08 840.4 1249.2 839.7 1251.88 839.69 1269.5 819.46 1269.98 819.53 1228.92 839.68 1228.81 839.77 1208.33 860.42 1208.26 860.4 1187.89 880.73 1187.8 880.83 1167.27 901.47 1167.29"/>
    <polygon class="cls-12" points="819.46 1269.98 819.44 1290.12 798.81 1290.08 798.85 1329.14 797.17 1331.33 788.45 1331.1 778.36 1331.32 778.35 1351.6 757.95 1351.7 757.76 1372.06 737.47 1372.18 737.41 1391.13 734.69 1392.49 726.49 1392.67 716.5 1392.76 716.89 1373.93 716.42 1372.35 716.84 1370.98 716.88 1351.65 737.43 1351.67 737.44 1331.2 757.9 1331.14 757.92 1310.81 778.4 1310.74 778.4 1290.28 798.95 1290.2 798.9 1270.51 801.41 1269.57 817.57 1269.66 819.46 1269.98"/>
    <polygon class="cls-12" points="983.4 1064.94 983.39 1102.99 982.73 1105.86 962.78 1105.97 962.7 1126.54 956.56 1126.29 944.12 1126.43 942.35 1128.7 942.31 1146.78 921.73 1146.86 921.82 1165.12 920.64 1167.18 901.47 1167.29 901.42 1146.88 921.88 1146.84 921.88 1107.05 921.54 1105.89 942.28 1105.87 942.33 1085.07 962.73 1085.29 962.7 1064.93 983.4 1064.94"/>
    <polygon class="cls-9" points="1106.5 922.01 1106.24 923.93 1106.18 962.05 1099.52 962.78 1093.5 962.44 1085.73 962.77 1085.64 982.84 1065.38 983.05 1065.34 998.02 1064.92 1003.31 1044.74 1003.07 1044.82 964.99 1044.51 962.92 1046.46 962.55 1065.28 962.59 1065.29 942.01 1085.61 941.98 1085.72 921.61 1102.54 921.67 1106.19 921.3 1106.5 922.01"/>
    <polygon class="cls-9" points="594.51 1535.9 594.16 1540.96 594.13 1556.32 573.61 1556.28 573.59 1535.99 594.51 1535.9"/>
    <polygon class="cls-9" points="1024.53 1023.93 1024.23 1035.98 1024.09 1044.3 1003.74 1044.32 1003.75 1064.97 983.4 1064.94 983.4 1044.37 1003.69 1044.28 1003.68 1025 1004.56 1023.91 1024.53 1023.93"/>
    <polygon class="cls-12" points="1044.74 1003.07 1044.78 1023.83 1024.53 1023.93 1024.25 1021.99 1024.3 1004.04 1025.61 1003.35 1044.74 1003.07"/>
    <polygon class="cls-12" points="1126.68 900.96 1126.57 921.23 1111.6 921.41 1106.5 922.01 1106.19 921.3 1106.3 901.08 1126.68 900.96"/>
    <polygon class="cls-9" points="716.5 1392.76 716.85 1394.04 716.75 1412.95 696.54 1412.97 696.53 1393.12 698.46 1392.62 716.5 1392.76"/>
    <polygon class="cls-8" points="569.51 1535.9 569.41 1537.45 567.55 1538.27 562.9 1538.79 562.98 1540.64 569.1 1547.56 570.83 1550.47 569.99 1553.6 568.34 1555.17 567.65 1556.4 553.56 1556.28 553.21 1555.01 553.31 1536.03 569.51 1535.9"/>
    <polygon class="cls-8" points="594.18 1515.17 594.21 1534 594.51 1535.9 573.59 1535.99 573.61 1515.39 594.18 1515.17"/>
    <polygon class="cls-24" points="1173.13 967.85 1169.29 968.42 1167.18 965.28 1172.37 965.12 1173.13 967.85"/>
    <polygon class="cls-12" points="798.83 675.99 798.77 716.71 778.5 716.83 778.36 734.03 777.95 736.92 775.54 737.05 758.12 737.27 758.17 761.98 757.82 777.98 749.5 778.15 737.51 778.15 737.44 737.21 758.13 737.05 758.13 696.21 778.41 696.27 778.42 675.81 798.83 675.99"/>
    <polygon class="cls-9" points="860.5 573.24 860.27 610.97 860.2 613.48 857.57 614.41 839.75 614.11 839.78 573.28 860.5 573.24"/>
    <polygon class="cls-9" points="819.46 634.96 819.44 675.81 798.83 675.99 798.84 634.86 819.46 634.96"/>
    <polygon class="cls-9" points="737.51 778.15 737.34 819.07 717.39 819.11 716.81 817.97 716.92 779 718.01 778.99 718.58 778.23 737.51 778.15"/>
    <polygon class="cls-12" points="839.75 614.11 839.69 634.82 819.46 634.96 819.45 614.41 839.75 614.11"/>
    <polygon class="cls-8" points="718.58 778.23 718.01 778.99 716.92 779 716.96 777.93 718.58 778.23"/>
    <path class="cls-8" d="M717.39,819.11l-.58-1.14.58,1.14Z"/>
    <rect class="cls-5" x="1249.5" y="853.98" width="2" height="5"/>
    <circle class="cls-5" cx="1256.5" cy="839.98" r="1.12"/>
    <polygon class="cls-10" points="1258.38 812.41 1258.01 818.41 1254.21 815.64 1258.38 812.41"/>
    <polygon class="cls-5" points="360.1 515.68 354.62 517.47 354.6 513.95 354.8 511.78 356.74 511.15 359.18 511.13 360.1 515.68"/>
    <path class="cls-19" d="M1024.3,1004.04l1.31-.68-1.31.68Z"/>
    <path class="cls-19" d="M1003.68,1025l.88-1.09-.88,1.09Z"/>
  </g>
</svg>