<?xml version="1.0" encoding="UTF-8"?>
<svg id="Calque_2" data-name="Calque 2" xmlns="http://www.w3.org/2000/svg" viewBox="0 0 1329.7 1433.77">
  <defs>
    <style>
      .cls-1 {
        fill: #e9952e;
      }

      .cls-2 {
        fill: #c0641a;
      }

      .cls-3 {
        fill: #df8423;
      }

      .cls-4 {
        fill: #385b2b;
      }

      .cls-5 {
        fill: #c5681b;
      }

      .cls-6 {
        fill: #a84b17;
      }

      .cls-7 {
        fill: #f2e1bb;
      }

      .cls-8 {
        fill: #c8a97b;
      }

      .cls-9 {
        fill: #7d2f0f;
      }

      .cls-10 {
        fill: #f1a944;
      }

      .cls-11 {
        fill: #983f13;
      }

      .cls-12 {
        fill: #f0bb83;
      }

      .cls-13 {
        fill: #d18b57;
      }

      .cls-14 {
        fill: #ab4e17;
      }

      .cls-15 {
        fill: #de821e;
      }

      .cls-16 {
        fill: #fdf3e0;
      }

      .cls-17 {
        fill: #fad7aa;
      }

      .cls-18 {
        fill: #351b09;
      }

      .cls-19 {
        fill: #843314;
      }

      .cls-20 {
        fill: #c2651a;
      }

      .cls-21 {
        fill: #5b200a;
      }

      .cls-22 {
        fill: #341401;
      }

      .cls-23 {
        fill: #702a0e;
      }

      .cls-24 {
        fill: #95734d;
      }

      .cls-25 {
        fill: #ed9f3a;
      }

      .cls-26 {
        fill: #d4b584;
      }

      .cls-27 {
        fill: #361704;
      }

      .cls-28 {
        fill: #b56234;
      }

      .cls-29 {
        fill: #fdd999;
      }
    </style>
  </defs>
  <g id="Calque_1-2" data-name="Calque 1">
    <g>
      <path class="cls-22" d="M1329.51,511.02l.06,2.98-1.95.12-.19,8.55-2.32,4.33.78,3.09.59,4.31-3.76,7.93-.5,3.86,3.07,3.19,2.06,3.14-.23,6.37-.37,3.88,1.11,5.18-1.12,10.16c-.26.65-1.12,2.78-.87,2.18l-7.56,2.53-2.22-.59-1.49,1.85-5.28,6.86-1.69,3.98.46,2.14,1.77.04-.3,5.66-2.17.87-.17,2.65-2.59,7.57,1.05,3.96,1.21,3.11.73,4.12.41,1.96,1.48.02-.07,3.04h-1.9s-.05,2.96-.05,2.96l-7.97.2-8.1-.3-1.53.87-.22,2.04.43,2.08-.35,4.09-.43,7.75-.47,4.69-.03,12.1c1.01,2.4.35,5.46-.82,7.59l-16.5-.08-2.52,2.6-.12,2.21-.39,3.18.12,1.95-.15,30.02-4.89,1.34-2.96-.14-7.29-.42-5.49,1.53-.1,9.73-.09,9.93-11.24.2-4.91.36-2.92-.26-1.13,1.63.21,9.14v7.56s-1.79,1.58-1.79,1.58l-16.55-.26-1.97,1.79.96,3.07-.71,4.17-.07,11.14-16.31-.08-3.82,2.2-.82,2.8.13,12.34c-.03,1.3-1.57,3.48-2.68,3.86l-15.1-.4c-.81.72-2.56,2.75-3.44,3.97l.32,13.37-1.11,3.52-3.13.43-6.04-.06-2.88.34-5.45-.13-1.61,2.56-.02,17.17-11.27.08-3.01.71-5.07-.61-.42,4.72-.14,4.76.12,10.44h-17.52s-2.52,1.34-2.52,1.34l-1.46,10.5.55,5.26-1.19,3.45-6.11.32-24.09.16-5.14-.35-4.07,1.5-.63,3.74-.06,14.73-2.18,1.28-28.86.02-2.98.29-1.89.26-3.73-.42.16,2.86-.14,3.9-.34,3-.07,9.48-5.96.6-30.11.02-5.65,1.25-.15,9.76.12,6.13-1,2.93-16.25.08-39.11-.22-4.93,2.24.47,4.6-.27,2.94-.19,8.35-.79,2.51-2.25.38-89.83.04-3.1.06-5.45.28-1.39,5.8-.15,13.48-6.3,1.28-65.62.13-5.2.19-3.93,1.04-.75,3.68-.13,15.01-75.01.09-3.63.88-2.2.25-.7,7.43-.64,11.37-23.86.24-13.72-.2-2.15,2.57.21,4.22-.21,2.96-.14,10.05-8,1.17-30.04.03-2.59.69-.45,2.26-.87,5.92.21,9.5-1.75,1.93-3.41.42-.02,1.28-6.35-.22-.07-1.76-3.96.63-4.59,1.33-.12,3.93.12,15.18-11.15-.08-4.23.78-3-1.03-1.95,1.94,1.12,2.97-.95,4.19.46,5.03.46,7.23-7.05-1.08-34.06-.15.4-4.01-6.4-2.86-2.9-2.57.54-3.5,1.1-3.41,1.16-1.96,1.29-.49h25.74s.02-18.22.02-18.22l.63-2.06,11.66-.17,8.24-.04.09-19.66,1.77-.81,18.65-.1.25-20.01,1.24-.16,14.79-.04,4.29-.23,1.65.32,18.76-.07v-9.92s.19-10.68.19-10.68l20.09-.05,20.74-.04.11-14.22.53-5.9,2.59-.36,17.04.06,41.03-.09v-19.67s40.67-.03,40.67-.03l1.33-.81,60.26.07.13-18.28-.34-1.95,60.96-.13,41.94-.02.1-20.23,1.89-.42,37.01.05,2.1-.3.9.28,19.21-.08.24-20.12,9.54-.12,10.95-.04,17.11.08,3.18-.64-.27-20.1,19.07.08,2.1-.31.86.26,19.18-.09.1-20.21,20.94-.05,3.75.18,16.21-.15.02-20.68,20.58.11-.04-18.71,1.96-1.74h18.41s-.03-20.42-.03-20.42l20.62-.05.27-20.4,20.13-.03-.09-20.83,20.6.26.14-19.37.26-1.06,19.07.17,1.05-2.03-.1-18.1,9.85-.49,7.68.11,3.02-2.2-.36-18.48.23-1.92.07-17.03.28-.99,2.14-.46h18.02s.02-22.56.02-22.56v-3.96s.03-14.11.03-14.11l.69-.57.12-1.28,5.2-.7,3,2.12,7.68.21,2.9-.61.78-3.01.03-15.12-.26-1.6.86-.24,19.66-.07.27-7.05-.17-18.98v-14.99s20.49.12,20.49.12l-.08-24.21.08-61.88-.29-3.95,8.06.04,6.19,2.05,3.64,2.55-.72,5.33-.22,17.78,2.07.15Z"/>
      <path class="cls-18" d="M1108.26,307.2l-.03.77-1.95-.13-.85-.97-.84-1.93-.07-56.82-6.02-.31-11.59-.1-3.22-3.03v-94.59s.56-7.13.56-7.13l.99-.82,3.29-1.07,13.17.07,2.83-1.48.04-73.71c-.29-1.33-1.79-3.12-2.46-3.16l-8.84.11-2.97-.39-4,.16-2.47-1.71-.28-17.77-2.33-.96-4.72-.26-16.64.19c-1.2.47-3.17.45-4.05.14l-7.29-.58-3.93-.19-.78-.58.11-6.98-.36-8.27c-.29-1.03-1.14-2.99-1.7-3.72l-51.29-.03-7.13.04-1.91-1.78.32-2.26-.26-6.92-.29-9.01-6.01-.03h-215.67s-.26,18.25-.26,18.25l-2.7,1.68-36.56.15-.78,4.87.25,9.19c.46,3.4-2.6,6.75-5.86,6.73l-5.15.1-28.96.03-.9,4.1,3.4-1.41c1.56,1.81,2.47,4.43,2.04,7.26l1.84,3.43,2.17,3.62-1.72,2.74-4.56-.28-3.34-3.06-2.03,3.33-3.87.11-31.03.33-3.74,1.05-.14,4.49,4.61,4.75,1.62,3.12-.49,3.3,3.5,2.22,7.72-2.85,1.14,2.69-.39,20.08-20.12.11-7.54-.04,1.71-2.46c2.12-.47,2.81-1.89,3.71-4.88l-3.99-4.24-2.71-.16-3.46-1.86-2.37-2.98-3.43-1.37-.13,5.14.29,5.76-.24,5.26.25,1.82c-.84.64-2.37,2.48-2.92,3.53l.3,17.05-17.28-.06-2.54.37-.75,3,.35,17.07-19.57-.15-1.52,3.94.14,17.15-1.95-.38-15.46-.17-2.98,2.1.3,18.49-18.94-.15-2.02,2.11.28.98-.29,5.45-2.06.84-1.7,4.11c-.01,2.87-.69,5.03-2.82,7.31l-1.46-2.9-2.63-3.8-1.37-1.54-3.58-.51-2.68,3.98c1.5,3.58.92,5.03-1.51,7.62l-4.74-.38-.83,3.34,2.87,2.6,2.63,3.45,2.56.71,3.5,3.62-4.78,2.54-5.72,2.14-2.03,1.54-3.69.02.51-2.21.27-3.03-4.21.78-6.48,3.13-2.85,2.58-5.45.13-1.13,1.32-3.21-.33-2.36,2.19.07,7.32-.29,3.64-1.89,3.42-.09,4.99.35,2.72,3.05,7.01-.47,2.74-.94,2.24-1.95,2.27-4.25,4.69-3.62.36-3.91.12-4.95-1.21-5.46.09.37,13.02c.4,1.64.53,3.79.22,5.26l-.61,8.3,2.07,1.64.14,6.69-1.79,3.33c-.25,1.96-1.85,4.24-3.29,5.16l-1.24,1.5-4.04-1.58-4.78-1.24-4.72-.98-2.62,2.27-.48,3.63.2,34.79.22,3.08-.51,9.34c.24,2.95-2.73,5.65-5.65,5.86l-6.25-.81-5.96-.12-2.35,2.73.83,10.28.79,4.17,2.95,3.4.19,4.38-1.94,3.35,2.6.64,2.47,3.8,3.34,1.78,2.54-7.52,1.29-3.07,3.15,1.32.07,5.58v7.24s-.13,5.34-.13,5.34c-1.74,1.06-2.64,2.94-3.29,5.13l3.2,2.88-.13,3.89-2.13.61-1.83,1.17-2.59-2.56-.86-3.17-2.54-1.45-3.04-4.36-2.92,1.67-1.92,6.54.32,7.31-.17,14.81-.78,4.42c-4.51,2.15-9.53,2.99-14.41,2.09l-3-.8c-1.39,3.02-2.13,6.15-1.65,8.71l1.91,5.15c.33.74,1.13,1.55,3.32,3.06l.74,4.38,1.2,4.91,2.78-.99,3.47-1.32,1.29,6.27-.27,2.88,2.63,1.19.11,2.92-1.69.05-1.4,1.85c-.33,1.74-.59,4.44-.52,6.06l.88,4.88-2.38,2.49-2.6-.71-.65-2.48-.35-3.95-3.29-3.43-2.76,2-1.35,3.51-1.79,2.56-.05,8.4-.47,13.92.19,4.97c.03,3.41-2.92,6.37-6.2,5.04l-6.84-.31-5.77-.03-1.3,4.28.02,86.88-.04,37.14.19,10.91-.24,28.02.39,8.89c1.73,1.44,2.05,4.05,1.4,5.77l.63,3.54c1.54,3.17,2.71,6.95,2.99,10.63l-.34,5.84-4.29,3.85-2.42,1.61-4.61-.21-13.86-3.81-1.44,3.78.66,4.21.02,31.04-2.75,3.21-3.64,3.19-3.22.59-10.52-.27-.04,16.18.11,36.95.82,2.75-2.13,2.15-14.57.03-3.53.3.98,5.02,4.84,5.43-3.18,5.42-1.71,3.1-2.21,1.75-2.28.62-3.48,1.57-3.8-1.25-3.7.09-4.8-1.55-2.42,3.27.2,15.34-.15,58.29,10.16,1.06,2.29-.7.84-1.42,1.92.63,2.97,1.23,1.75.5.02,1.21-.17,1.04.07,3.08.94,8.01,3.06,4.96.25,6.43-2.75,4.56-2.21,1.61-2.95-1.21-4.52-3.65-2.34-1.13-6.15-.93-2.8.92-.19,2.5-.08,14.69-3.19,1.67-6.56.68-7.16-.76-1.83-1.3,11.9.17,3.8-.82.77-4.22-.29-11.21,1.04-3.3,2.54-.93,7.07-.03,9.01-.39,1.21-3.12-.47-16.31-4.04-.56-6.66.08-4.08.08-1.93.15-2.68-.94-.82-.95-.15-9.72.07-55.88v-13.16c1.04-.82,3.53-1.63,5.35-1.8l12.32.14,3.01-1.33-.24-16.37,2.67-2.81,14.47.23,2.57-.77.82-2.19-.22-11.01-.02-44.62.95-1.81,1.61-1.06,17.34-.38.96-5.05-.08-33.28,3.51-2.33,14.81-.04,2.38-1.95-.08-5.54-.05-58.92v-42.07s-.02-73.9-.02-73.9l.12-20.24.99-1.59,2.3-.34,12.41-.09c1.63-.11,3.83-1.19,4.69-2.66l-.04-77.12,1.68-2.56,14.43.25,4.54-1.21-.24-9.56.06-67.77.86-2.72,1.63-.55,15.06.11c1.35-.78,2.8-2.41,3.07-3.88l-.11-55.29c.63-.99,1.83-2.3,2.56-2.86l14.75.28,2.83-1.76.13-10.51v-25.23c.12-1.49,2.06-3.58,3.34-3.86l16.13.21,1.36-4.01-.12-34.16,1.78-2.55,17.23-.21,1.39-3.02-.12-14.98,2.44-2.47,13.52.42,4.15-1.33.74-3.67.15-14.12,3.56-1.81,12.35.22,3.74-1.08.62-4.23-.09-13.17,1.43-1.96,16.05-.02,3.14-2.01-.02-17.27,3.89-1.5,13.19.13,2.69-1.09.62-3.11.15-14.58,3.25-1.69,14.32-.15,2.55-1.53.19-12.22.42-5.99,2.81-.48,17.15-.33.06-18.35,2.54-1.9,16.45.14,1.31-1.91.23-16.19,1.97-2.64,36.35-.14,2.49-1.75.34-11.45.37-6.66,8.67-.27,29.61-.11,2.13-2.71.05-16.67,7.26-1.57,26.89.14,6.53.1-.23-6.33-.22-11.31,2.41-2.57h220.38s3.39,1.12,3.39,1.12l.09,16.66,1.47,3.03,5.37-.79h45.84s3.33,0,3.33,0l5.63,1.48.14,18.4,2.15,1.13,37.57-.18,1.21,2.98-.4,14.64,2.84,2.96,8.6-.4,7.27.13,2.18,2.58-.06,29.28v48.14s-1.36,2.3-1.36,2.3l-2.02.17-11.01-.17-6.47.31.17,8.31.03,85.82-.42,6.3,2.83,1.82,16.4-.08,1.87,3.87-.3,21.23.21,34.05,1.43,2.1Z"/>
      <polygon class="cls-27" points="1181.17 389.26 1183.31 389.66 1186.62 393.59 1186.82 409.8 1189.33 409.25 1194.5 409.84 1204.57 409.64 1206.36 412.23 1206.88 419.63 1207.99 426.04 1208.3 430.09 1211.81 430.97 1215.66 431.96 1241.47 431.96 1247.51 431.97 1247.65 447.09 1248.23 450.63 1250.2 451.81 1252.43 451.31 1257.57 451.98 1308.55 452.03 1311.24 450.95 1310.7 455.25 1310.94 458.99 1311.11 469.91 1312.83 471.36 1328.54 471.25 1329.58 471.77 1329.51 511.02 1327.44 510.86 1327.66 493.09 1328.38 487.76 1324.73 485.21 1318.54 483.16 1310.48 483.12 1311.1 475.65 1309.08 470.74 1294.4 470.76 1290.39 470.83 1272.49 470.63 1270.07 471.02 1267.51 470.69 1229.21 470.69 1229.03 450.27 1210.47 450.16 1208.86 450.3 1188.2 450.15 1188.17 429.73 1167.22 429.56 1167.64 428.04 1167.64 410.98 1167.32 408.59 1167.65 407.07 1167.63 391.97 1167.39 389.73 1169.3 389.17 1181.17 389.26"/>
      <polygon class="cls-22" points="1124.38 307.13 1125.48 308.29 1125.57 326.54 1128.38 328.89 1129.61 328.14 1141.53 327.96 1144.85 328.17 1145.48 330.53 1145.7 344.97 1145.5 360.1 1145.8 363.09 1146 366.85 1145.67 368.31 1126.74 368.27 1126.71 347.84 1106.52 348.05 1106.23 346.03 1106.24 326.97 1106.27 307.84 1108.22 307.97 1108.26 307.2 1124.38 307.13"/>
      <polygon class="cls-4" points="471.29 1083.91 471.61 1085.01 471.55 1086.22 451.9 1085.93 451.79 1103.35 449.57 1106.37 433.62 1105.99 430.89 1107.88 431 1124.22 429.54 1126.49 427.54 1126.75 414.35 1126.32 410.38 1127.94 410.47 1145.1 408.85 1147.5 392.1 1147.13 389.79 1149.77 389.9 1165.26 388.34 1167.39 380.52 1167.96 371.01 1167.52 369.32 1169.63 369.57 1186.32 366.83 1188.07 350.25 1187.98 348.81 1192.83 348.98 1206.33 346.94 1208.6 343.63 1208.5 330.12 1208.44 328.15 1211.97 328.35 1260.99 328.43 1288.99 328.25 1301.05 328.28 1360.93 328.58 1370.39 324.94 1372.69 309.01 1372.26 307.9 1376.86 308.06 1390.37 305.77 1392.68 290.45 1392.66 287.5 1392.95 287.47 1391.83 287.34 1390.81 294.46 1390.09 305.46 1390.06 305.81 1371.92 307.5 1370.46 325.7 1369.92 325.74 1262.12 325.84 1257.99 325.62 1218.01 326.55 1207.91 327.97 1206.41 330.48 1206.19 346.46 1206.04 346.55 1190.94 348.81 1186.04 353.3 1186.45 356.37 1186.14 367.5 1186.14 367.8 1174.08 368.5 1166.79 375.51 1166.2 384.66 1166.03 387.56 1164.91 387.73 1147.18 389.9 1144.98 397.39 1145.22 407.3 1145.05 407.97 1139.16 407.7 1136.03 408.07 1126.15 412.28 1123.98 425.58 1124.22 428.43 1123.53 428.57 1121 428.71 1105.76 431.03 1103.95 434.4 1104.2 446.61 1104.19 449.53 1103.2 449.53 1085.32 453.38 1084.29 458.25 1084.11 471.29 1083.91"/>
      <path class="cls-18" d="M485.17,1085.65l-1.16,1.96-1.1,3.41-.54,3.5,2.9,2.57,6.4,2.86-.4,4.01-16.01.03-1.03,1.92c-1.95-1.59-2.61-3.32-3.1-5.84l1.49-1.54-1.31-.58.23-11.74.05-1.21,11.95.18,1.61.47Z"/>
      <polygon class="cls-18" points="1169.3 389.17 1167.39 389.73 1166.32 388.86 1165.56 383.08 1165.69 370.01 1154.55 369.85 1151.43 369.17 1147.16 369.77 1145.67 368.31 1146 366.85 1145.8 363.09 1145.5 360.1 1145.7 344.97 1145.48 330.53 1144.85 328.17 1146.68 328.37 1147.85 330.78 1147.46 365.76 1149.37 368.8 1154.62 368.2 1160.44 368.15 1167.37 369.48 1168.29 375.97 1168.15 387.47 1169.3 389.17"/>
      <polygon class="cls-18" points="1129.61 328.14 1128.38 328.89 1125.57 326.54 1125.48 308.29 1124.38 307.13 1127.51 308.27 1127.52 326.72 1129.61 328.14"/>
      <polygon class="cls-28" points="1208.55 654.9 1211.5 655 1228.97 655.04 1228.97 674.7 1229.32 676.01 1229.03 677.01 1228.97 694.04 1228.74 695.96 1208.53 696.04 1208.54 717.02 1207.47 716.51 1188.2 716.64 1188.51 736.98 1167.62 736.96 1167.52 757.15 1161.53 757.48 1147.22 757.44 1147.22 776.05 1147.48 778.01 1126.78 777.95 1126.66 798.35 1106.25 798.51 1106.27 818.9 1085.8 818.98 1085.71 839.22 1065.22 839.44 1044.8 839.39 1044.79 859.93 1024.69 859.91 983.39 859.89 983.21 880.3 942.18 880.33 925.5 880.13 921.69 879.98 921.92 859.88 962.69 859.92 962.83 839.42 1003.58 839.37 1003.67 818.96 1044.77 818.85 1044.86 798.42 1065.23 798.44 1065.27 778.69 1068.5 777.9 1106.26 777.97 1106.31 757.62 1126.59 757.3 1126.69 736.97 1147.18 736.95 1147.11 719.92 1147.99 716.74 1150.49 716.57 1167.54 716.55 1167.62 675.69 1188.11 675.51 1188.26 655.01 1208.55 654.9"/>
      <polygon class="cls-14" points="921.69 879.98 925.5 880.13 942.18 880.33 942.4 900.78 860.53 901.01 860.53 880.24 919.48 880.17 921.69 879.98"/>
      <polygon class="cls-14" points="860.53 901.01 860.49 921.13 802.54 921.17 799.39 921.55 799.05 924.98 798.87 936.02 798.61 942.01 738.48 941.86 737.47 943.91 737.59 961.97 696.51 962.07 655.62 962.3 655.52 982.78 638.48 982.71 635.89 983.08 634.57 982.66 614.72 982.79 614.75 1001.06 614.5 1003.25 594.41 1003.3 573.51 1003.18 573.76 982.8 594.25 982.72 594.18 962.22 635.05 962.18 635.11 953 635.45 941.94 696.51 941.88 696.56 921.28 778.44 921.22 778.59 900.89 860.53 901.01"/>
      <path class="cls-19" d="M1184.48,614.11l2.02,1.32,2.04-1.33,18.93.02,1.08.89v39.89s-20.29.12-20.29.12l-.15,20.49-20.49.19-.08,40.86-17.05.02-2.5.17-.87,3.18.07,17.03-20.49.02-.1,20.34-20.27.32-.06,20.34-37.76-.07-3.23.79-.05,19.76-20.37-.02-.09,20.42-41.1.11-.1,20.42-40.75.05-.14,20.5-40.77-.04-.23,20.1-2.21.19-58.95.07v20.77s-81.94-.12-81.94-.12l-.15,20.33-81.88.07-.05,20.6-61.05.05-.34,11.07-.06,9.18-40.88.04.07,20.5-20.49.09-.24,20.38-19.99.04-.34-2.16v-18.27s-18.7-.08-18.7-.08l-1.99.33-.96-.32-19.26.08-.12,18.27.47,2.15-20.88.04-.02,20.51,40.94.05,17.88.07,2.97.2-.25,20.01-18.65.1-1.77.81-2.25-.94-38.86.09-8.21-.04-12.2-.23-.11-20.05h-20.3s-.14-20.58-.14-20.58l-20.24-.1-.14-38.17-.29-2.58,1.46-.2,19.24-.04-.03,20.54,61.36.04.09-20.39,17.34-.16,2.48-.18.87-2.94-.16-17.19,18.85-.03,1.58-.55.08-2.28-.03-17.1,1.42-.74,18.97-.07.18-20.23,20.71-.03-.35,6.06.02,14.27,20.32-.06,20.75.05.21-20.31h20.2s-.03-20.68-.03-20.68l79.96.03,2-1.87v-18.45s40.88-.06,40.88-.06l.07-20.53h20.22s.08,12.69.08,12.69l.2,7.92,18.63.07,1.96-.87.03-19.75,40.89-.12.05-20.28,19.07-.07,1.28-1.78-.02-18.27,20.27-.33,18.65-.24,2.09-1.98-.08-18.42,20.67.1-.35,20.45-20.37-.03.08,18,1.15,2.43,2.49.18,37.28-.09v-20.86s1.64.37,1.64.37h17.32s1.61-1.37,1.61-1.37l.04-19.05,20.24-.06.05-19.94-.29-.78.22-4.2.06-14.22-1.09-1.84-19.14-.04-.05-20.13,13.08-.12,7.11-.54.17-20.13,39.81-.06,1.31-1.82.09-18.41,20.27-.49.07-14.28.27-5.9,81.69-.04-.02-20.3-40.93-.03-.16-16.73.39-3.83,77.95-.05ZM1065.41,737.48l-.17,5.5.1,14.27,18.25.13,1.78-.51,2.15.55,18.73-.16.3-20.23h20.19s-.02-20.15-.02-20.15l20.64-.18-.14-20.67-20.91.02h-14.79s-4.4.23-4.4.23l-2.52-.33-18.82-.02-.19,20.85-12.08-.18-8.09-.16-.18,17.6.19,3.43Z"/>
      <polygon class="cls-19" points="1024.69 859.91 1024.36 861.98 1024.64 879.98 1022.54 880.29 1003.47 880.21 983.37 880.21 983.45 900.87 972.51 900.91 962.96 901.04 960.57 900.82 942.44 900.89 942.28 911.03 942.61 920.95 940.51 921.25 903.5 921.2 901.61 921.62 900.37 921.21 860.52 921.18 860.56 940.13 859.57 941.88 798.61 942.01 798.87 936.02 799.05 924.98 799.39 921.55 802.54 921.17 860.49 921.13 860.53 901.01 942.4 900.78 942.18 880.33 983.21 880.3 983.39 859.89 1024.69 859.91"/>
      <polygon class="cls-19" points="983.49 757.36 983.38 778.03 962.68 777.94 962.66 757.93 962.77 757.09 969.9 757.45 983.49 757.36"/>
      <polygon class="cls-14" points="1269.49 573.24 1269.99 579.01 1269.85 607.71 1270.52 614.13 1269.66 614.37 1268.42 614.13 1249.45 614.13 1249.43 631.04 1250.33 633.07 1250.21 634.36 1249.52 634.92 1248.53 635.13 1248.47 648.18 1249.5 649.03 1249.49 652.99 1248.3 654.97 1228.97 655.04 1211.5 655 1208.55 654.9 1208.56 615.01 1208.53 614.11 1229.07 614.21 1228.92 598.36 1229.58 593.71 1249.4 593.79 1249.47 573.23 1269.49 573.24"/>
      <polygon class="cls-21" points="1310.48 483.12 1310.77 487.07 1310.68 548.95 1310.77 573.15 1290.29 573.03 1290.28 532.2 1290.31 511.94 1290.39 470.83 1294.4 470.76 1309.08 470.74 1311.1 475.65 1310.48 483.12"/>
      <polygon class="cls-23" points="491.72 1044.16 491.68 1064.57 511.56 1064.74 512.84 1064.88 512.21 1066.94 512.19 1085.16 486.46 1085.17 485.17 1085.65 483.56 1085.19 471.61 1085.01 471.29 1083.91 471.31 1043.9 483.51 1044.13 491.72 1044.16"/>
      <polygon class="cls-23" points="798.61 942.01 798.94 943.96 798.81 962.25 738.55 962.18 737.22 962.99 696.56 963.02 696.55 982.69 655.52 982.78 655.62 962.3 696.51 962.07 737.59 961.97 737.47 943.91 738.48 941.86 798.61 942.01"/>
      <polygon class="cls-21" points="901.61 921.62 901.51 941.86 859.57 941.88 860.56 940.13 860.52 921.18 900.37 921.21 901.61 921.62"/>
      <polygon class="cls-6" points="532.83 1045.01 532.74 1064.67 524.5 1064.71 512.84 1064.88 511.56 1064.74 491.68 1064.57 491.72 1044.16 530.58 1044.07 532.83 1045.01"/>
      <polygon class="cls-23" points="1290.29 573.03 1290.28 588.02 1290.45 607 1290.18 614.06 1270.52 614.13 1269.85 607.71 1269.99 579.01 1269.49 573.24 1290.29 573.03"/>
      <polygon class="cls-23" points="553.52 1003.22 553.15 1022.2 554.74 1023.92 553.5 1024.09 550.53 1023.88 532.64 1023.81 532.82 1003.21 553.52 1003.22"/>
      <polygon class="cls-19" points="1229.32 676.01 1228.97 674.7 1228.97 655.04 1248.3 654.97 1249.49 652.99 1249.47 675.56 1231.45 675.55 1229.32 676.01"/>
      <polygon class="cls-23" points="594.41 1003.3 594.22 1013.98 594.22 1023.9 575.47 1023.97 573.82 1023.66 573.51 1003.18 594.41 1003.3"/>
      <polygon class="cls-19" points="1065.22 839.44 1065.35 855.02 1065.73 859.87 1044.79 859.93 1044.8 839.39 1065.22 839.44"/>
      <polygon class="cls-23" points="1147.48 778.01 1147.21 798.41 1126.59 798.45 1126.62 818.88 1108.21 818.88 1106.25 820.62 1106.29 839.33 1085.71 839.22 1085.8 818.98 1106.27 818.9 1106.25 798.51 1126.66 798.35 1126.78 777.95 1147.48 778.01"/>
      <polygon class="cls-21" points="635.89 983.08 635.36 988.98 635.25 1003.2 614.5 1003.25 614.75 1001.06 614.72 982.79 634.57 982.66 635.89 983.08"/>
      <polygon class="cls-23" points="1003.47 880.21 1003.74 900.31 1000.56 900.95 983.45 900.87 983.37 880.21 1003.47 880.21"/>
      <polygon class="cls-19" points="1167.52 757.15 1167.61 777.98 1147.48 778.01 1147.22 776.05 1147.22 757.44 1161.53 757.48 1167.52 757.15"/>
      <polygon class="cls-23" points="1188.51 736.98 1188.26 738.04 1188.12 757.41 1167.52 757.15 1167.62 736.96 1188.51 736.98"/>
      <polygon class="cls-21" points="1085.71 839.22 1085.69 859.9 1069.48 860.05 1065.73 859.87 1065.35 855.02 1065.22 839.44 1085.71 839.22"/>
      <polygon class="cls-6" points="573.51 1003.18 573.82 1023.66 569.53 1023.88 554.74 1023.92 553.15 1022.2 553.52 1003.22 573.51 1003.18"/>
      <path class="cls-27" d="M1329.57,513.99l.13,20.04-.1,55.97-.96,2.12h-16.8s-2.3,2.36-2.3,2.36l.32,2.62-1.77-.04-.46-2.14,1.69-3.98,5.28-6.86,1.49-1.85,2.22.59,7.56-2.53c-.24.61.62-1.53.87-2.18l1.12-10.16-1.11-5.18.37-3.88.23-6.37-2.06-3.14-3.07-3.19.5-3.86,3.76-7.93-.59-4.31-.78-3.09,2.32-4.33.19-8.55,1.95-.12Z"/>
      <polygon class="cls-23" points="1228.74 695.96 1229.09 714.44 1226.07 716.64 1218.39 716.53 1208.54 717.02 1208.53 696.04 1228.74 695.96"/>
      <polygon class="cls-9" points="1208.54 717.02 1208.63 735.12 1207.58 737.15 1188.51 736.98 1188.2 716.64 1207.47 716.51 1208.54 717.02"/>
      <polygon class="cls-21" points="1044.79 859.93 1044.68 880.14 1025.51 880.23 1024.64 879.98 1024.36 861.98 1024.69 859.91 1044.79 859.93"/>
      <polygon class="cls-21" points="962.96 901.04 962.72 921.15 943.52 921.24 942.61 920.95 942.28 911.03 942.44 900.89 960.57 900.82 962.96 901.04"/>
      <polygon class="cls-19" points="1269.66 614.37 1269.92 615.97 1269.89 631.09 1269.11 634.1 1266.21 634.71 1258.52 634.5 1255.53 632.38 1250.33 633.07 1249.43 631.04 1249.45 614.13 1268.42 614.13 1269.66 614.37"/>
      <polygon class="cls-27" points="1309.56 602.76 1309.5 627.01 1308.03 626.99 1307.62 625.03 1306.88 620.91 1305.67 617.8 1304.62 613.84 1307.21 606.28 1307.38 603.63 1309.56 602.76"/>
      <polygon class="cls-19" points="1249.5 649.03 1248.47 648.18 1248.53 635.13 1249.52 634.92 1249.5 649.03"/>
      <polygon class="cls-2" points="656.54 204.09 659.51 205.06 655.88 205.18 653.56 204.63 637.46 204.63 635.4 204.99 635.22 186.99 635.55 184.03 655.58 184.01 655.59 204.18 656.54 204.09"/>
      <polygon class="cls-2" points="716.62 143.1 716.91 146.98 716.69 163.58 696.53 163.54 696.53 143.02 716.62 143.1"/>
      <polygon class="cls-2" points="737.29 60.9 741.5 61.21 758.65 61.08 758.57 64.93 759.56 68.18 763.94 73.3 766.87 74.5 771.02 73.31 775.24 73.73 777.81 76.72 779.07 78.9 781.42 80.66 782.67 85.22 783.06 89.02 782.29 94.41 784.89 96.61 787.34 97.31 788.76 94.17 790.84 92.29 792.97 94.15 794.16 96.23 798.75 99.33 798.55 101.55 795.49 102.09 737.58 102.08 737.55 122.68 699.5 122.62 697.03 122.94 696.51 124.97 696.53 143.02 676.15 143.02 676.12 163.59 638.5 163.58 636.02 163.87 635.21 165.94 635.22 182.04 635.55 184.03 614.72 184.05 614.67 204.53 634.45 204.72 635.4 204.99 635.36 206.96 635 223.17 633.59 224.96 614.81 225.06 614.71 204.65 594.33 204.69 594.14 225.15 584.43 225.02 584.33 243.11 583.76 245.24 573.56 245.51 573.54 265.95 555.46 265.84 553.46 266.54 553.21 269 553.28 306.8 532.82 306.98 532.74 347.96 514.13 347.81 512.19 349.91 512.29 409.12 491.64 409.2 491.58 470.8 474.43 470.59 471.35 471.73 471.34 489.12 471.69 490.67 471.36 493.01 471.45 531.92 471.36 533.02 471.3 573.18 450.73 573.18 450.71 675.66 433.47 675.62 431.02 675.87 430.35 678.04 430.35 736.97 409.72 736.96 409.68 777.18 406.63 778.05 389.44 777.96 389.5 758.97 389.06 756.36 389.37 755.89 389.42 695.87 409.63 696.01 409.73 676.98 409.33 675.63 409.7 674.06 409.64 655 409.68 653.95 409.68 533.02 410.52 532.16 430.36 532.07 430.41 513.06 430.36 512.09 430.37 490.17 430.44 474.05 430.36 470.7 430.4 459.05 430.45 453.96 430.43 449.86 431.53 450.21 450.75 450.05 450.91 432.97 450.54 429.67 450.89 428.07 450.91 410.97 450.54 408.8 450.86 407.06 450.91 390.97 450.52 388.49 450.87 387.09 450.87 368.12 471.21 368.17 471.49 354 471.29 347.94 471.54 328.4 477.46 327.38 491.71 327.6 491.59 306.93 491.62 285.8 491.63 267.01 492.79 266.02 512.2 265.83 512.36 245.28 529.6 245.43 532.55 244.56 532.82 242.03 532.73 226.03 532.42 224.93 532.81 223.05 532.89 204.54 553.16 204.63 553.49 184.01 571.58 184.04 573.63 183.18 573.58 163.96 575.47 163.6 594.18 163.51 594.3 144.11 594.53 143.03 614.63 143.03 614.63 122.78 635.29 122.58 635.29 102.1 655.41 101.99 676.14 102.09 676.18 82.07 695.52 81.86 717.05 81.58 717.07 62.86 718.63 61.1 735.54 61.2 737.29 60.9"/>
      <path class="cls-22" d="M409.74,489.92l-.06.94v19.9s.55,1.38.55,1.38l-.38,8.12-.28,11.67.12,1.09v120.92s-.03,1.05-.03,1.05l-20.11.04-.12,19.95.09.73-.1,20.15-.05,60.02-.31.47-3.47,1.04h-16.69s-.04,20.72-.04,20.72l.05,20.13-.03,17.72-.46,3h-20.02s.07,19.84.07,19.84l-.07,20.17-1.09.93-19.08.04-.12,19.05.34.9-.07.7-3.09-.38h-17.73s-.08,59.86-.08,59.86l-2.97-1.23-1.92-.63-.84,1.42-2.29.7-10.16-1.06.15-58.29-.2-15.34,2.42-3.27,4.8,1.55,3.7-.09,3.8,1.25,3.48-1.57,2.28-.62,2.21-1.75,1.71-3.1,3.18-5.42-4.84-5.43-.98-5.02,3.53-.3,14.57-.03,2.13-2.15-.82-2.75-.11-36.95.04-16.18,10.52.27,3.22-.59,3.64-3.19,2.75-3.21-.02-31.04-.66-4.21,1.44-3.78,13.86,3.81,4.61.21,2.42-1.61,4.29-3.85.34-5.84c-.29-3.67-1.45-7.45-2.99-10.63l-.63-3.54c.65-1.72.33-4.33-1.4-5.77l-.39-8.89.24-28.02-.19-10.91.04-37.14-.02-86.88,1.3-4.28,5.77.03,6.84.31c3.27,1.33,6.22-1.63,6.2-5.04l-.19-4.97.47-13.92.05-8.4,1.79-2.56,1.35-3.51,2.76-2,3.29,3.43.35,3.95.65,2.48,2.6.71,2.38-2.49-.88-4.88c-.08-1.62.19-4.32.52-6.06l1.4-1.85,1.69-.05Z"/>
      <path class="cls-27" d="M981.51,20.22l-17.05-.16-1.43.41-2.48-.35-12.97-.02-5.16.02h-121.75s-19.18,0-19.18,0l-2.14.33-.68,2.51.1,10.07-.16,7.62-15.08.14h-5.03s-20.75-.08-20.75-.08l-20.11-.03-.19,19.25-.16.97-1.75.3-16.9-.1h-22.11s-.05,19.77-.05,19.77l-19.78.51-20.89.52-1.14-2.69-7.72,2.85-3.5-2.22.49-3.3-1.62-3.12-4.61-4.75.14-4.49,3.74-1.05,31.03-.33,3.87-.11,2.03-3.33,3.34,3.06,4.56.28,1.72-2.74-2.17-3.62-1.84-3.43c.43-2.82-.48-5.45-2.04-7.26l-3.4,1.41.9-4.1,28.96-.03,5.15-.1c3.25.02,6.31-3.33,5.86-6.73l-.25-9.19.78-4.87,36.56-.15,2.7-1.68.26-18.24h215.67s6.01.02,6.01.02l.29,9.01.26,6.92-.32,2.26Z"/>
      <path class="cls-22" d="M532.52,192.41l.34,5.57.04,6.56-.09,18.51-.39,1.88-20.14.05-.04,20.21-20.57.23-.03,21.59v18.79s-2.02.42-2.02.42h-18.2s0,20.57,0,20.57l-.11,18.26-.33,1.25-4.03.81,1.57-2.27c-.28-2.04-1.02-4.18-2.25-6.53l-4.63.07-2.64.11-3.87,2.07-2.55.51-2.86-1.3-2.45.68-.43,1.9-1.32,3.69-1.75,4.22-2.82,6.3.18,2.61,1.44,3.61-.17,7.59,4.09,1.89,2.79-3.96,1.37-.41.22,20.22v18.97s-.35,1.4-.35,1.4l-1.96.44-15.13-.12-2.99.73-.09,6.89-3.15-1.32-1.29,3.07-2.54,7.52-3.34-1.78-2.47-3.8-2.6-.64,1.94-3.35-.19-4.38-2.95-3.4-.79-4.17-.83-10.28,2.35-2.73,5.96.12,6.25.81c2.92-.21,5.89-2.92,5.65-5.86l.51-9.34-.22-3.08-.2-34.79.48-3.63,2.62-2.27,4.72.98,4.78,1.24,4.04,1.58,1.24-1.5c1.44-.93,3.05-3.2,3.29-5.16l1.79-3.33-.14-6.69-2.07-1.64.61-8.3c.3-1.47.18-3.63-.22-5.26l-.37-13.02,5.46-.09,4.95,1.21,3.91-.12,3.62-.36,4.25-4.69,1.95-2.27.94-2.24.47-2.74-3.05-7.01-.35-2.72.09-4.99,1.89-3.42.29-3.64-.07-7.32,2.36-2.19,3.21.33,1.13-1.32,5.45-.13,2.85-2.58,6.48-3.13,4.21-.78-.27,3.03-.51,2.21,3.69-.02,2.03-1.54,5.72-2.14,4.78-2.54-3.5-3.62-2.56-.71-2.63-3.45-2.87-2.6.83-3.34,4.74.38c2.43-2.59,3.01-4.04,1.51-7.62l2.68-3.98,3.58.51,1.37,1.54,2.63,3.8,1.46,2.9c2.13-2.28,2.81-4.44,2.82-7.31l1.7-4.11,2.06-.84ZM531.63,211.54h-2.24c-.73,3.46,2.97,3.46,2.24,0ZM487.61,274.51l.11-7.13-3.23,1.04-1.07,3.36,4.18,2.73Z"/>
      <path class="cls-27" d="M348.15,962.46l40.05.33,1.58-.88,1.68.36,16.08-.04,1.79-.13,12.18.12,8.58.22.29,2.58.14,38.17-20.69.09-.04-20.51-80.24.03-1.54.25-2.48-.3-17.94.04v20.51s-15.06-.12-15.06-.12l-1.74-3.31-6.36-4.74c-.88-.29-1.99-1.92-2.12-2.85l-2.37-2.24-.3-4.98,6.56-.68,3.19-1.67.08-14.69.19-2.5,2.8-.92,6.15.93,2.34,1.13,4.52,3.65,2.95,1.21,2.21-1.61,2.75-4.56-.25-6.43-3.06-4.96-.94-8.01-.07-3.08.17-1.04,18.54.16.12,20.14,20.24.36Z"/>
      <polygon class="cls-23" points="328.38 880.61 328.19 886.04 328.25 941.83 348.41 941.96 348.43 960.08 348.15 962.46 327.91 962.09 327.79 941.96 309.25 941.8 309.23 940.59 307.48 940.09 307.55 880.22 325.29 880.23 328.38 880.61"/>
      <path class="cls-22" d="M430.08,426.49l.53,3.14-.35,5.37.17,14.87.02,4.1-1.29,1.99,1.24,3.09-.03,11.66-.74-.07-19.83.09-.16,16.28-2.63-1.19.27-2.88-1.29-6.27-3.47,1.32-2.78.99-1.2-4.91-.74-4.38c-2.18-1.51-2.99-2.32-3.32-3.06l-1.91-5.15c-.47-2.56.27-5.69,1.65-8.71l3,.8c4.88.9,9.9.06,14.41-2.09l.78-4.42.17-14.81-.32-7.31,1.92-6.54,2.92-1.67,3.04,4.36,2.54,1.45.86,3.17,2.59,2.56,1.83-1.17,2.13-.61Z"/>
      <polygon class="cls-11" points="553.49 184.01 553.16 204.63 532.89 204.54 532.86 197.98 532.52 192.41 532.81 186.96 532.53 185.98 534.55 183.87 553.49 184.01"/>
      <polygon class="cls-11" points="594.53 143.03 594.3 144.11 594.18 163.51 575.47 163.6 573.58 163.96 573.44 146.82 574.96 142.88 594.53 143.03"/>
      <path class="cls-19" d="M627.74,102.06l7.54.04v20.48s-20.66.2-20.66.2v20.25s-20.09,0-20.09,0l-.35-17.07.75-3,2.54-.37,17.28.06-.3-17.05c.55-1.04,2.07-2.89,2.92-3.53l10.37-.02Z"/>
      <polygon class="cls-9" points="450.54 408.8 450.91 410.97 450.89 428.07 450.54 429.67 430.61 429.62 430.08 426.49 430.21 422.59 430.3 414.58 430.42 409.24 449.44 409.17 450.54 408.8"/>
      <polygon class="cls-11" points="718.63 61.1 717.07 62.86 717.05 81.58 695.52 81.86 676.18 82.07 676.14 102.09 655.41 101.99 655.8 81.9 676.7 81.39 696.47 80.88 696.52 61.11 718.63 61.1"/>
      <polygon class="cls-21" points="429.62 470.63 430.44 474.05 430.37 490.17 428.61 491.28 415.49 491.37 409.68 490.86 409.74 489.92 409.64 487 409.8 470.72 429.62 470.63"/>
      <polygon class="cls-19" points="573.58 163.96 573.63 183.18 571.58 184.04 553.49 184.01 553.19 165.52 556.17 163.41 571.63 163.58 573.58 163.96"/>
      <polygon class="cls-21" points="450.52 388.49 450.91 390.97 450.86 407.06 450.54 408.8 449.44 409.17 430.42 409.24 430.42 402 430.35 396.42 430.44 389.54 433.43 388.81 448.56 388.92 450.52 388.49"/>
      <path class="cls-27" d="M627.74,102.06l-10.37.02-.25-1.82.24-5.26-.29-5.76.13-5.14,3.43,1.37,2.37,2.98,3.46,1.86,2.71.16,3.99,4.24c-.9,2.99-1.6,4.41-3.71,4.88l-1.71,2.46Z"/>
      <path class="cls-22" d="M430.3,414.58l-.09,8.01-3.2-2.88c.65-2.19,1.55-4.08,3.29-5.13Z"/>
      <path class="cls-22" d="M532.81,186.96l-.28-.98.28.98Z"/>
      <polygon class="cls-12" points="1106.45 491.37 1126.7 491.03 1126.71 532.16 1106.28 532.22 1106.16 551.55 1105.78 552.77 1085.58 552.71 1085.58 531.98 1085.58 512.63 1084.92 511.94 1065.34 511.75 1065.36 491.27 1085.69 491.32 1085.64 511.45 1086.12 511.89 1106.19 511.81 1106.2 497.98 1106.45 491.37"/>
      <polygon class="cls-12" points="1106.53 368.43 1126.72 368.29 1126.7 388.8 1147.2 388.86 1147.1 409.26 1165.59 409.22 1167.32 408.59 1167.64 410.98 1167.64 428.04 1167.22 429.56 1159.52 429.74 1147.17 429.52 1147.34 409.1 1126.68 409.21 1126.67 450.06 1161.51 450.17 1167.54 450.5 1167.59 470.79 1208.27 470.68 1229.21 470.69 1267.51 470.69 1270.07 471.02 1269.9 490.18 1267.64 491.37 1249.42 491.28 1249.39 511.74 1208.48 511.84 1208.56 491.26 1167.49 491.29 1126.7 491.03 1126.69 470.76 1106.23 470.77 1106.16 429.67 1085.68 429.67 1085.58 408.97 1085.68 404.02 1085.55 389.66 1084.85 388.74 1065.33 388.84 1065.37 368.32 1085.68 368.24 1085.59 388.44 1086.12 388.89 1106.22 388.77 1106.26 371.98 1106.53 368.43"/>
      <polygon class="cls-13" points="1290.39 470.83 1290.31 511.94 1269.99 511.78 1269.91 532.18 1249.39 532.22 1249.42 552.68 1228.94 552.79 1228.95 573.16 1210.44 573.25 1208.66 572.95 1208.45 552.98 1209.49 552.74 1228.97 552.68 1228.9 532.2 1208.52 532.16 1208.48 511.84 1249.39 511.74 1249.42 491.28 1267.64 491.37 1269.9 490.18 1270.07 471.02 1272.49 470.63 1290.39 470.83"/>
      <polygon class="cls-17" points="1167.22 429.56 1188.17 429.73 1188.2 450.15 1208.86 450.3 1208.47 453.98 1208.54 469.03 1208.27 470.68 1167.59 470.79 1167.54 450.5 1161.51 450.17 1126.67 450.06 1126.68 409.21 1147.34 409.1 1147.17 429.52 1159.52 429.74 1167.22 429.56"/>
      <polygon class="cls-13" points="1229.21 470.69 1208.27 470.68 1208.54 469.03 1208.47 453.98 1208.86 450.3 1210.47 450.16 1229.03 450.27 1229.21 470.69"/>
      <polygon class="cls-13" points="1145.67 368.31 1147.16 369.77 1147.16 388.76 1166.32 388.86 1167.39 389.73 1167.63 391.97 1167.65 407.07 1167.32 408.59 1165.59 409.22 1147.1 409.26 1147.2 388.86 1126.7 388.8 1126.72 368.29 1106.53 368.43 1106.26 366.03 1106.24 349.97 1106.52 348.05 1126.71 347.84 1126.74 368.27 1145.67 368.31"/>
      <polygon class="cls-27" points="1084.25 142.97 1083.7 150.09 1083.69 244.69 1086.91 247.72 1098.5 247.82 1104.51 248.13 1104.59 304.94 1105.43 306.87 1085.64 306.96 1085.73 265.91 1065.16 265.72 1065.15 203.84 1065.12 184.35 1065.12 145.01 1065.27 142.94 1084.25 142.97"/>
      <path class="cls-22" d="M1085.24,142.15l.49-2.02-.03-17.18v-20.98s-.03-20.12-.03-20.12l-20.41-.25-.07-20.14-6.67-.36h-12.93s-.5-.27-.5-.27l-.45-4.78-.05-14.49,3.93.19,7.29.58c.88.31,2.85.33,4.05-.14l16.64-.19,4.72.26,2.33.96.28,17.77,2.47,1.71,4-.16,2.97.39,8.84-.11c.67.04,2.17,1.83,2.46,3.16l-.04,73.71-2.83,1.48-13.17-.07-3.29,1.07Z"/>
      <path class="cls-22" d="M1043.55,25.71l-1.71-.4-4.75-.07-4.5,4-2.45,1.38-2.43,1.55-2.26,1.99c-1.74,1.93-2.92,4.16-2.86,6.53h-18.07s-.69.19-.69.19l-10.31-.25-10.13.3.04-18.93,7.13-.04,51.29.03c.56.73,1.42,2.69,1.7,3.72Z"/>
      <polygon class="cls-23" points="981.51 20.22 983.42 22 983.38 40.93 962.46 40.66 962.81 24.99 963.03 20.48 964.46 20.07 981.51 20.22"/>
      <polygon class="cls-13" points="1105.43 306.87 1106.27 307.84 1106.24 326.97 1102.55 327.44 1085.58 327.25 1085.64 306.96 1105.43 306.87"/>
      <polygon class="cls-23" points="1043.8 40.97 1044.58 41.55 1044.63 56.04 1045.08 60.82 1040.53 61.2 1024.64 60.96 1024.21 59.06 1024.19 42.97 1024.52 40.83 1031.52 40.77 1038.54 40.73 1043.8 40.97"/>
      <polygon class="cls-9" points="1085.69 122.95 1085.73 140.13 1085.24 142.15 1084.25 142.97 1065.27 142.94 1065.05 122.99 1067.47 122.51 1083.56 122.54 1085.69 122.95"/>
      <path class="cls-27" d="M1043.55,25.71l.36,8.27-.11,6.98-5.25-.24-7.02.04-7,.06-1.93-.14c-.06-2.36,1.12-4.59,2.86-6.53l2.26-1.99,2.43-1.55,2.45-1.38,4.5-4,4.75.07,1.71.4Z"/>
      <path class="cls-17" d="M1085.64,306.96l-.05,20.29,16.96.19,3.7-.48v19.07s.28,2.02.28,2.02l-.28,1.92v16.06s.29,2.4.29,2.4l-.27,3.55-.05,16.79-20.1.12-.57.76.12,14.37-.1,4.94-2.02.31-18.27-.07.04-20.37-20.56-.04-.03-20.53-20.51-.05.05-26.21.02-35.08,20.42-.19.05-20.42,20.42.02.14,20.42,20.29.22ZM1085.59,388.44l.1-20.2-20.32.08-.04,20.51,19.52-.1.74-.3Z"/>
      <polygon class="cls-27" points="1166.32 388.86 1147.16 388.76 1147.16 369.77 1151.43 369.17 1154.55 369.85 1165.69 370.01 1165.56 383.08 1166.32 388.86"/>
      <path class="cls-6" d="M996.47,716.7l-13.08.12.05,20.13,19.14.04,1.09,1.84-.06,14.22-.22,4.2-19.9.11-13.58.08-7.13-.35-.11-20.16-20.32.02-.16,20.37-20.41.08.04,20.5.08,18.42-2.09,1.98-18.65.24-20.27.33.02,18.27-1.28,1.78-19.07.07-.05,20.28-40.89.12-.03,19.75-1.96.87-18.63-.07-.2-7.92-.08-12.7h-20.22s-.07,20.54-.07,20.54l-40.88.06v18.45s-2,1.87-2,1.87l-79.96-.03.03,20.67h-20.2s-.22-20.6-.22-20.6l20.35-.15.03-20.19h-20.06s-20.78-.02-20.78-.02l-.11,20.21-20.48.13.33,20.61-20.71.03-.18,20.23-18.97.07-1.42.74.03,17.1-.08,2.28-1.58.55-18.85.03.16,17.19-.87,2.94-2.48.18-17.34.16-.09,20.39-61.36-.04.03-20.54-19.24.04-1.46.2-8.58-.22-12.18-.12.48-4.05-.08-16.19h20.68s81.76.01,81.76.01l.07-20.02,2.18-.7,18.28-.02.08-20.24,20.49-.1-.04-20.24,5.24-.31h15.06s.11-20.28.11-20.28l40.99-.06.07-20.51,40.92-.05v-20.41s40.95.04,40.95.04l-.02,40.81,20.65.21.14-20.57,20.24-.12-.03-20.32-19.88-.05-.46-1.85v-18.43s2.29-.29,2.29-.29l34.64.08,22.5.04,1.78-1.47.07-19,60.15-.04,1.22-2.73-.07-17.82,17.72-.09,23.24.12.02-20.41h20.62s.08-20.5.08-20.5l8.02.05,5.91-.05,6.33.1.39-8.36-.31-12.23,20.44-.09.17-20.19,20.15-.21.05-5.46,1.7-.96-.63-2.75,1.31-2.74,5.8,3.06s.63,1.4,1.26,2.8l2.79,3.9,2.69,1.56,1.89,1.15,3.22,4.61,1.14,2.35,4.72,2.08,4.26,1.41,2.09,3.46-2.46,3.69,1.08,1.36,3.4,4.57.94,4.47-1.26,7.34-.1,5.26Z"/>
      <polygon class="cls-28" points="553.52 1003.22 532.82 1003.21 532.64 1023.81 491.71 1023.76 491.73 1003.25 512.61 1003.21 532.77 1003.3 532.8 984.94 532.49 983.03 534.48 982.71 553.18 982.79 553.18 1001.06 553.52 1003.22"/>
      <polygon class="cls-22" points="532.49 983.03 532.8 984.94 532.77 1003.3 512.61 1003.21 512.14 1001.07 512.26 982.8 531.53 982.72 532.49 983.03"/>
      <polygon class="cls-3" points="1290.28 532.2 1290.29 573.03 1269.49 573.24 1249.47 573.23 1249.4 593.79 1229.58 593.71 1228.6 593.05 1229.04 582.37 1228.81 573.18 1249.43 573.1 1249.44 552.78 1269.96 552.67 1269.9 532.15 1290.28 532.2"/>
      <polygon class="cls-25" points="1228.6 593.05 1229.58 593.71 1228.92 598.36 1229.07 614.21 1208.53 614.11 1208.55 593.72 1222.15 593.61 1228.6 593.05"/>
      <polygon class="cls-11" points="1208.56 615.01 1207.48 614.12 1208.53 614.11 1208.56 615.01"/>
      <polygon class="cls-9" points="1290.31 511.94 1290.28 532.2 1269.9 532.15 1269.96 552.67 1249.44 552.78 1249.43 573.1 1228.81 573.18 1229.04 582.37 1228.6 593.05 1222.15 593.61 1208.55 593.72 1107.56 593.73 1106.2 593.07 1105.91 573.2 1065.45 573.16 1065.36 552.86 1047.48 552.68 1045.86 553.05 1043.55 552.73 1024.27 552.67 1024.28 532.06 1044.62 532.21 1065.7 532.27 1065.26 533.02 1065.3 552.76 1085.58 552.71 1105.78 552.77 1106.2 553.94 1106.09 573.2 1145.51 573.23 1147.01 572.98 1150.55 573.25 1206.48 573.19 1208.66 572.95 1210.44 573.25 1228.95 573.16 1228.94 552.79 1249.42 552.68 1249.39 532.22 1269.91 532.18 1269.99 511.78 1290.31 511.94"/>
      <polygon class="cls-15" points="614.54 491.2 614.51 511.81 594.5 511.82 594.19 491.38 614.54 491.2"/>
      <polygon class="cls-15" points="839.63 573.33 839.87 576.95 839.86 593.69 820.6 593.87 819.41 593.06 819.45 573.01 821.5 573.26 839.63 573.33"/>
      <polygon class="cls-15" points="860.59 183.99 880.76 184.09 880.84 185.97 880.89 201.04 880.61 203.52 877.62 204.58 860.4 204.41 860.36 245.28 844.5 245.5 839.86 245.11 839.94 242.97 839.94 186.01 839.32 184.28 842.49 183.97 860.59 183.99"/>
      <path class="cls-15" d="M839.86,245.11v82.14s0,40.89,0,40.89l20.49-.12.04,82.02,20.09.1.4,1.83v18.79s7.63-.02,7.63-.02l1.16,3.03,3.6,3.55,1.27,1.25-.65,1.66-1.27,2.8-1.85,3.27-.68,3.05-1.15,1.53-1.35.41-6.51.27-.08,20.12,19.67.08.81,2.17-.03,15.13-.4,3-40.69.14v40.87s-16.85.19-16.85.19l-3.87.08.2-2.28.1-16.2-1.34-2.13-19.11.08-.03,20.21-7.93.31-12.76-.12-.07,40.88-40.46.04-.04,19.86-2.6.78-17.2-.16-.88,2.32.04,18.09-20.38-.02-.12-20.55-18.34.23-2.21-1.48v-39.43s-40.36,0-40.36,0l-.56.85-.05,19.47-19.26.03-1.09,2.81.04,38.07h-20.42s-.22,20.6-.22,20.6l-19.26.05-1.18,2.23-.02,18.01-20.51.13v40.99s41.1-.04,41.1-.04l.02-40.85,20.4-.12.11-40.94,20.24-.07.07,20.65,20.64.05-.15-18.96,2.13-1.88,18.38.18-.08,20.51-20.26.13-.37,20.26-20.26.1-.09,20.3-20.2.22-.14,18.61,1.29,1.85,19.09-.02.06-18.06.69-2.21,11.87-.19,28.33.24v17.27s.28,2.29.28,2.29l1.7.64h39.01s0-19.09,0-19.09l.68-1.51,5.97.15,12.26-.1,1.17.19.53,5.37-.04,14.94-2.52.11-18.02-.08.04,20.34-13.95.15-14.77-.03-12.22.34-1.2-.52-22.02.25-15.07-.04-2.8,1.18.11,16.45-.24,2.39-2.89.48-58.2.05-.21,20.45-40.92.03.06,20.46-20.46-.02.08,18.4-2.21,2.1-38.91-.16-.24-16.31.61-3.97,20.24-.06-.02-12.96-.1-7.75.02-19.98-.02-59.33c.47-.83,1.82-2.26,2.37-2.54l18.09.1.12-20.66,20.5.16-.03-20.35-20.74.11.4-18.75-.42-1.95,20.57-.08.39-20.24,5.01-.1,15.21.02-.08-40.76,20.56-.16v-40.88s-20.35-.14-20.35-.14l-.23,20.57h-20.42s-20.16-.04-20.16-.04l-19.58-.16-1.26,1.81.36,18.94-4.02-.18-16.81.23.07,61.06-5.24.13-15.2.03-.02,20.54,20.43.14-.05,27.26.08,13.57-20.48.18.03,20.3-.11,20.43-20.57-.23.14-11.24-.14-9.04h-20.29s0-58.93,0-58.93l.67-2.17,2.45-.25,17.24.05.02-102.49h20.57s.06-40.15.06-40.15l.09-1.1,2.04.25,17.91-.02.37,1.77-.07,18.89,20.62-.05.05-20.5,20.35-.15.09-18.14-.31-1.97.36-1.98-.07-37.01-.34-2.1.35-1.83v-18.89s-20.51,0-20.51,0l.06,20.81-11.84-.27-8.92.08.06-61.6,20.65-.09-.1-59.21,1.94-2.1,18.61.15.09-40.98,20.46-.18-.07-37.8.25-2.46,2-.71,18.08.11.13,20.65,20.75-.32,1.06.03,19.15-.04.04-20.3,20.61.03-.07,20.29-20.54.09.03,20.55-20.35.02-.12,60.04.42,2.59-.42.47-.06,39.14-20.49.07v81.89s-20.48.22-20.48.22l.09,20.46h41.21s-.33,20.4-.33,20.4l20.5-.04-.15-20.38h20.75s0-20.52,0-20.52l-20.73-.1.29-20.49h20.45s-.04-20.38-.04-20.38l20.42-.27.03-18.08.37-2.07,2.42-.12,17.65-.14.05-20.3,20.35-.24.02-20.15,20.4-.23v-20.38s20.6-.02,20.6-.02l-.07,40.85,20.64.12-.12-17.4,1.19-3.1,19.27.07v-20.54s18.16.07,18.16.07l2.32-1.22-.18-18.48-.88-.74-19.47-.13.05-20.49,20.46.07-.12,19.97.24.53h20.38s.08-40.99.08-40.99l-20.58-.05-.09-20.5,18.88.03,1.72-1.33.02-39.03,4.03-.54,16.38-.38ZM532.77,368.18l.05,20.73,20.44-.08.07-20.52-.04-20.38,20.26-.1.02-20.51-20.29.09-.06,20.39-20.5.04.05,20.34ZM798.54,409.06l-2,.17-18.04-.03-.05,17.82.24,2.64-20.58.04.05,20.3-.21,20.65,20.5.08.04-16.75-.45-3.74,20.74-.09.07-19.18.68-1.2,19.95-.12-.09-20.81.06-6.81-.07-13.13-20.47.02-.38,20.14ZM839.82,470.65v20.63h20.64v-20.63h-20.64ZM696.51,532.27l.05-20.46,20.35-.02-.06-20.5-20.34-.06v20.42s-20.37.07-20.37.07l.04,20.43,20.33.12ZM839.93,511.76l-20.44.02.02,20.45,20.44-.02-.02-20.45ZM676.15,532.14l-20.62.09.09,20.64,20.62-.09-.09-20.64ZM655.55,593.43l.04-20.3-19.28.02-1.24,2.76.33,17.78,19.46.11.7-.37ZM716.8,593.64v20.58h20.82v-20.58h-20.82Z"/>
      <path class="cls-20" d="M962.46,40.66l20.92.27v20.13s19.15.06,19.15.06l1.03-.04,21.08-.12-.42,4.02-.05,11.04.45,5.65-20.15.05-.79,1.17-.09,19.14-40.84.08-20.39-.1-.16-20.32-20.56-.04.04-19.84-2.17-.68h-37.02s-2.36.25-2.36.25l-.82-.26-39.4-.02.09,16.93-.18,2.95-.34.94-1.97-.32-17.94.19-11.03-.25-9.67.07.18,7.02-6.1,5.49-2.13-1.85-2.08,1.88-1.41,3.13-2.45-.7-2.61-2.2.78-5.39-.39-3.81-1.25-4.56-2.35-1.76-1.25-2.18-2.58-2.99-4.22-.42-4.15,1.19-2.92-1.2-4.38-5.12-.99-3.25.08-3.85,19.83.05.1-19.1,8.28.1,2.98,3.55,2.11,2.29,4.48-.25,5.62.75,4.03-.16c1.5-.58,3.95.38,5.33,1.78l4.98-.19,3.21-.88,3.37-5.5,2.01-2.58.64-.22,136.84-.05Z"/>
      <polygon class="cls-3" points="635.55 184.03 635.22 186.99 635.4 204.99 634.45 204.72 614.67 204.53 614.72 184.05 635.55 184.03"/>
      <path class="cls-3" d="M655.88,205.18l-.26,1.79v17.97s20.86,0,20.86,0l-.35,4.03.02,16.58-20.52-.09v20.4s-20.34.15-20.34.15v-20.63s-18.86.03-18.86.03l-1.87-.65.25-19.69,18.78-.1,1.42-1.79.35-16.21.04-1.96,2.06-.37h16.1s2.32.55,2.32.55ZM655.58,245.19l.03-20.21h-19.29s-1.04,1.86-1.04,1.86l.02,18.62,20.28-.26Z"/>
      <polygon class="cls-3" points="942.37 102.02 921.68 102.09 921.69 122.1 921.44 123.08 904.47 122.6 901.49 123.21 901.48 143.02 880.93 143.01 880.57 163.72 860.73 163.73 858.51 163.68 839.94 163.5 839.77 142.96 757.86 143.02 757.96 154.03 757.49 163.19 753.53 163.54 737.54 163.71 737.55 184.02 716.76 184.02 696.84 184.12 694.73 184.57 687.58 183.9 676.27 184.01 676.46 200.35 674.82 203.06 658.28 202.95 656.54 204.09 655.59 204.18 655.58 184.01 635.55 184.03 635.22 182.04 635.21 165.94 636.02 163.87 638.5 163.58 676.12 163.59 676.15 143.02 696.53 143.02 696.53 163.54 716.69 163.58 734.54 163.55 736.65 163.96 737.54 163.1 737.54 143.01 716.62 143.1 696.53 143.02 696.51 124.97 697.03 122.94 699.5 122.62 737.55 122.68 737.58 102.08 795.49 102.09 798.55 101.55 798.75 99.33 794.16 96.23 792.97 94.15 799.07 88.65 798.89 81.63 808.56 81.56 819.59 81.81 819.7 102.08 837.57 102.11 840.04 101.87 842.5 102.1 860.49 102 860.46 121.97 864.86 122.65 881.46 122.66 901.43 122.71 901.44 81.78 880.79 81.71 880.83 62.94 880.15 61.39 882.51 61.15 919.53 61.13 921.7 61.81 921.65 81.66 942.21 81.7 942.37 102.02"/>
      <path class="cls-5" d="M430.35,736.97l-.06,38.02.29,3.36-.25,1.59.05,18.54-20.62-.08-.07,20.54-20.01-.06-5.35-2.15-1.74,4.27-.41,2.88-.79,2.09-.37,2.15-1.15,1.65-3.98.47-.8-3.63,1.87-3.92-2.99-5.57c2.78-2.7,1.31-5.11-.69-6.85l-2.28-1.69-.68,4.4.26,10.89-1.84.24-.32-5.15.46-3,.03-17.72,5.58.27,14.96-.2v-20.36s17.18.09,17.18.09l3.05-.87.04-40.22h20.63Z"/>
      <polygon class="cls-11" points="491.7 491.21 491.77 510.97 502.33 511.02 502.58 511.87 491.71 512.1 491.73 530.05 491.39 532.15 473.49 532.17 471.45 531.92 471.36 493.01 471.69 490.67 473.44 491.32 491.7 491.21"/>
      <polygon class="cls-1" points="614.81 225.06 614.55 244.75 612.59 245.39 602.5 245.49 594.37 245.02 594.19 236.02 594.14 225.15 594.33 204.69 614.71 204.65 614.81 225.06"/>
      <polygon class="cls-3" points="594.14 225.15 594.19 236.02 594.37 245.02 594.17 245.97 594.24 265.94 573.54 265.95 573.56 245.51 583.76 245.24 584.33 243.11 584.43 225.02 594.14 225.15"/>
      <polygon class="cls-11" points="532.42 224.93 532.73 226.03 532.82 242.03 532.55 244.56 529.6 245.43 512.36 245.28 512.2 265.83 492.79 266.02 491.63 267.01 491.67 245.42 512.24 245.19 512.28 224.98 532.42 224.93"/>
      <polygon class="cls-23" points="451.73 326.58 454.5 327.32 464.1 327.1 466.94 327.11 470.97 326.3 471.54 328.4 471.29 347.94 450.65 347.9 450.83 343 450.67 329 451.08 327.25 451.73 326.58"/>
      <polygon class="cls-9" points="430.36 512.09 422.53 511.79 412.46 511.76 410.23 512.14 409.67 510.76 409.68 490.86 415.49 491.37 428.61 491.28 430.37 490.17 430.36 512.09"/>
      <polygon class="cls-9" points="389.06 756.36 389.5 758.97 389.44 777.96 368.86 778.12 368.9 757.38 385.59 757.4 389.06 756.36"/>
      <polygon class="cls-21" points="409.64 655 409.7 674.06 409.33 675.63 406.52 675.55 389.52 675.71 389.42 674.98 389.54 655.03 409.64 655"/>
      <polygon class="cls-9" points="491.62 285.8 491.59 306.93 471.42 306.79 471.41 286.23 489.61 286.22 491.62 285.8"/>
      <polygon class="cls-11" points="471.29 347.94 471.49 354 471.21 368.17 450.87 368.12 450.65 347.9 471.29 347.94"/>
      <polygon class="cls-14" points="491.59 306.93 491.71 327.6 477.46 327.38 471.54 328.4 470.97 326.3 471.3 325.05 471.42 306.79 491.59 306.93"/>
      <polygon class="cls-11" points="430.36 512.09 430.41 513.06 430.36 532.07 410.52 532.16 409.56 531.93 409.85 520.26 410.23 512.14 412.46 511.76 422.53 511.79 430.36 512.09"/>
      <polygon class="cls-9" points="757.75 40.71 757.82 59.73 758.65 61.08 741.5 61.21 737.29 60.9 737.45 59.93 737.64 40.68 757.75 40.71"/>
      <polygon class="cls-11" points="450.54 429.67 450.91 432.97 450.75 450.05 431.53 450.21 430.43 449.86 430.26 434.99 430.61 429.62 450.54 429.67"/>
      <polygon class="cls-19" points="409.33 675.63 409.73 676.98 409.63 696.01 389.42 695.87 389.52 675.71 406.52 675.55 409.33 675.63"/>
      <polygon class="cls-3" points="491.58 470.8 491.7 491.21 473.44 491.32 471.69 490.67 471.34 489.12 471.35 471.73 474.43 470.59 491.58 470.8"/>
      <polygon class="cls-21" points="430.4 459.05 429.16 455.95 430.45 453.96 430.4 459.05"/>
      <polygon class="cls-9" points="430.44 474.05 429.62 470.63 430.36 470.7 430.44 474.05"/>
      <polygon class="cls-6" points="409.68 533.02 409.56 531.93 410.52 532.16 409.68 533.02"/>
      <path class="cls-6" d="M409.64,655l.04-1.05-.04,1.05Z"/>
      <path class="cls-20" d="M696.62,757.76l-.14,20.14,17.12.14,1.45.29.62,4.73.98,3.02,2.44,3.67,2.54.15,1.52,5.29-3.67,1.62.03,1.53-2.29.29v18.43s.46,1.85.46,1.85l-21.1.05-40.94-.04v20.41s-40.93.05-40.93.05l-.07,20.51-40.99.06-.11,20.27h-15.06s-5.24.32-5.24.32l.04,20.24-20.49.1-.08,20.24-18.28.02-2.18.7-.07,20.02-81.76-.02v-19.9s-.83-.84-.83-.84l-19.37.19-1.64-.19-19.17.15v19.73s-1.12.86-1.12.86l-19.24.05-.12-7.01-.09-13.64-20.44-.15-.03-38.12-.33-2.48.34-2.49v-19.04s.07-20.17.07-20.17l8,.54,12.28.22v-7.38s1.37-.18,1.37-.18l.64-2.02-.64-2.01-1.43-.06.06-3.8,1.84-.24-.26-10.89.68-4.4,2.28,1.69c2.01,1.74,3.47,4.15.69,6.85l2.99,5.57-1.87,3.92.8,3.63,3.98-.47,1.15-1.65.37-2.15.79-2.09.41-2.88,1.74-4.27,5.35,2.15-.23,8.1v10.97s-.95,1.33-.95,1.33l-19.43.19-.16,20.45v20.43s-.08,20.48-.08,20.48h80.71s1.3-2.63,1.3-2.63l-.02-17.94,18.91.03,1.63-1.2.02-19.17,20.31-.08.03-20.59,38.91.16,2.21-2.1-.08-18.4,20.46.02-.06-20.46,40.92-.03.21-20.45,58.2-.05,2.89-.48.24-2.39-.11-16.45,2.8-1.18,15.07.04,22.02-.25,1.2.52ZM594.13,798.05l-.04,20.95,20.74.04.04-20.95-20.74-.04Z"/>
      <polygon class="cls-6" points="348.05 880.52 348.39 883 348.41 921.12 368.85 921.27 368.94 934.91 369.06 941.91 388.3 941.86 389.42 941 389.48 941.77 389.35 960.04 389.79 961.9 388.2 962.79 348.15 962.46 348.43 960.08 348.41 941.96 328.25 941.83 328.19 886.04 328.38 880.61 328.45 879.91 330.48 880.22 347.49 880.21 348.05 880.52"/>
      <polygon class="cls-14" points="389.44 777.96 389.44 798.32 374.49 798.52 368.91 798.25 368.86 778.12 389.44 777.96"/>
      <polygon class="cls-19" points="368.42 818.98 368.74 824.13 368.68 827.93 368.75 832.2 368.75 839.58 356.46 839.35 348.46 838.81 348.4 818.97 368.42 818.98"/>
      <polygon class="cls-23" points="348.05 880.52 347.49 880.21 330.48 880.22 328.45 879.91 328.11 879.01 328.23 859.96 347.3 859.92 348.39 858.99 348.39 878.03 348.05 880.52"/>
      <polygon class="cls-11" points="942.42 20.12 942.59 22 947.44 22 947.58 20.11 960.55 20.13 963.03 20.48 962.81 24.99 962.46 40.66 825.62 40.7 824.98 40.92 819.68 40.65 819.49 21.83 820.67 20.13 942.42 20.12"/>
      <polygon class="cls-23" points="820.67 20.13 819.49 21.83 819.68 40.65 798.61 40.64 798.77 33.02 798.67 22.95 799.35 20.45 801.49 20.12 820.67 20.13"/>
      <polygon class="cls-11" points="778.5 40.78 778.57 42.03 778.48 61.13 758.65 61.08 757.82 59.73 757.75 40.71 778.5 40.78"/>
      <path class="cls-2" d="M798.61,40.64h21.08s5.3.28,5.3.28l-2.01,2.58-3.37,5.5-3.21.88-4.98.19c-1.38-1.41-3.83-2.36-5.33-1.78l-4.03.16-5.62-.75-4.48.25-2.11-2.29-2.98-3.55-8.28-.1-.08-1.25h5.03s15.08-.14,15.08-.14Z"/>
      <polygon class="cls-23" points="947.58 20.11 947.44 22 942.59 22 942.42 20.12 947.58 20.11"/>
      <path class="cls-18" d="M466.94,327.11h-2.83s-.59-1.53-.59-1.53l-1.69-1.16-2.31.41-3.5-1.47-4.29,3.22-.65.68-.41,1.74.16,14.01-.18,4.89-1.37.41-2.79,3.96-4.09-1.89.17-7.59-1.44-3.61-.18-2.61,2.82-6.3,1.75-4.22,1.32-3.69.43-1.9,2.45-.68,2.86,1.3,2.55-.51,3.87-2.07,2.64-.11,4.63-.07c1.24,2.35,1.98,4.49,2.25,6.53l-1.57,2.27Z"/>
      <polygon class="cls-18" points="487.61 274.51 483.42 271.79 484.49 268.42 487.71 267.39 487.61 274.51"/>
      <path class="cls-18" d="M531.63,211.54c.73,3.46-2.97,3.46-2.24,0h2.24Z"/>
      <polygon class="cls-23" points="429.59 921.11 430.43 921.96 430.42 941.86 409.75 941.86 409.82 958.05 409.34 962.09 407.55 962.22 391.47 962.26 389.79 961.9 389.35 960.04 389.48 941.77 409.67 941.88 409.82 926.07 410.22 921.3 429.59 921.11"/>
      <polygon class="cls-13" points="1085.58 408.97 1085.68 429.67 1106.16 429.67 1106.23 470.77 1126.69 470.76 1126.7 491.03 1106.45 491.37 1106.19 490 1106.16 470.64 1085.59 470.76 1085.69 450.19 1065.37 450.14 1065.15 429.69 1026.49 429.68 1024.38 430.01 1024.33 409.19 1044.72 409.21 1044.77 388.79 1065.33 388.83 1065.3 409.2 1083.56 409.27 1085.58 408.97"/>
      <polygon class="cls-13" points="1167.49 491.29 1167.4 511.72 1147.1 511.74 1147.01 572.98 1145.51 573.23 1106.09 573.2 1106.2 553.94 1105.78 552.77 1106.16 551.55 1106.28 532.22 1126.71 532.16 1126.7 491.03 1167.49 491.29"/>
      <polygon class="cls-8" points="1208.48 511.84 1206.54 511.74 1188.53 511.76 1167.4 511.72 1167.49 491.29 1208.56 491.26 1208.48 511.84"/>
      <polygon class="cls-17" points="1208.48 511.84 1208.52 532.16 1228.9 532.2 1228.97 552.68 1209.49 552.74 1208.45 552.98 1206.53 552.78 1188.04 552.61 1188.14 513.98 1188.53 511.76 1206.54 511.74 1208.48 511.84"/>
      <polygon class="cls-12" points="1065.05 122.99 1065.27 142.94 1065.12 145.01 1065.12 184.35 1059.54 183.93 1044.75 183.99 1044.76 143 1024.25 143.04 1024.18 163.64 1003.83 163.49 1003.77 183.79 986.49 184.04 983.05 184.39 982.41 184.03 962.78 184.08 962.87 204.48 983.45 204.48 1003.73 204.53 1003.71 245.38 1024.17 245.51 1024.31 224.95 1044.66 224.94 1044.8 204.47 1061.57 204.5 1065.15 203.84 1065.16 265.72 1085.73 265.91 1085.64 306.96 1065.35 306.74 1065.2 286.32 1044.78 286.3 1044.72 306.72 1024.3 306.91 1024.28 341.99 1024.23 368.21 1044.74 368.26 1044.77 388.79 1044.72 409.21 1024.33 409.19 1003.76 409.23 1003.69 370.01 1003.65 348.06 1003.75 347.01 1003.74 306.88 1024.23 306.86 1024.22 286.38 1003.77 286.4 1003.71 245.59 983.26 245.48 983.23 225.01 962.81 224.99 962.81 204.54 942.33 204.46 942.36 163.71 962.79 163.37 962.76 143 1003.68 142.98 1003.71 122.56 1063.47 122.55 1065.05 122.99"/>
      <polygon class="cls-13" points="1065.12 184.35 1065.15 203.84 1061.57 204.5 1044.8 204.47 1044.66 224.94 1024.31 224.95 1024.17 245.51 1003.71 245.38 1003.73 204.53 983.45 204.48 983.05 184.39 986.49 184.04 1003.77 183.79 1003.83 163.49 1024.18 163.64 1024.25 143.04 1044.76 143 1044.75 183.99 1059.54 183.93 1065.12 184.35"/>
      <polygon class="cls-9" points="1085.69 101.96 1084.4 102.14 1003.7 102.11 1003.74 122.53 962.92 122.53 962.77 143.07 942.35 143.04 942.35 163.65 921.83 163.56 921.8 203.99 921.71 204.97 919.56 204.45 901.4 204.71 901.44 286.07 901.41 347.96 901.41 368.24 919.57 368.34 921.6 367.93 921.84 372.99 921.85 389.11 921.8 429.63 942.27 429.65 942.34 450.09 942.5 470.72 922.59 470.66 921.79 471.08 921.53 466 921.52 430.97 920.48 429.65 901.43 429.72 901.43 368.19 880.57 368.16 880.93 366.01 880.94 329.01 880.54 326.74 880.91 325.01 880.91 268.01 880.58 266.48 880.93 263.94 880.93 204.49 901.44 204.4 901.42 163.64 901.45 163.14 906.49 163.49 921.79 163.29 921.72 143.06 942.36 143.01 942.39 122.79 942.31 122.25 951.13 122.63 962.83 122.37 962.76 102.12 1003.6 102.04 1003.68 82.9 1004.47 81.72 1024.62 81.67 1044.63 81.76 1044.78 66.29 1045.58 61.09 1058.51 61.09 1065.19 61.45 1065.25 81.59 1085.66 81.85 1085.69 101.96"/>
      <polygon class="cls-13" points="1085.69 101.96 1085.69 122.95 1083.56 122.54 1067.47 122.51 1065.05 122.99 1063.47 122.55 1003.71 122.56 1003.68 142.98 962.76 143 962.79 163.37 942.36 163.71 942.33 204.46 962.81 204.54 962.81 224.99 983.23 225.01 983.26 245.48 1003.71 245.59 1003.77 286.4 1024.22 286.38 1024.23 306.86 1003.74 306.88 1003.75 347.01 1003.65 348.06 983.45 348.03 983.23 327.36 962.84 327.32 962.77 306.9 942.32 306.75 942.32 286.32 903.51 286.37 901.44 286.07 901.4 204.71 919.56 204.45 921.71 204.97 921.78 225.05 942.36 225.02 942.23 204.56 923.43 204.53 921.8 203.99 921.83 163.56 942.35 163.65 942.35 143.04 962.77 143.07 962.92 122.53 1003.74 122.53 1003.7 102.11 1084.4 102.14 1085.69 101.96"/>
      <polygon class="cls-6" points="1045.08 60.82 1045.58 61.09 1044.78 66.29 1044.63 81.76 1024.62 81.67 1024.17 76.02 1024.22 64.98 1024.64 60.96 1040.53 61.2 1045.08 60.82"/>
      <polygon class="cls-19" points="1022.59 40.69 1024.52 40.83 1024.19 42.97 1024.21 59.06 1024.64 60.96 1003.56 61.08 1003.83 40.89 1004.52 40.69 1022.59 40.69"/>
      <polygon class="cls-11" points="1003.83 40.89 1003.56 61.08 1002.53 61.12 983.38 61.06 983.38 40.93 993.51 40.63 1003.83 40.89"/>
      <path class="cls-14" d="M1044.53,573.18l.37,3.8v16.65s20.5.14,20.5.14l-.07,20.3,20.24.03.05,20.34-5.1.29-15.2-.17.07,17.46.18,3.06-.27,5.9-.07,14.28-20.27.49-.09,18.41-1.31,1.82-39.81.06-.17,20.13-7.11.54.1-5.26,1.26-7.34-.94-4.47-3.4-4.57-1.08-1.36,2.46-3.69-2.09-3.46-4.26-1.41-4.72-2.08-1.14-2.35-3.22-4.61-1.89-1.15-2.69-1.56-2.79-3.9c-.63-1.4-1.26-2.82-1.26-2.8l-5.8-3.06-1.31,2.74.63,2.75-1.7.96.09-15.01,20.69-.04-.03-40.82,20.21-.15.24-20.24,20.35-.1.1-16.76.21-3.69,20.03-.09Z"/>
      <polygon class="cls-3" points="1106.2 593.07 1107.56 593.73 1208.55 593.72 1208.53 614.11 1207.48 614.12 1188.55 614.1 1184.48 614.11 1106.54 614.15 1085.56 614.1 1085.61 593.75 1065.4 593.76 1065.36 575.21 1063.75 573.19 1045.45 573.21 1044.89 571.78 1044.95 554.79 1045.86 553.05 1047.48 552.68 1065.36 552.86 1065.45 573.16 1105.91 573.2 1106.2 593.07"/>
      <polygon class="cls-11" points="1106.54 614.15 1106.15 617.98 1106.31 634.71 1147.24 634.74 1147.26 655.04 1065.57 655.08 1065.39 652.02 1065.31 634.57 1080.51 634.74 1085.61 634.44 1085.56 614.1 1106.54 614.15"/>
      <polygon class="cls-21" points="962.68 777.94 962.76 798.08 962.77 818.94 925.49 819.03 923 818.84 921.85 816.41 921.77 798.42 942.13 798.45 942.49 778 962.68 777.94"/>
      <polygon class="cls-21" points="1107.1 696.28 1106.15 698.97 1106.38 717.02 1106.36 724.08 1105.34 722.16 1105.76 716.71 1085.65 716.82 1085.68 736.95 1067.45 737.03 1065.41 737.48 1065.22 734.05 1065.4 716.45 1073.49 716.61 1085.57 716.79 1085.76 695.94 1104.57 695.95 1107.1 696.28"/>
      <polygon class="cls-5" points="1126.71 716.88 1126.66 697.99 1126.29 696.05 1147.2 696.03 1147.34 716.69 1126.71 716.88"/>
      <polygon class="cls-14" points="635.44 900.9 635.23 921.21 614.49 921.16 614.77 919.02 614.58 900.86 635.44 900.9"/>
      <polygon class="cls-27" points="1003.38 757.25 1003.67 758.03 1003.62 777.97 983.38 778.03 983.49 757.36 1003.38 757.25"/>
      <polygon class="cls-27" points="983.38 778.03 983.34 797.08 981.73 798.46 964.41 798.45 962.76 798.08 962.68 777.94 983.38 778.03"/>
      <polygon class="cls-27" points="1126.29 696.05 1126.66 697.99 1126.71 716.88 1107.52 716.48 1106.38 717.02 1106.15 698.97 1107.1 696.28 1111.5 696.05 1126.29 696.05"/>
      <polygon class="cls-20" points="1105.5 736.88 1106.54 737.03 1106.25 757.26 1087.52 757.42 1085.37 756.87 1085.56 754.05 1086.58 753.24 1086.48 746.15 1085.53 745.98 1085.84 741.13 1086.64 736.97 1105.5 736.88"/>
      <polygon class="cls-21" points="614.58 900.86 614.77 919.02 614.49 921.16 594.17 921.22 594.15 906.95 594.5 900.89 614.58 900.86"/>
      <polygon class="cls-22" points="1106.36 724.08 1106.34 730.93 1105.44 731.77 1105.5 736.88 1086.64 736.97 1085.37 737.68 1085.84 741.13 1085.53 745.98 1085.56 754.05 1085.37 756.87 1083.59 757.38 1065.34 757.25 1065.24 742.99 1065.41 737.48 1067.45 737.03 1085.68 736.95 1085.65 716.82 1105.76 716.71 1105.34 722.16 1106.36 724.08"/>
      <polygon class="cls-15" points="1126.71 716.88 1126.73 737.02 1106.54 737.03 1106.34 730.93 1106.36 724.08 1106.38 717.02 1107.52 716.48 1126.71 716.88"/>
      <polygon class="cls-11" points="1188.55 614.1 1186.51 615.43 1184.48 614.11 1188.55 614.1"/>
      <polygon class="cls-9" points="635.54 859.96 635.14 865.7 634.81 880.21 614.72 880.29 614.58 900.86 594.5 900.89 594.17 880.27 614.65 880.14 614.76 859.93 635.54 859.96"/>
      <polygon class="cls-10" points="901.42 163.64 901.44 204.4 880.93 204.49 880.93 263.94 880.58 266.48 878.56 265.75 860.44 265.94 860.35 326.12 863.36 327.43 878.65 327.41 880.54 326.74 880.94 329.01 880.93 366.01 880.57 368.16 874.52 368.33 860.35 368.01 860.39 327.41 839.85 327.25 839.86 245.11 844.5 245.5 860.36 245.28 860.4 204.41 877.62 204.58 880.61 203.52 880.89 201.04 880.84 185.97 880.76 184.09 880.57 163.72 882.49 163.54 901.42 163.64"/>
      <polygon class="cls-10" points="614.51 511.81 614.54 491.2 635.27 491.29 635.26 511.8 614.51 511.81"/>
      <path class="cls-10" d="M757.49,163.19l.1,1,.36,3.77-.16,16.08-20.14-.02-.07,40.92-20.63.13.04,29.94-.29,10.96h-40.31s-.03,33.65-.03,33.65l-.36,7.15,20.57.12.05,20.16,20.47.05.12-20.13,20.33-.21-.04-20.17,3.99-.46,15.95-.04.74-2.4-.07-17.07,3.35-.84,17.05-.03.06-20.56,16-.03,4.13-.35v-60.76s-20.12-.03-20.12-.03l.05-19.94,1.9-.54,23.4-.03,12.66.06,2.48.22.55,2.08-.27,16.49,1.86,1.76,16.42-.15,1.73.29.62,1.73v56.96s-.08,2.14-.08,2.14l-16.38.38-4.03.54-.02,39.03-1.72,1.33-18.88-.03.09,20.5,20.58.05-.08,40.98h-20.38s-.28.79-.28.79l.18,18.48-2.32,1.22-18.16-.07v20.54s-19.27-.07-19.27-.07l-1.19,3.1.12,17.4-20.64-.12.07-40.85-20.59.02v20.38s-20.42.23-20.42.23l-.02,20.15-20.35.24-.05,20.3-17.65.14-2.42.12-.37,2.07-.03,18.08-20.42.27.04,20.38h-20.45s-.29,20.49-.29,20.49l-20.35.19.3,20.44h-41.21s-.09-20.45-.09-20.45l20.47-.22v-81.89s20.51-.07,20.51-.07l.06-39.14.42-.47,1.64-.71,5.32.37,6.59,2.29,6.18-1.07.38,2.53.06,15.92,20.45-.1.06-20.64-18.87.08-1.5.44-.3-2.67.02-38.66h20.48s.09-20.47.09-20.47l20.39-.05v-20.51s-20.37.08-20.37.08l-.06,20.51-20.5.03-.03-20.55,20.54-.09.07-20.29,20.35-.15v-20.4s20.51.09,20.51.09l-.02-16.58.35-4.03,20.01-.16.11-25.9c2.12.02,4.22,1.35,4.88,2.67l.73,2.73,12.99.29,1.84-3.33-.28-17.23h20.79s0-20.31,0-20.31l15.99-.17,3.95-.34ZM655.52,368.07l.03-20.1,20.6-.16.07-20.49-20.5.12-.12,20.55-20.13.05v20.11s20.06-.06,20.06-.06ZM798.8,347.37l.12-19.97-20.46-.07-.05,20.49,19.47.13.92-.57ZM778.44,368.15v-20.26s-19.33-.09-19.33-.09l-1.1,4.09.25,16.36,20.18-.09Z"/>
      <polygon class="cls-10" points="614.51 511.81 614.67 532.19 594.17 532.23 594.5 511.82 614.51 511.81"/>
      <path class="cls-2" d="M888.94,490.87l1.52.46,11.1-.02,20.31.03-.05,20.43,19.91.02.18,4.98-4.38,1.9c-1.68,2.84-3.3,4.15-5.89,5.6l-3.63,4.3-1.64,2.45-1.35,2.03c-1.82.12-3.94,2.62-2.87,4.47l-.86,4.23,3.68,3.98.41,4.57,2.89,2.98c-.09,3,1.63,5.58,4.49,6.41l3.45,7.01,3.25-.35,3.86-1.67,2.26-.4,4.97-1.57,1.28-1.84,4.99-4.64.28-3.44h5.41s.26,20.41.26,20.41l17.28.16-.06,2.9-4.76,4.38-1.99,1.09-4.08,3.16-4.48,2.27-2.47,1.46-.69,2.31.59,4.48-2.56,4.64-1.93,4.01c-1.32,1.92-1.88,3.41-2.69,6.22l-3.89,1-1.89-2.14-3.93.12-2.77.77-.03-36.82h-20.58s-.07,20.55-.07,20.55l-17.57-.2c-.53.29-2.54,1.67-2.83,1.96l.04,18.39-3.85.28-16.76.03-.02,20.03.05.44-20.45-.05.04,20.41-20.43-.08-.08,19.08-.3,1.9-7.69-.33-1.93-3.98-6.93-4.43-3.47-.21-5.11-.02-2.07.31-.95,1.51-.8,1.49.93,2.29,7.59,2c-.21-.77.26.95.42,1.13l-20.74-.13-.23,20.44-20.08-.04-.16,20.48-20.77.18-1.17-.19-12.26.1-5.97-.15-.68,1.51v19.1s-39.01-.01-39.01-.01l-1.7-.64-.27-2.29v-17.27s-28.34-.24-28.34-.24l-11.87.19-.69,2.21-.06,18.06-19.09.02-1.29-1.85.14-18.61,20.2-.22.09-20.3,20.26-.1.37-20.26,20.26-.13.08-20.51-18.38-.18-2.13,1.88.15,18.96-20.64-.05-.07-20.65-20.24.07-.11,40.94-20.4.12-.02,40.85-41.09.04v-40.99s20.5-.13,20.5-.13l.02-18.01,1.18-2.23,19.26-.05.22-20.59h20.42s-.04-38.08-.04-38.08l1.09-2.81,19.26-.03.05-19.47-.74-.83-19.46-.11-.33-17.78,1.24-2.76,19.28-.02-.04,20.3.6.35h40.35s0,39.42,0,39.42l2.21,1.48,18.34-.23.12,20.55,20.38.02-.04-18.09.88-2.32,17.2.16,2.6-.78.04-19.86,40.46-.04.07-40.88,12.76.12,7.93-.31-.05,20.05,1.19.81,19.26-.18v-16.74s-.23-3.62-.23-3.62l3.87-.08,16.87-.19v-40.87s40.68-.14,40.68-.14l.4-3,.03-15.13-.81-2.17-19.67-.08.08-20.12,6.51-.27,1.35-.41Z"/>
      <polygon class="cls-2" points="839.63 573.33 821.5 573.26 819.45 573.01 819.48 552.8 838.6 552.72 839.93 554.86 839.83 571.06 839.63 573.33"/>
      <polygon class="cls-3" points="450.51 777.64 450.74 779.95 450.81 798.59 463.53 798.5 471.15 798.29 485.11 798.5 491.73 798.64 504.52 798.42 512.22 798.22 512.32 805.97 512.34 818.93 492.1 818.99 491.49 822.95 491.73 839.27 491.7 859.86 471.39 859.94 471.36 879.11 469.73 880.31 450.82 880.28 450.84 898.23 449.54 900.86 368.83 900.85 368.9 880.37 387.53 880.32 389.81 879.77 391.42 880.31 409.56 880.14 409.85 863.98 409.55 859.91 430.41 859.82 430.29 848.97 430.55 839.97 447.62 839.38 450.84 838.36 450.83 818.85 430.62 818.92 430.23 814.03 430.38 798.49 430.33 779.95 430.58 778.35 436.51 778.04 450.51 777.64"/>
      <path class="cls-1" d="M491.78,654.92l20.74.13-.34,20.54,19.28.07,1.07.06.32,4.27-.05,15.82-.12,20.66-18.09-.1c-.54.27-1.9,1.71-2.37,2.54l.02,59.33-3.72-.3-16.78.13v20.57s-6.62-.14-6.62-.14l-13.96-.21.25-20.26,20.25-.05.05-39.14-1.83-1.97-18.55.18-.03-20.3,20.48-.18-.08-13.57.05-27.26-20.43-.14.02-20.54,15.2-.03,5.24-.13Z"/>
      <polygon class="cls-1" points="553.47 634.71 553.08 654.95 532.51 655.03 512.51 655.05 512.24 636.04 512.54 635.05 516.53 634.54 553.47 634.71"/>
      <polygon class="cls-10" points="471.15 798.29 463.53 798.5 450.81 798.59 450.74 779.95 450.51 777.64 450.7 768.01 450.64 757.25 471.21 757.48 471.32 737.06 489.88 736.87 491.7 738.84 491.65 777.98 471.4 778.04 471.15 798.29"/>
      <polygon class="cls-1" points="614.96 368.68 614.37 370.44 608.19 371.51 601.61 369.23 596.28 368.86 594.64 369.57 594.23 366.98 594.35 306.95 614.7 306.93 635.2 306.9 635.26 286.39 655.62 286.31 655.63 306.83 635.24 306.88 635.15 327.35 614.67 327.35 614.65 366.01 614.96 368.68"/>
      <polygon class="cls-20" points="880.57 368.16 880.95 448.83 880.49 450.13 860.4 450.03 860.35 368.01 874.52 368.33 880.57 368.16"/>
      <polygon class="cls-10" points="532.51 655.03 532.93 656.98 532.53 675.73 531.45 675.67 512.17 675.59 512.51 655.05 532.51 655.03"/>
      <polygon class="cls-10" points="512.54 593.8 512.29 596 512.29 633 512.54 635.05 512.24 636.04 512.51 655.05 491.78 654.92 491.71 593.86 508.52 593.63 512.54 593.8"/>
      <polygon class="cls-5" points="502.58 511.87 511.5 511.76 530.53 511.77 532.49 511.99 532.8 513.96 532.71 532.11 512.36 532.25 512.31 552.75 491.69 552.8 491.76 533.92 491.39 532.15 491.73 530.05 491.71 512.1 502.58 511.87"/>
      <polygon class="cls-5" points="860.35 368.01 839.86 368.13 839.85 327.25 860.39 327.41 860.35 368.01"/>
      <polygon class="cls-10" points="553.47 634.71 553.12 613.97 553.23 594.23 553.37 574.99 554.51 575.14 554.53 593.15 558.43 593.89 573.69 593.72 573.74 575 573.61 573.26 573.83 552.69 594.18 552.82 594.18 593.71 573.62 593.87 573.69 634.63 558.48 634.61 553.47 634.71"/>
      <polygon class="cls-21" points="512.34 470.99 512.25 510.73 511.5 511.76 502.58 511.87 502.33 511.02 491.77 510.97 491.7 491.21 491.58 470.8 500.5 470.72 512.34 470.99"/>
      <polygon class="cls-6" points="758.07 736.93 778.49 737.01 778.59 754.07 777.71 757.3 737.54 757.34 737.64 777.3 734.58 778.06 717.48 777.98 715.05 778.33 713.6 778.04 696.48 777.9 696.62 757.76 708.84 757.42 723.61 757.45 737.57 757.31 737.53 736.96 755.54 737.04 758.07 736.93"/>
      <polygon class="cls-6" points="532.44 470.9 532.78 473 532.84 510.01 532.49 511.99 530.53 511.77 511.5 511.76 512.25 510.73 512.34 470.99 530.54 470.65 532.44 470.9"/>
      <polygon class="cls-1" points="450.64 757.25 450.7 768.01 450.51 777.64 436.51 778.04 430.58 778.35 430.29 774.99 430.35 736.97 450.64 736.97 450.78 746.01 450.64 757.25"/>
      <polygon class="cls-10" points="819.4 408.84 819.49 429.65 799.54 429.77 798.86 430.97 798.79 450.15 778.05 450.24 758.17 450 758.12 429.7 778.7 429.67 798.08 429.86 798.79 424.11 798.54 409.06 819.4 408.84"/>
      <polygon class="cls-14" points="553.18 573.25 553.37 574.99 553.23 594.23 551.55 593.77 532.69 593.91 532.84 592.02 533.03 573.21 553.18 573.25"/>
      <rect class="cls-12" x="655.57" y="532.18" width="20.62" height="20.64" transform="translate(-2.45 3.03) rotate(-.26)"/>
      <polygon class="cls-2" points="901.43 471.05 896.53 470.58 888.52 470.73 880.9 470.75 880.89 451.96 880.49 450.13 901.37 450.16 901.43 471.05"/>
      <polygon class="cls-5" points="553.33 368.32 553.26 388.84 532.82 388.92 532.77 368.18 549.53 368.33 553.33 368.32"/>
      <polygon class="cls-12" points="778.05 450.24 778.5 453.98 778.46 470.73 757.97 470.65 758.17 450 778.05 450.24"/>
      <polygon class="cls-10" points="614.55 244.75 614.68 265.97 594.27 265.8 594.42 286.28 573.67 286.6 573.54 265.95 594.24 265.94 594.17 245.97 594.37 245.02 602.5 245.49 612.59 245.39 614.55 244.75"/>
      <polygon class="cls-5" points="512.24 778.24 512.22 798.22 504.52 798.42 491.73 798.64 491.74 778.06 508.52 777.93 512.24 778.24"/>
      <polygon class="cls-25" points="553.33 368.32 549.53 368.33 532.77 368.18 532.72 347.85 553.22 347.8 553.28 327.41 573.57 327.32 573.55 347.83 553.29 347.93 553.33 368.32"/>
      <polygon class="cls-1" points="533.03 573.21 532.84 592.02 532.69 593.91 512.54 593.8 512.18 574.86 513.44 573.05 533.03 573.21"/>
      <rect class="cls-2" x="716.8" y="593.64" width="20.82" height="20.58"/>
      <polygon class="cls-10" points="696.51 532.27 676.18 532.15 676.14 511.73 696.51 511.65 696.51 491.24 716.85 491.29 716.91 511.79 696.56 511.81 696.51 532.27"/>
      <rect class="cls-12" x="839.82" y="470.65" width="20.64" height="20.63"/>
      <polygon class="cls-25" points="532.8 695.81 532.84 679.99 532.53 675.73 553.27 675.62 553.3 695.97 532.8 695.81"/>
      <polygon class="cls-10" points="532.44 470.9 530.54 470.65 512.34 470.99 512.28 450.18 532.8 450.18 532.79 469.07 532.44 470.9"/>
      <polygon class="cls-29" points="798.54 409.06 798.79 424.11 798.08 429.86 778.7 429.67 778.46 427.03 778.51 409.2 796.54 409.23 798.54 409.06"/>
      <polygon class="cls-12" points="819.4 408.84 798.54 409.06 798.92 388.92 819.39 388.9 819.46 402.03 819.4 408.84"/>
      <polygon class="cls-6" points="614.68 265.97 614.64 286.27 595.48 286.32 594.42 286.28 594.27 265.8 614.68 265.97"/>
      <polygon class="cls-1" points="573.61 573.26 573.74 575 573.69 593.72 558.43 593.89 554.53 593.15 554.51 575.14 553.37 574.99 553.18 573.25 573.61 573.26"/>
      <rect class="cls-12" x="819.5" y="511.77" width="20.44" height="20.45"/>
      <polygon class="cls-3" points="901.43 471.05 901.56 491.3 890.46 491.33 888.94 490.87 890.09 489.34 890.78 486.28 892.62 483.02 893.9 480.22 894.54 478.56 893.27 477.31 889.68 473.76 888.52 470.73 896.53 470.58 901.43 471.05"/>
      <polygon class="cls-6" points="880.15 61.39 880.83 62.94 880.79 81.71 901.44 81.78 901.43 122.71 881.46 122.66 880.84 117.04 880.78 102.14 860.49 102 860.45 82.95 858.73 81.59 844.09 81.61 839.85 80.99 840.02 78.04 839.94 61.11 879.34 61.13 880.15 61.39"/>
      <polygon class="cls-23" points="860.49 102 842.5 102.1 840.04 101.87 839.95 83.96 839.5 81.94 839.85 80.99 844.09 81.61 858.73 81.59 860.45 82.95 860.49 102"/>
      <polygon class="cls-1" points="962.76 102.12 962.83 122.37 951.13 122.63 942.31 122.25 942.37 102.02 962.76 102.12"/>
      <polygon class="cls-19" points="839.5 81.94 839.95 83.96 840.04 101.87 837.57 102.11 819.7 102.08 819.59 81.81 837.53 81.62 839.5 81.94"/>
      <path class="cls-6" d="M1003.68,82.9l.79-1.17-.79,1.17Z"/>
      <polygon class="cls-25" points="860.73 163.73 860.59 183.99 842.49 183.97 839.32 184.28 837.59 184 821.18 184.15 819.31 182.39 819.58 165.9 819.03 163.82 816.55 163.6 803.89 163.54 780.48 163.57 778.58 164.11 777.31 163.42 763.47 163.53 757.58 164.2 757.49 163.19 757.96 154.03 757.86 143.02 839.77 142.96 839.94 163.5 858.51 163.68 860.73 163.73"/>
      <polygon class="cls-2" points="921.44 123.08 921.76 124.02 921.7 143 901.49 143.05 901.45 163.14 901.42 163.64 882.49 163.54 880.57 163.72 880.93 143.01 901.48 143.02 901.49 123.21 904.47 122.6 921.44 123.08"/>
      <polygon class="cls-19" points="737.54 163.1 736.65 163.96 734.54 163.55 716.69 163.58 716.91 146.98 716.62 143.1 737.54 143.01 737.54 163.1"/>
      <polygon class="cls-9" points="881.46 122.66 864.86 122.65 860.46 121.97 860.49 102 880.78 102.14 880.84 117.04 881.46 122.66"/>
      <polygon class="cls-5" points="880.57 163.72 880.76 184.09 860.59 183.99 860.73 163.73 880.57 163.72"/>
      <path class="cls-2" d="M736.65,163.96l.89-.87-.89.87Z"/>
      <path class="cls-1" d="M716.76,184.02l.28,17.23-1.84,3.33-12.99-.29-.73-2.73c-.66-1.32-2.76-2.65-4.88-2.67l-.11,25.9-20.01.16-.3-1.78-.09-17.99-6.51-.46-10.07.34-2.97-.97,1.74-1.14,16.54.11,1.64-2.72-.19-16.34,11.32-.1,7.15.67,2.11-.46,19.92-.1Z"/>
      <polygon class="cls-12" points="409.69 818.95 409.76 839 409.8 857 409.55 859.91 389.52 859.95 389.4 876.06 389.81 879.77 387.53 880.32 368.9 880.37 368.91 859.94 389.46 859.98 389.56 839 389.45 837.97 389.45 827 389.67 818.89 409.69 818.95"/>
      <polygon class="cls-10" points="430.38 798.49 430.23 814.03 430.62 818.92 450.83 818.85 450.84 838.36 447.62 839.38 430.55 839.97 430.35 839.07 430.43 819 409.69 818.95 409.76 798.41 430.38 798.49"/>
      <polygon class="cls-19" points="635.28 266 614.68 265.97 614.55 244.75 616.42 245.41 635.28 245.37 635.28 266"/>
      <polygon class="cls-19" points="659.51 205.06 669.58 204.72 676.08 205.18 676.18 223.17 676.48 224.94 655.61 224.95 655.61 206.98 655.88 205.18 659.51 205.06"/>
      <polygon class="cls-6" points="655.58 245.19 635.29 245.45 635.27 226.84 636.31 224.97 655.6 224.98 655.58 245.19"/>
      <polygon class="cls-22" points="464.1 327.1 454.5 327.32 451.73 326.58 456.01 323.35 459.52 324.83 461.83 324.42 463.51 325.58 464.1 327.1"/>
      <path class="cls-5" d="M1024.5,573.27l-.21,3.69-.1,16.76-20.35.1-.24,20.24-20.21.15.03,40.82-20.69.04-.09,15.01-.05,5.46-20.15.21-.17,20.19-20.44.09.31,12.23-.39,8.36-6.33-.1-5.91.05-8.02-.05-.08,20.52h-20.62s-.02,20.4-.02,20.4l-23.24-.12-17.72.09.07,17.82-1.22,2.73-60.15.04-.07,19-1.78,1.47-22.5-.04-34.64-.08-.03-1.53,3.67-1.62-1.52-5.29-2.54-.15-2.44-3.67-.98-3.02-.62-4.73,2.43-.35,17.1.08,3.06-.76-.1-19.96,40.17-.04.88-3.22-.1-17.06,14.04-.03,5.89-.27,2.08.23,39.24-.03.1-18.88-.08-.83.11-10.19-.17-11.02.4.06h20.17s.17-20.15.17-20.15l.29-1.05,6.74.86,12.84-.03,21.09-.1.04-20.57,18.33.12,2.13-1.74-.13-16.47-.16-2.35.27-20.46,20,.05.53-4.14,2.77-.77,3.93-.12,1.89,2.14,3.89-1c.81-2.82,1.37-4.3,2.69-6.22l1.93-4.01,2.56-4.64-.59-4.48.69-2.31,2.47-1.46,4.48-2.27,4.08-3.16,1.99-1.09,4.76-4.38.06-2.9,3.37-.46-.04-16.98.77-3.24,19.62.1.03,20.41,20.71.09Z"/>
      <polygon class="cls-21" points="717.68 818.91 737.56 818.96 737.59 839.28 717.35 839.4 717.2 859.98 696.56 859.77 696.57 818.96 717.68 818.91"/>
      <polygon class="cls-25" points="388.5 839.3 389.56 839 389.46 859.98 368.91 859.94 369.07 839.49 388.5 839.3"/>
      <polygon class="cls-11" points="410.22 921.3 409.82 926.07 409.67 941.88 389.48 941.77 389.42 941 389.42 921.27 408.59 921.12 410.22 921.3"/>
      <rect class="cls-3" x="594" y="798.17" width="20.95" height="20.74" transform="translate(-205.2573 1411.4247) rotate(-89.8872)"/>
      <polygon class="cls-5" points="368.75 832.2 368.68 827.93 370.11 827.99 370.76 830 370.11 832.02 368.75 832.2"/>
      <path class="cls-11" d="M430.43,921.96l-.83-.84.83.84Z"/>
      <polygon class="cls-5" points="389.56 839 388.5 839.3 389.45 837.97 389.56 839"/>
      <polygon class="cls-12" points="1167.4 511.72 1188.53 511.76 1188.14 513.98 1188.04 552.61 1206.53 552.78 1208.45 552.98 1208.66 572.95 1206.48 573.19 1150.55 573.25 1147.01 572.98 1147.1 511.74 1167.4 511.72"/>
      <path class="cls-17" d="M1003.65,348.06l.04,21.95.07,39.22,20.57-.04.05,20.81-.16,16.03.47,4.11h40.71s-.16,20.49-.16,20.49l20.33.13,20.58-.12.03,19.36.26,1.37-.25,6.6v13.83s-20.08.08-20.08.08l-.54.75v19.35s-7.06.2-7.06.2l-12.82.09-21.09-.06.26-18.31-1.19-2.17-19.29.09-.25-20.57h-20.43s.02-20.45.02-20.45l-20.28-.14-.1-6.64-.08-13.8-20.48-.19-.02-40.75-16.27-.13-4.11-.25-.11-17.92.31-2.06,14.92-.07,25.83-.03-.07-38.81.18-1.98,20.2.04ZM1085.64,511.45l.05-20.13-20.34-.05-.02,20.48,19.58.19.72-.49Z"/>
      <polygon class="cls-12" points="1085.59 470.76 1065.25 470.64 1065.41 450.15 1024.69 450.14 1024.22 446.03 1024.38 430.01 1026.49 429.68 1065.15 429.69 1065.37 450.14 1085.69 450.19 1085.59 470.76"/>
      <polygon class="cls-17" points="983.05 184.39 983.45 204.48 962.87 204.48 962.78 184.08 982.41 184.03 983.05 184.39"/>
      <polygon class="cls-3" points="962.77 757.09 962.66 757.93 960.58 757.47 942.45 757.62 942.28 770.04 942.49 778 921.82 777.9 921.78 757.41 942.19 757.32 942.35 736.95 962.66 736.93 962.77 757.09"/>
      <polygon class="cls-27" points="635.44 900.9 614.58 900.86 614.72 880.29 634.81 880.21 635.14 865.7 635.54 859.96 655.6 859.95 655.57 880.14 635.22 880.29 635.44 900.9"/>
      <polygon class="cls-25" points="1024.28 532.06 1024.27 552.67 1043.55 552.73 1045.86 553.05 1044.95 554.79 1044.89 571.78 1045.45 573.21 1044.53 573.18 1024.5 573.27 1003.79 573.18 1003.77 552.78 984.15 552.68 983.38 555.92 983.41 572.89 980.04 573.36 962.77 573.2 962.51 552.79 983.36 552.72 983.36 532.08 1024.28 532.06"/>
      <polygon class="cls-19" points="1085.56 614.1 1065.32 614.07 1065.39 593.78 1044.91 593.63 1044.9 576.98 1044.53 573.18 1045.45 573.21 1063.75 573.19 1065.36 575.21 1065.4 593.76 1085.61 593.75 1085.56 614.1"/>
      <path class="cls-6" d="M1107.56,593.73l-1.37-.67,1.37.67Z"/>
      <polygon class="cls-14" points="962.66 757.93 962.68 777.94 942.49 778 942.28 770.04 942.45 757.62 960.58 757.47 962.66 757.93"/>
      <polygon class="cls-19" points="1085.56 754.05 1085.53 745.98 1086.48 746.15 1086.58 753.24 1085.56 754.05"/>
      <polygon class="cls-21" points="1106.54 737.03 1105.5 736.88 1105.44 731.77 1106.34 730.93 1106.54 737.03"/>
      <polygon class="cls-19" points="1085.84 741.13 1085.37 737.68 1086.64 736.97 1085.84 741.13"/>
      <polygon class="cls-29" points="778.58 164.11 778.53 184.05 798.64 184.08 798.65 244.84 794.52 245.19 778.52 245.22 778.47 265.78 761.42 265.81 758.07 266.65 758.14 283.72 757.4 286.12 741.45 286.16 737.46 286.62 737.5 306.79 717.17 307.01 717.04 327.14 696.57 327.08 696.53 306.92 675.96 306.8 676.32 299.65 676.35 265.98 716.67 265.99 716.96 255.03 716.92 225.08 737.56 224.95 737.63 184.03 757.78 184.05 757.94 167.97 757.58 164.2 763.47 163.53 777.31 163.42 778.58 164.11"/>
      <polygon class="cls-29" points="655.52 368.07 635.46 368.13 635.46 348.02 655.59 347.97 655.71 327.43 676.21 327.31 676.14 347.8 655.55 347.97 655.52 368.07"/>
      <polygon class="cls-12" points="614.37 370.44 614.96 368.68 616.45 368.24 635.32 368.16 635.26 388.79 614.81 388.9 614.75 372.97 614.37 370.44"/>
      <polygon class="cls-1" points="778.44 368.15 758.27 368.24 758.01 351.88 759.11 347.79 778.44 347.88 778.44 368.15"/>
      <path class="cls-15" d="M942.42,610.02l-.53,4.14-20-.05-.27,20.46-20.15.24.03-.68-.18-7.11.06-13.12-.04-18.39c.29-.28,2.3-1.67,2.83-1.96l17.57.2.07-20.56h20.58s.03,36.83.03,36.83Z"/>
      <polygon class="cls-10" points="921.79 471.08 921.94 491.27 942.38 491.26 942.35 511.69 956.54 511.82 962.45 511.69 983.5 511.84 983.36 532.08 962.43 532.28 942.34 532.19 942.32 521.98 941.91 516.76 941.73 511.78 921.81 511.76 921.87 491.33 901.56 491.3 901.43 471.05 903.45 470.73 920.45 470.66 920.48 429.65 921.52 430.97 921.53 466 921.79 471.08"/>
      <polygon class="cls-10" points="798.59 696 798.91 715.63 796.54 716.81 786.51 716.67 778.44 716.59 778.49 737.01 758.07 736.93 758.11 721.99 757.58 716.62 778.35 716.43 778.51 695.96 798.59 696"/>
      <path class="cls-5" d="M941.91,516.76l.42,5.22v10.21s0,20.51,0,20.51l14.78.09-.28,3.44-4.99,4.64-1.28,1.84-4.97,1.57-2.26.4-3.86,1.67-3.25.35-3.45-7.01c-2.87-.83-4.58-3.42-4.49-6.41l-2.89-2.98-.41-4.57-3.68-3.98.86-4.23c-1.07-1.85,1.04-4.36,2.87-4.47l1.35-2.03,1.64-2.45,3.63-4.3c2.59-1.45,4.21-2.77,5.89-5.6l4.38-1.9Z"/>
      <polygon class="cls-3" points="901.5 634.13 901.47 634.8 901.44 655.01 880.73 655.01 880.79 634.67 880.75 634.23 882.47 634.56 899.56 634.49 901.5 634.13"/>
      <polygon class="cls-25" points="860.38 655.03 860.31 673.09 860.72 674.84 860.43 675.89 858.56 675.54 841.47 675.51 839.57 675.93 839.88 674.03 839.95 654.95 860.38 655.03"/>
      <polygon class="cls-1" points="962.43 532.28 962.86 533.97 962.51 552.79 957.11 552.79 942.33 552.7 942.34 532.19 962.43 532.28"/>
      <polygon class="cls-25" points="901.38 613.89 901.32 627.02 901.5 634.13 899.56 634.49 882.47 634.56 880.75 634.23 880.77 614.21 897.53 614.17 901.38 613.89"/>
      <polygon class="cls-12" points="819.56 675.68 819.42 693.02 819.82 695.73 818.53 695.94 798.59 696 798.82 675.56 819.56 675.68"/>
      <polygon class="cls-3" points="831.88 675.6 839.57 675.93 840.1 696.04 839.7 695.98 824.5 696.01 819.82 695.73 819.42 693.02 819.56 675.68 828.53 675.72 831.88 675.6"/>
      <polygon class="cls-10" points="880.79 634.67 880.73 655.01 860.38 655.03 860.34 634.62 880.79 634.67"/>
      <path class="cls-5" d="M831.88,675.6l-3.36.12-8.97-.04c-.16-.18-.64-1.89-.42-1.13l-7.59-2-.93-2.29.8-1.49.95-1.51,2.07-.31,5.11.02,3.47.21,6.93,4.43,1.93,3.98Z"/>
      <polygon class="cls-25" points="430.35 839.07 430.55 839.97 430.29 848.97 430.41 859.82 409.55 859.91 409.8 857 409.76 839 430.35 839.07"/>
      <polygon class="cls-1" points="409.55 859.91 409.85 863.98 409.56 880.14 391.42 880.31 389.81 879.77 389.4 876.06 389.52 859.95 409.55 859.91"/>
      <polygon class="cls-3" points="880.58 266.48 880.91 268.01 880.91 325.01 880.54 326.74 878.65 327.41 863.36 327.43 860.35 326.12 860.44 265.94 878.56 265.75 880.58 266.48"/>
      <polygon class="cls-25" points="920.48 429.65 920.45 470.66 903.45 470.73 901.43 471.05 901.37 450.16 880.49 450.13 880.95 448.83 880.57 368.16 901.43 368.19 901.43 429.72 920.48 429.65"/>
      <polygon class="cls-2" points="532.69 593.91 532.91 614.08 553.12 613.97 553.47 634.71 516.53 634.54 512.54 635.05 512.29 633 512.29 596 512.54 593.8 532.69 593.91"/>
      <polygon class="cls-23" points="553.23 594.23 553.12 613.97 532.91 614.08 532.69 593.91 551.55 593.77 553.23 594.23"/>
      <polygon class="cls-2" points="942.37 102.02 942.31 122.25 942.39 122.79 927.49 122.61 921.69 122.1 921.68 102.09 942.37 102.02"/>
      <polygon class="cls-1" points="942.39 122.79 942.36 143.01 921.72 143.06 921.79 163.29 906.49 163.49 901.45 163.14 901.49 143.05 921.7 143 921.76 124.02 921.44 123.08 921.69 122.1 927.49 122.61 942.39 122.79"/>
      <polygon class="cls-29" points="430.35 839.07 409.76 839 409.69 818.95 430.43 819 430.35 839.07"/>
      <polygon class="cls-21" points="839.76 717.2 839.84 718.03 839.74 736.91 800.5 736.94 798.42 736.72 798.86 735.05 798.73 718.07 798.89 716.38 801.43 716.47 819.87 716.57 837.54 716.72 839.76 717.2"/>
      <polygon class="cls-11" points="819.82 695.73 824.5 696.01 839.7 695.98 839.87 707.01 839.76 717.2 837.54 716.72 819.87 716.57 801.43 716.47 798.89 716.38 798.73 718.07 786.67 717.97 786.51 716.67 796.54 716.81 798.91 715.63 798.59 696 818.53 695.94 819.82 695.73"/>
      <polygon class="cls-14" points="901.44 655.01 901.4 675.57 880.31 675.68 880.8 674.04 880.73 655.01 901.44 655.01"/>
      <polygon class="cls-6" points="860.43 675.89 860.27 696.05 840.1 696.04 839.57 675.93 841.47 675.51 858.56 675.54 860.43 675.89"/>
      <polygon class="cls-15" points="880.73 655.01 880.8 674.04 880.31 675.68 867.46 675.7 860.72 674.84 860.31 673.09 860.38 655.03 880.73 655.01"/>
      <polygon class="cls-6" points="921.62 634.56 921.78 636.91 921.9 653.38 919.77 655.13 901.44 655.01 901.47 634.8 921.62 634.56"/>
      <polygon class="cls-14" points="786.51 716.67 786.67 717.97 798.73 718.07 798.86 735.05 798.42 736.72 792.53 736.98 778.49 737.01 778.44 716.59 786.51 716.67"/>
      <polygon class="cls-13" points="1085.58 531.98 1085.58 552.71 1065.3 552.76 1065.26 533.02 1065.7 532.27 1078.52 532.18 1085.58 531.98"/>
      <polygon class="cls-12" points="983.45 348.03 983.26 350 983.34 388.82 957.51 388.85 942.58 388.91 929.51 388.79 921.85 389.11 921.84 372.99 921.6 367.93 921.84 366.08 921.73 347.92 901.41 347.96 901.44 286.07 903.51 286.37 942.32 286.32 942.32 306.75 962.77 306.9 962.84 327.32 983.23 327.36 983.45 348.03"/>
      <polygon class="cls-13" points="942.58 388.91 942.28 390.98 942.39 408.9 942.27 429.65 921.8 429.63 921.85 389.11 929.51 388.79 942.58 388.91"/>
      <polygon class="cls-12" points="1044.62 532.21 1024.28 532.06 1024.3 511.79 1003.37 511.71 1003.82 510.02 1003.69 491.27 983.31 491.2 983.31 470.76 962.77 470.74 962.71 450.19 942.34 450.09 942.27 429.65 942.39 408.9 946.5 409.15 962.77 409.28 962.79 450.03 983.27 450.22 983.35 464.02 983.45 470.67 1003.73 470.8 1003.71 491.24 1024.14 491.25 1024.39 511.83 1043.69 511.74 1044.87 513.9 1044.62 532.21"/>
      <polygon class="cls-12" points="921.71 204.97 921.8 203.99 923.43 204.53 942.23 204.56 942.36 225.02 921.78 225.05 921.71 204.97"/>
      <polygon class="cls-23" points="1003.37 511.71 1024.3 511.79 1024.28 532.06 983.36 532.08 983.5 511.84 1003.37 511.71"/>
      <polygon class="cls-6" points="983.36 532.08 983.36 552.72 962.51 552.79 962.86 533.97 962.43 532.28 983.36 532.08"/>
      <polygon class="cls-19" points="983.5 511.84 962.45 511.69 962.86 510.03 962.7 491.1 983.32 491.37 983.5 511.84"/>
      <polygon class="cls-3" points="942.5 470.72 942.37 491.3 962.7 491.1 962.86 510.03 962.45 511.69 956.54 511.82 942.35 511.69 942.38 491.26 921.94 491.27 921.79 471.08 922.59 470.66 942.5 470.72"/>
      <polygon class="cls-13" points="921.6 367.93 919.57 368.34 901.41 368.24 901.41 347.96 921.73 347.92 921.84 366.08 921.6 367.93"/>
      <polygon class="cls-13" points="1003.37 511.71 983.5 511.84 983.32 491.37 962.7 491.1 962.78 470.72 942.5 470.72 942.34 450.09 962.71 450.19 962.77 470.74 983.31 470.76 983.31 491.2 1003.69 491.27 1003.82 510.02 1003.37 511.71"/>
      <polygon class="cls-23" points="962.7 491.1 942.37 491.3 942.5 470.72 962.78 470.72 962.7 491.1"/>
      <g>
        <path class="cls-18" d="M7.53,1167.7l-3.53,1.25-1.94,1.36,1.12,2.64,2.82-.66,4.65,3.37,1.37,1.98,2.92-.49,2.61,1.28,2.97-.42,5.42,1.5,2.75,3.18-1.22,4.66-6.67.17.06,18.51-.28,1.98-2.53-.15-8.33-7.9-4.27-1.95-2.6-1.57-.75,9.57.31,8-.1,7,.11,16.03.7,1.85,3.62.58,2.92-1.29,5.7-5.72,5.39-1.46.07,17.93-.11.94-2.91,1.08-3.01,2.36-5.01,4.12c-1.75,1.75-3.37,2.71-6.6,3.94l-1.37,3.11,2.72,3.79,9.27-.21,4.7.08,2.14-.21,1.86,1.44,16.02.08,2.68-.29.08.89-.11,19.15,2.09.75.18,15.38c.78,1.41,3.16,2.92,4.74,3.03l11.27-.39,3.04-3.62,3.74-1.7,5.08-.65,5.2.41,3.3-2.04-2.95-3.53-4.73.1c-1.33-.36-3.4-2.16-4.05-3.37l1.44-3.67,17.5.14,3.97,1.34,4.52-1.48,13.05.04.98-.32.72,2.18-2.84,2.53-5.67,2.08-3.64-.14-3.36.84-3.82-.87-.34,2.72.27,4.17,3.08,3.72,3.3,1.44,11.3-.22,15.2.28,1.55,2.9.18,13.33c1.99,1.07,5.08,2.28,7.06,2.8l2.69,3.67,1.98,1.19-2.2,3.53-1.51,1.98-1.16,3.32-2.58,1.16-4.24,7.8-.16,34.07,1.86,3.83,4.6-.21,5.59-2.43,4.17.41,3.02.52,2.03.88,5.52,6.43.72,4.05-2.59,2.11-1.04,1.98-2.38,6.81,2.08,1.97,6.65-.33,8.37,1.22,2.58,1.5,99.73-.05.12-20.6,19.14.09,1.93-.46.02,1.12-.9,6.99.11,11.72c.37-.46-1.66,2.06-1.79,2.22l-14.74-.9-3.37,1.7.13,15.86c-.34,1.03-1.39,2.55-2.42,3.21l-84.93-.14-13.16.17-2.23-2.21-.43-4.61.42-8.1-1.11-5.49-16.97.04-2.6-2.21.11-15.35-1.07-2.85-7.04-.47-10.42.33c-.66-.68-1.7-2.3-2.45-3.84l.03-75.05c.15-1.66-1.46-3.22-3.16-3.09l-70.64.11-4.95.62-2.57-3.06-.08-7.32-.08-6.95-.41-2.92-3.14-1.06-13.6.61-3.51-2.57.17-16.59-1.96-1.92-14.5.31-4.23-1.92.05-97.52c1.06-1.72,2.52-3.13,3.88-4.11l3.61,1.1Z"/>
        <polygon class="cls-22" points="37.03 1148.86 36.45 1151.52 39.04 1153.4 41.18 1153.21 41.35 1166.64 41.18 1168.99 41.2 1187.18 27.47 1187.34 28.68 1182.68 25.93 1179.5 20.51 1178.01 17.55 1178.43 14.94 1177.15 12.02 1177.64 10.66 1175.66 6 1172.29 3.18 1172.95 2.07 1170.31 4.01 1168.95 7.53 1167.7 14.9 1167.43 14.48 1168.61 16.79 1169.4 19.43 1167.73 23.54 1166.01 20.74 1165.13 20.54 1162.03 22.68 1161.91 22.15 1155 21.99 1148.12 32.69 1147.94 34.27 1148.93 37.03 1148.86"/>
        <path class="cls-22" d="M270.67,982.99l1.83,1.3,7.16.76.3,4.98,2.37,2.24c.13.93,1.24,2.56,2.12,2.85l6.36,4.74,1.74,3.31-5.53.1-.09,20.45-20.22.05.63-2.91,1.63-4.35c-1.23-1.84-3.12-3.54-5.47-4.27l-8.23-5.91-4.56-.52-1.43-2.12h9.25s5.74.24,5.74.24l2.02,1.45.62-3.65-.38-2.68,2.02-.18-.04-11.58c-.51-.84-.88-1.46-.56-.93l.55-2.6,2.2-.79Z"/>
        <polygon class="cls-18" points="191.24 1065.01 191.35 1066.93 187.53 1066.64 186.3 1071.81 186.54 1084.78 182.21 1087.74 168.66 1087.9 166.42 1087.99 166.34 1095.03 165.69 1103.13 164.01 1107.64 160.53 1107.38 155.68 1107.94 129.9 1108.04 91.52 1107.96 87.43 1107.35 83.95 1108.1 84.37 1116.02 84.17 1122.64 82.97 1124.43 83.33 1126.08 82.19 1127.86 75.37 1127.74 69.42 1128.22 68.32 1128.97 46.34 1128.78 43.47 1130.59 43.34 1145.11 43.16 1146.54 40.9 1148.41 39.49 1148.69 37.03 1148.86 34.27 1148.93 32.69 1147.94 21.99 1148.12 22.15 1155 22.68 1161.91 20.54 1162.03 20.6 1149.05 22.31 1146.97 38.57 1147.05 41.35 1144.07 41.25 1129.93 42.16 1127.34 44.29 1126.63 60.49 1126.44 76.76 1126.8 82.07 1124.58 82.51 1106.74 89.55 1105.96 159.48 1106.04 164.2 1104.53 164.12 1087.5 167.3 1085.67 181.65 1085.71 184.53 1083.96 184.49 1067.64 188 1064.93 191.24 1065.01"/>
        <path class="cls-18" d="M249.26,1003.69l1.43,2.12h-2.22s-.09,16.72-.09,16.72l-2.31,3.41-4.41-.33-2.96.24-4.32-.05-6.05.22-.1,8.91-.63,1.89-.2,6.73c-.07.09-2.11,2.77-1.85,2.44l-3.76-.6-3.07.53-6.25-.12-5.1.18v17.67s-2.59,2.17-2.59,2.17l-2.87.88-5.4.33-.02-2.05,6.52.15,2.05-2.95v-15.45s2.12-2.05,2.12-2.05l5.38-.55,5.07.11c2.57.32,5.54,0,7.88-.88l.25-14.61c-.33-2.05,1.41-4.34,3.41-4.77l14.92.2,2.11-3.85-.19-14.78,3.22-1.86Z"/>
        <polygon class="cls-18" points="14.9 1167.43 16.8 1167.52 20.74 1165.13 23.54 1166.01 19.43 1167.73 16.79 1169.4 14.48 1168.61 14.9 1167.43"/>
        <polygon class="cls-18" points="264.25 1003.94 266.89 1001.74 266.27 1005.38 264.25 1003.94"/>
        <polygon class="cls-26" points="27.47 1187.34 41.2 1187.18 41.18 1228.55 61.64 1228.51 61.77 1249.01 164.13 1248.96 164.11 1290.03 143.49 1289.85 143.51 1269.51 43.57 1269.5 41.3 1270.06 41.22 1269.17 41.16 1248.94 20.83 1248.94 20.75 1231 20.84 1229.03 20.84 1209.98 20.58 1208.01 20.86 1206.02 20.79 1187.52 27.47 1187.34"/>
        <polygon class="cls-24" points="307.25 1351.57 307.43 1354.98 307.5 1370.46 305.81 1371.92 287.05 1371.86 286.89 1390.08 287.34 1390.81 287.47 1391.83 285.54 1392.29 266.4 1392.2 266.29 1412.79 166.56 1412.85 163.98 1411.35 164.21 1392.45 266.4 1392.25 266.35 1371.89 286.93 1371.89 286.9 1351.36 306.4 1351.34 307.25 1351.57"/>
        <path class="cls-22" d="M145.45,1372.12l.32,2.24-.7,1.79-4.38-.34c1.02,1-.07-.07-.7-.69l-1.38.54.84,2.37c1.01,1.59,1.95,2.93,3.71,4.64l1.44,3.56-3.02-.52-4.17-.41-5.59,2.43-4.6.21-1.86-3.83.16-34.07,4.24-7.8,2.58-1.16,1.16-3.32,1.51-1.98,2.2-3.53-1.98-1.19-2.69-3.67c-1.97-.52-5.06-1.73-7.06-2.8l-.18-13.33-1.55-2.9-15.2-.28-11.3.22-3.3-1.44-3.08-3.72-.27-4.17.34-2.72,3.82.87,3.36-.84,3.64.14,5.67-2.08,2.84-2.53-.72-2.18.8.28,33.18-.02-.1,81.19,2,1.03Z"/>
        <polygon class="cls-24" points="164.11 1290.03 164.16 1351.11 164.08 1371.83 145.45 1372.12 143.45 1371.09 143.55 1289.9 110.37 1289.92 109.57 1289.64 108.58 1289.96 95.53 1289.92 91.02 1291.4 87.04 1290.05 69.55 1289.91 43.28 1289.97 41.19 1289.22 41.3 1270.06 43.57 1269.5 143.51 1269.51 143.49 1289.85 164.11 1290.03"/>
        <polygon class="cls-22" points="20.58 1208.01 20.84 1209.98 20.84 1229.03 20.75 1231 15.36 1232.46 9.66 1238.18 6.74 1239.47 3.13 1238.89 2.42 1237.03 2.31 1221.01 2.41 1214 2.09 1206.01 2.85 1196.43 5.45 1198.01 9.72 1199.95 18.05 1207.85 20.58 1208.01"/>
        <path class="cls-27" d="M145.77,1374.36l1.7.69,3.64,4.23,2.18,5.33,5.65.55,2.91-1.78,2.29.73.08,8.33-.23,18.9-8.37-1.22-6.65.33-2.08-1.97,2.38-6.81,1.04-1.98,2.59-2.11-.72-4.05-5.52-6.43-2.03-.88-1.44-3.56c-1.77-1.72-2.7-3.05-3.71-4.64l-.84-2.37,1.38-.54c.63.62,1.71,1.69.7.69l4.38.34.7-1.79Z"/>
        <path class="cls-22" d="M69.55,1289.91l-1.44,3.67c.65,1.21,2.71,3.01,4.05,3.37l4.73-.1,2.95,3.53-3.3,2.04-5.2-.41-5.08.65-3.74,1.7-3.04,3.62-11.27.39c-1.58-.11-3.96-1.62-4.74-3.03l-.18-15.38,26.27-.06Z"/>
        <polygon class="cls-19" points="41.22 1269.17 38.53 1269.46 22.51 1269.38 20.65 1267.95 20.71 1249.88 20.83 1248.94 41.16 1248.94 41.22 1269.17"/>
        <path class="cls-22" d="M20.71,1249.88l-.07,18.07-2.14.21-4.7-.08-9.27.21-2.72-3.79,1.37-3.11c3.23-1.23,4.85-2.19,6.6-3.94l5.01-4.12,3.01-2.36,2.91-1.08Z"/>
        <polygon class="cls-22" points="471.31 1043.9 471.29 1083.91 458.25 1084.11 453.38 1084.29 449.53 1085.32 449.53 1103.2 446.61 1104.19 434.4 1104.2 431.03 1103.95 428.71 1105.76 428.57 1121 428.43 1123.53 425.58 1124.22 412.28 1123.98 408.07 1126.15 407.7 1136.03 407.97 1139.16 407.3 1145.05 397.39 1145.22 389.9 1144.98 387.73 1147.18 387.56 1164.91 384.66 1166.03 375.51 1166.2 368.5 1166.79 367.8 1174.08 367.5 1186.14 356.37 1186.14 353.3 1186.45 348.81 1186.04 346.55 1190.94 346.46 1206.04 330.48 1206.19 327.97 1206.41 327.88 1189.97 327.66 1187.49 327.95 1185.04 327.78 1167.99 328.39 1166.99 348.42 1167.04 348.43 1146.58 369.01 1146.57 369.08 1126.1 389.34 1126.11 389.41 1105.67 409.78 1105.61 409.87 1085.18 411.91 1085.04 430.26 1085.22 430.41 1064.71 450.78 1064.7 450.83 1023.78 431.48 1023.84 430.36 1023.09 430.52 1003.18 450.76 1003.28 450.9 1023.84 471.2 1023.85 471.31 1043.9"/>
        <polygon class="cls-22" points="326.55 1207.91 325.62 1218.01 325.84 1257.99 325.74 1262.12 325.7 1369.92 307.5 1370.46 307.43 1354.98 307.25 1351.57 307.45 1348.97 307.46 1292.04 307.17 1289.6 307.44 1288.9 307.43 1268.77 307.47 1232.02 307.22 1228.52 307.48 1226.03 307.39 1213.22 307.38 1209.86 307.45 1207.95 326.55 1207.91"/>
        <polygon class="cls-24" points="327.66 1187.49 327.88 1189.97 327.97 1206.41 326.55 1207.91 307.45 1207.95 307.55 1187.45 327.66 1187.49"/>
        <polygon class="cls-27" points="305.81 1371.92 305.46 1390.06 294.46 1390.09 287.34 1390.81 286.89 1390.08 287.05 1371.86 305.81 1371.92"/>
        <path class="cls-7" d="M328.02,983.04l-.13,20.21,41.02.04.16,20.35,20.26.14.16,40.97-20.36-.02-.16,19.34-1.42,1.13-19.05-.03-.02,20.43-20.53.09-.12,20.39-20.25.08-.26,20.39-20.39.04.07,40.89-20.54-.04-.06,41.08-20.22.13-.07,35.36.16,4.74.02,8.24-.19,31.98.23,7.98-.17,13.85-17.75.04-3.04.81-.1,19.6-40.75.06-18.05.03-2.32-.28-.06-61.08.02-41.06-102.36.05-.12-20.5-20.46.04.02-41.37-.02-18.19.16-2.35,2.12.33,18.17-.02.08-17.97-.27-2.08,2.03-.39,14.86.11,4.06-.07,20.1.06h61.57s.08-20.47.08-20.47l20.3-.06.08-20.38h8.98s3.96.07,3.96.07l7.79-.22,18.27.04,2.04.31-.05,20.16-19.33-.03-1.35,3.69v5.27s.01,11.38.01,11.38l-3.32.5-16.96-.03-.05,20.16h-20.47s-.09,19.28-.09,19.28l1.8,1.22,39.32.07.03-12.69-.49-7.87h20.84s.04-19.9.04-19.9l3.94-.36,16.72-.12-.09-17.64.34-2.53,3.02-.43,17.01-.02.08-20.24,13.96.07,6.29-.33.18-6.18.11-13.75,5.39-.52,15,.02.03-20.19,8.02-.22,9.03.25,2.72-.76.5-3.11.04-11.04.34-23.91-.75-2.17-18.26-.28-1.71,1.93.05,18.45-19.08.12-1.52.91-.08,19.76-10.33-.11-9.93.06-.09,20.28-13.97.13-6.14.03.05,17.82-.34,2.15-2.52.58-17.97-.48-.04-20.09.08-20.45,20.45-.06.07-19.71.39-.84h19.89s.08-18.18.08-18.18l.22-2.19,20.22-.05.09-20.45,5.53-.1,15.04.12v-20.51s17.96-.04,17.96-.04l2.48.3ZM123.42,1187.58l5.02-.44,10.1.09,5-.28v-19.94s-59.99,0-59.99,0l-1.28,1.79.08,17.22-.07,17.07.74,4.86,40.31.04.09-20.41Z"/>
        <polygon class="cls-13" points="43.16 1146.54 59.59 1146.6 61.45 1146.89 61.72 1148.97 61.64 1166.94 43.47 1166.96 41.35 1166.64 41.18 1153.21 40.9 1148.41 43.16 1146.54"/>
        <polygon class="cls-27" points="40.9 1148.41 41.18 1153.21 39.04 1153.4 36.45 1151.52 37.03 1148.86 39.49 1148.69 40.9 1148.41"/>
        <path class="cls-27" d="M250.7,1005.81l4.56.52,8.23,5.91c2.35.74,4.24,2.44,5.47,4.27l-1.63,4.35-.63,2.91-.22,2.19-.08,18.19h-19.89s-1.94-.11-1.94-.11l-.1,6.87-3.24.21-3.38-3.26-2.58-4.69-2.2-3.37-1.58-2.69-3.27-2.18.1-8.91,6.05-.22,4.32.05,2.96-.24,4.41.33,2.31-3.41.09-16.71h2.22Z"/>
        <path class="cls-22" d="M168.66,1087.9l.5,2.34,10.45,10.12,2.86.28,3.3,1.37,1.99,1.97,3.75.14,6,.08,6.19.1.3-4.82,1.09-.03.18,6.09-7.79.22-3.96-.06h-8.98s-.08,20.37-.08,20.37l-20.3.06-11.68-.06-2.58-4.4-2.33-1.84-3.05-2.78-2.79-1.28-3.14-.99-3.59-1.07-4.79-4.26c.26,1.16-.23-1.04-.29-1.42l25.78-.1,4.85-.56,3.48.26,1.68-4.51.65-8.1.08-7.04,2.23-.09Z"/>
        <polygon class="cls-27" points="191.35 1066.93 196.52 1067.04 201.91 1066.7 207.45 1067.98 209.71 1068.8 215.29 1074.25 217.07 1077.34 219.83 1081.02 219.53 1085.09 205.05 1085.32 205.09 1099.46 204 1099.48 203.69 1104.3 197.51 1104.2 191.51 1104.12 187.76 1103.98 185.77 1102 182.47 1100.63 179.61 1100.35 169.16 1090.24 168.66 1087.9 182.21 1087.74 186.54 1084.78 186.3 1071.81 187.53 1066.64 191.35 1066.93"/>
        <path class="cls-27" d="M129.9,1108.04c.06.38.55,2.57.29,1.42l4.79,4.26,3.59,1.07,3.14.99,2.79,1.28,3.05,2.78,2.33,1.84,2.58,4.4-50.21.09-8.78-.1-1.27-4.02-3.77-3.29-4.07-2.74-.42-7.92,3.48-.75,4.09.61,38.37.08Z"/>
        <polygon class="cls-27" points="68.32 1128.97 69.42 1130.21 74.14 1132.88 76.1 1137.48 77.15 1140.43 77.87 1144.05 78.34 1146.62 63.48 1146.5 61.45 1146.89 59.59 1146.6 43.16 1146.54 43.34 1145.11 43.47 1130.59 46.34 1128.78 68.32 1128.97"/>
        <polygon class="cls-24" points="93.48 1126.07 102.26 1126.17 102.73 1127.97 102.5 1146.61 82.4 1146.55 82.19 1127.86 83.33 1126.08 93.48 1126.07"/>
        <polygon class="cls-22" points="82.19 1127.86 82.4 1146.55 78.34 1146.62 77.87 1144.05 77.15 1140.43 76.1 1137.48 74.14 1132.88 69.42 1130.21 68.32 1128.97 69.42 1128.22 75.37 1127.74 82.19 1127.86"/>
        <polygon class="cls-22" points="93.48 1126.07 83.33 1126.08 82.97 1124.43 84.17 1122.64 84.37 1116.02 88.44 1118.76 92.21 1122.05 93.48 1126.07"/>
        <path class="cls-22" d="M246.52,1044.14l-.39.84-.07,19.71-20.45.06-.08,20.45-6-.11.3-4.07-2.76-3.68-1.78-3.09-5.58-5.45-2.25-.82-5.54-1.28,2.87-.88,2.59-2.17v-17.67s5.1-.18,5.1-.18l6.25.12,3.07-.53,3.76.6c-.26.34,1.79-2.35,1.85-2.44l.2-6.73.63-1.89,3.27,2.18,1.58,2.69,2.2,3.37,2.58,4.69,3.38,3.26,3.24-.21.1-6.87,1.94.09Z"/>
        <polygon class="cls-8" points="430.52 1003.18 430.36 1023.09 431.48 1023.84 450.83 1023.78 450.78 1064.7 430.41 1064.71 430.26 1085.22 411.91 1085.04 409.05 1083.53 408.85 1078.95 407.51 1075.93 405.76 1072.19 403.25 1071.33 399.99 1070.48 399.85 1068.45 397.55 1068.05 393.95 1066.6 391.5 1065.84 389.49 1064.75 389.33 1023.78 369.07 1023.65 368.91 1003.29 327.89 1003.25 328.02 983.04 329.56 982.79 409.79 982.76 409.84 1003.27 430.52 1003.18"/>
        <polygon class="cls-26" points="389.49 1064.75 391.5 1065.84 393.95 1066.6 397.55 1068.05 399.85 1068.45 399.99 1070.48 403.25 1071.33 405.76 1072.19 407.51 1075.93 408.85 1078.95 409.05 1083.53 411.91 1085.04 409.87 1085.18 409.78 1105.61 389.41 1105.67 389.34 1126.11 369.08 1126.1 369.01 1146.57 348.43 1146.58 348.42 1167.04 328.39 1166.99 327.78 1167.99 327.95 1185.04 327.66 1187.49 307.55 1187.45 307.45 1207.95 290.49 1207.95 287.93 1208.08 286.91 1210.95 286.95 1228.36 287.04 1269.09 286.93 1289.78 303.54 1289.98 307.17 1289.6 307.46 1292.04 307.45 1348.97 307.25 1351.57 306.4 1351.34 286.9 1351.36 286.93 1371.89 266.35 1371.89 266.4 1392.25 164.21 1392.45 164.13 1384.12 164.08 1371.83 164.16 1351.11 166.48 1351.38 184.53 1351.35 184.58 1371.88 246.04 1371.84 246.19 1351.39 266.45 1351.21 266.45 1269.4 248.44 1269.44 246.28 1268.78 246.12 1264.03 246.19 1228.67 266.41 1228.54 266.47 1187.46 287.01 1187.49 286.94 1146.6 307.33 1146.56 307.59 1126.17 327.84 1126.09 327.96 1105.7 348.48 1105.61 348.5 1085.18 367.55 1085.2 368.97 1084.07 369.13 1064.73 389.49 1064.75"/>
        <polygon class="cls-18" points="164.08 1371.83 164.13 1384.12 161.84 1383.38 158.93 1385.16 153.27 1384.62 151.1 1379.28 147.46 1375.05 145.77 1374.36 145.45 1372.12 164.08 1371.83"/>
        <path class="cls-4" d="M327.78,1167.99l.61-1-.61,1Z"/>
        <polygon class="cls-24" points="307.22 1228.52 307.47 1232.02 307.43 1268.77 306.4 1269.48 290.5 1269.49 287.04 1269.09 286.95 1228.36 307.22 1228.52"/>
        <polygon class="cls-13" points="307.43 1268.77 307.44 1288.9 307.17 1289.6 303.54 1289.98 286.93 1289.78 287.04 1269.09 290.5 1269.49 306.4 1269.48 307.43 1268.77"/>
        <polygon class="cls-8" points="307.45 1207.95 307.38 1209.86 304.83 1209.81 304.29 1212.68 307.39 1213.22 307.48 1226.03 307.22 1228.52 286.95 1228.36 286.91 1210.95 287.93 1208.08 290.49 1207.95 307.45 1207.95"/>
        <polygon class="cls-26" points="307.38 1209.86 307.39 1213.22 304.29 1212.68 304.83 1209.81 307.38 1209.86"/>
        <polygon class="cls-16" points="225.58 1105.9 225.57 1105.29 243.54 1105.76 246.06 1105.19 246.41 1103.04 246.36 1085.22 252.5 1085.19 266.47 1085.06 266.56 1064.78 276.48 1064.72 286.81 1064.83 286.89 1045.07 288.41 1044.16 307.49 1044.04 307.44 1025.59 309.15 1023.66 327.41 1023.94 328.16 1026.11 327.82 1050.02 327.78 1061.06 327.28 1064.17 324.56 1064.93 315.53 1064.68 307.51 1064.89 307.48 1085.09 292.48 1085.07 287.09 1085.59 286.98 1099.34 286.8 1105.51 280.51 1105.84 266.56 1105.77 266.47 1126 249.46 1126.02 246.44 1126.45 246.1 1128.98 246.18 1146.62 229.46 1146.74 225.52 1147.1 225.48 1167 204.64 1167 205.12 1174.87 205.09 1187.56 165.77 1187.49 163.98 1186.28 164.06 1167.01 184.53 1167 184.59 1146.84 201.54 1146.87 204.86 1146.37 204.84 1134.99 204.85 1129.72 206.2 1126.03 225.53 1126.06 225.58 1105.9"/>
        <polygon class="cls-17" points="184.53 1351.35 225.29 1351.29 225.39 1331.69 228.43 1330.88 246.17 1330.84 246.34 1316.98 246.11 1309 246.3 1277.02 246.28 1268.78 248.44 1269.44 266.45 1269.4 266.45 1351.21 246.19 1351.39 246.04 1371.84 184.58 1371.88 184.53 1351.35"/>
        <polygon class="cls-16" points="123.42 1187.58 123.33 1207.99 83.02 1207.95 82.29 1203.09 82.35 1186.02 82.27 1168.8 83.55 1167.01 143.53 1167.01 143.54 1186.94 138.54 1187.23 128.44 1187.14 123.42 1187.58"/>
        <polygon class="cls-26" points="152.47 1126.08 164.16 1126.14 164.07 1146.6 102.5 1146.61 102.73 1127.97 102.26 1126.17 152.47 1126.08"/>
        <polygon class="cls-26" points="219.53 1085.09 225.53 1085.2 225.57 1105.29 225.58 1105.9 223.54 1105.59 205.27 1105.55 205.09 1099.46 205.05 1085.32 219.53 1085.09"/>
        <path class="cls-19" d="M431.48,1023.84l-1.12-.75,1.12.75Z"/>
      </g>
    </g>
  </g>
</svg>