<?xml version="1.0" encoding="UTF-8"?>
<svg id="Calque_1" data-name="Calque 1" xmlns="http://www.w3.org/2000/svg" viewBox="0 0 2048 2048">
  <defs>
    <style>
      .cls-1 {
        fill: #f2bd65;
      }

      .cls-2 {
        fill: #2b1e06;
      }

      .cls-3 {
        fill: #774124;
      }

      .cls-4 {
        fill: #421c14;
      }

      .cls-5 {
        fill: #d6922f;
      }

      .cls-6 {
        fill: #d7922d;
      }

      .cls-7 {
        fill: #d6912f;
      }

      .cls-8 {
        fill: #242d07;
      }

      .cls-9 {
        fill: #b26f27;
      }

      .cls-10 {
        fill: #4a2113;
      }

      .cls-11 {
        fill: #421c11;
      }

      .cls-12 {
        fill: #9b5927;
      }

      .cls-13 {
        fill: #b26e28;
      }

      .cls-14 {
        fill: #411a13;
      }

      .cls-15 {
        fill: #421b12;
      }

      .cls-16 {
        fill: #955629;
      }
    </style>
  </defs>
  <path class="cls-4" d="M667.43,1509.81l25.6.19.08,25.94,50.09-.02.15,25.89,51.87.12.06,25.06,50.51.13.21,25.29,101.21.15v148.38s-240.33-.02-240.33-.02v81.22s634.43.06,634.43.06v-81.22s-496.01-.05-496.01-.05h-100.33s.05-23.87.05-23.87c0-.69-.62-1.12-1.24-.86.14-1.96,4.35-2.29,6.13-2.29l13.09.06c.67,2.14,2.62,2.39,4.47,2.04,1.67-.32,3.75-1.7,3.76-3.94l.11-23.29c5.04,2.56,9.06.38,13.84.38l131.76-.08c3.02,0,4.64-1.09,5.24-4.15l-.52-64.9c-1.44-.2-.96-1.51-1.19-1.99-.32-.66-1.39-.95-2.51-.95l-94.8-.07c-.81,0-1.18.63-1.04,1.79-.24-1.18-1.42-1.1-1.77-1.45-.23-.23-.53-1.21-.67-1.52.77-.5,1.34-1.54,1.33-2.8l-.02-18.01c0-2.2-1.65-4.1-3.96-4.08l-46.21.87c-1.03-.82-1.77-1.98-1.79-3.81l-.11-17.98c0-1.47-2.66-1.95-3.92-1.99l-19.67-.63c-4.4-.14-.51-15.96-3.31-24.37-.23-.69-.76-1.07-1.94-1.07l-39.11.02c-1.11,0-1.84.35-2,1.01-1.17.18-5.49-.44-5.55-2.31l-.73-23.24-10.54-.61c-6.76-.39-11.85-.09-13.62-1.84-1.04-1.03-1.52-3.06-1.56-4.94l-.34-17.78c-.03-1.75-3.51-1.26-4.76-1.28,1.21-2.6,3.75-1.18,5.57-1.17Z"/>
  <path class="cls-11" d="M589.13,921.57l-46.43.26.05,407.35,23.97.24.07,51.27,24.38.14.27,25.12c-2.35-.22-3.96-1.95-4.67-5.25-2.27,1.4-4,2.52-6.76,2.08.41-4.85,7.37-7.64,5.6-10.01-1.5-2.02-5.11,1.26-8.72-.05-2.72-.99-1.16-6.34-3.62-7.83-1.94-1.18-5.9,1.5-9.38-3.11-1.88-2.49.8-4.6.82-6.84l.37-43.77-15.97.32c-2.45.05-4.71,1.69-6.98.05-.75-.55-1.33-1.56-3.19-1.57l-18.67-.03c-1.6,0-5.16-2.55-5.16-4,1.42.11,1.79-.29,1.79-1.02l.34-36.92-.02-15.03-.05-62.69-.08-52.38-.14-128.78.56-10.05-.18-18.44-.11-34.87.29-37.09.51-30.88,25.87-.08c5.77-.02,11.45-1.65,17.17.32l27.99-.31.06,23.85Z"/>
  <path class="cls-15" d="M1152.89,294.05c.1.49-.01,1.95,1.16,1.95l64.91-.04c3.13,0,5.76.09,8.13,1.09l-.1,20.91c6.54,3.36,14.87-.26,23.79,1.37l.16,18.73c.02,2.64,1.24,4.98,4.05,4.98h21.19s1.04,19.9,1.04,19.9c.34,6.53,13.83-.68,24.26,3.26l1.23,21.27c.13,2.31,3.29.72,4.57.73l20.71.12-.73,16.8c-.83,3.21,1.04,7.81,4.72,7.81h33.09s.19,90.81.19,90.81l-6.33.23c-1.06.03-1.82.37-1.92,1.04h-9c.14-.39.18-1.2-.09-1.5-.46-.5-1.86-.68-2.82-.61l-15.44,1.14c1.35-8.12,2.14-21.84,1.21-24.34-.2-.53-.81-.99-1.67-.8v-10.78s1.29-.35,1.29-.35c.38-.1.64-.66.41-1.06-.3-.52-1.04-.81-1.72-.78.51-2.26-.03-4.57-.01-6.79.5.12,1.07.04,1.3-.24.52-.63.62-1.74.64-2.82l.43-21.12c.07-3.61-6.7-3.98-9.64-3.19-5.85,1.58-11.03,1.36-16.88,1.17l-.6-21.41-25.71-.59-.46-23.05-24.96-.08-.09-23.74h-24.78s-.34-22.94-.34-22.94l-77.15-.02-.02-5.02v-5.1s0-26.89,0-26.89l.04-5.1c.01-1.69.13-3.48-.93-4.93l.92-2.04c.6.47,1.8,1.34,1.95,2.04Z"/>
  <path class="cls-14" d="M1531,896.02l-.03,144.22c-1.63-.89-2.09-2.2-3.58-4.16-2.27.62-6.23-2.65-4.76-4.75,1.39-1.48,6.04-2.81,5.12-5.91-1.81-.11-4.66.11-5.91-1.84-.78-1.21.44-3.77-.21-5.55l-3.81-10.38,6.74,1.14c-.71-3.87,1.34-4.45,3.73-5.7,1.43-.78,1.03-5.35.24-6.37-3.29,1.45-3.4,4.32-3.28,7.26-6.39-.45-7.22-11.8-4.75-11.21,1.47.35,1.81,2.64,3.22,3.1,1.63.53,6.24-2.5,6.1-3.31-.53-2.91-5.61-5.55-7.08-5.29-1.69.3-3.12,1.78-4.19,4.02-1.59-.3-1.96-1.7-2.92-3.19-2.59-.2-7.35,1.26-8.38,3.95l.36,35.81c5.25,4.73-.53,7.1,2.35,19.22l-.89,8.63,5.17,11.26,7.19,2.63c-1.53,4.28-6.51,3.44-9.11,4.5-.43,7.59-4.86,12.31-2.92,13.83.59.46,1.9,1.53,2.65.23.5-.86,1-1.73,1.58-1.88,2.61-.71,2.29,4.1,4.7,3.65,5-.93,1.76-8.03,10.46-7.9l-.89-18.62c-.16-3.41,1.42-6.2-.82-9.74,3.61-6.77.48-11.43,3.93-10.66l-.05,59c-1.27-.08-2.28-1.17-2.44-2.45-4.47,2.87-4.21,6.72-2.52,10.46l-.3,2.55c-.06.48.86,1.22,1.8.61.58-.38,1.74-.43,1.39-2.36-.12-.66.08-1.65.34-1.97.5-.62,1.57-.8,2.08-.72l-.3,25.88c-4.3.51-.16-9.42-2.49-19.65-2.42,1.92-3.52,3.51-4.83,5.33,1.13,1.52,2.04,2.69,2.3,3.91s-1.56,2.91-3.03,3.62c.02,2.12,1.48,3.02,2.28,4.74-1.37,1.88-5.39,3.19-6.79,1.71-2.21-2.31-.41-6.24,1.25-8.58-2.32-2.02-3.88-3.08-7.37-4.61.16,4.07-2.1,6.19-4.98,8.11l-.37,48.29c3.5.72,5.67-1.18,8.42-2.78,2.25-1.31,5.9,2.51,4.36,4.62-.79.6-3.6.38-4.05,2.4,3.52,2.12,4.74,5,4.09,8.96-.1.58,2.27,1.54,2.68,1.12l2.92-2.96c1.32,1.48,2.85,5.63,1.56,7.61-1.17.06-2.9-.53-3.65-.92-1.13-.59-4.14,1.74-2.57,3.01,2.12,1.71,6.08,2.96,5.06,7.09-.2.82-1.3,2.22-.8,3.28s.73,3.04,3.18,2.73l.86-16.07c.04-.68-.52-2-.35-2.4.25-.6,1.62-.86,2.33-.58l-.09,134.74c-2.56,1.2-4.71.49-6.81.47-.48-.97-.01-1.91.64-1.89l3.82.12c1.57-4.56.03-10.26-.25-15.3-.12-2.31,1.36-5.98.58-7.87-3.46-4.13-7.86-6.06-12.94-7.11.84-3,1.06-6.18,2.81-8.26,1.15-1.36,4.1-1.16,5.18-1.36.41-2.07.18-4.07-.67-4.32l-3.36-.99c-1.15-.34-.8-4.47.12-5.36,1.86-1.8,2.55-4.9,1.64-6.71-.83-1.65-5.29-2.83-5.93-1.06-1.77,4.87-4.42,3.65-8.59,7.87l-.1,21.08-2.01-.03.29-20.11-.19-104.79.04-36.23.04-111.76.13-33.13-.12-31.95-.03-35.98c4.57.07,7.26-2.01,10.06-5.91,5.34-7.41,7.5-17.43,3.65-17.74-7.91-.65-16.46-.97-24.36.28-3.08,3.95-6.02,9.37-10.83,12.14-3.77,2.17-7.02,4.24-9.67,8.34,2.77.99,4.77,1.15,6.82.82l.04,1.67-23.91.22c.02-.57-.41-1.07-1.01-.92.46-.66.97-1.69.98-2.95l.12-20.01c0-1.01,1.96-1.97,3.1-1.97l70.81-.02ZM1517.54,956.01c-.06-.11-6.92-5.19-10.46-5.08l.3,20.22c2.22-.04,4.63-.3,5.52-1.36-1.15-7.81,6.66-10.19,4.64-13.79ZM1522.11,981c0-.61-.5-1.11-1.11-1.11s-1.11.5-1.11,1.11.5,1.11,1.11,1.11,1.11-.5,1.11-1.11ZM1527.11,983c0-.61-.5-1.11-1.11-1.11s-1.11.5-1.11,1.11.5,1.11,1.11,1.11,1.11-.5,1.11-1.11ZM1513.8,1100.38c3.04-2.73.62-8.75-3.01-9-3.06-.21-4.44,3.69-3.64,6.1.61,1.84,4.29,5.01,6.65,2.9ZM1522.9,1112.79c-1.01-3.28-4.86-2.36-6.98-1.74-6.56-3.28-5.78-8.63-6.47-8.99-.9-.47-2.06-.18-2.19.54-.08.42-.6,2.03-.25,2.56l5.82,8.79c-1.76,2.01-1.12,3.92.17,4.75,3.49,2.27,11.17-1.82,9.91-5.9ZM1524.35,1259.02c1.6.65,5.59-3.17,4.43-4.91-2.11-3.18-7.87-1.95-10.72-3.08s-4.15-2.58-6.51-.85c-2.09,1.53-1.43,3.09-.91,5.98.48,2.64-2.92,5.91-.5,9.11l5.07-4.23c1.48-1.23,1.84-3.16,3.36-3.38,2.27-.32,3.76.54,5.77,1.36Z"/>
  <path class="cls-4" d="M591.43,1405.95l.6.03c-.32.59-.29,1.95,1.03,1.96l21.08.07c2.44,2.38.85,8.76-3.07,9.99l-.44,13.6c-.83.93-3.27,1.72-2.56,3.77.43,1.24,1.54,1.76,2.75,2.94,3.84,3.75,1.67,10.18-2.37,12.98-1.43.99-1.91,3.33-1.05,3.94,1.82,1.31,10.89-.03,9.62,4.78-5.36-1.57-11.54-2.69-17.16-1.12-3.64,1.02-8.58-1.01-8.67-5l-.48-20.6-20.59-.47c-2.64-.06-3.13-3.41-3.21-5.76l-.48-13.97c-.05-1.53.87-5.81-1.39-5.86l-17.83-.41c-1.91-.04-3.77-.92-4.46-2.09-.88-1.51-.76-3.2-.75-4.73.67-.11,1.07-.87,1.07-1.94v-14.14c0-1.07-.39-1.82-1.05-1.93v-4c1.47-3.22,1.47-7.78,0-11v-9c1.55-3.14,1.58-10.04.02-13l.12-13.47c2.27,1.65,4.53,0,6.98-.05l15.97-.32-.37,43.77c-.02,2.25-2.7,4.35-.82,6.84,3.47,4.61,7.44,1.93,9.38,3.11,2.45,1.5.89,6.85,3.62,7.83,3.62,1.31,7.22-1.97,8.72.05,1.77,2.37-5.18,5.16-5.6,10.01,2.76.43,4.48-.68,6.76-2.08.71,3.31,2.32,5.03,4.67,5.25ZM568.8,1404.51c3.57-1.72,4.15-7.22,2.33-9.49-2.21-2.76-5.1,1.65-9.42,4.87.76,2.69,4.41,5.91,7.09,4.62ZM571.92,1407.69c-.73-.51-2.23-.71-2.53-.5-.49,2.63-.58,5.65.44,8,3.23-1.29,4.23-5.99,2.09-7.5Z"/>
  <path class="cls-8" d="M1325,1562l-17.08-.11c-1.15,0-1.7.57-1.93,1.09-1.98,4.42,1.84,14.78-.89,24.93l-25.83.34-.17,20.78c-.03,3.36-1.79,5.03-5.08,5.04l-44.48.11-.81,24.69-100.79.35c.96,3.72.19,5.44.18,7.88l-.05,57.71c0,2.67,2.85,3.23,5.02,3.23h145.61s.53,23.96.53,23.96c.06,2.85,4.89,1.77,6.67,2.09,4.6.82,8.53,1.37,13.17-.14,1.74-.57,6.5.18,6.54,2.37l.49,24.81,12.27.34,20.7-.49c1.45-.03,4.52,1.35,4.53,3.19l-.61,75.74c0,.78.62,1.16,1.02,1.07.02,4.42-7.23,3.28-12.09,3.28l-27.67-.03-17.27-.03-15.86.19c-4.87.06-10.11-1.61-15.12,1.07-5.7-2.21-11.34-1.91-17.03-.17-5.35-1.71-10.61-2-15.97.16-5.31-2.67-10.83-1.16-15.95-1.15l-15.28.02-16.22-.14-18.16-.07-452.27-.1-.06-80.59c.73-1.74,4.35-2.54,5.77-2.43l18.12.39c3.43.07,11.29,2.21,13.16-1.96l1.64-23.21c.62-.26,1.24.18,1.24.86l-.05,23.86h-1.93s561.91.05,561.91.05h-1.62s-.31-25.25-.31-25.25c-8.98-.08-17.6,1.51-25.71-1.68l-.58-24.96-145.59-.09c-2.13,0-3.41-.49-4.23-1.39-1.18-1.3-1.06-2.69-1.05-4.59l.24-61.94c0-1.94.9-3.94,3.09-3.94l97.67-.25.3-22.72c.03-1.95,2.1-3.1,3.86-3.1h45.93s.34-24.52.34-24.52c8.76-2.16,16.98-.95,25.72-1.12l.85-23.39c.5-.15.92-.56,1.14-.85,4.58-1.56,8.86-1.26,14.2-.16,1.7.35,4.74-.96,5.82.99Z"/>
  <path class="cls-2" d="M747.05,364.73c.67.42,1.49.74,2.02,1.49-1.07-.4-2.29.04-2.58.76-1.95,4.98,4.74,22.83-5.48,22.86l-20.01.06-.09,18.18c.52,2.52-1.22,5.01-3.94,5l-33.99-.07-.04,90.94c-.86,0-2.83-.43-2.95,1.02-.13,1.57.49,3.49-.43,5.03-.93-.83-.65-1.84-.84-2.22-.35-.73-1.38-.93-2.62-.92l-21.38.09-6.62-.07c-.62-.11-1.9-.24-2.5.17-.93.65-.85,2.28-.54,3.22l-.15,3.68-.17,52.78.28,6.22-.06,13.02v7.19s.02,14.81.02,14.81l.03,3.8-.07,8.62-.13,21.58.2,7.81-.4,3.38.5,8.35-.19,5.34.07,5.45-.06,12.65-.03,17.92v29.35s.05,27.7.05,27.7l-.02,18.05-.07,30.97.02,4.06.1,25.91-.05,5.99v2.02s-.11,16.04-.11,16.04l-.09,7,.26,6.78.08,4.72-.43,13.64.28,10.81v9.09c0,2.08.02,5.36-1.62,7.25s-5.39.59-7.14.74l-10.49.9-31.7-.13c-1.54,0-2.58-1.24-3.11-2.12l-1.76-.1-.06-23.85-27.99.31c-5.72-1.98-11.4-.34-17.17-.32l-25.87.08-.51,30.88-.29,37.09.11,34.87.18,18.44-.56,10.05.14,128.78.08,52.38.05,62.69.02,15.03-.34,36.92c0,.73-.38,1.13-1.79,1.02l-.15-424.65c0-2.1,1.22-5.23,3.08-5.23h73.67s.53,25.8.53,25.8l45.75.16c.37.13,3.98-.6,3.98-1.55v-410.24c.01-3.13,1.05-5.21,4.03-5.21h30.99c2.28,0,4-1.7,4-4.08l.02-87.87c0-1.52,2.86-2.05,3.96-2.06l32.71-.21.28-18.82c.03-2.25,1.75-3.96,4-3.96h18.06c2.19,0,4.04-1.77,4.02-3.99l-.12-16.09c0-1.04.46-2.12,1.01-2.44.48-.28,1.56-.62,2.11-.77Z"/>
  <path class="cls-8" d="M1505.99,1335.98l.03,55.02.36,10.54c.05,1.5-.04,2.86-.61,3.72-.77,1.16-2.16,1.74-3.77,1.74h-19.99s-.03,22.03-.03,22.03c0,1.2-.61,3.83-1.96,3.84l-21.03.19c-1.35.01-2,2.74-1.99,3.9l.05,19.15c0,.8-.29,1.55-.7,1.68l-1.47.48-12.96-.32c-1.07,0-1.82.38-1.94,1.02-2.31.09-4.62-1.75-7.72-.54l-.36,23.49c-.02.99-1.38,2.18-1.99,2.37-5.91.17-12.1-1.27-17.91.48l-4.88.36-.13,6.89c-.66.1-1.05.85-1.05,1.92l.33,14.03c-1.74,5.48-12.48,1.98-16.15,2.28l-9.11.77-.06,23.96c-4.07,2.03-8.39,2.08-12.95,2.06l-12.97-.06.52,7.32c-.68,4.78-.81,9.01-.01,13.86.46,2.81-3.28,4.82-5.53,4.83.04-.39-.37-.96-1.06-.96l-19.96-.02c1.9-1.91,5.23-.77,7.97-.93l15.93-.94.28-24.12c.88,0,1.29-.56,1.91-1.01,1.47-1.06,3.64-1.09,5.86-1.11l17.63-.14.57-23.8c.53,0,1.22-.57,1.65-.86,1.36-.88,3.07-1.18,5.13-1.17l18.01.07.06-19.05c0-1.96.28-3.7,1.05-5,.2-.34.59-.66.91-.89.98-.69,2.34-1.08,3.97-1.07l19.08.11.06-20.15c0-1.54.37-3.03.97-3.91.21-.3.78-.79,1.11-.94,2.81-1.23,6.3-1.11,9.82-1.07l13.85.15.54-24.7,23.61-.5.17-23.98c.01-1.93,3.13-2.95,4.82-2.96l19.68-.05.31-7.72.27-66.21-.12-1.11c.46-.41.99-1.19,1-1.83l1.93-.03,17.07.13c2.1.02,4.25.73,6.81-.47l.09-134.74v-8s0-11,0-11l-.13-15.41.1-20.59v-3s.32-25.88.32-25.88l-.35-6.12.05-59-.03-2.76.03-144.22c1.22,0,2.01,1.24,2.01,3.24v426.48c0,2.86-1.69,4.18-3.99,4.2l-21.65.27c-1.45,1.36-1.39,4.35-1.39,5.77Z"/>
  <path class="cls-2" d="M1151.01,267.08l-.03,19.88-.05,5.05-.92,2.04-1.03.16-.03-33.22-246.77.07c-2.56,0-2.9,3.46-2.92,5.07l-.35,28.04c-.71,0-1.66,1.14-1.66,1.8l-74.99.18-.42,19.74c-.05,2.5-3.69,3.91-5.83,3.95l-18.62.35-.38,17.88c-.06,3.04-1.88,4.98-4.99,4.97l-21.09-.05c1.68,11.61,1.86,25.55-3.91,22.3l.11-1.39c.22.25,1.88-.28,1.82-.93-.44-4.52.83-8.18.81-12.78,0-1.39-1.55-4.56-.6-6.17.69-1.17,1.88-2.96,3.81-2.96.06.7.79,1.1,1.93,1.09l16.99-.02c.83,0,.93-.88,1.11-1.14.62-.92,1.97-2.25,1.98-3.94l.14-17.04c.02-1.83,3.09-2.99,4.81-2.94l12.93.36c2.25.06,6.81.81,6.9-2.5l.54-20.75,76.47-.28.31-31.87c.02-1.67,2.36-2.6,4.24-3.05l230.27.21,17.01.3c3.18.06,2.38,5.45,2.38,7.61Z"/>
  <path class="cls-8" d="M1406.69,507.15l-.69,69.86.02,344.01c-.47,0-1.08-.14-1.33-.39-.59-.57-.7-1.09-.7-2.81v-405.56c0-2.61-.38-3.73-.86-5.27-.18-.58-.12-1.36-.13-1.99.55,0,1.9-.34,2.28.19l1.41,1.97Z"/>
  <path class="cls-14" d="M667.43,1509.81c-1.82-.01-4.37-1.44-5.57,1.17l-14.57-.12c-2.57-.02-5.12-1.41-5.14-3.94l-.15-21.19c-.13-.16.41-1.91,1.16-1.9l24.16.12.12,25.86Z"/>
  <path class="cls-11" d="M621.95,1484.69c-1.24.16-3.45-.87-4.74-1.83l-.43-12.73c-.13-3.89-.68-6.67.23-10.13,1.27-4.81-7.8-3.47-9.62-4.78-.85-.62-.38-2.96,1.05-3.94,4.05-2.79,6.21-9.23,2.37-12.98-1.21-1.18-2.32-1.7-2.75-2.94-.71-2.05,1.73-2.84,2.56-3.77l.44-13.6c3.92-1.23,5.51-7.61,3.07-9.99l-21.08-.07c-1.31,0-1.35-1.37-1.03-1.96l24.7.31.15,51.6,25.25.09.14,26.02c-7.37.42-13.9-.89-20.32.69ZM640.83,1481.57c.1-3.81.69-7.2-.6-9.99-1.55-3.33-6.68-3.33-9.59-2l-.69,5.43c-2.79,1.71-5.37,3.16-7.49,6.37,6.32.98,11.9.74,18.38.19Z"/>
  <path class="cls-8" d="M1369,504.01c-.53.55-1.24.98-2,.99h-1c-.1-.38-.26-.94-.75-1.26l-.19-90.82h-33.09c-3.68,0-5.55-4.59-4.72-7.8l.73-16.8c1.32,0,2.03,1.16,2.04,2.62l.09,18.08c0,1.35,2.65,1.98,3.89,1.98h29.99c2.97,0,4.02,2.27,4.02,5.02l-.08,85.95c0,1.23.42,1.89,1.07,2.04Z"/>
  <path class="cls-8" d="M1304.33,366.08l.17,20.95c1.24-.12,2.06.43,2.77,1.17-1.28,0-4.44,1.58-4.57-.73l-1.23-21.27c-10.43-3.94-23.92,3.27-24.26-3.26l-1.04-19.89h-21.19c-2.81,0-4.03-2.34-4.05-4.98l-.16-18.73c-8.92-1.63-17.25,2-23.79-1.37l.1-20.91c0-.81.08-1.65,1.37-2.77l.86,22.42,21.26.58c1.96.05,3.45,1.81,3.48,3.65l.3,19.89,24.38.52.54,22.42,22.69.37c.92.02,2.35,1.3,2.37,1.95Z"/>
  <path class="cls-2" d="M762.99,1733.95l3.01.06c-.26,1.28,1.13,1.4.99.05,1.6-.46,2.09-2.02,2.14-4l.51-21.98,146.07-.14,2.85-.44c.61-.09,1.41-1.72,1.41-2.62l.03-23.88c.68-.12,1.05-.85,1.05-1.96v-34.09c0-1.1-.36-1.83-1.04-1.95v-2c.02-.42.41-.86,1.63-1l.52,64.9c-.6,3.07-2.22,4.15-5.24,4.15l-131.76.08c-4.77,0-8.8,2.18-13.84-.38l-.11,23.29c-.01,2.24-2.08,3.62-3.76,3.94-1.84.35-3.8.1-4.47-2.04Z"/>
  <path class="cls-8" d="M921.64,1640c-1.23.14-1.62.58-1.62,1-1.62-1.65-3.3-2-6.09-2.01l-91.84-.21c-.14-1.15.23-1.79,1.04-1.79l94.8.07c1.12,0,2.2.29,2.51.95.23.48-.24,1.79,1.19,1.99Z"/>
  <path class="cls-8" d="M819.66,1635.82l-1.11-20.31c-.17-3.1-5.53-1.73-7.5-1.71l-26.98.16c-1.46,0-3.56-1.18-4.74-.79-3.42,1.13-6.23.46-8.53-1.37l46.21-.87c2.32-.02,3.96,1.88,3.96,4.08l.02,18.01c0,1.25-.56,2.3-1.33,2.8Z"/>
  <path class="cls-2" d="M1228.45,294.28c-1.29,1.12-1.36,1.96-1.37,2.77-2.37-1-5-1.1-8.13-1.09l-64.91.04c-1.18,0-1.06-1.46-1.16-1.95l75.56.23Z"/>
  <path class="cls-3" d="M1344.02,1840.96c-.4.1-1.02-.29-1.02-1.07l.61-75.74.41,76.8Z"/>
  <path class="cls-2" d="M1403.01,504.99c0,.63-.06,1.41.13,1.99l-17.13.02h-6s-10.96.08-10.96.08l-2.04-1.08v-1.01c.76,0,1.47-.43,2-.99,1.31.78,2.97,1.04,4.94,1.04l29.06-.06Z"/>
  <path class="cls-1" d="M1406,577l.69-69.86.38,68.7c0,.83-.74,1.23-1.07,1.16Z"/>
  <path class="cls-1" d="M1506.01,1391.01l-.03-55.02c.4-.04,1.02.36,1.02,1.1v52.84c0,.73-.62,1.14-.99,1.09Z"/>
  <path class="cls-13" d="M1325,1562h4s19.96.02,19.96.02c.69,0,1.1.57,1.06.96h-44.03c.23-.52.78-1.1,1.93-1.09l17.08.11Z"/>
  <path class="cls-13" d="M742,1563.01l-43.04-.04c.16-.66.89-1.01,2-1.01l39.11-.02c1.17,0,1.71.38,1.94,1.07Z"/>
  <path class="cls-10" d="M1455.99,920.96c.6-.15,1.03.35,1.01.92l-.08,2.16c-1.1-.96-2.37-.84-3.64-.86l-10.32-.17-1.93-.05-19.95.44-.09-1.42,30.97-.02,4.03-.99Z"/>
  <path class="cls-4" d="M919.99,1681v-38c.69.12,1.05.85,1.05,1.95v34.09c0,1.1-.37,1.84-1.05,1.96Z"/>
  <path class="cls-11" d="M1420.99,921.98l.09,1.42c-8.21.18-16.29,2.22-15.06-2.38,4.78,1.55,9.92.97,14.97.97Z"/>
  <path class="cls-14" d="M767.15,363.89l-.11,1.39c-6.05-.88-12.03-.07-17.98.94-.52-.76-1.34-1.07-2.02-1.49,6.47-1.77,13.4-.17,20.1-.84Z"/>
  <path class="cls-3" d="M1304.51,387.03l-.17-20.95.17,20.95Z"/>
  <path class="cls-13" d="M589.13,921.57l1.76.1.24,109.44.09,272.75,25.56.41.1,76.56,25.33.05.04,25.04c7.98,1.47,16.62-1.12,25.21.72v25.56s25.3.18,25.3.18l.25,25.75,25.09.17.2,25.7,24.9.1.16,25.66,51.61.09.13,26.09,50.58.08.21,26.11,357.01-.15-.17-25.98h50.27s.16-25.99.16-25.99l10.91-.17h16.87s23.93,0,23.93,0l.13-25.67,25-.18v-25.82s25.18.13,25.18.13v-25.71s25.4-.31,25.4-.31l.26-26,2.17-.02,22.75-.09.13-25.27,25.35-.06-.02-74.82-.21-2.01h2s1.06-.08,1.06-.08l3.92.02h6.05s11.94.01,11.94.01c1.55,0,1.05-2.04,1.05-2.94l-.09-376.97.08-2.16,23.91-.22,24.29.39.03,35.98.12,31.95-.13,33.13-.04,111.76-.04,36.23.19,104.79-.29,20.11.14,19.98-.07,11.11c0,.64-.54,1.43-1,1.83l-1.18.22-21.72.17-.08,44.78-.1,6.6-24.2-.02v25.4s-25.59.16-25.59.16l-.06,50.83c-.33.15-.91.64-1.11.94l-24.15-.03.07,25.05c-.32.23-.71.54-.91.89l-24.39-.13.15,25.28c-.44.28-1.12.86-1.65.86h-24.04s-.03,25.05-.03,25.05c-.62.45-1.03,1.01-1.91,1.01l-48.31-.08.1,25.25c-.21.29-.64.7-1.14.85l-50.61-.1-.04,25.06-50.89.1-.15,25.27-101.66.2h-153.27s-101.21-.17-101.21-.17l-.21-25.29-50.51-.13-.06-25.06-51.87-.12-.15-25.89-50.09.02-.08-25.94-25.6-.19-.12-25.86-24.16-.12c-.74,0-1.29,1.74-1.16,1.9l-20.04-1.04c6.42-1.58,12.95-.27,20.32-.69l-.14-26.02-25.25-.09-.15-51.6-24.7-.31-.6-.03-.27-25.12-24.38-.14-.07-51.27-23.97-.24-.05-407.35,46.43-.26Z"/>
  <path class="cls-16" d="M793.03,340.97c-.18.26-.28,1.14-1.11,1.14l-16.99.02c-1.14,0-1.88-.4-1.93-1.09l20.04-.07Z"/>
  <path class="cls-1" d="M1150.99,286.96l.03-19.88c.65.02,1.04.78,1.04,1.85v16.14c0,1.07-.38,1.82-1.06,1.89Z"/>
  <path class="cls-10" d="M541.99,1400.01v-18.01c.68.11,1.07.86,1.07,1.93v14.14c0,1.07-.39,1.82-1.07,1.94Z"/>
  <path class="cls-13" d="M1429.91,1484.28c-5.71,1.7-11.96.26-17.91.48,5.81-1.75,12-.3,17.91-.48Z"/>
  <path class="cls-16" d="M1406.28,1507.96l-.33-14.03c0-1.07.39-1.82,1.05-1.92-.1,5.33.9,10.85-.72,15.95Z"/>
  <path class="cls-13" d="M1454.88,1458.27c-4.41,1.53-10.04.51-14.9.7.13-.64.88-1.02,1.94-1.02l12.96.32Z"/>
  <path class="cls-10" d="M542,1358l.02-13c1.56,2.96,1.53,9.86-.02,13Z"/>
  <path class="cls-10" d="M542,1378v-11c1.47,3.22,1.47,7.78,0,11Z"/>
  <path class="cls-4" d="M766,1734.01l.99.05c.14,1.35-1.25,1.24-.99-.05Z"/>
  <polygon class="cls-3" points="845.28 1760.91 845.84 1787.81 1202.67 1787.89 1202.52 1760.95 1303.31 1760.96 1304.93 1760.96 1304.77 1815 743.15 1814.99 743.02 1760.9 744.95 1760.9 845.28 1760.91"/>
  <polygon class="cls-3" points="1100.47 1612.56 1100.8 1662.6 973.75 1663.16 973.38 1734.29 1100.88 1733.95 1100.83 1760.94 947.19 1760.92 947.2 1612.54 1100.47 1612.56"/>
  <polygon class="cls-12" points="947.19 1760.92 1100.83 1760.94 1202.52 1760.95 1202.67 1787.89 845.84 1787.81 845.28 1760.91 1341.3 1760.96 1341.29 1842.18 706.86 1842.12 706.87 1760.9 947.19 1760.92"/>
  <path class="cls-7" d="M1304.42,411.5l-.43,23.33c4.28.81,8.02-.46,12.09-.43l13.26.09-.18,24.63c-.02,2.23.53,4.53.01,6.79v2.19s.01,10.78.01,10.78l.3,26.66,36.52.76-.03,744.51-36.32-.22-.34-702.39-25.16-.37-.1-89.95-25.12-.58-.4-22.85-25.32-.27-.12-23.17-24.85-.05-.12-23.06-25.79-.09-.16-23.61-51.16-.1-.07-23.04,77.15.02.34,22.93h24.78s.09,23.75.09,23.75l24.96.08.46,23.05,25.71.59Z"/>
  <path class="cls-6" d="M1148.99,294.2l1.03-.16c1.06,1.44.94,3.23.93,4.93-1.47,1.2-1.45,3.89-.04,5.1v26.89c-1.42,1.22-1.42,3.88,0,5.1l.02,5.02h-253.85s.19-45.11.19-45.11c0-.66.94-1.8,1.66-1.8l250.07.04Z"/>
  <path class="cls-5" d="M1348,505h9s9,0,9,0h1s0,1,0,1v746.07s-.89.9-.89.9h-36.11c-.45,0-1,.19-1,1.06l.03,75.03h-.88s-22.05.04-22.05.04l-1.81-.05.41-75.91,20.39.07c1.28,0,2.48.14,3.2-.44.77-.62,1.11-1.47,1.38-2.15l36.32.22.03-744.51-36.52-.76,18.51-.55Z"/>
  <path class="cls-11" d="M1329.16,459.12l.18-24.63-13.26-.09c-4.07-.03-7.81,1.23-12.09.43l.43-23.33.6,21.41c5.85.19,11.04.41,16.88-1.17,2.94-.79,9.71-.42,9.64,3.19l-.43,21.12c-.02,1.08-.12,2.19-.64,2.82-.24.29-.8.36-1.3.24Z"/>
  <path class="cls-11" d="M1348,505l-18.51.55-.3-26.66c.86-.19,1.47.28,1.67.8.93,2.5.15,16.22-1.21,24.34l15.44-1.14c.96-.07,2.35.11,2.82.61.28.3.23,1.11.09,1.5Z"/>
  <path class="cls-11" d="M1365.25,503.73c.49.32.64.89.75,1.27h-9c.1-.67.85-1.01,1.92-1.04l6.33-.23Z"/>
  <path class="cls-9" d="M1150.92,336.06c-1.42-1.22-1.42-3.88-.01-5.1v5.1Z"/>
  <path class="cls-9" d="M1150.91,304.07c-1.41-1.21-1.43-3.9.04-5.1l-.04,5.1Z"/>
  <path class="cls-11" d="M1329.18,468.11v-2.19c.67-.02,1.41.26,1.72.78.23.4-.03.96-.41,1.06l-1.31.35Z"/>
  <path class="cls-4" d="M1530.97,1040.24l.03,2.76c-3.46-.77-.32,3.89-3.93,10.66,2.24,3.54.65,6.33.82,9.74l.89,18.62c-8.7-.13-5.46,6.97-10.46,7.9-2.41.45-2.08-4.36-4.7-3.65-.58.16-1.08,1.02-1.58,1.88-.75,1.3-2.07.24-2.65-.23-1.94-1.52,2.49-6.23,2.92-13.83,2.6-1.06,7.58-.22,9.11-4.5l-7.19-2.63-5.17-11.26.89-8.63c-2.88-12.12,2.89-14.49-2.35-19.22l-.36-35.81c1.03-2.7,5.78-4.15,8.38-3.95.96,1.5,1.33,2.89,2.92,3.19,1.07-2.24,2.5-3.72,4.19-4.02,1.47-.26,6.55,2.38,7.08,5.29.15.81-4.47,3.83-6.1,3.31-1.42-.46-1.75-2.74-3.22-3.1-2.47-.59-1.64,10.75,4.75,11.21-.12-2.94,0-5.82,3.28-7.26.8,1.01,1.19,5.58-.24,6.37-2.39,1.25-4.44,1.83-3.73,5.7l-6.74-1.14,3.81,10.38c.65,1.78-.57,4.34.21,5.55,1.25,1.94,4.11,1.72,5.91,1.84.92,3.11-3.72,4.43-5.12,5.91-1.48,2.1,2.49,5.37,4.76,4.75,1.5,1.96,1.95,3.27,3.58,4.16Z"/>
  <path class="cls-4" d="M1531,1134v3c-.37-.11-1.13-.14-1.45.06s-.69,1.1-.7,1.86l-.16,13.4c-.03,2.18.09,4.54,2.18,5.27l.13,15.41c-.36-.11-1.16-.16-1.47.06-.32.23-.63,1.05-.63,1.85v7.19c0,.81.29,1.61.63,1.85.3.22,1.11.17,1.46.06v8c-.7-.28-2.07-.02-2.32.58-.17.4.39,1.72.35,2.4l-.86,16.07c-2.44.31-2.66-1.64-3.18-2.73s.6-2.46.8-3.28c1.02-4.14-2.94-5.38-5.06-7.09-1.58-1.27,1.44-3.6,2.57-3.01.76.39,2.48.98,3.65.92,1.29-1.98-.24-6.13-1.56-7.61l-2.92,2.96c-.41.42-2.78-.54-2.68-1.12.65-3.97-.57-6.85-4.09-8.96.45-2.02,3.26-1.8,4.05-2.4,1.54-2.11-2.12-5.92-4.36-4.62-2.75,1.6-4.92,3.5-8.42,2.78l.37-48.29c2.88-1.93,5.13-4.05,4.98-8.11,3.49,1.53,5.05,2.59,7.37,4.61-1.65,2.34-3.46,6.27-1.25,8.58,1.41,1.47,5.43.17,6.79-1.71-.8-1.71-2.26-2.62-2.28-4.74,1.48-.71,3.3-2.39,3.03-3.62s-1.17-2.38-2.3-3.91c1.32-1.82,2.41-3.41,4.83-5.33,2.32,10.23-1.81,20.16,2.49,19.65Z"/>
  <path class="cls-4" d="M1524.11,1327.21l-17.07-.13.45-15.83c.09-2.92,1.46-3.59-.06-6.71-1.11-2.28-.39-6.17-.38-8.5l.1-21.08c4.17-4.21,6.82-3,8.59-7.87.64-1.77,5.1-.59,5.93,1.06.91,1.8.22,4.91-1.64,6.71-.92.89-1.27,5.02-.12,5.36l3.36.99c.86.25,1.08,2.25.67,4.32-1.08.21-4.03,0-5.18,1.36-1.75,2.08-1.97,5.25-2.81,8.26,5.09,1.05,9.48,2.98,12.94,7.11.79,1.89-.7,5.57-.58,7.87.27,5.05,1.82,10.74.25,15.3l-3.82-.12c-.65-.02-1.12.92-.64,1.89Z"/>
  <path class="cls-4" d="M1505.2,922.06c.12-2.27-2.8-2.2-3.9-3.05-3.23-2.46-4.7-2.04-8.02-.68-3.83,1.57-8.63,1.07-12.41,1.66-2.06.33-4.06.16-6.82-.82,2.66-4.1,5.91-6.17,9.67-8.34,4.81-2.77,7.75-8.2,10.83-12.14,7.9-1.26,16.45-.93,24.36-.28,3.85.31,1.69,10.33-3.65,17.74-2.81,3.9-5.5,5.98-10.06,5.91Z"/>
  <path class="cls-4" d="M1524.35,1259.02c-2.01-.82-3.5-1.68-5.77-1.36-1.53.22-1.89,2.14-3.36,3.38l-5.07,4.23c-2.43-3.2.97-6.48.5-9.11-.52-2.89-1.18-4.45.91-5.98,2.36-1.73,3.8-.22,6.51.85s8.6-.1,10.72,3.08c1.16,1.75-2.83,5.56-4.43,4.91Z"/>
  <path class="cls-4" d="M1517.54,956.01c2.03,3.59-5.79,5.98-4.64,13.79-.89,1.06-3.31,1.33-5.52,1.36l-.3-20.22c3.54-.11,10.4,4.97,10.46,5.08Z"/>
  <path class="cls-4" d="M1522.9,1112.79c1.26,4.07-6.42,8.16-9.91,5.9-1.29-.84-1.93-2.74-.17-4.75l-5.82-8.79c-.35-.53.17-2.13.25-2.56.13-.71,1.29-1.01,2.19-.54.69.36-.08,5.72,6.47,8.99,2.12-.62,5.96-1.54,6.98,1.74Z"/>
  <path class="cls-10" d="M1505.2,922.06l-24.29-.39-.04-1.67c3.78-.6,8.58-.09,12.41-1.66,3.32-1.36,4.8-1.78,8.02.68,1.1.84,4.02.77,3.9,3.05Z"/>
  <path class="cls-10" d="M1507.05,1296.04c-.01,2.33-.73,6.22.38,8.5,1.52,3.12.15,3.79.06,6.71l-.45,15.83-1.93.03.07-11.11-.14-19.98,2.01.03Z"/>
  <path class="cls-4" d="M1513.8,1100.38c-2.36,2.11-6.04-1.06-6.65-2.9-.8-2.41.57-6.3,3.64-6.1,3.63.25,6.04,6.27,3.01,9Z"/>
  <path class="cls-4" d="M1530.95,1102l.35,6.12c-.51-.08-1.58.1-2.08.72-.26.32-.46,1.31-.34,1.97.35,1.93-.8,1.98-1.39,2.36-.94.61-1.86-.13-1.8-.61l.3-2.55c-1.69-3.74-1.95-7.59,2.52-10.46.16,1.28,1.17,2.37,2.44,2.45Z"/>
  <circle class="cls-4" cx="1526" cy="983" r="1.11"/>
  <circle class="cls-4" cx="1521" cy="981" r="1.11"/>
  <path class="cls-11" d="M568.8,1404.51c-2.68,1.29-6.33-1.93-7.09-4.62,4.33-3.21,7.21-7.63,9.42-4.87,1.81,2.26,1.24,7.77-2.33,9.49Z"/>
  <path class="cls-11" d="M571.92,1407.69c2.14,1.51,1.14,6.21-2.09,7.5-1.02-2.35-.92-5.37-.44-8,.3-.21,1.8-.01,2.53.5Z"/>
  <polygon class="cls-4" points="743.02 1760.9 743.15 1814.99 1304.77 1815 1304.93 1760.96 743.02 1760.9"/>
  <path class="cls-4" d="M1303.83,1562.02l-.85,23.39c-8.74.17-16.96-1.04-25.72,1.12l-.34,24.5h-45.93c-1.76.01-3.83,1.16-3.86,3.11l-.3,22.72-97.67.25c-2.19,0-3.08,2.01-3.09,3.94l-.24,61.94c0,1.91-.13,3.3,1.05,4.59.82.91,2.1,1.39,4.23,1.39l145.59.09.58,24.96c8.1,3.19,16.72,1.6,25.71,1.68l.31,25.25h-100.79s-101.69-.02-101.69-.02l.05-26.99-.08-71.35-.33-50.04,101.66-.2.15-25.27,50.89-.1.04-25.06,50.61.1Z"/>
  <path class="cls-15" d="M1353.19,1536.01l-.28,24.12-15.93.94c-2.74.16-6.07-.98-7.97.93h-4c-1.09-1.94-4.13-.63-5.82-.98-5.34-1.1-9.63-1.41-14.2.16l-.1-25.25,48.31.08Z"/>
  <path class="cls-11" d="M625.7,923.92c.44,4.88-1.97,12.39-7.56,13.54-3.77.54-6.52-5-8.35-6.99-1.41-1.23-3.97.64-5.06,1.23l-10.99,5.89c-1.44,2.94-1.02,9.97,1.31,12.12-1.83,2.82-2.47,6.21-1.28,9.26,1.86,4.78.64,8.58-.3,13.27-1.02,5.13-.15,10.88.39,15.94.26,2.44,2.39,4.74,1.99,7.06-1.64.07-2.38,2.67-2.38,4.53l-.06,39.72c0,3.99-1.01,7.61.51,11.63,1.7,4.53,1.6,10.37,4.52,14.43,4.48,6.22,1.1,9.76,8.36,13.44,5.45-3.18,5.69-8.34,5.7-13.86l.02-8.36c0-3.97-.49-7.76-3.59-11.12l2.23-3.74c-1.69-4.71.25-9.4,3.84-12.14l.03,272.04c0,1.65,1.47,1.1,1.96,1.27,1.08.37,2.31,1,3.97.99l18.1-.09c1.64,0,2.88.82,2.93,2-.39-.02-.92.39-.92,1.09l-.2,43.01c-.01,2.85.61,7.01,4.14,7l19.86-.08c.81,5.46,1.13,10.34,1.15,15.18-4.56.21-1.84-6.59-9.39-6.73-2.88-3.76-7.22-6.32-12.17-4.63-2.17-1.23-4.49-3.66-7.35-4.1l1.61-17.32c.42-4.55-1.67-8.58-.38-13.36.79-2.94-.91-5.87-2.21-8.03,1.02-1.68,2.78-3.71,2.83-5.74.16-6.85-7.3-5.68-17.97-5.16-.34,3.67.52,7.25-.65,10.43-1.39,3.77-1.01,6.87-.87,10.83l.85,25.3c.11,3.14.33,3.89-.71,6.89-1.48,4.25-.48,9.65-.52,14.41l12.56.52c4.33.18,8.07-.85,12.28-2.55,1.13,2.1,3.34,4.25,3.51,6.43l.52,6.74c.1,1.29-2.74,1.7-3.54,2.12-.5,3.88-1.16,10.01.87,13.42,2.14,3.6,7.56,1.73,10.53,2.36,4.17.88,6.79,1.12,10.24-.21-.28.56.13,1.38.87,1.06l.52-46.79.57,47.92,21.05.03c1.19,0,3.83.62,3.84,1.98l.13,20.05c0,1.19.6,3.85,2,3.86l20,.1c2.85.01,4.08,2.31,4.06,4.94l-.14,21.05,21.98.11c1.29,0,2.96,1.76,2.98,3.01l.39,22.76,50.39.31.27,16.86c.05,3.11.11,5.86,1.45,8.96l47.6.08c1.4,0,2.01,2.82,2.01,3.9l-.02,22.05h11.11s-2.09,2-2.09,2c-2.45,0-4.98.35-7.88,1.1v15.33s28.07,6.33,28.07,6.33l301.54.23,7.42-.38,16.83.39.12-19.11c.01-1.62-.45-2.85-.99-3.84-.26-.48-.11-1.45-.05-1.98,2.38-.65,2.92-3.38,2.96-6.05l.28-19.86,46.54-.23c1.04,0,3.13-.92,3.13-1.94l.02-20.06c0-1.6,1.25-3.82,3.15-3.83l47.57-.26.28-20.83c.04-2.98,2.08-4.98,5.02-4.99l19.99-.09.59-22.67c1.35-.62,2.06-1.33,2.64-2.66l22.48-.93.44-22.68c.04-1.93,3.1-2.97,4.83-2.97l20.05-.03.37-39.92.43,40.18-.26,26-25.39.31v25.71s-25.19-.13-25.19-.13v25.82s-24.99.18-24.99.18l-.13,25.67h-23.93c-.44-3.4,4.83-.74,11.21-2.54-.37-2.03-.13-3.76.9-4.72.63-.58,1.84-.84,3.67-1.46-.34-2.45-1.22-8.32-4.45-9.09-2.55-.61-5.78-.85-8.12-2.04l-3.37.95-1.74-1.98c-7.1-3.57-14.81-3.27-22.85-2.46,3.6,7.23,3.61,14.04.33,20.45,2.94,2.48,7.75-.69,7.55,2.89l-10.91.17-.16,26h-50.27s.17,25.98.17,25.98l-357.01.15-.21-26.11-50.58-.08-.13-26.09-51.61-.09-.16-25.66-24.9-.1-.2-25.7-25.09-.17-.25-25.75-25.31-.18v-25.56c-8.59-1.84-17.23.75-25.21-.72l-.04-25.04-25.33-.05-.1-76.56-25.56-.41-.09-272.75-.24-109.44c.53.88,1.57,2.11,3.11,2.12l31.7.13ZM597.79,1295.86c5.91-1.83,4.93-6.66,4.5-10.55-.19-1.7,1.45-4.06.87-5.66-.41-1.14-1.43-2.09-3.56-3.01l3.66-4.26c-2.12-3.64-.57-6.63.25-9.97.87-3.53,1.7-6.29,6.06-7.07l2.9-11.84.34-8.48-.28-27.48-.64-19.41c-.25-7.68,2.8-15.58-.18-32.78-.27-1.54-3.98-2.08-4.64-3.21l-4.45-7.59c-2.05-3.5,1.53-13.47-3.21-13.46-2.83,0-8.32,7.73-5.67,11.24,4.89,6.48-2.26,9.92-.51,11.8l2.81,3.03c-1.26,4.18-1.95,8.48.26,12.58,2.18,4.04-4.74,7.29-1.45,12.1,1.91,2.79,1.06,5.17-.52,7.75-1.02,1.67.95,4.27,1.17,5.76.75,5.13-4.34,12.78-1.48,23.26.91,3.35-.37,4.95-.41,7.95l-.37,25.8.12,20.46,2.07,9.13c.33,1.33,3.72,2.38,3.44,4.75-1.68,1.36-3.03,3.14-3.26,4.8-.2,1.44.76,4.77,2.17,4.33ZM1379,1425.1l-.04-16.29c-5.35.67-12.65-1.52-17.03,1.1-3.51,2.09.81,7.5,2.89,9.05,1.58,1.18,1.73,4.36,3.06,4.83,3.18,1.13,6.12-2.18,11.11,1.31ZM1351.06,1456.95c1.03-4.34-2.9-5.19-3.69-7.23-2.63-6.83-7.38-13.08-15.43-12.97l-.14,20.33,19.26-.13ZM1329.05,1482.84l-.11-22.98-19.99.26c-2.15,5.97-.03,11.44,3.91,16.01,1.54,1.79,1.83,5.44,4.7,6.3,3.57,1.07,7.55.64,11.5.41ZM1218.16,1531.72l8.66-.85c3.66-.36,4.47,1.02,6.8,2.31,5.26,2.91,11.99,1.88,18.1,1.45l.19-22.42c-6.35-1.23-11.93.76-18.02,1.25l-13.06,1.05c-7.6.61-11.77-4.52-15.47-.34l-.14,14.41c3.86,2.14,8.3,3.6,12.95,3.15Z"/>
  <path class="cls-4" d="M676.2,674.14l-.21,2.2-7.47-1.59c-.47,2.11-.18,6.13,2.34,7.3,2.13.99,4.73.4,6.57.73,1.97,3.25.89,6.19-1.01,9.86l.72,8.8c-2.2,4.26-.38,5.66,1.45,8.99.75,2.83-.1,8.81-.32,11.72-6.68,4.37,2.54,6.76-1.45,17.01,2.43,4.43,2.72,9.1,1.03,13.85,1.19,3.23-.07,6.01-.18,9.05l-.86,23.65c-.11,3.12-.88,3.86,1.3,6.23,2.72,2.95-.3,8.21-.22,11.32s-.09,6.29-1.76,8.87c2.39,4.05,2.63,7.4,2.58,12.34l-.08,9.28c-.03,3.54.58,5.62-.82,8.95-1.74,4.15.17,9.77-.25,14.12-.3,3.03-2.13,5.61-1.68,8.48-.78-.78-2.11-1.88-3.14-2.11-2.67,1.19-4.36,2.11-5.01,4.07-.79,2.39-.31,3.7.99,6.23.72,1.4-1.04,5.03-2.58,5.29-1.83.31-3.07-.75-3.1-1.55l-.16-4.21c-.09-2.32-1.97-4.97.53-6.6.92-.6,1.36-1.07,1.08-2.19-.12-.5.3-1.35-1.03-1.19-1.91.24-7.32,3.55-6.08,7.49.05.59-2.37.83-2.3.02.04-.57-.23-2.54-.83-2.69-7.65-1.95-6.05,1.59-9.5,2.14l.09-7c3.37-.38,3.79-7.34,3.07-13.84-.19-1.67-1.83-2.37-2.96-2.2v-2.02c.8.39,1.89.03,1.95-.56l.22-2.4c.1-1.14-.11-2.34-.64-2.89-.27-.29-1.09-.27-1.48-.14l-.1-25.91c1.85.32,2.44-.67,2.21-2.55-.16-1.26-.66-1.88-2.22-1.51l.07-30.97c.36.09,1.25.19,1.53-.05.34-.28.25-1.04.38-2.02l.91-6.81c.01-.09-1.49-9.21-1.29-9.11-.34-.17-1.13-.14-1.52-.07l-.06-27.7c1.81-.62,4.63-5.36,3.36-7-2.05-2.64-.76-4.76-.79-7.28-.04-3.86-1.55-7.45.23-11.45.48-1.07.04-2.54-.73-3.03-.59-.37-1.38-.54-2.06-.59l.03-17.92c1.71.96,3.62,1.71,6.33.99l-2.43-9.49c1.58-.55,2.37-1.82,2.2-2.8-.12-.7-1.21-1.44-2.04-1.56l.25-3.22c5.14-3.76,11.81-.47,12.13.2.53,1.09.6,2.16.84,4.2,5.38-3.13,8.95-.76,13.99.83ZM654.17,720.13c-.2-1.58-2.14-1.58-2.34,0-.32,2.54,2.66,2.54,2.34,0Z"/>
  <path class="cls-4" d="M677.37,925.73l1.12,6.48.19,11.69c.08,4.66-2.75,9.13-.22,13.64,1.89,3.36-.74,6.77-.71,9.68.09,7.86,2.67,15.61.7,23.57-.49,2-2.06,3.4-1.32,6.33,1.82,7.23-3.49,9.73-3.19,13.9.09,1.27-.02,2.8-.45,3.92-14.23-.81-11.46-11.78-19.31-11.14-1.85-3-3.4-7.33-6.5-9.49l-4.91-1.41c1.8-1.86,2.2-4.08,2.25-6.9l.25-13.95c1.34-9.31-.3-16.72-6.95-23.62-3.5-3.62-.54-14.37-6.66-12.29-3.29,1.11-.46,6.13-6.11,8.72-1.2.55-.91,3.62-.92,4.9l-8.09,6.05c-.27.2-.47.54-.76.71-.6,1.8-1.98,3.6-3.22,4.79-4.78.82-7.35-1.31-9.62-5.45-1.56-2.83-5.87-4.27-7.93-6.16-2.34-2.15-2.75-9.18-1.31-12.12l10.99-5.89c1.1-.59,3.65-2.46,5.06-1.23,1.83,1.99,4.58,7.54,8.35,6.99,5.59-1.15,8.01-8.66,7.56-13.54l10.49-.9c1.74-.15,5.51,1.12,7.14-.74s1.62-5.17,1.62-7.25c3.23-.35,5.58,1.79,7.73,4.32,1.7,2.01,5.31.47,7,.89l10.12,2.47c2.49.61,4.26,4.69,7.59,3.02Z"/>
  <path class="cls-11" d="M680.93,1252.05c-.93-1.03-.85-2.22-1.4-4.09-.25.5-.62,2.98-1.58,2.99l-15.06.12c1.2-3.7,8.31.29,8.76-7.66,6.59-4.79,6.89-13.92,1.84-20.33-.34-4.08,3.36-7.6,3.75-11.25.07-2.46-5.16-6.48-3.19-9.79,2.86-4.8,3.66-9.25,3.54-15.1l-.63-29.87c-.07-3.14-.86-5.61.73-8.61,1.73-3.24,1.48-6.68.15-9.93s.18-6.22.24-9.59c.03-1.66-1.71-4.93-.75-6.57,2.7-4.61.52-8.14.39-12.63l-.74-24.53c3.01-3.46,2.33-7.87-.39-10.32-1.01-3.74-.41-6.93.81-11.02l-1.29-8.72c-.23-1.52,2.89-2.49,2.98-3.69.28-3.92-2.84-5.91-1.27-11.09-2.04-3.22-.97-6.98-1.27-10.13-1.09-11.63,1.78-18.75-2.59-19.22-.31-4.17,5.01-6.67,3.19-13.9-.74-2.93.82-4.33,1.32-6.33,1.96-7.96-.62-15.71-.7-23.57-.03-2.91,2.6-6.32.71-9.68-2.53-4.51.3-8.98.22-13.64l-.19-11.69-1.12-6.48c.24-4.08.87-7.91-.77-12.36-.55-1.5-.36-4.04.59-5.12,2.91-3.33,1.26-6.04.5-9.44s2.07-7.83.59-10.85c-.76-1.55-2.51-2.52-2.52-3.58-.01-1.16.43-2.45,1.34-3.97.71-1.18-.87-3.84-.55-5.17.89-3.64,1.98-7.27-.68-9.95-.45-2.87,1.39-5.45,1.68-8.48.42-4.36-1.49-9.97.25-14.12,1.39-3.33.78-5.41.82-8.95l.08-9.28c.04-4.94-.2-8.29-2.58-12.34,1.67-2.58,1.84-5.72,1.76-8.87s2.94-8.37.22-11.32c-2.18-2.36-1.41-3.11-1.3-6.23l.86-23.65c.11-3.04,1.37-5.82.18-9.05,1.7-4.75,1.41-9.42-1.03-13.85,3.99-10.25-5.23-12.63,1.45-17.01.23-2.91,1.08-8.89.32-11.72-1.84-3.33-3.65-4.73-1.45-8.99l-.72-8.8c1.9-3.67,2.98-6.61,1.01-9.86-1.11-1.83-1.64-4.28-1.44-6.43l.21-2.2c.36-3.86-1.29-9.67.55-13.49,2.25-4.67,3.13-7.91.82-13.11-1.23-2.76,1.24-6.83,1.32-9.39l.07-2.2-.06-2.92c-.11-5.45,1.08-12.1-.46-17.7-2.22-8.07,2.64-17.52.09-28.13l-1.71-7.13c-.94-3.93-1.29-8.53-2.89-12.14-.9-2.04-2.38-2.99-2.19-5.95.07-1.02-1.59-2.57-3.18-3.34,3.58-5.16,3.08-10.75,1.2-16.45-1.14-3.46-.67-8.39-.77-12.02-.08-2.96,4.08-2.12,5.12-3.06,2.72-2.45,1.81-8.27.48-11.67-3.82-9.85-16.07-2.29-19.87-8.48l21.38-.09c1.25,0,2.27.2,2.62.92.19.38-.09,1.38.84,2.22.92-1.54.29-3.47.43-5.03h1s-.07,747.06-.07,747.06Z"/>
  <path class="cls-4" d="M654.73,506.97c3.8,6.19,16.04-1.37,19.87,8.48,1.32,3.4,2.24,9.22-.48,11.67-1.04.94-5.2.1-5.12,3.06.1,3.63-.37,8.56.77,12.02,1.87,5.7,2.38,11.29-1.2,16.45,1.59.77,3.25,2.32,3.18,3.34-.19,2.96,1.3,3.91,2.19,5.95,1.59,3.61,1.94,8.2,2.89,12.14l1.71,7.13c2.55,10.61-2.32,20.06-.09,28.13,1.54,5.6.35,12.26.46,17.7-1.28,0-2.09-.93-2.59-2.28-3.01-8.09-11.49-1.59-15.02-8.06-3.33-1.45-4.72-4.2-4.96-7.91-9.79-2.69-.41-9.65-7.77-15.4-.97-2.29-.35-4.69-1.57-5.71-.46-.38-1.36-.5-2.02-.48v-7.19c.32.11,1.17.16,1.48-.06.35-.24.63-1.03.63-1.85v-9.18c0-.82-.28-1.59-.64-1.85-.31-.22-1.11-.19-1.42-.08l-.28-6.22c7.76-3.26,2.15-11.01,3.59-18.67,3.66-4.76,5.8-10.44,6.08-16.5.04-.91,2.48-2.28,2.1-2.96-1.74-3.1-8.95-3.41-8.66-12.67.06-1.76-1.83-2.22-2.93-1.97l.15-3.68c1.71-.23,2.91-1.68,3.04-3.4l6.62.07ZM657.67,544.7c1.74-.27,1.99-1.22,1.94-1.94-.09-1.29-.91-2.17-2.54-1.65l-4.27,1.38c-.84.27.24,2.91,1.72,2.69l3.15-.48ZM658.23,555.73c1.84-1.16-.34-4.8-2.86-5.48-1.33-.19-1.99,2.42-.85,3.64.67.72,1.46,3.27,3.71,1.84ZM651.94,596.64c-.18,1.53,1.16,1.6,1.55,1.37.54-.32.75-.92.51-1.51-.19-.47-1.32-1.18-2.07.14Z"/>
  <path class="cls-14" d="M678.91,633.04l.06,2.92c-.73-.19-1.52-.09-1.97.54-.33.48.02,1.29.5,1.46.35.12.89.08,1.4.19-.08,2.56-2.55,6.62-1.32,9.39,2.31,5.2,1.43,8.43-.82,13.11-1.84,3.82-.19,9.63-.55,13.49-5.04-1.59-8.61-3.96-13.99-.83-.24-2.04-.31-3.1-.84-4.2-.33-.67-7-3.97-12.13-.2-1.22-1.22-2.72-1.77-4.31-2.02l.19-5.34c2.37-1.38,2.88-4.37,2.66-7.44-1.18-.61-2.23-.72-3.16-.91l.4-3.38c.14.19,1.35.49,1.44.17l.54-1.81c.51-1.71.87-2.82.55-4.08-.34-1.34-1.21-2.3-2.73-2.1l.13-21.58c2.43-.5,3.54-2.29,3.25-4.89-.2-1.83-.81-3.54-3.17-3.73l-.03-3.8c3.68.71-.17-3.31,3.58-8.61,7.36,5.74-2.03,12.7,7.77,15.4.25,3.71,1.63,6.47,4.96,7.91,3.53,6.47,12.01-.03,15.02,8.06.5,1.35,1.31,2.29,2.59,2.28Z"/>
  <path class="cls-14" d="M675.87,865.29c2.66,2.68,1.57,6.3.68,9.95-.32,1.33,1.25,3.99.55,5.17-.91,1.51-1.36,2.8-1.34,3.97.01,1.06,1.76,2.02,2.52,3.58,1.48,3.02-1.32,7.58-.59,10.85s2.41,6.11-.5,9.44c-.95,1.08-1.14,3.62-.59,5.12,1.64,4.45,1.01,8.28.77,12.36-3.33,1.67-5.09-2.41-7.59-3.02l-10.12-2.47c-1.69-.41-5.29,1.12-7-.89-2.15-2.53-4.5-4.67-7.73-4.32v-9.09c1.25.24,1.93-.71,1.89-1.56-.17-3.44,1.61-5.74.89-7.58-.42-1.07-2.09-1.61-3.06-1.66l.43-13.64,8.38-2c2.07-.49,3.79.75,4.24-1.45.23-1.14-.26-4.31-1.47-3.9-3.83,2.21-7.28,3.79-11.24,2.64l-.26-6.78c3.45-.55,1.85-4.08,9.5-2.14.6.15.88,2.12.83,2.69-.06.81,2.35.57,2.3-.02-1.24-3.94,4.17-7.25,6.08-7.49,1.33-.17.9.69,1.03,1.19.28,1.12-.16,1.59-1.08,2.19-2.51,1.63-.62,4.29-.53,6.6l.16,4.21c.03.79,1.26,1.85,3.1,1.55,1.53-.26,3.3-3.89,2.58-5.29-1.3-2.53-1.78-3.84-.99-6.23.65-1.96,2.34-2.88,5.01-4.07,1.03.23,2.36,1.32,3.14,2.11ZM664.79,890.96c-.61-3.27-6.52-2.25-7.65-1.47-.08,4.37-.15,8.38,4.03,10.14l3.61-8.67Z"/>
  <path class="cls-11" d="M644.74,566.76l.17-52.78c1.1-.25,2.98.21,2.93,1.97-.29,9.26,6.93,9.57,8.66,12.67.38.68-2.06,2.05-2.1,2.96-.28,6.05-2.42,11.74-6.08,16.5-1.44,7.67,4.17,15.41-3.59,18.67Z"/>
  <path class="cls-11" d="M644.9,732.26v-29.35c.7.05,1.49.22,2.08.59.78.49,1.21,1.96.73,3.03-1.79,4-.27,7.59-.23,11.45.03,2.52-1.26,4.64.79,7.28,1.27,1.64-1.55,6.38-3.36,7Z"/>
  <path class="cls-14" d="M648.99,672.13c.83.11,1.92.86,2.04,1.56.17.99-.62,2.26-2.2,2.8l2.43,9.49c-2.71.72-4.62-.03-6.33-.99l.06-12.65,4-.21Z"/>
  <path class="cls-4" d="M645.08,881.5l-.08-4.72c3.96,1.15,7.4-.43,11.24-2.64,1.22-.41,1.7,2.76,1.47,3.9-.45,2.19-2.17.96-4.24,1.45l-8.38,2Z"/>
  <path class="cls-11" d="M644.83,863l.11-16.04c1.13-.16,2.77.53,2.96,2.2.72,6.5.3,13.45-3.07,13.84Z"/>
  <path class="cls-11" d="M644.94,778.01l.02-18.05c.39-.07,1.18-.1,1.52.07-.2-.1,1.31,9.02,1.29,9.11l-.91,6.81c-.13.97-.03,1.74-.38,2.02-.29.23-1.17.14-1.53.05Z"/>
  <path class="cls-11" d="M648.56,599.39c-3.74,5.3.1,9.32-3.58,8.61v-14.81c.65-.02,1.55.1,2.01.48,1.22,1.02.6,3.42,1.57,5.71Z"/>
  <path class="cls-11" d="M644.97,586l.06-13.02c.31-.11,1.12-.14,1.42.08.35.26.64,1.02.64,1.85v9.18c0,.82-.29,1.61-.63,1.85-.31.22-1.16.17-1.49.06Z"/>
  <path class="cls-11" d="M644.94,905.94l-.28-10.81c.97.05,2.64.59,3.06,1.66.72,1.84-1.06,4.14-.89,7.58.04.85-.65,1.8-1.89,1.56Z"/>
  <path class="cls-11" d="M644.94,620.42l.07-8.62c2.36.18,2.97,1.9,3.17,3.73.29,2.61-.81,4.39-3.25,4.89Z"/>
  <path class="cls-11" d="M645.11,661.54l-.5-8.35c.93.19,1.98.3,3.16.91.22,3.07-.29,6.07-2.66,7.44Z"/>
  <path class="cls-3" d="M682.96,503.97h14.12c.97,0,1.65.43,1.96.88l-18.04.16h-1c.13-1.47,2.09-1.04,2.95-1.04Z"/>
  <path class="cls-11" d="M645.01,649.81l-.2-7.81c1.51-.2,2.39.76,2.73,2.1.32,1.26-.04,2.37-.55,4.08l-.54,1.81c-.09.32-1.3.02-1.44-.17Z"/>
  <path class="cls-11" d="M649.24,668.91l-.25,3.22-4,.21-.07-5.45c1.6.25,3.1.8,4.31,2.02Z"/>
  <path class="cls-11" d="M644.94,844.94l.05-5.99c.39-.13,1.21-.15,1.48.14.52.55.74,1.76.64,2.89l-.22,2.4c-.05.59-1.15.95-1.95.56Z"/>
  <path class="cls-11" d="M644.89,813.05l-.02-4.06c1.56-.37,2.07.25,2.22,1.51.23,1.88-.35,2.87-2.21,2.55Z"/>
  <path class="cls-11" d="M648.11,506.91c-.13,1.72-1.33,3.17-3.04,3.4-.3-.94-.38-2.58.54-3.22.6-.41,1.88-.28,2.5-.17Z"/>
  <path class="cls-10" d="M1503.96,1396.26l-.31,7.72-19.68.05c-1.69,0-4.8,1.03-4.82,2.96l-.17,23.98-23.61.5-.54,24.7-13.85-.15c-3.52-.04-7.01-.16-9.82,1.07l.06-50.83,25.59-.16v-25.4s24.2.02,24.2.02l.1-6.6c16.63-1.33,11.03,7.93,18.83,10.05,1.66,1.62.7,6.64.46,8.84-.23,2.08,2.3,3.08,3.54,3.26Z"/>
  <path class="cls-14" d="M1502.93,1329.16l1.3.88-.27,66.21c-1.25-.18-3.77-1.17-3.54-3.26.24-2.21,1.21-7.22-.46-8.84-7.81-2.12-2.21-11.38-18.83-10.05l.08-44.78,21.72-.17Z"/>
  <path class="cls-11" d="M1379.16,1509.94l-.57,23.8-17.63.14c-2.22.02-4.38.05-5.86,1.11l.03-25.06h24.04Z"/>
  <path class="cls-14" d="M1405.06,1483.93c-.76,1.31-1.04,3.04-1.05,5l-.06,19.05-18.01-.07c-2.06,0-3.76.29-5.13,1.17l-.15-25.28,24.39.13Z"/>
  <path class="cls-15" d="M1430.05,1458.03c-.61.88-.97,2.37-.97,3.91l-.06,20.15-19.08-.11c-1.63,0-2.99.38-3.97,1.07l-.07-25.05,24.15.03Z"/>
  <path class="cls-14" d="M1530.99,1137l-.1,20.59c-2.1-.73-2.21-3.08-2.18-5.27l.16-13.4c0-.77.36-1.65.7-1.86s1.08-.17,1.44-.06Z"/>
  <path class="cls-14" d="M1531.01,1173v11c-.36.12-1.16.16-1.47-.06-.34-.24-.63-1.04-.63-1.85v-7.19c0-.8.3-1.62.63-1.85.31-.21,1.11-.17,1.47-.06Z"/>
  <polygon class="cls-10" points="1504.23 1330.05 1502.93 1329.16 1504.11 1328.94 1504.23 1330.05"/>
  <path class="cls-15" d="M897.27,295.97l-.19,45.1h-77.01s-.08,23.01-.08,23.01l-24.92-.11-.23,23.94c-.21-.08-.64,0-.87,0l-23.95.06-.03,23-25.66.06-.4,23.12-1.07.07c-6.81.32-13.53,1-20.98.23-.82-.09-3.36.51-3.37,1.33l-.59,32.25c-.02.97.54,1.74.96,2.04v2.88c-.48.33-.89.99-.89,1.98l-.06,28.07c0,1.02-2.57,1.66-3.03,1.83h-1.83c-1.69-1.32-4.46-1.33-6.13.01h-7.89c-.31-.46-.99-.88-1.96-.88h-14.12s.04-90.94.04-90.94l33.99.07c2.72,0,4.45-2.48,3.94-5l.09-18.18,20.01-.06c10.22-.03,3.53-17.88,5.48-22.86.28-.72,1.5-1.16,2.58-.76,5.95-1.01,11.92-1.82,17.98-.94,5.77,3.25,5.58-10.69,3.91-22.3l21.09.05c3.11,0,4.92-1.94,4.99-4.97l.38-17.88,18.62-.35c2.14-.04,5.77-1.44,5.83-3.95l.42-19.74,74.99-.18Z"/>
  <path class="cls-14" d="M1148.99,294.2l-250.07-.04.35-28.04c.02-1.62.36-5.07,2.92-5.07l246.77-.07.03,33.22Z"/>
  <path class="cls-14" d="M1380,506.99c-.29.55-.1,1.83.57,1.79l2.21-.12c.91-.05,1.83.39,2.59.23s.94-1.2.63-1.89l17.13-.02c.48,1.54.87,2.67.87,5.27v405.56c0,1.72.1,2.24.69,2.81.26.25.86.39,1.33.39-1.23,4.6,6.85,2.56,15.06,2.38l19.95-.44c-.12.74.11,1.72.52,2.02.53.4,1.22,0,1.27-.55l.14-1.41,10.32.17c2.97,4.26,1.46,9.49,1.52,14.18-.99.3-1.89,1.03-2,2.25l-.79,9.41c-.18,2.14,1.33,3.22,2.97,3.13v349.56c0,1.05.64,1.29.97,1.31v.92s-11.93-.01-11.93-.01c-1.52-1.48-4.54-1.48-6.05,0l-3.92-.02-1.05-.92-.03-220.01c1.26.86,4.72,1.86,6.23.1,1.94-2.26-1.69-4.76-1.92-6.27-.68-4.49,6.45-11.35,2.22-15.87-1.55-1.65-4.64-1.23-6.5-.96v-35.05c0-1.07-1.49-1.29-1.99-.95-.21.14-.83,0-1.11,0,.47-.48.22-2.02-.87-2.01l-21.94.24c-2,.02-3.8,2.8-3.8,5.15l.06,223.56-35.36.2,1-5.25-.06-79.86c0-3.29,1.58-6,2.48-8.02-.56-4.52-.3-8.46.12-12.98.24-2.66-1.43-6.22.68-9.15l-1.51-5.79c1.41-3.12-1.49-6.43-1.49-9.06l-.11-91.86c1.35-2.03,1.37-4.25,1.37-6.38l-.04-20.98-1.35-8.07.03-397.38.41-6.62-.48-82.68,10.96-.08ZM1425.51,956.12l-20.01.31-.05,34.42,25.5-.33c1.92-1.5,1.73-4.22,2.64-5.95,1.7-3.22,2.96-5.75,2.47-9.58-.95-7.48.37-14.43,4.32-21.47-3.61-3.78-8.53-.17-14.86,2.61Z"/>
  <path class="cls-14" d="M640.83,1481.57c-6.47.55-12.06.79-18.38-.19,2.13-3.21,4.71-4.66,7.49-6.37l.69-5.43c2.91-1.32,8.04-1.33,9.59,2,1.3,2.79.7,6.18.6,9.99Z"/>
  <path class="cls-11" d="M1369.04,507.08l.48,82.68-.41,6.62-.03,397.38,1.35,8.07.04,20.98c0,2.13-.02,4.35-1.37,6.38l.11,91.86c0,2.63,2.9,5.94,1.49,9.06l1.51,5.79c-2.11,2.93-.44,6.49-.68,9.15-.41,4.52-.68,8.45-.12,12.98-.9,2.03-2.48,4.74-2.48,8.02l.06,79.86-1,5.25-.97.93V506s2.03,1.08,2.03,1.08Z"/>
  <path class="cls-11" d="M1386,507c.31.69.1,1.74-.63,1.89s-1.68-.28-2.59-.23l-2.21.12c-.67.04-.85-1.24-.57-1.79h6Z"/>
  <path class="cls-11" d="M1456.93,924.05l.09,376.97c-.82.33-1.02,1.19-1.05,2.02-.32-.02-.97-.27-.97-1.31v-349.56s-.18-14.79-.18-14.79c-.06-4.7,1.45-9.92-1.52-14.18,1.27.02,2.53-.1,3.64.86Z"/>
  <path class="cls-11" d="M1442.97,923.01l-.14,1.41c-.05.55-.74.95-1.27.55-.4-.3-.64-1.28-.52-2.02l1.93.05Z"/>
  <path class="cls-4" d="M1431.21,1306.01l.02,74.82-25.35.06-.13,25.27-22.75.09.04-49.06,21.93-.28c2.29-.03,2.82-4.02,2.83-5.94l.25-44.79,23.15-.16Z"/>
  <path class="cls-15" d="M1280.94,1509.85h-16.87c.21-3.59-4.61-.42-7.55-2.9,3.28-6.4,3.27-13.22-.33-20.45,8.03-.81,15.75-1.1,22.85,2.46l1.74,1.98,3.37-.95c2.34,1.19,5.58,1.43,8.12,2.04,3.23.77,4.1,6.65,4.45,9.09-1.83.62-3.04.87-3.67,1.46-1.03.96-1.28,2.69-.9,4.72-6.37,1.8-11.64-.86-11.21,2.56Z"/>
  <path class="cls-8" d="M1433,1060l-.03,22.99.03,220.01v1s-2,0-2,0l-1.02.03c.5-.85.88-1.49,1.02-3.24v-274.78s0-2.01,0-2.01c.5-.34,2-.12,2,.95v35.05Z"/>
  <path class="cls-2" d="M1429.98,1304.02l1.02-.03.21,2.01-23.15.16-.25,44.79c-.01,1.92-.54,5.91-2.83,5.94l-21.93.28-.04,49.06-2.17.02-.43-40.18c-.04-3.3-1.07-6.72.55-10.78l23.89-.58.27-46.52c0-1.59,1.15-3.19,1.99-3.73.93-.6,2.98-.61,4.28-.25,3.85,1.04,6.95.01,10.73-.05l7.88-.14Z"/>
  <path class="cls-10" d="M1444.03,1303.94h-6.05c1.52-1.48,4.54-1.48,6.05,0Z"/>
  <path class="cls-10" d="M1455.97,1303.95v-.92c.03-.83.23-1.69,1.05-2.02,0,.91.5,2.94-1.05,2.94Z"/>
  <polygon class="cls-10" points="1434.06 1303.92 1433 1304 1433 1303 1434.06 1303.92"/>
  <polygon class="cls-16" points="1100.8 1662.6 1100.88 1733.95 973.38 1734.29 973.75 1663.16 1100.8 1662.6"/>
  <path class="cls-9" d="M1150.93,341.08l.07,23.04,51.16.1.16,23.61,25.79.09.12,23.06,24.85.05.12,23.17,25.32.27.4,22.85,25.12.58.1,89.95,25.16.37.34,702.39c-.26.68-.61,1.53-1.38,2.15-.72.58-1.92.45-3.2.44l-20.39-.07-.41,75.91-25.29.31-.09,25.43.05,20.09-.3,5.94-25.46.09h-50.28s-.32,25.12-.32,25.12l-.32,25.93-50.9-.09-.15,34.24c-.34.47-.73.81-1.2,1.07l-250.94.03-2.22-.25v-35.01s-50.99.01-50.99.01l-.12-25.71v-25.35s-49.5.06-49.5.06l-.93,17.08-.39-17.14-25.64-.2-.14-26.08.05-25.23-25.36-.4-.12-75.93-24.64-.02-11.14-.11c2.81-1.54,6.31-.94,10.62-.76l.18-746.77c1.86-1.41,3.01-.24,3.88-.32l5.84-.56h15.74s-.07-9.51-.07-9.51l.1-37.18,25.32-.28-.06-23.07,25.38-.33.16-22.93,24.93-.23.09-23.03,25.64-.09.19-23.61,47.59-.28c.89.21,2.6.47,3.49-.54.43-.49.32-1.68.31-2.43l-.24-15.88.04-4.06h253.85ZM1253.07,711.8l-.06-25.69.07-91.55.03-89.81-24.76-.2-.08-23.68-25.69-.03-.25-23.34h-25.04s-.16-23.04-.16-23.04l-26.26-.03-.03-23.28-49.72.02-152.74-.06-.31,23.09-50.53.25-.42,23.14-25.55.06-.32,23.26-25.43.17-.09,66.8-25.61.25-.1,653.84,25.23.55-.03,50.47,25.75.15.09,25.04,26,.31-.04,25.49h50.02s.18,25.21.18,25.21l179.41.02.22-25.11,49.91-.1.03-25.49,25.37-.41.64-24.81,25.31-.36v-50.43s25.05-.5,25.05-.5l-.07-490.2Z"/>
  <path class="cls-11" d="M1366.11,1252.96c-1.38,1.38-.95,3.64-.95,6.06v68.08s-35.06.23-35.06.23l.94-4.42-.52-48.28c-.07-6.2-1.14-11.94.01-17.75.33,17.4,8.01,17.45,9.92,20.47,1.73,2.73,4.01,4.9,6.48,6.82.66,1.05-.13,4.11,2.09,4.49,1.17.2,5.03.63,3.9-1.58l-3-5.89c2.12-2.66,3.29-5.21,3.72-8.47.34-2.62,3.27-3.67,5.78-3.16,0-3.59-5.32-2.57-6.79-4.79s2.08-5.29,1.16-9.69l-23.3.5c-.78-.16-.83-1.62-.51-2.61h36.11Z"/>
  <path class="cls-8" d="M1429.9,1024l-20.68.05c-.9,0-3.23.73-3.23,2.17l.03,226.33c-3.13,1.46-5.88,1.5-8.99,1.49l-29.02-.02-.09,74.58c-.45.84-3.1,1.37-3.88,1.39l-33.82.19-.58,50.72-24.36.36-.52,25.49-24.31.25c-3.36,10.53,1.44,25.72-3.63,25.76l-47.59.42-.47,34.72h-73.71c-2.18,0-3.38,1.88-3.41,3.15l-.27,26.93-.32,2.53c-.17,1.36-.77,1.5-2.02,1.5v-2.01s.03-30.99.03-30.99l.93-1.12c.08-.18.07-.5.05-.71.47-.27.86-.6,1.2-1.07l15.8-.61,19.99-.1,39.6.2.68-34.41,49.42-.19.48-25.39,21.09-.83,4.45.1.22-21.86c.02-2.33,1.76-4,4.03-4.01l20.04-.07.76-8.92v-21.01s-.42-17.87-.42-17.87l.67-1.11.1-.97h.88c.75.01.9-.98,1.06-1.71l35.07-.23v-68.08c0-2.42-.44-4.69.94-6.06l.9-.9.97-.93,35.36-.2-.06-223.56c0-2.35,1.8-5.13,3.8-5.15l21.94-.24c1.09-.01,1.34,1.53.87,2.01Z"/>
  <path class="cls-10" d="M1330.09,1327.33c-.16.73-.31,1.72-1.06,1.72l-.03-75.03c0-.87.55-1.06,1-1.06-.32,1-.27,2.46.51,2.61l23.3-.5c.92,4.4-2.68,7.39-1.16,9.69s6.79,1.2,6.79,4.79c-2.52-.51-5.44.54-5.78,3.16-.43,3.26-1.6,5.8-3.72,8.47l3,5.89c1.13,2.21-2.73,1.78-3.9,1.58-2.23-.38-1.44-3.44-2.09-4.49-2.48-1.92-4.76-4.08-6.48-6.82-1.91-3.02-9.59-3.07-9.92-20.47-1.16,5.8-.08,11.54-.01,17.75l.52,48.28-.94,4.42Z"/>
  <path class="cls-14" d="M612.58,961.32l-.61,23.52c-.14,5.3,1.33,7.66,5.85,9.44,8.79,3.47,17.78,3.79,24.97-1.37l4.91,1.41c3.1,2.16,4.65,6.49,6.5,9.49,7.85-.65,5.08,10.33,19.31,11.14.43-1.12.54-2.65.45-3.92,4.37.47,1.5,7.59,2.59,19.22.3,3.15-.77,6.91,1.27,10.13-1.57,5.18,1.55,7.17,1.27,11.09-.09,1.2-3.2,2.17-2.98,3.69l1.29,8.72c-1.22,4.09-1.82,7.27-.81,11.02-1.99.68-3.4-.27-4.97-1.48l-13.02-10.03c-.83-.64-3.78-.29-4.23-1.13s.06-2.86.82-4.64l-6.28-.73c-.64-1.79-2.25-2.87-4.05-2.69l-.05-16.08c3.48-.42,2.61-4.33,3.24-6.67.99-3.68.86-4.94-.02-7.59-1.16-3.46-5.04-1.94-7.06-3.67-3-2.57-4.96-7.57-10.19-5.91-1.9,1.12-3.11,5.53-3.48,7.72l-8.26.14c2.04-3.94.71-8.16-3.14-11.29.8-4.35-.15-8.61-3.64-11.14-3.55.33-5.19-1.34-7.43-3.5-2.09-2.01-6.5-1.02-8.99-.92.41-2.32-1.72-4.61-1.99-7.06-.55-5.07-1.42-10.81-.39-15.94.93-4.68,2.16-8.49.3-13.27-1.19-3.05-.55-6.45,1.28-9.26,2.06,1.89,6.37,3.33,7.93,6.16,2.27,4.13,4.83,6.27,9.62,5.45Z"/>
  <path class="cls-4" d="M597.79,1295.86c-1.41.44-2.37-2.89-2.17-4.33.23-1.66,1.58-3.44,3.26-4.8.28-2.38-3.12-3.43-3.44-4.75l-2.07-9.13-.12-20.46.37-25.8c.04-3,1.32-4.6.41-7.95-2.86-10.48,2.23-18.13,1.48-23.26-.22-1.5-2.19-4.1-1.17-5.76,1.58-2.58,2.42-4.96.52-7.75-3.29-4.82,3.63-8.07,1.45-12.1-2.21-4.1-1.52-8.41-.26-12.58l-2.81-3.03c-1.75-1.89,5.39-5.33.51-11.8-2.65-3.5,2.85-11.23,5.67-11.24,4.74-.01,1.16,9.95,3.21,13.46l4.45,7.59c.66,1.13,4.37,1.67,4.64,3.21,2.98,17.2-.07,25.11.18,32.78l.64,19.41.28,27.48-.34,8.48-2.9,11.84c-4.36.77-5.2,3.53-6.06,7.07-.82,3.34-2.37,6.33-.25,9.97l-3.66,4.26c2.14.92,3.15,1.87,3.56,3.01.58,1.6-1.06,3.96-.87,5.66.43,3.89,1.41,8.72-4.5,10.55Z"/>
  <path class="cls-15" d="M665.99,1372.16l.02,3.84c-.77-.24-1.62-.12-2.01.52-.34.55.02,1.31.52,1.46.39.12.99.07,1.49.02l.02,25.78c-3.45,1.32-6.07,1.08-10.24.21-2.97-.63-8.39,1.24-10.53-2.36s-1.37-9.54-.87-13.42c.81-.42,3.64-.83,3.54-2.12l-.52-6.74c-.17-2.19-2.38-4.34-3.51-6.43-4.21,1.7-7.95,2.73-12.28,2.55l-12.56-.52c.03-4.76-.97-10.15.52-14.41,1.05-3.01.82-3.75.71-6.89l-.85-25.3c-.13-3.96-.52-7.06.87-10.83,1.17-3.17.32-6.76.65-10.43,10.67-.51,18.13-1.69,17.97,5.16-.05,2.03-1.81,4.06-2.83,5.74,1.3,2.16,3,5.09,2.21,8.03-1.29,4.78.81,8.82.38,13.36l-1.61,17.32c2.86.44,5.18,2.87,7.35,4.1,4.96-1.69,9.29.87,12.17,4.63,7.55.14,4.84,6.95,9.39,6.73Z"/>
  <path class="cls-4" d="M619.04,1022.09c-.74.01-2.16-.01-2.83.58-.53.46-1.17,1.44-1.18,2.3l-.06,4.79c-3.58,2.74-5.53,7.43-3.84,12.14l-2.23,3.74c3.09,3.36,3.6,7.15,3.59,11.12l-.02,8.36c-.01,5.52-.25,10.68-5.7,13.86-7.26-3.68-3.88-7.21-8.36-13.44-2.92-4.06-2.82-9.9-4.52-14.43-1.51-4.02-.51-7.64-.51-11.63l.06-39.72c0-1.86.74-4.47,2.38-4.53,2.48-.1,6.89-1.09,8.99.92,2.24,2.16,3.88,3.83,7.43,3.5,3.49,2.54,4.44,6.79,3.64,11.14,3.86,3.13,5.18,7.35,3.14,11.29Z"/>
  <path class="cls-8" d="M616.99,1025.04l-.02,278.04c-.49-.17-1.96.39-1.96-1.27l-.03-272.04.06-4.79,1.95.07Z"/>
  <path class="cls-2" d="M642,1307l-.05,45.05c0,1.17.45,1.66,1.03,1.98,1.04.56,2.31.99,3.96,1l19.01.08c1.19,0,2.28,2.4,1.46,2.94l-.52,46.79c-.74.31-1.16-.5-.87-1.06l-.02-25.78v-2s-.01-3.84-.01-3.84c-.03-4.84-.34-9.72-1.15-15.18l-19.86.08c-3.53.01-4.15-4.15-4.14-7l.2-43.01c0-.69.54-1.1.92-1.09l.04,1.03Z"/>
  <path class="cls-14" d="M676,676.34c-.2,2.15.33,4.6,1.44,6.43-1.84-.32-4.44.26-6.57-.73-2.52-1.17-2.81-5.2-2.34-7.3l7.47,1.59Z"/>
  <path class="cls-11" d="M654.17,720.13c.32,2.54-2.66,2.54-2.34,0,.2-1.58,2.14-1.58,2.34,0Z"/>
  <path class="cls-9" d="M615.8,956.52c.29-.17.5-.52.76-.71l25.8.47.09,34.42-25.49.13-.14-26.82-1.01-7.49Z"/>
  <path class="cls-11" d="M642.79,992.9c-7.19,5.17-16.18,4.84-24.97,1.37-4.52-1.78-5.98-4.14-5.85-9.44l.61-23.52c1.24-1.19,2.62-3,3.22-4.79l1.01,7.49.14,26.82,25.49-.13-.09-34.42-25.8-.47,8.09-6.05c0-1.28-.28-4.35.92-4.9,5.65-2.59,2.82-7.6,6.11-8.72,6.12-2.07,3.17,8.67,6.66,12.29,6.65,6.9,8.29,14.31,6.95,23.62l-.25,13.95c-.05,2.82-.45,5.04-2.25,6.9Z"/>
  <path class="cls-7" d="M793.97,387.92c.95,3.07-2.56,1.19-10.45,3.37-4.11,1.14-12.6-5.84-12.58.65l.05,17.1c0,1.16-.62,3.84-2,3.86l-19.03.17c-5.77.05-1.15,4.69-3.3,17.57-1.67,10.02-11.16,3.04-25.97,6.17-.13,4.43-.48,9.03.7,12.91,2.52,8.23,2.98,17.95,1.87,26.72l-2.33,18.48c-.5,3.93.22,7.14,1.7,10.14-.87.08-2.02-1.09-3.88.32l-.18,746.77c-4.31-.18-7.81-.78-10.62.76h-1.92c-.22-.87-1.01-.9-1.58-.97-1.05-.13-2.1.02-2.49.97h-3.92c-.58-1.5-5.13-1.5-5.14.14l-2.85-.13c-1.56-1.47-4.53-1.47-6.1,0l-1.99.13-1.02-1.01.07-747.05,18.04-.16h7.89s6.13,0,6.13,0h1.83c1.2-.02,2.38.3,4.08-.07l-.1-31.82v-2.88s-.38-34.29-.38-34.29c.01-.82,2.55-1.42,3.37-1.33,7.45.77,14.17.09,20.98-.23.25,1.15,1.16.89,1.07-.07l.4-23.12,25.66-.06.03-23,23.95-.06Z"/>
  <path class="cls-4" d="M676.59,1074.88c2.72,2.45,3.4,6.86.39,10.32l.74,24.53c.13,4.5,2.31,8.03-.39,12.63-.96,1.64.79,4.91.75,6.57-.07,3.37-1.53,6.45-.24,9.59s1.58,6.69-.15,9.93c-1.6,3-.8,5.47-.73,8.61l.63,29.87c.12,5.85-.67,10.3-3.54,15.1-1.98,3.31,3.26,7.33,3.19,9.79-.39,3.65-4.09,7.18-3.75,11.25,5.05,6.41,4.75,15.55-1.84,20.33-.45,7.94-7.56,3.96-8.76,7.66l-13.71-.02c-3.01-4.28-1.83-9.4-1.81-14.78l.04-10.8c.01-3.19,1.41-7.01-.3-10.64-.26-.56.25-2.2-.81-2.58-.47-.17-.92-.35-1.42-.36l.07-31.84c.8.21,1.69.05,2.06-.57s-.08-1.35-.52-1.47c-.46-.12-1.05-.12-1.56-.09l-.13-2.66c.78.16,2.01-.11,2.2-.81l.74-2.65c1.8-3.01.88-5.28-.62-7.99l-.25-3.11c-.04-.57-1.01-.99-1.91-.61l.02-5.06c1.94.27,2.17-.9,2.17-2.53s-.19-2.81-2.16-2.51v-1.98c.92.36,1.87-.1,1.91-.71l.22-3.31c.08-1.15-.17-2.43-.62-2.89-.29-.3-1.15-.27-1.53-.13l-.03-10.96c1.97.31,2.22-.86,2.21-2.52s-.25-2.8-2.17-2.58l-.05-3.69c2.94-.37,2.76-2.41,3.29-5.06.99-4.96,1.03-10.63-3.18-13.44l-.07-3.67c2.01-.31,3.09-2.62,2.88-4.52s-1.02-4.51-3.12-4.29l.21-29.25c2.32.1,3.56-2.05,3.98-4.14l6.28.73c-.76,1.79-1.26,3.81-.82,4.64s3.39.49,4.23,1.13l13.02,10.03c1.57,1.21,2.99,2.16,4.97,1.48Z"/>
  <path class="cls-2" d="M619.04,1022.09l8.26-.14,13.66.26c2.2.04,3.88,2.73,3.87,4.73l-.02,11.14.05,16.08.07,6.83-.21,29.25.24,8.81.07,3.67-.11,18.5.05,3.69-.03,5.09.03,10.96v7.04s.02,1.98.02,1.98v5.04s-.02,5.06-.02,5.06l-.17,15.17.13,2.66.03,2.13-.07,31.84.09,38.81c1.83.52,3.01.34,4.2.35l13.71.02,15.06-.12c.96,0,1.33-2.49,1.58-2.99.55,1.87.47,3.06,1.4,4.09.23.37.36,1.04,1.02,1.01,1.36,1.35,1.11,3.56,1.11,5.96l-.02,68.01,34.91.15c0,.85.04,1.64.99,1.93.22.07.54.05.78.03l1.28.86.14,1.15-.13,47.11c11.26,2.5,24.6-2.47,24.52,4.33l-.22,21.13,16.71.33c3.19.06,6.21.34,8.85,2.21l.15,24.73,27.02-.04c1.09,0,1.83.37,1.95,1.05l-27.94.37c-.97-.02-2.99-.95-3.02-2.4l-.53-23.47-21.55-.19c-1.69-.06-3.86-.78-3.87-3.5l-.11-21.79-23.58-.33-1.25-8.78-.19-41.6-3-.69-23.97-.5c-3.07-.06-6.19,1.13-9.72-.61l-1.22-5.63-.05-68.96c-4.94.62-9.27-.69-13.96-.75l-22.04-.31c-1.32-.02-2.01-2.41-2.01-4.09l.02-223.68-19.82-.38c-1.99-.04-3.72-1.12-5.2.32l-1.95-.07c0-.86.65-1.84,1.18-2.3.67-.59,2.09-.56,2.83-.58Z"/>
  <path class="cls-4" d="M678.96,635.96l-.07,2.2c-.51-.11-1.05-.07-1.4-.19-.48-.17-.83-.98-.5-1.46.44-.64,1.24-.73,1.97-.54Z"/>
  <path class="cls-11" d="M657.67,544.7l-3.15.48c-1.47.22-2.56-2.42-1.72-2.69l4.27-1.38c1.63-.53,2.45.35,2.54,1.65.05.72-.2,1.67-1.94,1.94Z"/>
  <path class="cls-11" d="M658.23,555.73c-2.26,1.43-3.04-1.12-3.71-1.84-1.13-1.21-.48-3.83.85-3.64,2.52.68,4.69,4.32,2.86,5.48Z"/>
  <path class="cls-11" d="M651.94,596.64c.75-1.32,1.88-.6,2.07-.14.23.59.03,1.18-.51,1.51-.39.23-1.74.16-1.55-1.37Z"/>
  <path class="cls-4" d="M664.79,890.96l-3.61,8.67c-4.18-1.76-4.11-5.77-4.03-10.14,1.13-.78,7.04-1.79,7.65,1.47Z"/>
  <path class="cls-6" d="M897.04,345.13l.24,15.88c-1.84-.13-3.51.96-3.79,2.97l-47.59.28-.19,23.61-25.64.09-.09,23.03-24.93.23-.16,22.93-25.38.33.06,23.07-25.32.28-.1,37.18c-3.71-.67-.86,3.19-2.66,7.3-4.86,2.01-9.8-2.59-11.94-.3-.49.52-.82,1.58-1.07,2.5l-5.84.56c-1.47-3-2.19-6.22-1.7-10.14l2.33-18.48c1.11-8.77.65-18.49-1.87-26.72-1.19-3.87-.83-8.47-.7-12.91,14.81-3.13,24.3,3.84,25.97-6.17,2.15-12.88-2.47-17.52,3.3-17.57l19.03-.17c1.37-.01,2-2.7,2-3.86l-.05-17.1c-.02-6.49,8.46.48,12.58-.65,7.88-2.18,11.4-.29,10.45-3.37.23,0,.66-.08.87,0,.55.39,2.11.34,2.15-.88l.62-19.73c1.16-2.64,5.98-.74,7.99-.21,5.9,1.57,12.25.87,17.35-2.12-.24-11.23-2.28-22,5.06-21.99l65.85.02,3.17,2.12Z"/>
  <path class="cls-7" d="M897.08,341.07l-.04,4.06-3.17-2.12-65.85-.02c-7.34,0-5.3,10.77-5.06,21.99-5.11,2.99-11.45,3.69-17.35,2.12-2-.53-6.83-2.43-7.99.21l-.62,19.73c-.04,1.22-1.6,1.27-2.15.88l.23-23.94,24.92.11.08-23.01h77.01Z"/>
  <path class="cls-3" d="M714.9,504.84c.46-.17,3.03-.8,3.03-1.83l.06-28.07c0-.99.41-1.65.9-1.98l.1,31.82c-1.7.37-2.88.05-4.08.06Z"/>
  <path class="cls-3" d="M718.87,470.08c-.42-.3-.97-1.07-.96-2.04l.59-32.25.37,34.29Z"/>
  <path class="cls-3" d="M713.07,504.85h-6.13c1.67-1.34,4.44-1.33,6.13,0Z"/>
  <path class="cls-3" d="M742.85,434.22l1.07-.07c.09.96-.82,1.22-1.07.07Z"/>
  <polygon class="cls-7" points="1425.51 956.12 1431.12 956.48 1430.94 990.51 1405.44 990.84 1405.5 956.43 1425.51 956.12"/>
  <path class="cls-10" d="M1430.94,990.51l.18-34.03-5.61-.36c6.33-2.78,11.25-6.39,14.86-2.61-3.95,7.04-5.27,13.99-4.32,21.47.49,3.84-.77,6.36-2.47,9.58-.92,1.74-.72,4.46-2.64,5.95Z"/>
  <path class="cls-10" d="M1432.98,1082.99l.03-22.99c1.86-.27,4.95-.7,6.5.96,4.23,4.52-2.89,11.38-2.22,15.87.23,1.5,3.86,4,1.92,6.27-1.51,1.76-4.97.76-6.23-.1Z"/>
  <path class="cls-10" d="M1454.81,937.37l.19,14.79c-1.64.09-3.15-.99-2.97-3.13l.79-9.41c.1-1.22,1-1.95,2-2.25Z"/>
  <path class="cls-16" d="M1429.9,1024c.28,0,.9.14,1.11,0v2.01c-1-.64-2.31-1.05-3.94-1.04l-16.14.09c-1.08,0-1.82-.38-1.72-1l20.68-.05Z"/>
  <path class="cls-15" d="M855,1538.01l345.1.05c.55,1,1.01,2.22.99,3.84l-.12,19.11-16.83-.39-7.42.38-301.54-.23-28.08-6.33v-15.33c2.91-.76,5.43-1.1,7.89-1.1Z"/>
  <path class="cls-15" d="M1218.16,1531.72c-4.65.46-9.09-1-12.95-3.15l.14-14.41c3.7-4.18,7.87.95,15.47.34l13.06-1.05c6.09-.49,11.67-2.48,18.02-1.25l-.19,22.42c-6.11.43-12.84,1.46-18.1-1.45-2.33-1.29-3.14-2.67-6.8-2.31l-8.66.85Z"/>
  <path class="cls-2" d="M1200.06,1536.08c-.07.52-.22,1.5.05,1.98l-345.1-.05,2.09-2.01c6.17,0,12.45,2.41,18.93-.12,5.13,1.73,9.72,1.58,15.26.11l308.78.09Z"/>
  <path class="cls-15" d="M1329.05,1482.84c-3.95.23-7.92.66-11.5-.41-2.86-.86-3.15-4.51-4.7-6.3-3.94-4.57-6.06-10.04-3.91-16.01l19.99-.26.11,22.98Z"/>
  <path class="cls-15" d="M1351.06,1456.95l-19.26.13.14-20.33c8.04-.1,12.79,6.14,15.43,12.97.79,2.05,4.72,2.9,3.69,7.23Z"/>
  <path class="cls-15" d="M1379,1425.1c-5-3.48-7.93-.17-11.11-1.31-1.34-.48-1.48-3.65-3.06-4.83-2.08-1.55-6.4-6.96-2.89-9.05,4.39-2.62,11.69-.42,17.03-1.1l.04,16.29Z"/>
  <path class="cls-15" d="M1332.22,1432.61c-.57,1.33-1.29,2.04-2.64,2.66.01-.44.57-1.26.73-1.54.24-.42,1.26-1.09,1.9-1.12Z"/>
  <polygon class="cls-5" points="1101.12 411.17 1100.79 434.21 1075.22 434.46 1075.12 481.07 1100.79 481.04 1100.74 504.56 1150.77 504.72 1150.87 547.86 1177.17 548.02 1177.22 593.96 1202.2 594.08 1202.52 616.42 1228.15 616.21 1228.31 593.9 1253.08 594.56 1253.01 686.11 1228.45 685.69 1228.22 663.41 1202.45 663.46 1202.5 685.64 1177.19 685.83 1177.2 710.98 1202.38 711.26 1202.51 733.32 1228.2 733.15 1228.38 711 1253.07 711.8 1253.14 1202 1228.09 1202.51 1228.1 1252.93 1202.79 1253.29 1202.15 1278.11 1176.78 1278.52 1176.75 1304.01 1126.84 1304.11 1126.63 1329.22 947.22 1329.2 947.04 1303.98 897.02 1303.99 897.05 1278.49 871.06 1278.18 870.97 1253.14 845.22 1253 845.24 1202.53 820.02 1201.98 820.11 548.13 845.73 547.89 845.82 481.09 871.25 480.92 871.57 457.66 897.12 457.6 897.54 434.46 948.07 434.21 948.39 411.11 1101.12 411.17"/>
  <polygon class="cls-1" points="1253.08 594.56 1228.31 593.9 1228.15 616.21 1202.52 616.42 1202.2 594.08 1177.22 593.96 1177.17 548.02 1150.87 547.86 1150.77 504.72 1100.74 504.56 1100.79 481.04 1075.12 481.07 1075.22 434.46 1100.79 434.21 1101.12 411.17 1150.84 411.14 1150.88 434.42 1177.14 434.45 1177.3 457.5 1202.34 457.49 1202.59 480.84 1228.27 480.86 1228.35 504.55 1253.11 504.75 1253.08 594.56"/>
  <path class="cls-4" d="M1150.03,1467.18c.02.21.03.54-.05.71-.54.03-.93.57-.93,1.12l-.02,30.99-249.9-.02-.02-32.76,250.94-.03Z"/>
  <path class="cls-4" d="M743.04,1333l.86,3.19c-.52-.43-1.88-.37-1.89.78l-.08,14.12c0,1.43,1.08,2.08,2,1.99-.15.41.28,1.57,1.16,1.57l24.07-.03.14,26.08,25.64.2.39,17.14c-.13,2.31-.28,4.98-.1,8.02l50.53.19.12,25.71h50.98s0,35,0,35l.1,2.05-1.78-1.1c.38-.7.83-1.54.51-2.7h-73.37c-1.35-3.78-.71-6.83-.67-10.29l.21-17.92c.03-2.57-.77-4.6-2.59-5.78-1.57-1.02-3.26-.51-5.44-.55-4.98-.08-10.25-2.53-9.86,1.33h-2s-1,0-1,0h-1c-.11-.67-.85-1.05-1.95-1.05l-27.02.04-.15-24.73c-2.64-1.86-5.65-2.14-8.85-2.21l-16.71-.33.22-21.13c.07-6.8-13.27-1.83-24.52-4.33l.13-47.11,17.89-.15c1.69,0,3.04,1.25,4.01,1.99Z"/>
  <path class="cls-4" d="M1327.37,1331.13l.42,17.87v21.01c-.51-.85-1.56-.55-1.81.03-.15.34-.63,1.69-1.06,1.95-3.87,2.29-7.93.26-10.82-3.2-4.08,1.55-9.21,1.62-12.28,4.02-2.76,2.95-4.34,6-9.53,7.31,2.74,2.56,1.32,5.95,2.15,8.47,1.88,5.71,5.37,10.48,3.86,16.19l-21.09.83-.48,25.39-49.42.19-.68,34.41-39.6-.2-19.99.1-15.8.61.15-34.24,50.9.09.32-25.93,50.5.11.1-25.23,25.46-.09.3-5.94c4.88-1.66,11.89-4.91,11.73-4.69,1.13-1.56-2.7-5.4,1.46-7.68,3.67-2.01,7.34,3.38,11.75,2,2.66-.84,3.61-3.47,3.2-6.57l-.98-7.38c-.67-5.01.3-11.56,2.92-16.4,1.32-2.44,5.99-.87,7.92-1.34,3.42-.83,7.08-2.47,10.41-1.69Z"/>
  <polygon class="cls-1" points="1253.01 686.11 1253.07 711.8 1228.38 711 1228.2 733.15 1202.51 733.32 1202.38 711.26 1177.2 710.98 1177.19 685.83 1202.5 685.64 1202.45 663.46 1228.22 663.41 1228.45 685.69 1253.01 686.11"/>
  <path class="cls-7" d="M743.86,1328.99h-3.86s-19,.01-19,.01l-1.28.13c-.23.02-.56.04-.78-.03l.15-76.07,24.64.02.12,75.93Z"/>
  <path class="cls-7" d="M845.77,1406.25l-50.53-.19c-.18-3.04-.03-5.7.1-8.02l.93-17.08,49.52-.06v25.35Z"/>
  <polygon class="cls-7" points="1253.2 1380.9 1253.1 1406.13 1202.6 1406.02 1202.92 1380.91 1253.2 1380.9"/>
  <path class="cls-4" d="M698.05,1252.92h3.92s4.07,0,4.07,0h1.92s11.14.11,11.14.11l-.15,76.07c-.94-.29-.99-1.09-.99-1.93l-.04-56.31c-1.65,1.82-1.2,4.43-1.49,6.86l-12.76,2.78c-.65,1-1.35,3.09-2.33,3.27-1.61.3-4.31.42-5.01-.93-1.48-2.87,1.16-4.42,2.24-6.24,2.46-4.16-9.85-4.46-8.6-8.6,1.58-5.22,3.31-9.81,2.92-14.96l5.14-.14Z"/>
  <path class="cls-5" d="M769.16,1354.62l-24.07.03c-.87,0-1.31-1.16-1.16-1.57l-.03-16.9-.86-3.19-.04-3c.35-.28.72-.65.85-1.01l25.36.4-.05,25.23Z"/>
  <path class="cls-7" d="M1304.29,1329.04l.11,22.28c.32.85-.16,3.26-1.54,3.27l-23.95.19.09-25.43,25.29-.31Z"/>
  <polygon class="cls-2" points="899.09 1467.21 899.11 1499.98 1149.01 1500 1149.01 1502.01 897.25 1501.98 896.98 1469.01 896.87 1466.96 899.09 1467.21"/>
  <path class="cls-14" d="M1306.11,1350.56l.98,7.38c.41,3.09-.54,5.73-3.2,6.57-4.41,1.39-8.07-4.01-11.75-2-4.16,2.28-.33,6.12-1.46,7.68.16-.22-6.86,3.03-11.73,4.69l-.05-20.09,23.95-.19c1.38,0,1.87-2.42,1.54-3.27.61-.39,1.17-.58,1.71-.76Z"/>
  <path class="cls-7" d="M744.15,495l.07,9.52h-15.74c.25-.93.58-1.99,1.07-2.51,2.14-2.29,7.08,2.31,11.94.3,1.79-4.12-1.05-7.97,2.66-7.3Z"/>
  <path class="cls-7" d="M897.27,361c.01.75.13,1.94-.31,2.43-.89,1.01-2.6.75-3.49.54.29-2.01,1.96-3.1,3.79-2.97Z"/>
  <path class="cls-14" d="M1327.79,1370.01l-.76,8.92-20.04.07c-2.26,0-4.01,1.68-4.03,4.01l-.22,21.86-4.45-.1c1.51-5.71-1.98-10.48-3.86-16.19-.83-2.52.59-5.91-2.15-8.47,5.19-1.31,6.77-4.36,9.53-7.31,3.07-2.39,8.2-2.47,12.28-4.02,2.88,3.46,6.95,5.49,10.82,3.2.43-.26.91-1.6,1.06-1.95.25-.57,1.3-.88,1.81-.03Z"/>
  <path class="cls-10" d="M1306.1,1329.09c.22.53.87.95,1.84.95l20.1-.02-.67,1.11c-3.33-.79-6.99.85-10.41,1.69-1.93.47-6.6-1.1-7.92,1.34-2.62,4.85-3.59,11.39-2.92,16.4-.55.18-1.11.37-1.71.76l-.11-22.28,1.81.05Z"/>
  <path class="cls-16" d="M1151.35,1497.98l.27-26.93-.27,26.93Z"/>
  <path class="cls-3" d="M1328.15,1329.05l-.1.97-20.1.02c-.97,0-1.61-.42-1.84-.95l22.05-.04Z"/>
  <path class="cls-2" d="M1149.04,1469.01c0-.54.39-1.08.93-1.12l-.93,1.12Z"/>
  <path class="cls-2" d="M895.2,1467.91l-74.72-.03-1.31-8.97-.18-25.95c0-1.05-.61-1.35-1.85-1.32l-13.13.35c-.39-3.86,4.87-1.4,9.86-1.33,2.18.03,3.87-.47,5.44.55,1.82,1.18,2.62,3.21,2.59,5.78l-.21,17.92c-.04,3.46-.68,6.51.67,10.28h73.37c.32,1.17-.13,2.01-.51,2.71Z"/>
  <path class="cls-16" d="M642.99,1354.03c-.58-.32-1.03-.81-1.03-1.98l.05-45.05c.38-.06.99.35.99,1.07v45.96Z"/>
  <polygon class="cls-13" points="800 1432 801 1432 800.99 1433.06 772.06 1432.37 800 1432"/>
  <path class="cls-13" d="M714.95,1329.63l-22.91.36c-.69,0-1.1-.58-1.06-.86l23.97.5Z"/>
  <path class="cls-13" d="M768.51,1406.5l-21.55-.19,21.55.19Z"/>
  <path class="cls-13" d="M804,1432l13.13-.35c1.24-.03,1.85.27,1.85,1.32l-16.99.03v-1s2,0,2,0Z"/>
  <polygon class="cls-2" points="802 1433 800.99 1433.06 801 1432 802 1432 802 1433"/>
  <path class="cls-11" d="M644.82,1038.09l.02-11.14c0-1.99-1.67-4.68-3.87-4.73l-13.66-.26c.37-2.19,1.58-6.6,3.48-7.72,5.23-1.66,7.2,3.34,10.19,5.91,2.02,1.74,5.91.21,7.06,3.67.89,2.65,1.02,3.9.02,7.59-.63,2.34.24,6.25-3.24,6.67Z"/>
  <path class="cls-11" d="M648.91,1056.86c-.42,2.09-1.66,4.24-3.98,4.14l-.07-6.83c1.8-.18,3.4.89,4.05,2.69Z"/>
  <path class="cls-11" d="M666.01,1376v2c-.51.05-1.11.1-1.5-.02-.5-.15-.86-.91-.52-1.46.39-.63,1.24-.75,2.01-.52Z"/>
  <path class="cls-14" d="M683.95,1252.93h6.1s2.85.13,2.85.13c.38,5.15-1.34,9.74-2.92,14.96-1.25,4.13,11.05,4.44,8.6,8.6-1.07,1.82-3.72,3.37-2.24,6.24.7,1.35,3.4,1.23,5.01.93.98-.18,1.68-2.27,2.33-3.27l12.76-2.78c.29-2.43-.16-5.04,1.49-6.86l.04,56.31-34.91-.15.02-68.01c0-2.4.25-4.62-1.11-5.96l1.99-.13Z"/>
  <path class="cls-9" d="M690.05,1252.93h-6.1c1.56-1.47,4.54-1.47,6.1,0Z"/>
  <path class="cls-9" d="M698.05,1252.92l-5.14.14c.02-1.64,4.57-1.64,5.14-.14Z"/>
  <path class="cls-9" d="M706.03,1252.92h-4.07c.39-.94,1.44-1.1,2.49-.97.57.07,1.36.1,1.58.97Z"/>
  <path class="cls-9" d="M681.96,1253.06c-.66.03-.79-.64-1.02-1.01l1.02,1.01Z"/>
  <path class="cls-11" d="M649.18,1251.05c-1.2,0-2.37.17-4.2-.35l-.09-38.81c.5,0,.95.19,1.42.36,1.05.39.54,2.02.81,2.58,1.71,3.63.31,7.45.3,10.64l-.04,10.8c-.02,5.38-1.21,10.5,1.81,14.78Z"/>
  <path class="cls-11" d="M644.92,1121.23l.11-18.5c4.21,2.81,4.18,8.48,3.18,13.44-.53,2.64-.35,4.68-3.29,5.06Z"/>
  <path class="cls-11" d="M644.79,1175.26l.17-15.17c.9-.39,1.86.04,1.91.61l.25,3.11c1.5,2.71,2.42,4.98.62,7.99l-.74,2.65c-.2.7-1.42.97-2.2.81Z"/>
  <path class="cls-11" d="M644.96,1099.06l-.24-8.81c2.1-.22,2.9,2.35,3.12,4.29s-.87,4.22-2.88,4.52Z"/>
  <path class="cls-11" d="M644.98,1148.01v-7.04c.37-.14,1.22-.17,1.52.13.45.46.69,1.74.62,2.89l-.22,3.31c-.04.6-.99,1.06-1.91.71Z"/>
  <path class="cls-11" d="M644.98,1155.03v-5.04c1.97-.29,2.17.91,2.17,2.51s-.22,2.8-2.17,2.53Z"/>
  <path class="cls-11" d="M644.94,1130.01l.03-5.09c1.93-.22,2.16.96,2.17,2.58s-.24,2.83-2.21,2.52Z"/>
  <path class="cls-11" d="M644.95,1180.05l-.03-2.13c.51-.03,1.1-.03,1.56.09s.88.86.52,1.47-1.26.78-2.06.57Z"/>
  <path class="cls-11" d="M740,1329c.55,1.07,1.9,1.23,3.01,1l.04,3c-.97-.74-2.32-2-4.01-1.99l-17.89.15-.14-1.15v-1s19,0,19,0Z"/>
  <polygon class="cls-4" points="721 1330 719.72 1329.14 721 1329 721 1330"/>
  <path class="cls-11" d="M743.9,1336.18l.03,16.9c-.93.09-2.01-.56-2-1.99l.08-14.12c0-1.15,1.38-1.21,1.89-.78Z"/>
  <path class="cls-4" d="M743.86,1328.99c-.14.35-.5.73-.85,1.01-1.11.23-2.45.08-3.01-1h3.86Z"/>
</svg>