<?xml version="1.0" encoding="UTF-8"?>
<svg id="Calque_2" data-name="Calque 2" xmlns="http://www.w3.org/2000/svg" viewBox="0 0 2511.63 1254.41">
  <defs>
    <style>
      .cls-1 {
        fill: #29110c;
      }

      .cls-2 {
        fill: #351f19;
      }

      .cls-3 {
        fill: #331d19;
      }

      .cls-4 {
        fill: #99734c;
      }

      .cls-5 {
        fill: #3e2219;
      }

      .cls-6 {
        fill: #e0c396;
      }

      .cls-7 {
        fill: #dfc295;
      }

      .cls-8 {
        fill: #956e47;
      }

      .cls-9 {
        fill: #6d5137;
      }

      .cls-10 {
        fill: #442e20;
      }

      .cls-11 {
        fill: #e8d1a8;
      }

      .cls-12 {
        fill: #e1c59a;
      }

      .cls-13 {
        fill: #e7d0a7;
      }

      .cls-14 {
        fill: #70543a;
      }

      .cls-15 {
        fill: #361c13;
      }

      .cls-16 {
        fill: #544440;
      }

      .cls-17 {
        fill: #ad9276;
      }

      .cls-18 {
        fill: #d6b689;
      }

      .cls-19 {
        fill: #715339;
      }

      .cls-20 {
        fill: #c6a57b;
      }

      .cls-21 {
        fill: #efdcba;
      }

      .cls-22 {
        fill: #2a1310;
      }

      .cls-23 {
        fill: #563e2a;
      }

      .cls-24 {
        fill: #95704c;
      }

      .cls-25 {
        fill: #e1c59b;
      }

      .cls-26 {
        fill: #5a412b;
      }

      .cls-27 {
        fill: #331810;
      }

      .cls-28 {
        fill: #73553a;
      }

      .cls-29 {
        fill: #311810;
      }
    </style>
  </defs>
  <g id="Calque_1-2" data-name="Calque 1">
    <g id="Objet_génératif_0_0_" data-name="Objet génératif (0, 0)">
      <g>
        <path class="cls-16" d="M5.66,1218.11l-4.9-1.66c-1.03-4.64-1.29-8.78.94-10.72l2.2,6.39,1.76,5.99Z"/>
        <g>
          <polygon class="cls-2" points="2487.63 23.45 2485.98 22.87 2483.67 22.89 2477.65 23.63 2475.63 21.66 2475.04 11.53 307.41 11.53 283.02 11.54 37.98 11.55 36.23 11.29 37.9 .25 1076.18 .32 1112.82 0 1144.7 .18 1182.76 .22 1202.71 .07 1233.09 .29 1619.98 .31 1628.95 .26 2331.52 .24 2465.75 .25 2474.22 .66 2475.21 10.58 2481.7 11.84 2486.45 12.02 2487.63 15.44 2487.63 23.45"/>
          <polygon class="cls-1" points="12.22 37.28 13.27 53.48 13.25 145.37 13.28 269.18 13.35 281.01 24.87 281.28 25.25 292.77 49.23 292.99 49.08 304.4 25.83 304.41 25.44 316.62 13.3 317.11 13.27 461.22 13.24 912.4 13.49 924.88 46.85 925.12 49.51 925.72 49.99 936.6 25.34 936.87 24.87 948.21 13.2 948.69 13.24 1194.23 13.46 1208.03 12.89 1217.26 7.69 1217.41 5.66 1218.11 3.91 1212.13 1.71 1205.73 1.65 46.12 1.97 37.61 12.22 37.28"/>
          <polygon class="cls-3" points="2488.07 1233.94 2485.77 1229.48 2487.28 1228.35 2497.08 1227.67 2496.23 1218.09 2499.34 1214.28 2498.64 1202.09 2494.17 1195.11 2496.86 1195.89 2499.06 1192.11 2499.1 948.75 2487.69 948.38 2487.01 937.07 2474.85 936.54 2475.66 925.43 2496.43 925 2499.31 920.26 2499.09 913.99 2499.05 317.45 2487.54 315.95 2487.22 304.7 2475.5 304.44 2475.7 293.05 2498.56 292.85 2499.03 281.12 2499.05 35.83 2499.99 34.05 2511.02 34.99 2510.98 514.36 2510.98 520.95 2511.04 638.58 2510.94 648.65 2511.38 704.9 2511.63 1012.09 2511.49 1215.32 2507.51 1218.69 2499.93 1219.66 2498.82 1229.81 2491.87 1231.21 2488.07 1233.94"/>
          <polygon class="cls-16" points="27.21 23.29 24.93 25 25.1 35.22 14.75 34.52 12.22 37.28 1.97 37.61 2.95 34.9 13.15 34.16 14.24 24.08 24.16 21.48 26.71 12.93 27.21 23.29"/>
          <polygon class="cls-27" points="2499.99 34.05 2499.05 35.83 2487.4 34.75 2487.63 23.45 2498.32 23.55 2499.99 34.05"/>
          <polygon class="cls-1" points="36.23 11.29 37.98 11.55 36.46 23.1 27.21 23.29 26.71 12.93 36.23 11.29"/>
          <polygon class="cls-24" points="283.02 11.54 283.24 23.02 306.51 23.45 307.41 11.53 2475.04 11.53 2475.63 21.66 2477.65 23.63 2483.67 22.89 2485.98 22.87 2487.63 23.45 2487.4 34.75 2499.05 35.83 2499.03 281.12 2488.16 281.01 2487.29 276.97 2487.38 47.51 2475.8 46.49 2475.29 34.97 2452.42 35.27 2451.81 23.23 2407.77 23.13 2393.71 23.5 2393.49 34.91 2194.78 34.89 2176.16 34.4 2157 34.93 973.49 34.9 960.73 35.01 781.76 34.84 710.83 34.93 459.44 34.9 458.97 23.24 377.41 23.48 376.37 34.67 357.63 34.88 353.15 32.48 353.36 23.33 341.67 23.44 341.2 35.17 249.9 34.85 106.17 34.91 99.61 34.59 37.39 35.24 36.48 46.32 25.03 47.4 25.07 141.7 24.93 151.41 24.89 169.29 25.27 198.84 25.22 211.42 24.9 255.17 25.34 257.08 24.94 269.2 13.28 269.18 13.25 145.37 13.27 53.48 12.22 37.28 14.75 34.52 25.1 35.22 24.93 25 27.21 23.29 36.46 23.1 37.98 11.55 283.02 11.54"/>
          <polygon class="cls-14" points="307.41 11.53 306.51 23.45 283.24 23.02 283.02 11.54 307.41 11.53"/>
          <polygon class="cls-24" points="25.44 316.62 25.11 339.41 59.94 339.71 59.87 351.21 25.02 351.39 25.03 592.53 25.29 596.49 25.34 609.3 25.01 612.85 25.03 807.34 41.43 808.31 59.76 808.11 60.39 819.74 27.02 819.76 24.94 824.25 25.12 866.41 57.43 866.43 59.92 867.05 59.91 877.38 57.29 877.97 25.24 878.27 25.08 910.2 25.56 912.9 13.24 912.4 13.27 461.22 13.3 317.11 25.44 316.62"/>
          <polygon class="cls-15" points="83.44 316.66 83.69 327.22 83.81 343.52 83.85 808.77 84.16 819.48 95.5 820.1 95.46 842.74 83.74 842.84 83.67 854.64 71.72 855.06 72.09 866.05 72.05 960.7 72.07 971.61 72.07 1030.7 71.7 1041.81 60.33 1042.39 60.36 952.31 59.9 947.98 60.13 936.76 49.99 936.6 49.51 925.72 60.18 925.93 59.89 914.04 60.42 910.42 60.33 880.3 59.91 877.38 59.92 867.05 60.52 854.78 71.81 854.68 72.1 842.99 83.85 842.8 83.61 830.58 72.08 831.31 72.05 740.61 71.76 738.27 72.05 726.87 72.02 608.77 72.04 596.94 72.06 321.38 71.54 316.54 83.44 316.66"/>
          <polygon class="cls-23" points="59.82 257.46 71.61 257.25 72.15 280.95 83.53 281.07 83.62 292.59 49.23 292.99 25.25 292.77 24.87 281.28 13.35 281.01 13.28 269.18 24.94 269.2 25.34 257.08 51.55 257.54 59.82 257.46"/>
          <polygon class="cls-10" points="83.44 316.66 83.3 304.55 49.08 304.4 49.23 292.99 83.62 292.59 83.53 281.07 95.35 280.97 95.52 292.7 107.36 292.89 107.02 304.43 95.56 304.81 95.3 316.15 83.44 316.66"/>
          <polygon class="cls-4" points="49.08 304.4 83.3 304.55 83.44 316.66 71.54 316.54 45.52 316.13 25.44 316.62 25.83 304.41 49.08 304.4"/>
          <polygon class="cls-23" points="25.56 912.9 43.53 913.2 59.89 914.04 60.18 925.93 49.51 925.72 46.85 925.12 13.49 924.88 13.24 912.4 25.56 912.9"/>
          <polygon class="cls-8" points="2475.5 304.44 2487.22 304.7 2487.54 315.95 2499.05 317.45 2499.09 913.99 2487.56 913.32 2486.76 890.31 2487.4 877.78 2487.08 846.38 2487.34 806.46 2487.22 733.24 2487.21 699.98 2487.2 616.72 2487.14 542.86 2486.92 524.67 2487.32 515.16 2440.43 515.23 2440.27 503.48 2487.53 503.35 2487.41 488.84 2487.16 433.47 2487.1 401.02 2487.41 351.41 2477.81 351.32 2452.14 350.91 2451.97 339.79 2455.57 339.22 2486.7 339.14 2485.47 328.13 2463.68 328.05 2463.8 316.51 2452.15 316.48 2452.2 304.95 2463.76 304.62 2475.5 304.44"/>
          <polygon class="cls-23" points="2486.76 890.31 2487.56 913.32 2499.09 913.99 2499.31 920.26 2496.43 925 2475.66 925.43 2452.07 924.71 2451.77 916.11 2452.15 890.19 2471.84 889.8 2486.76 890.31"/>
          <polygon class="cls-26" points="2488.16 281.01 2499.03 281.12 2498.56 292.85 2475.7 293.05 2475.5 304.44 2463.76 304.62 2452.2 304.95 2452.17 281.15 2488.16 281.01"/>
          <path class="cls-29" d="M2485.98,22.87l-2.31.02,2.31-.02Z"/>
          <path class="cls-29" d="M2477.65,23.63l-2.02-1.97,2.02,1.97Z"/>
          <path class="cls-14" d="M2393.49,34.91l6.41,2.96,8.54-2.99.82-6.15-1.49-5.6,44.04.1.61,12.04-3.57,5.8-17.18,1.85-3.76,3.76h-2.19s.65-2.7.65-2.7l-3.77-2.52-11.15-.02.5,5.12-155.95.19-3.69,4.52.06,5.14-4.23,2.01-42.17-.13-.11-11.57-70.08-.03.17,11.13-.45,1.96-11.53-1.17.08,11.26h-23.98s.22-11.61.22-11.61l-11.77-.79-1.03-10.79h-1053.9s-.27,11.22-.27,11.22l-.22,1.67-4.29-1.21-124.31-.02.36,11.61-23.82.12-.09,11.51-11.56.27-.22,11.82-11.04-.53-.49-11.42-12.08-.38-.18-11.29-46.45-.2v-11.32s-11.48,1.13-11.48,1.13l-.43-1.9-.51-11.06h-465.24c-2.67,3.14-3.1,7.46-1.88,11.66l-1.77,1.14-10.43-.77-11.74-.27-20.19-.09-3.93,1.11-.32-1.74.09-11.04H84.1s-.49,10.88-.49,10.88l-11.62.82-.4,11.21-11.26,1.28-.06,182.15-.45,4.4-8.27.09-26.21-.46-.44-1.92.32-43.75,22.89-.82.24-11.52-23.08-.24-.38-29.55.05-17.87,16.82,1.12,6.33-1.95.75-5.48-2.29-4.2-4.96.17-12.21-.64-4.29,1.27-.04-94.29,11.45-1.09.91-11.08,62.22-.65,6.56.33,143.72-.06,91.31.32.46-11.73,11.69-.11-.21,9.15,4.48,2.4,18.73-.21,1.04-11.19,81.56-.24.48,11.67,251.38.03,70.93-.09,178.97.17,12.76-.11,1183.51.03,19.16-.53,18.62.49,198.71.02Z"/>
          <polygon class="cls-28" points="2488.16 281.01 2452.17 281.15 2452.16 268.64 2475.66 269.51 2475.63 257.27 2451.95 257.54 2451.87 245.22 2452.05 234.39 2440.24 233.45 2440.4 199.02 2452.02 198.96 2452.03 187.3 2452.11 70.11 2440.02 69.85 2440.46 58.61 2433.68 58.38 2433.01 54.39 2428.16 51.18 2427.9 46.69 2431.66 42.93 2448.84 41.08 2452.42 35.27 2475.29 34.97 2475.8 46.49 2487.38 47.51 2487.29 276.97 2488.16 281.01"/>
          <polygon class="cls-26" points="25.22 211.42 25.27 198.84 48.35 199.08 48.11 210.6 25.22 211.42"/>
          <polygon class="cls-23" points="24.93 151.41 25.07 141.7 29.36 140.43 41.57 141.07 46.53 140.9 48.83 145.1 48.08 150.58 41.75 152.53 24.93 151.41"/>
          <polygon class="cls-28" points="2407.77 23.13 2409.26 28.73 2408.44 34.88 2399.9 37.87 2393.49 34.91 2393.71 23.5 2407.77 23.13"/>
          <polygon class="cls-28" points="71.54 316.54 72.06 321.38 72.04 596.94 35.5 597.43 25.29 596.49 25.03 592.53 25.02 351.39 59.87 351.21 59.94 339.71 25.11 339.41 25.44 316.62 45.52 316.13 71.54 316.54"/>
          <polygon class="cls-19" points="72.02 608.77 72.05 726.87 48.59 725.67 48.53 737.59 71.76 738.27 72.05 740.61 72.08 831.31 83.61 830.58 83.85 842.8 72.1 842.99 71.81 854.68 60.52 854.78 59.92 867.05 57.43 866.43 25.12 866.41 24.94 824.25 27.02 819.76 60.39 819.74 59.76 808.11 41.43 808.31 25.03 807.34 25.01 612.85 25.34 609.3 72.02 608.77"/>
          <polygon class="cls-9" points="59.91 877.38 60.33 880.3 60.42 910.42 59.89 914.04 43.53 913.2 25.56 912.9 25.08 910.2 25.24 878.27 57.29 877.97 59.91 877.38"/>
          <polygon class="cls-26" points="72.04 596.94 72.02 608.77 25.34 609.3 25.29 596.49 35.5 597.43 72.04 596.94"/>
          <polygon class="cls-15" points="71.59 69.62 72.12 253.01 71.61 257.25 59.82 257.46 60.26 253.05 60.33 70.91 71.59 69.62"/>
          <polygon class="cls-29" points="81.65 257.39 83.72 258.98 84 269.38 83.53 281.07 72.15 280.95 71.61 257.25 81.65 257.39"/>
          <polygon class="cls-20" points="107.68 284.27 107.04 292.86 118.76 292.79 119.1 304.91 143.3 304.51 153.8 304.64 153.71 316.3 108.24 316.22 106.73 327.68 83.69 327.22 83.44 316.66 95.3 316.15 95.56 304.81 107.02 304.43 107.36 292.89 95.52 292.7 95.35 280.97 83.53 281.07 84 269.38 107.01 269.34 107.08 279.24 107.68 284.27"/>
          <polygon class="cls-19" points="2486.76 890.31 2471.84 889.8 2452.15 890.19 2451.92 854.39 2451.97 842.97 2442 843.06 2440.59 832.11 2440.6 526.91 2483.15 527.03 2486.92 524.67 2487.14 542.86 2487.2 616.72 2487.21 699.98 2487.22 733.24 2487.34 806.46 2487.08 846.38 2487.4 877.78 2486.76 890.31"/>
          <polygon class="cls-5" points="2440.75 397.3 2442.12 397.66 2440.38 410.89 2440.27 503.48 2440.43 515.23 2487.32 515.16 2486.92 524.67 2483.15 527.03 2440.6 526.91 2440.59 832.11 2442 843.06 2440.42 844.03 2428.55 843.73 2428.64 622.98 2427.92 618.68 2428.27 600.73 2428.25 582.75 2428.51 570.71 2428.63 397.76 2440.75 397.3"/>
          <polygon class="cls-19" points="2440.27 503.48 2440.38 410.89 2451.98 409.62 2452.02 397.57 2452.14 350.91 2477.81 351.32 2487.41 351.41 2487.1 401.02 2487.16 433.47 2487.41 488.84 2487.53 503.35 2440.27 503.48"/>
          <polygon class="cls-15" points="2451.87 245.22 2451.95 257.54 2452.16 268.64 2452.17 281.15 2452.2 304.95 2452.15 316.48 2451.97 339.79 2452.14 350.91 2452.02 397.57 2442.12 397.66 2440.75 397.3 2440.22 387.12 2440.35 261.27 2440.06 257.15 2439.91 245.57 2451.87 245.22"/>
          <polygon class="cls-28" points="2451.97 339.79 2452.15 316.48 2463.8 316.51 2463.68 328.05 2485.47 328.13 2486.7 339.14 2455.57 339.22 2451.97 339.79"/>
          <polygon class="cls-29" points="2452.15 890.19 2451.77 916.11 2445.1 919.23 2440.31 920.15 2440.38 898.32 2447.34 893.51 2448.11 884.52 2444.33 879.57 2440.28 878.46 2440.11 854.1 2440.42 844.03 2442 843.06 2451.97 842.97 2451.92 854.39 2452.15 890.19"/>
          <path class="cls-6" d="M2088.5,57.49l.12,12.36,11.44.03.41,11.66,11.95.42-.32,11.4,11.63.08.46-12.03-.44-2.08.3-9.44h11.5s-.05-10.09-.05-10.09l.45-1.96,2.31.58,67.7-.08-.08,11.66,46.59.04-.17-11.66,171.37.04,4.31-.72.53,2.01.25,10.43,11.52-.35-.06,117.46-11.59.16-.09,58.05-.06,12.02,11.58-.33.28,4.13-.13,125.85-11.48-1.07-.11,11.71-.12,172.95-4.67.18v11.74l4.41.11.02,17.98-4.43.16v17.66s4.08.13,4.08.13l.72,4.3-4.7,1.53-1.52,14.36-4.97,3.68-11.15,1.19-4.93-6.8c-1.38-3.74-4.22-6.39-7.64-6.68l.07-21.26,11.57-.58-.07-39.63-.05-18.06-23.26-.44-.1-11.27,11.49-.64.04-35.19.09-34.35,11.8-.98.03-32.91-.08-39.94-.06-21.2-.75-10.76-10.81-.1.02-13.86v-55.99s-11.81-.51-11.81-.51l-.16-23.29-35.21-.16.06-65.98-1.79-4.28-9.97.06-.41-11.61,35.38-.15.28-11.56,11.76-.08-.24,11.85-9.28.92-3.38,10.15,12.15.57.94,12.07,11.11-.6.24,11.68,11.48.52.42-3.36-.69-12.08,1-47.98-.47-18.24-11.75-.82.02-22.24.43-24.37-35.33-.19-.83,11.8-23.32.07h-22.63s-.45-11.75-.45-11.75l-22.25-.27-1.12-11.48-23.56-.3-.37,11.83-11.26.12.04,23.2-11.82.06-.03-10.86-11.5-.49-.21,24.28-2.51,3.22-4.94-1.24-3.75,2.8-1.37,6.13-10.62.05-.07-23.42-11.91-.3.24-23.28,11.77-.29-.23-11.82-51.79.04-5.04.32-1.81,5.01.31,6.47-11.62.28-.39,11.49-11.58.4.09,58.17-11.76-.24-.16-11.93-.12-10.65-11.61.2-.12-23.95h-11.43s-.28-23.58-.28-23.58l-11.66-.21v-6.09s-.85-5.66-.85-5.66l-84.08.06-289.47-.09-.71,11.86-81.4.05-.74-11.79-39.07.03-56.35-.08-375.13-.04-115.56.06-.79,11.8-127.85.2-1.63-6.28.6-5.68,1.07-11.72,128,.11.24-10.49.22-1.67,4.15.5,1051.04-.92ZM2394.8,245.76l21.23-.49.65-16.18-.53-4.92-3.93-1.65-6.45.72-.11,10.35-13.77.11-10.09-.16-.07,12.05,13.08.16Z"/>
          <polygon class="cls-7" points="270.99 57.75 271.31 59.49 271.29 70.06 293.97 70.02 294.2 81.3 283 81.6 283.13 93.44 299.72 93.4 305.89 90.71 306.66 85.26 307.24 69.84 318.39 70.08 317.6 59.51 319.38 58.37 782.57 58.41 787.01 57.78 787.44 59.68 786.89 67.58 788.86 69.91 798.92 69.87 799 81.52 810.43 81.92 810.49 105.29 799.09 105.17 798.65 93.52 775.44 93.38 775.09 81.73 728.89 81.44 681.52 81.57 681.64 94.2 681.21 105.13 658.41 105.34 658.28 128.7 646.78 129.03 646.02 116.95 634.61 116.52 634.39 94.26 623 93.09 622.62 81.55 576.09 81.46 575.5 93.33 552.98 93.44 552.47 81.52 389.09 81.61 330.12 81.61 329.16 93.56 318.27 93.26 318.21 104.43 306.97 105.67 306.36 116.97 283.15 117.13 283.09 105.31 271.5 105.16 270.79 93.5 258.93 93.24 259.6 81.54 235.59 81.46 212.8 81.82 212 93.38 189.41 93.42 189.33 103.76 183.46 104.2 177.45 105.32 147.28 105.15 142.3 106.85 141.55 117.01 130.44 117.37 127.69 116.51 125.51 121.5 122.21 126.29 115.88 129.01 107.37 129.59 107.3 245.4 118.66 245.53 118.89 268.41 129.22 269.31 130.11 273.14 119.92 279.82 107.68 284.27 107.08 279.24 107.01 269.34 84 269.38 83.72 258.98 81.65 257.39 71.61 257.25 72.12 253.01 71.59 69.62 83.82 70.1 83.61 57.6 267.21 58.44 270.99 57.75"/>
          <polygon class="cls-27" points="2088.5 57.49 1037.47 58.41 1033.31 57.91 1033.58 46.69 2087.48 46.69 2088.5 57.49"/>
          <path class="cls-27" d="M787.01,57.78l-4.44.64-463.2-.04c-1.22-4.2-.78-8.52,1.88-11.67h465.24s.51,11.07.51,11.07Z"/>
          <polygon class="cls-27" points="270.99 57.75 267.21 58.44 83.61 57.6 84.1 46.72 271.09 46.71 270.99 57.75"/>
          <polygon class="cls-27" points="2411.95 46.57 2425.71 46.69 2427.9 46.69 2428.16 51.18 2427.98 57.7 2423.68 58.42 2252.31 58.38 2252.48 70.04 2205.88 70 2205.96 58.34 2138.26 58.42 2135.95 57.83 2135.77 46.71 2205.85 46.73 2205.96 58.3 2248.14 58.43 2252.37 56.42 2252.31 51.28 2256 46.76 2411.95 46.57"/>
          <polygon class="cls-15" points="1033.1 59.57 1032.86 70.06 904.86 69.96 904.5 58.34 1028.81 58.37 1033.1 59.57"/>
          <polygon class="cls-15" points="845.55 81.35 833.63 81.68 810.43 81.92 799 81.52 798.92 69.87 845.37 70.07 845.55 81.35"/>
          <polygon class="cls-5" points="307.18 58.74 306.59 65.54 307.24 69.84 293.97 70.02 271.29 70.06 271.31 59.49 275.24 58.38 295.44 58.46 307.18 58.74"/>
          <polygon class="cls-5" points="904.86 69.96 903.79 81.68 892.67 81.99 880.93 81.5 881.02 93.51 869.13 93.38 868.95 105.33 857.44 105.07 857.27 93.33 858.12 93.15 869.16 93.68 869.38 81.86 880.95 81.59 881.04 70.08 904.86 69.96"/>
          <polygon class="cls-15" points="2124.04 69.88 2123.74 79.32 2122.05 81.65 2112.42 81.95 2100.47 81.54 2100.06 69.88 2124.04 69.88"/>
          <polygon class="cls-10" points="858.12 93.15 857.27 93.33 845.11 93.36 845.55 81.35 857.63 81.73 858.12 93.15"/>
          <polygon class="cls-5" points="83.61 57.6 83.82 70.1 71.59 69.62 71.99 58.41 83.61 57.6"/>
          <polygon class="cls-5" points="2100.06 69.88 2088.62 69.85 2088.5 57.49 2100.27 58.27 2100.06 69.88"/>
          <polygon class="cls-27" points="2135.49 59.79 2135.54 69.87 2124.04 69.88 2123.96 58.62 2135.49 59.79"/>
          <polygon class="cls-5" points="798.92 69.87 788.86 69.91 786.89 67.58 787.44 59.68 798.91 58.55 798.92 69.87"/>
          <polygon class="cls-29" points="317.6 59.51 318.39 70.08 307.24 69.84 306.59 65.54 307.18 58.74 317.6 59.51"/>
          <polygon class="cls-28" points="2425.71 46.69 2411.95 46.57 2411.44 41.45 2422.59 41.46 2426.36 43.98 2425.71 46.69"/>
          <polygon class="cls-15" points="2433.68 58.38 2440.46 58.61 2440.02 69.85 2452.11 70.11 2452.03 187.3 2440.23 187.25 2440.28 69.79 2428.76 70.14 2428.51 59.72 2433.68 58.38"/>
          <polygon class="cls-27" points="2440.23 187.25 2440.4 199.02 2440.24 233.45 2439.91 245.57 2428.55 245.46 2428.63 187.41 2440.23 187.25"/>
          <polygon class="cls-23" points="2452.16 268.64 2451.95 257.54 2475.63 257.27 2475.66 269.51 2452.16 268.64"/>
          <polygon class="cls-26" points="2452.03 187.3 2452.02 198.96 2440.4 199.02 2440.23 187.25 2452.03 187.3"/>
          <polygon class="cls-26" points="2451.87 245.22 2439.91 245.57 2440.24 233.45 2452.05 234.39 2451.87 245.22"/>
          <polygon class="cls-14" points="2433.68 58.38 2428.51 59.72 2427.98 57.7 2428.16 51.18 2433.01 54.39 2433.68 58.38"/>
          <polygon class="cls-8" points="72.05 726.87 71.76 738.27 48.53 737.59 48.59 725.67 72.05 726.87"/>
          <path class="cls-21" d="M646.78,129.03l-.41,4.25.04,53.75,11.87.04.38-17.88v-5.03s4.86.06,4.86.06l6.2-2.19.23-31.13-4.37-2.31-7.31.1.13-23.35,22.8-.22.43-10.93,3.36-.74,43.64-.08.25-11.93,46.21.29.35,11.65,23.21.13.44,11.65,11.4.13.53,11.65,11.15.15.23,11.31,21.63.37,1.43,4.43,1.93,6.9,9.14.57,1.29,11.36,11.43-1.06.46-9.54,11.58-2.35-.34-21.86h11.95s.05-11.75.05-11.75l11.59-.44.27-11.4,127.85-.2.79-11.8,115.56-.06,375.13.04,56.35.08,39.07-.03.74,11.79,81.4-.05.71-11.86,289.47.09,84.08-.06.85,5.66v6.09s11.65.21,11.65.21l.28,23.58h11.43s.12,23.95.12,23.95l-.19,10.21-11.85,1.19.31,44.85-.15,59.84.07,16.01-.1,8.32,11.77-.74.08-69.36,11.82-.93-.04-22.9-11.89-1.13.4-34.71,11.49-.21.16,11.93,11.76.24-.09-58.17,11.58-.4.39-11.49,11.62-.28-.31-6.47,1.81-5.01,5.04-.32,51.79-.04.23,11.82-11.77.29-.24,23.28,11.91.3.07,23.42,10.62-.05,1.37-6.13,3.75-2.8,4.94,1.24,2.51-3.22.21-24.28,11.5.49.03,10.86,11.82-.06-.04-23.2,11.26-.12,25.05-.05,22.25.27.45,11.75h22.63s-.24,11.81-.24,11.81l-10.77-.06v12.16s-11.89-.49-11.89-.49l.06,22.92.02,23.77,11.15.26.43,11.59,11.33.09.41,11.61,9.97-.06,1.79,4.28-.06,65.98,35.21.16.16,23.29,11.81.51v55.99s-.02,13.86-.02,13.86l10.81.1.75,10.76.06,21.2.08,39.94-.03,32.91-11.8.98-.09,34.35-10.86.44-.86-7.08-1.63-5.03-22-.14-.05-11.21-11.74.09.48,19.51c-.36.36-3.83,3.87-3.58,3.61l-8.4.69-.64,10.76-22.15-.06-.75-11.54-11.49.17-.07,35.14-11.65.22.08-11.68-68.99-.33-1.88,10.87,1.92,1.14h32.75s.99,11.36.99,11.36l22.95.28.14,11.26h-20.16s-25.81-.3-25.81-.3l-1.06-11.09-11.36-.03v-10.18s-.7-1.55-.7-1.55l-22.82.12-.24,21.2,6.39,1.65,5.78,1.82-.3,21.65,11.75.63-.34,11.51-11.44.49-.53,11.23-22.94-.09-.24,23.1,11.87.66.2-11.78,35.41-.17.11-17.89.09-4.95,4.2-.94,6.35.23,1.43,11.9,46.07-.08.36-11.93h23.51s.4-11.51.4-11.51l10.95.13.81,11.3,11.16.99-.71,10.96-10.5.03-.11,11.73,22.56.3.46,11.59,10.79.1.69,9.62c-.44-.35,2.35,1.85,3.01,2.38l8.48-.43.54,11.12,11.76-.08-.62-19.32,3.33-3.84,9.11.57-.06,57.99,11.59.35v46.58s-11.8,1.04-11.8,1.04l-.06,91.81-5.13,1.45-6.48,1.38-.86,5.77,2.47,3.96,21.93.42.07,19.13.04,20.01.03,17.89-.22,47.89-11.56.35-.36,81.43-12.25.54.91,34.86-11.77.35-.46,11.29-34.42.05.11,11.43,30.6.6,19.74.37,7.78-.18-.03,22.87-11.7.16.08,11.82-11.61-.1-.4,11.88h-11.62s-.03-23.6-.03-23.6l23.46-.18-.09-11.8-31.74.15-14.92.03-.38,33.57.29,13.7-.39,12.15-10.69-.44-.5-1.46-.02-57.62-11.6-.1-.23,11.53-11.53.36-.13,23.42-19.84.14-55.92-.07-29.77.1-.32,11.56-15.94.28-88.79-.31-1.26-11.68-58.04-.06.87-10.87,3.25-.66,28.05-.15,26.29-.06.08-23.2,9.64-.23,13.83-.34.22-11.53,58.1.06.88,11.65,22.79.49.27,11.34,23.22.22.45,11.67,22.61.04.54-22.95,11.26-1.12.71-11.09,20.02.05,3.42-3.43.31-7.88,11.06-1.43.59-10.74,33.53.14,22.51.32,2.95-3.19,2.1-8.01,8.39-.39,12.12-1.77.19-26.27,1.39-3.74,5.16-1.52,5.15-2.8-.37-21.97-11.46-1.07-.08-22.87-18.09-.43-4.71-.02-.82-3.39-.24-20-34.29-.05-.9,11.76-22.98.12-.19,9.23-2.55,2.89-9.07-.35-.22,11.59-23.26.53-.66,10.69-33.94.98-1.08,11.21-10.77.03-.46,5.18.43,5.16,5.66,1.41,17.22.04.2,18.71-.84,3.8-4.26.57-29.9.02-.55,11.79-22.64.37-.6,11.28-34.25.13-1.02,11.4-23.03-.05-.13,11.74-33.11.06-2.88,10.97-9.89.96-1.03-11.59-10.97-.67-1.19-11.25-10.92.53-.17-11.95-11.56-.11-.35,11.18-11.58-.12-.18-11.04-11.67-.07-.06,11.23-11.38.79-.18,10.3-11.01,1.04-.76-11.83-23.07.07-.32,11.37-23.44.31v11.25s7.95,1.35,7.95,1.35l15.6.12-.1,26.58.5,19.28-12.14.2-.49-11.88-22.98-.05-.81,11.77-152.65-.07-11.45-.06-57.82.06-.24-11.51-23.04-.14-.37,11.79-58.43-.02-.32-12.17-11.49.7.33,34.6-24.13-.07v-11.32s.22-11.69.22-11.69l-22.94.15-1.23-11.77-20.01-.09-11.69-.1-60.87-.19-.66,11.89h-726.4s-1.28-11.5-1.28-11.5l-10.58-.69-.23-9.16.15-8.08-.48-5.92h-11.21s-.19-23.2-.19-23.2l-11.34-.43-1.31-11.57-10.66,1.04-.29,22.43-8.07-.17-26.32.3-35.46-.09-.57-11.67-11.49-.4-.08-11.2-11.06-.17-.94-11.17-13.35-.63-32.66.44-.36-23.46-11.61-.16-20.07-.05h-107.72s-1.8,11.99-1.8,11.99h-22.26s-.89,11.36-.89,11.36l-22.36.04-.84-11.29,12.13-.49-.13-23.15,32.92-.07,2.28-7.07-4.28-5.18-7.65,1.07-1.08-11.44-10.41.47.05-11.85,11.43-1.1.34-22.68,11.14-1.45-.17-34.32,22.71.09.85-11.59,23.36-.3.64,11.49,22.75.6-.24,18.89,2.44,4.15,8.71.69,1.97,11.46,57.87-.27-.07-11.68,11.25-.09.74-1.16-.39-4.77-.06-4.39-4.96-1.63-30.2.23-.05-11.7-11.79-.31-.28-11.42h-11.12s-.35-6.88-.35-6.88l-1.33-4.37-5,.1-5.4-.71.1-10.92-11.04-1.5-.78-11.04-10.21.42-1.36-5.61.55-17.87,11.14-.2.82-11.33,9.92-1.42,3.28-10.93,20.04.47,1.18-6.62.56-4.55h5.46s5.55-1.44,5.55-1.44l.32-10.23,11.46-.81.24-10.27,5.73-1.28,5.1-.08,1.78-6.26-3.42-5.72-20.63.68-.97,11.62-11.03-.24-.33,10.93-11.24,1.29-.8,10.15-11.42,1.15-.67,10.68-11.26,1.18.74,11.14-23.52-.09-.57,12.1-11.07-.33-.44-15.21-5.41-2.87-6.82-5.07-11.19-.53-.35-10.97-33.25-.36-1.67-11.03,11.55-.2-.41-11.61-10.72-.41-.24-23.43-11.22-.39-.51-11.4-11.68-.35.03-23.2-13.12.34-29.42-.18-4.87-4.32.07-5.7-5.73-1.98-5.34-.5-.31-10.99-23.11-.13-.8-11.52-23.1-.18-.17-11.4-11.65-.07.35,23.37-33.72-.25-2.23,11.79-11.02.92.09,20.12-.3,37.32-23.3.44-.17,46.27-23.28.14-.28,11.86-11.7.11v11.85s23.43.07,23.43.07l.56,22.84-11.93.49-.05,11.29,11.64.91.11,22.48-11.92.52.1,22.9,8.76,2.25c-1.92,5.07-3.03,7.43-8.12,10.48l-.75,11.26h11.61s.3-11.54.3-11.54l25.61-.56,9.71,1.11.09,10.71-11.75.65-.26,11.05-11.59.6-.43,10.69-22.8.5-1.1-11.44-11.28.04.37,11.19,5.11.86,5.16-.18,1.48,6.13-.92,4.81-18.07.75-15.66.38-1.23,11.22-11.06-.97-.13-33.86.15-11.95,11.63-.11-.08-23.42-11.75-.5.08-57.59,11.72-.89-.1-11.21-11.6-.27-.17-23.66,11.82-.15.44-22.19,23.04-1.09.52-11.75-10.79.27-2.47-11.3-9.91.07-11.19-.61-1.66-11.27,12.07-.22v-11.79s-11.46-.21-11.46-.21l-.38-39.8.18-65.36,11.66-.68.08-81-6.48.32-5.14-3.08-.05-193.58.1-49.82,11.38-.3.45-11.65,34.34-.07,1.01-11.28,22.78-.37.43,11.95,46.47.04.97-11.86,9.85.04,1.07-10.48-6.7-.98-63.79-.29-.2-11.36-11.59-.06-10.5-.13-1.01-17.58-1.61-5.8-6.05.47-4.34-3.1-.18-5.35-.9-3.84-10.33-.89-.23-22.88-11.35-.13.07-115.82,8.51-.58,6.33-2.72,3.3-4.79,2.18-4.99,2.75.86.37,34.46-.21,23.76,11.4-.28.32,11.93,35.25.12.06,23.18,23.46.59-.1,11.28-11.47.34-.24,10.96-11.69.3-.07,35.18,23.3-.03.22,11.52,11.74.65.28,11.56,22.73.11.04-11.22,11.84-1.45.59-11.22,10.99.2.25,11.52,11.74.2.13-23.25,11.67-.52.05-11.36,11.68-.49v-22.38s11.74-.8,11.74-.8l-.55-11.15-11.53-.79.81-11.2,22.44.04,1.15-9.73-.84-13.62,29.49-.34,5.97-1-.21-10.75-11.39-.47-.12-24.05-1.16-10.7-33.58.44-.64-11.91.62-11.3,11.24-1.24.06-11.17,10.89.3,59.69.06.24-12.01,163.39-.09.5,11.91,22.52-.1.59-11.87,46.53.08.38,11.55,11.39,1.17.22,22.25,11.41.43.76,12.08ZM1853.9,245.1l.05-10-11.47-.51-.41-11.8-18.17-.24c-1.38-.48-6.2-2.14-4.91-1.7l-1.71-10.25-44.99.2-.18-11.59-22.92-.39-.9,12.08,11.68.32.99,11.37,27.42.07,14.19.02,4.14,1.42.15,5.01.84,4.82,22.56-.16.36,11.85,23.29-.51ZM1899.79,374.98l.86,7.94v15.24s22.77-.06,22.77-.06l.61,7.93,2.7,3.84,9.29.38.08,11.17,38.11-.13,8.45-.25-.16-11.02,12.19-.22-.2-10.97,11.07-.88.88-11.24,11.51-.4.03-11.61-23.3-.18-.04-11.31,11.48-.38-.02-11.59-11.29-.28-.41-11.16-11.4-.61-.58-11.41-22.36-.29-.8-11.41-11.11-.65-.53-22.46-11.39-.05-.12-11.93-11.66-.03-.35,11.86-11.72.16-.07,22.48-10.93.25-1.17-10.8-10.8-.32-.85,1.79.06,4.83,1.41,4.99,11.09,1.56-1.6,10.08-10.65-.14-.48,8.1,4.86,4.25,6.9-.09.84,5.17-1.72,5.81h-5.21s-5.04,1.28-5.04,1.28l.15,22.45,10.66.27ZM2076.58,351.15h12.03s.09-70.28.09-70.28h-12.03s-.09,70.28-.09,70.28ZM318.07,316.22l-.39-11.37-10.82-.46-.46-11.7-11.78.81-1.76,7.2-9.61,3.53-.03,12.04,10.11.3,24.75-.37ZM1888.72,303.9l.49-10.37-11.5-.69-.11,11.66,9.39.4,1.73-1ZM2147.68,515l-.6-11.35-9.06-.29-14.07-.17-.26-11.56-32.45-.48c-.32-.27-3.58-3.04-3.13-2.66l-.65-7.94-5.23-.21-17.26-.24.58-11.53,11.02.02-.17-11.4-11.2-1.44.07-37.02,1.02-8.4,7.5-.52c-.21.3,2.27-3.13,3.04-4.19l-.21-42.53-11.7.11-.11,30.07-1.68,4.37-7.02-.39-2.81,7.52.05,63.39-11.52.52-.33,11.48-8.69-.21-3.43,5.76,2.21,5.93,21.72.06.47,23.1,11.65.45-.23-23.88,11.53,1.97.3,9.98,34.59.22.64,11.57,23.74.19,11.66-.31ZM283.42,702.68l11.32-.47.38-34.88-11.65-.42-1.04-11.42-46.03.09-.79,11.3-11.26.55-.28,21.12,3.2,2.23h55.87s.27,11.91.27,11.91ZM376.94,737.23l-.04-34.7-11.63-.03-.12-11.9-11.73-.15-.15-11.73-11.31.37-.24-11.61-34.48-.39-.43,11.36,11.07,1.18-.02,11.02-.02,14.11.72,9.29,11.02.58.51,11.23,23.09.29.31,11.07,11.67,1.07,11.77-1.05ZM566.34,960.21l-1.56,1.27-.44,21.74,10.9,1.03.95,9.14,7.57,2.34,15.28.28.51,10.73,35.35.23.18,10.98,11.28,1.36.5,10.79,11.33.38.69,11.5,34.37.05-.1-23.44-22.29-.35-1.75-11.3h-22.26s-.1-12.1-.1-12.1l-11.62-.45-.5-22.35h-9.49s-37.26-.03-37.26-.03l-.5-11.72-21.05-.1ZM786.99,983.84h-8.66s-3.28-2.67-3.28-2.67l.29-9.28-11.53.24-.05,19.91,3.01,3.34,20.08-.65.13-10.9ZM2323.19,1088.78v11.84h11.68v-11.84h-11.68Z"/>
          <polygon class="cls-20" points="95.5 820.1 84.16 819.48 83.85 808.77 95.22 808.01 95.5 820.1"/>
          <path class="cls-23" d="M83.72,258.98l-2.07-1.58,2.07,1.58Z"/>
          <polygon class="cls-12" points="143.3 304.51 119.1 304.91 118.76 292.79 107.04 292.86 107.68 284.27 119.92 279.82 130.11 273.14 130.29 278.49 134.63 281.59 140.68 281.12 142.29 286.92 143.3 304.51"/>
          <path class="cls-12" d="M2428.64,622.98l-.09,220.75-.08,11.07,11.64-.7.17,24.36.1,19.86-.07,21.83.08,38.15-.21,48.88-11.54-.25.06,23.23-.12,34.76-11.48-.57.06,24.21-23.62.7-7.78.18-19.74-.37-30.6-.6-.11-11.43,34.42-.05.46-11.29,11.77-.35-.91-34.86,12.25-.54.36-81.43,11.56-.35.22-47.89-.03-17.89-.04-20.01-.07-19.13-21.93-.42-2.47-3.96.86-5.77,6.48-1.38,5.13-1.45.06-91.81,11.81-1.04v-46.58s-11.61-.35-11.61-.35l.06-57.99.04-2.26c3.42.29,6.26,2.94,7.64,6.68l4.93,6.8,11.15-1.19,4.97-3.68,1.52-14.36,4.7-1.53Z"/>
          <polygon class="cls-26" points="2452.02 397.57 2451.98 409.62 2440.38 410.89 2442.12 397.66 2452.02 397.57"/>
          <polygon class="cls-20" points="2440.42 844.03 2440.11 854.1 2428.47 854.79 2428.55 843.73 2440.42 844.03"/>
          <polygon class="cls-20" points="2440.22 387.12 2440.75 397.3 2428.63 397.76 2428.74 386.05 2440.22 387.12"/>
          <polygon class="cls-12" points="2428.27 600.73 2427.92 618.68 2423.84 618.55 2423.84 600.89 2428.27 600.73"/>
          <polygon class="cls-12" points="2428.51 570.71 2428.25 582.75 2423.84 582.64 2423.84 570.89 2428.51 570.71"/>
          <polygon class="cls-20" points="2439.91 245.57 2440.06 257.15 2428.48 257.48 2428.55 245.46 2439.91 245.57"/>
          <polygon class="cls-5" points="2440.38 898.32 2440.28 878.46 2444.33 879.57 2448.11 884.52 2447.34 893.51 2440.38 898.32"/>
          <path class="cls-11" d="M2393.42,503.18l-.04,35.19-11.49.64.1,11.27,23.26.44.05,18.06.07,39.63-11.57.58-.07,21.26-.04,2.26-9.11-.57-3.33,3.84.62,19.32-11.76.08-.54-11.12-8.48.43c-.67-.53-3.45-2.73-3.01-2.38l-.69-9.62-10.79-.1-.46-11.59-22.56-.3.11-11.73,10.5-.03.71-10.96-11.16-.99-.81-11.3-10.95-.13-.4,11.49h-23.51s-.36,11.94-.36,11.94l-46.07.08-1.43-11.9-6.35-.23-4.2.94-.09,4.95-.11,17.89-35.41.17-.2,11.78-11.87-.66.24-23.1,22.94.09.53-11.23,11.44-.49.34-11.51-11.75-.63.3-21.65-5.78-1.82-6.39-1.65.24-21.2,22.82-.12.35-.89,1.88-10.87,68.99.33-.08,11.68,11.65-.22.07-35.14,11.49-.17.75,11.54,22.15.06.64-10.76,8.4-.69c-.25.25,3.23-3.25,3.58-3.61l-.48-19.51,11.74-.09.05,11.21,22,.14,1.63,5.03.86,7.08,10.86-.44ZM2219.17,538.77l-1.56,1.3v10.18s11.36.03,11.36.03l1.06,11.09,25.81.3h20.16s-.14-11.26-.14-11.26l-22.95-.28-.99-11.35h-32.75Z"/>
          <polygon class="cls-11" points="833.63 81.68 834.3 93.34 845.11 93.36 845.93 105.27 857.32 105.1 857.68 116.83 869.29 116.85 868.95 105.33 881.12 105.29 880.92 93.28 892.45 93.89 892.67 81.99 903.79 81.68 903.19 87.35 904.81 93.63 904.55 105.04 892.96 105.48 892.91 117.23 880.96 117.23 881.31 139.08 869.72 141.43 869.26 150.96 857.83 152.03 856.54 140.66 847.4 140.09 845.47 133.19 844.04 128.76 822.41 128.4 822.17 117.09 811.02 116.94 810.49 105.29 810.43 81.92 833.63 81.68"/>
          <polygon class="cls-21" points="2393.35 117.99 2393.32 140.24 2405.08 141.05 2405.54 159.29 2404.55 207.28 2405.24 219.35 2404.82 222.72 2393.34 222.2 2393.1 210.52 2381.99 211.12 2381.05 199.05 2368.9 198.48 2372.28 188.33 2381.55 187.41 2381.8 175.56 2381.6 151.77 2381.93 117.14 2393.35 117.99"/>
          <polygon class="cls-11" points="2393.35 117.99 2381.93 117.14 2370.02 116.99 2369.85 105.41 2357.62 105.24 2358.45 93.44 2393.78 93.62 2393.35 117.99"/>
          <polygon class="cls-13" points="2394.8 245.76 2381.72 245.6 2381.79 233.55 2391.88 233.71 2405.65 233.6 2405.76 223.24 2412.21 222.52 2416.15 224.17 2416.68 229.09 2416.03 245.27 2394.8 245.76"/>
          <polygon class="cls-13" points="2288.97 93.29 2263.92 93.33 2264.29 81.5 2287.85 81.8 2288.97 93.29"/>
          <polygon class="cls-20" points="2122.05 81.65 2124.18 81.4 2123.72 93.43 2112.1 93.35 2112.42 81.95 2122.05 81.65"/>
          <polygon class="cls-13" points="2112.01 151.51 2100.52 151.72 2100.11 186.42 2112 187.55 2112.04 210.45 2100.22 211.38 2100.14 280.73 2088.37 281.47 2088.47 273.15 2088.4 257.14 2088.56 197.31 2088.25 152.46 2100.1 151.27 2100.29 141.06 2111.9 140.86 2112.01 151.51"/>
          <polygon class="cls-14" points="2124.18 81.4 2122.05 81.65 2123.74 79.32 2124.18 81.4"/>
          <polygon class="cls-13" points="235.59 81.46 236.12 93.41 258.93 93.24 270.79 93.5 271.5 105.16 283.09 105.31 283.15 117.13 306.36 116.97 307 128.88 340.57 128.44 341.74 139.14 341.86 163.19 353.25 163.66 353.46 174.41 347.5 175.41 318 175.76 318.85 189.38 317.69 199.1 295.25 199.07 294.44 210.26 305.97 211.05 306.52 222.21 294.78 223.01 294.78 245.39 283.1 245.88 283.05 257.24 271.38 257.77 271.25 281.01 259.51 280.81 259.26 269.29 248.27 269.09 247.67 280.31 235.83 281.76 235.79 292.99 213.06 292.88 212.78 281.32 201.04 280.67 200.82 269.15 177.53 269.18 177.6 234.01 189.29 233.7 189.53 222.75 201 222.41 201.1 211.13 177.64 210.54 177.58 187.36 189.15 187.23 189.48 175.56 200.88 175.21 200.92 151.78 200.89 128.64 189.4 128.16 189.34 117.01 177.51 117 177.45 105.32 183.46 104.2 189.33 103.76 189.41 93.42 212 93.38 212.8 81.82 235.59 81.46"/>
          <polygon class="cls-13" points="658.28 128.7 665.59 128.59 669.96 130.9 669.73 162.03 663.53 164.22 658.68 164.16 658.67 169.19 658.28 187.07 646.41 187.03 646.37 133.28 646.78 129.03 658.28 128.7"/>
          <polygon class="cls-11" points="389.09 81.61 388.85 93.62 329.16 93.56 330.12 81.61 389.09 81.61"/>
          <polygon class="cls-13" points="728.89 81.44 728.64 93.37 685 93.45 681.64 94.2 681.52 81.57 728.89 81.44"/>
          <polygon class="cls-20" points="307.24 69.84 306.66 85.26 305.89 90.71 299.72 93.4 283.13 93.44 283 81.6 294.2 81.3 293.97 70.02 307.24 69.84"/>
          <polygon class="cls-21" points="258.93 93.24 236.12 93.41 235.59 81.46 259.6 81.54 258.93 93.24"/>
          <path class="cls-10" d="M788.86,69.91l-1.97-2.33,1.97,2.33Z"/>
          <polygon class="cls-7" points="845.55 81.35 845.11 93.36 834.3 93.34 833.63 81.68 845.55 81.35"/>
          <polygon class="cls-20" points="892.67 81.99 892.45 93.89 880.92 93.28 881.12 105.29 868.95 105.33 869.13 93.38 881.02 93.51 880.93 81.5 892.67 81.99"/>
          <polygon class="cls-18" points="857.27 93.33 857.44 105.07 868.95 105.33 869.29 116.85 857.68 116.83 857.32 105.1 845.93 105.27 845.11 93.36 857.27 93.33"/>
          <polygon class="cls-25" points="693.17 1100.34 693.34 1123.8 716.72 1123.98 717.15 1147.57 727.91 1147.13 728.73 1135.23 739.3 1135.92 740.58 1147.42 1466.98 1147.43 1467.64 1135.54 1528.51 1135.73 1540.2 1135.83 1542.96 1141.82 1544.2 1147.62 1537.69 1147.49 1525.77 1147.36 1524.9 1158.41 1513.84 1159.18 1514.81 1170.41 1509.88 1170.7 685.68 1170.71 681.02 1170.2 681.59 1159.08 650.98 1159.03 647.42 1158.26 644.69 1149.23 634.78 1147.21 634.43 1135.81 599.87 1135.73 599.83 1124.18 611.27 1123.87 610.96 1112.04 637.15 1112.06 646.68 1112.55 646.89 1123.95 658.07 1124.01 658.01 1135.54 669.96 1135.61 669.94 1124.3 658.53 1123.39 657.55 1111.94 658.4 1108.32 658.78 1100.48 685.1 1100.18 693.17 1100.34"/>
          <polygon class="cls-25" points="2030.75 1124.7 2029.89 1135.56 2087.92 1135.62 2089.18 1147.3 2177.97 1147.61 2193.91 1147.33 2194.24 1135.77 2224.01 1135.67 2279.93 1135.74 2299.77 1135.59 2299.89 1112.17 2311.43 1111.82 2311.55 1159.08 2245.7 1159.01 2240.36 1162.74 2241.97 1170.66 2116.16 1170.74 2111.15 1170.32 2112.31 1159.45 2100.41 1159.66 2096.14 1159.07 2066.13 1159.09 2065.25 1147.79 2042.1 1147.82 2041.49 1159.02 2030.37 1159 2029.57 1147.64 2006.8 1147.41 2006.7 1159.48 2006.69 1170.66 1988.1 1170.73 1694.67 1170.7 1689.4 1170.24 1690.07 1159.02 1630.67 1159.27 1631.25 1170.65 1608.29 1170.61 1607.96 1136.01 1619.44 1135.3 1619.76 1147.48 1678.19 1147.49 1678.56 1135.7 1701.6 1135.84 1701.85 1147.35 1759.66 1147.29 1771.12 1147.35 1923.77 1147.43 1924.58 1135.66 1947.56 1135.71 1948.05 1147.59 1960.19 1147.39 1978.26 1147.8 1984.07 1146.75 1983.58 1136.07 1983.94 1124.25 2006.08 1124.02 2006.86 1112.44 2017.79 1112.37 2018.69 1123.77 2030.75 1124.7"/>
          <polygon class="cls-11" points="2030.75 1124.7 2018.69 1123.77 2017.79 1112.37 2006.86 1112.44 2006.08 1124.02 1983.94 1124.25 1983.58 1136.07 1984.07 1146.75 1978.26 1147.8 1960.19 1147.39 1959.69 1128.11 1959.79 1101.53 1944.19 1101.41 1936.25 1100.06 1936.24 1088.81 1959.68 1088.5 1960 1077.12 1983.08 1077.05 1983.83 1088.88 1994.84 1087.84 1995.02 1077.53 2006.4 1076.74 2006.46 1065.51 2018.13 1065.58 2018.31 1076.61 2029.89 1076.73 2030.24 1065.55 2041.8 1065.67 2041.97 1077.61 2052.89 1077.09 2054.08 1088.33 2065.05 1089 2066.08 1100.6 2075.97 1099.63 2078.85 1088.66 2111.97 1088.6 2112.09 1076.86 2135.12 1076.91 2136.14 1065.51 2170.39 1065.38 2170.99 1054.1 2193.63 1053.73 2194.17 1041.93 2224.08 1041.92 2228.34 1041.35 2229.18 1037.55 2228.98 1018.84 2211.76 1018.8 2206.1 1017.38 2205.67 1012.22 2206.13 1007.04 2216.89 1007.01 2217.97 995.8 2251.91 994.81 2252.57 984.13 2275.83 983.6 2276.05 972.01 2285.12 972.37 2287.67 969.48 2287.86 960.25 2310.85 960.13 2311.75 948.37 2346.04 948.43 2346.29 968.43 2347.11 971.83 2351.82 971.85 2369.91 972.27 2369.99 995.14 2381.45 996.21 2381.82 1018.18 2376.67 1020.98 2371.51 1022.5 2370.13 1026.24 2369.94 1052.51 2357.82 1054.28 2349.43 1054.67 2347.34 1062.68 2344.38 1065.87 2321.87 1065.55 2288.34 1065.41 2287.75 1076.15 2276.69 1077.58 2276.39 1085.46 2272.96 1088.88 2252.95 1088.83 2252.24 1099.92 2240.98 1101.04 2240.44 1123.99 2217.83 1123.95 2217.37 1112.28 2194.15 1112.07 2193.88 1100.73 2171.09 1100.24 2170.21 1088.59 2112.11 1088.53 2111.89 1100.06 2098.06 1100.39 2088.43 1100.62 2088.35 1123.82 2062.06 1123.88 2034.01 1124.03 2030.75 1124.7"/>
          <path class="cls-11" d="M2147.68,515l-11.66.31-23.74-.19-.64-11.57-34.59-.22-.3-9.98-11.53-1.97.23,23.88-11.65-.45-.47-23.1-21.72-.06-2.21-5.93,3.43-5.76,8.69.21.33-11.48,11.52-.52-.05-63.39,2.81-7.52,7.02.39,1.68-4.37.11-30.07,11.7-.11.21,42.53c-.77,1.06-3.26,4.49-3.04,4.19l-7.5.52-1.02,8.4-.07,37.02,11.2,1.44.17,11.4-11.02-.02-.58,11.53,17.26.24,5.23.21.65,7.94c-.45-.38,2.81,2.39,3.13,2.66l32.45.48.26,11.56,14.07.17,9.06.29.6,11.35Z"/>
          <path class="cls-11" d="M1853.9,245.1l-23.29.51-.36-11.85-22.56.16-.84-4.82-.15-5.01-4.14-1.42-14.19-.02-27.42-.07-.99-11.37-11.68-.32.9-12.08,22.92.39.18,11.59,44.99-.2,1.71,10.25c-1.28-.44,3.54,1.22,4.91,1.7l18.17.24.41,11.8,11.47.51-.05,10Z"/>
          <polygon class="cls-20" points="2323.77 1159.47 2323.72 1170.69 2245.95 1170.75 2241.97 1170.66 2240.36 1162.74 2245.7 1159.01 2311.55 1159.08 2311.43 1111.82 2311.65 1100.28 2323.25 1100.38 2323.27 1158.01 2323.77 1159.47"/>
          <g>
            <polygon class="cls-13" points="1982.49 410.03 1972.3 409.31 1960.07 409.56 1958.83 398.13 1952.06 398.54 1944.19 397.84 1935.95 397.52 1935.68 386.19 1913.1 386.09 1912.11 374.73 1899.79 374.98 1889.13 374.71 1888.99 352.26 1894.03 350.99 1899.24 350.98 1900.96 345.17 1900.13 339.99 1893.22 340.08 1888.36 335.83 1888.84 327.72 1899.49 327.87 1901.09 317.78 1890 316.22 1888.59 311.23 1888.54 306.4 1887 304.91 1877.61 304.5 1877.72 292.85 1889.22 293.53 1888.72 303.9 1889.39 304.61 1900.19 304.93 1901.36 315.73 1912.29 315.48 1912.36 293.01 1924.08 292.84 1924.43 280.98 1936.09 281.01 1936.21 292.93 1947.6 292.98 1948.13 315.45 1959.24 316.1 1960.04 327.51 1982.4 327.79 1982.99 339.2 1994.39 339.81 1994.8 350.97 2006.08 351.25 2006.11 362.84 1994.62 363.22 1994.67 374.52 2017.97 374.7 2017.94 386.32 2006.43 386.71 2005.55 397.95 1994.48 398.83 1994.68 409.81 1982.49 410.03"/>
            <polygon class="cls-7" points="1982.49 410.03 1982.65 421.04 1974.21 421.29 1936.09 421.42 1936.02 410.25 1926.73 409.87 1924.03 406.04 1923.41 398.1 1900.66 398.16 1900.65 382.92 1899.79 374.98 1912.11 374.73 1913.1 386.09 1935.68 386.19 1935.95 397.52 1944.19 397.84 1952.06 398.54 1958.83 398.13 1960.07 409.56 1972.3 409.31 1982.49 410.03"/>
          </g>
          <polygon class="cls-25" points="2358.27 1135.88 2358.32 1147.98 2334.85 1147.76 2334.56 1134.06 2334.94 1100.49 2349.85 1100.46 2381.6 1100.31 2381.69 1112.11 2358.24 1112.29 2358.27 1135.88"/>
          <polygon class="cls-13" points="318.07 316.22 293.32 316.59 283.22 316.28 283.25 304.24 292.86 300.71 294.62 293.51 306.4 292.7 306.86 304.39 317.68 304.85 318.07 316.22"/>
          <polygon class="cls-18" points="2088.63 327.59 2076.61 327.27 2076.66 280.86 2088.69 280.87 2088.63 327.59"/>
          <polygon class="cls-13" points="786.99 983.84 786.85 994.74 766.77 995.39 763.76 992.05 763.81 972.14 775.34 971.89 775.05 981.18 778.33 983.84 786.99 983.84"/>
          <polygon class="cls-13" points="2088.63 327.59 2088.6 351.16 2076.58 351.15 2076.61 327.27 2088.63 327.59"/>
          <polygon class="cls-4" points="2393.52 1112.13 2393.38 1123.91 2381.9 1124.11 2381.82 1112.29 2393.52 1112.13"/>
          <rect class="cls-18" x="2323.19" y="1088.78" width="11.68" height="11.84"/>
          <polygon class="cls-20" points="2440.18 1007.17 2440.1 1029.95 2428.7 1030.15 2428.64 1006.92 2440.18 1007.17"/>
          <g>
            <path class="cls-22" d="M2474.48,1241.57c-.12,3.73-.72,7.6-2.49,11.06l-56.13.5-1.74-3.26h-72.44s-1.64,3.34-1.64,3.34l-10.15-.75-81.87.56-.38-3.12h-41.32l-.42,2.97-241.7-.06-4,.03-377.61-.02-3.74-3.05-34.11.2-.38,2.87-259.81-.03h-447.49s-.38-2.9-.38-2.9h-29.4s-.39,2.95-.39,2.95l-235.7.1-.25-3.04h-13.56l-.24,2.88-97.19.16-98.61-.21-41.32.34-40.63-.13-.21-2.97-16.55-.2-1.31,3.25-27.91.15-95.91-.44-61.92.36-30.25-.28-7.17-2.13-1.04-4.59.19-4.37,4.63-.44,407.01-.14,123.61.08,162.15-.03,1014.12.02h334.39s386.21.11,386.21.11l5.04.26Z"/>
            <path class="cls-3" d="M25.17,1194.06l-.02,11.97-6.49,5.07-2.87,3.41,1.16,2.95-3.67,1.92,3.06,8.52,8.62,1.21,2.68.65-2.12,8.73,11.42,2.12.36,1.1-.19,4.37-6.48-3.37c-3.42-.98-5.84-2.09-6.86-7.65l-8.96-5.67-3.61-6.99-3.52-5,5.2-.15.56-9.23-.22-13.8,11.93-.17Z"/>
            <polygon class="cls-3" points="2415.86 1253.12 2340.05 1253.21 2341.68 1249.87 2414.12 1249.86 2415.86 1253.12"/>
            <polygon class="cls-3" points="2248.03 1253.01 2205.9 1252.86 2206.32 1249.89 2247.64 1249.89 2248.03 1253.01"/>
            <path class="cls-3" d="M1582.59,1252.81c-12.57,1.52-25.69,1.51-38.24.02l.38-2.87,34.11-.2,3.74,3.05Z"/>
            <path class="cls-3" d="M837.06,1252.8c-9.82,1.44-20.33,1.44-30.17.04l.39-2.95h29.4s.38,2.91.38,2.91Z"/>
            <polygon class="cls-1" points="2485.77 1229.48 2488.07 1233.94 2485.23 1240.31 2479.62 1241.72 2475.38 1239.85 2475.69 1229.86 2485.77 1229.48"/>
            <path class="cls-3" d="M279.4,1252.92c-5.76.91-12.32.92-18.08.08l1.31-3.25,16.55.2.21,2.97Z"/>
            <path class="cls-3" d="M2479.62,1241.72l-4.24,11.87-3.39-.97c1.77-3.45,2.37-7.32,2.49-11.06l.89-1.71,4.24,1.87Z"/>
            <polygon class="cls-3" points="571.19 1252.94 558.97 1254.41 557.15 1252.77 557.38 1249.89 570.94 1249.89 571.19 1252.94"/>
            <polygon class="cls-3" points="1964.2 1252.79 1961.28 1254.08 1960.2 1252.83 1964.2 1252.79"/>
            <polygon class="cls-10" points="2475.69 1229.86 2475.38 1239.85 2474.48 1241.57 2469.44 1241.3 2083.23 1241.21 1748.84 1241.2 734.72 1241.18 572.57 1241.21 448.96 1241.13 41.94 1241.27 37.31 1241.71 36.95 1240.61 37.41 1229.64 61.84 1229.48 356.98 1229.53 381.55 1229.42 596.91 1229.53 607.66 1229.47 1184.15 1229.47 1197.32 1229.48 2007.56 1229.48 2046.15 1229.69 2070.52 1229.46 2443.45 1229.52 2467.86 1229.6 2475.69 1229.86"/>
            <polygon class="cls-4" points="49.99 936.6 60.13 936.76 59.9 947.98 48.98 948.59 48.4 960.2 25.12 960.55 25.01 1107.98 25.28 1111.84 25.3 1124.35 24.93 1128.03 25.17 1194.06 13.24 1194.23 13.2 948.69 24.87 948.21 25.34 936.87 49.99 936.6"/>
            <polygon class="cls-26" points="2494.17 1195.11 2498.64 1202.09 2499.34 1214.28 2496.23 1218.09 2487.56 1218.02 2487.28 1228.35 2485.77 1229.48 2475.69 1229.86 2467.86 1229.6 2443.45 1229.52 2070.52 1229.46 2046.15 1229.69 2007.56 1229.48 1197.32 1229.48 1184.15 1229.47 607.66 1229.47 596.91 1229.53 381.55 1229.42 356.98 1229.53 61.84 1229.48 37.41 1229.64 27.65 1229.77 24.97 1229.11 24.94 1217.84 16.95 1217.47 15.8 1214.52 18.66 1211.1 25.15 1206.04 37.5 1206.08 37.73 1217.81 376.68 1217.83 376.65 1206.31 405.28 1206.15 459.4 1206.1 459.39 1217.86 549.81 1217.82 2469.09 1217.82 2474.88 1217.92 2475.92 1212 2474.96 1207.05 2479.62 1205.57 2484.29 1206.69 2487.7 1204.69 2486.92 1197.51 2488.87 1194 2494.17 1195.11"/>
            <polygon class="cls-4" points="2474.85 936.54 2487.01 937.07 2487.69 948.38 2499.1 948.75 2499.06 1192.11 2496.86 1195.89 2494.17 1195.11 2488.87 1194 2486.92 1197.51 2487.7 1204.69 2484.29 1206.69 2479.62 1205.57 2474.96 1207.05 2475.92 1212 2474.88 1217.92 2469.09 1217.82 549.81 1217.82 459.39 1217.86 459.4 1206.1 866.51 1206.07 897.53 1206.11 1967.66 1206.11 2050.2 1206.1 2201.96 1206.17 2333.84 1206.1 2399.86 1206.21 2475.5 1206.05 2475.8 1194.6 2487.41 1193.99 2487.19 1130.07 2486.99 1125.05 2487.04 1111.09 2487.34 1096.19 2487.26 1053.91 2487.27 1018.4 2487.19 997.95 2487.39 960.34 2463.92 960.18 2463.64 948.74 2452 948.05 2451.92 938.85 2454.16 936.83 2474.85 936.54"/>
            <polygon class="cls-10" points="2475.66 925.43 2474.85 936.54 2454.16 936.83 2451.59 933.06 2452.07 924.71 2475.66 925.43"/>
            <polygon class="cls-1" points="2496.23 1218.09 2497.08 1227.67 2487.28 1228.35 2487.56 1218.02 2496.23 1218.09"/>
            <polygon class="cls-24" points="37.5 1206.08 25.15 1206.04 25.17 1194.06 36.58 1194.49 37.5 1206.08"/>
            <polygon class="cls-29" points="24.97 1229.11 16.34 1227.9 13.28 1219.39 16.95 1217.47 24.94 1217.84 24.97 1229.11"/>
            <polygon class="cls-22" points="37.41 1229.64 36.95 1240.61 25.53 1238.49 27.65 1229.77 37.41 1229.64"/>
            <polygon class="cls-9" points="2487.04 1111.09 2486.99 1125.05 2485.99 1123.84 2470.92 1124.02 2475.02 1130.2 2487.19 1130.07 2487.41 1193.99 2475.8 1194.6 2475.5 1206.05 2399.86 1206.21 2333.84 1206.1 2201.96 1206.17 2050.2 1206.1 1967.66 1206.11 897.53 1206.11 866.51 1206.07 459.4 1206.1 405.28 1206.15 376.65 1206.31 362.96 1206.08 37.5 1206.08 36.58 1194.49 25.17 1194.06 24.93 1128.03 25.3 1124.35 41.52 1123.95 59.82 1123.41 60.23 1128 60.3 1157.29 61.01 1160.33 60.74 1170.47 71.23 1170.25 83.49 1170.66 83.56 1182.24 83.63 1194.19 119.51 1194.36 175.44 1194.54 207.27 1194.96 246.66 1194.24 247.79 1182.7 294.94 1182.68 295.06 1194.34 329.5 1195.08 347.21 1194.87 375.49 1194.34 562.93 1194.57 595.74 1195.15 599.5 1192.93 599.1 1187.1 601.89 1182.57 611.04 1183.18 624.79 1182.98 646.41 1182.07 647.44 1194.45 1513.89 1194.42 1537.62 1194.35 1536.64 1182.56 1538.49 1182.19 1560.21 1182.34 1572.76 1182.56 1573.05 1194.44 1993.79 1194.43 1994.17 1182.7 2006.18 1182.56 2042.43 1182.37 2044.18 1182.57 2100.44 1182.55 2100.55 1194.44 2419.04 1193.9 2420.17 1198.71 2424.31 1202.08 2427.48 1194.35 2440 1194.27 2440.18 1183.3 2445.79 1182.48 2452.07 1181.35 2451.89 1176.02 2452.19 1164.07 2451.84 1162.09 2460.45 1158.84 2470.55 1155.12 2470.83 1151.69 2459.78 1148.02 2452.31 1145.32 2451.87 1142.39 2452.24 1124.43 2470.89 1123.36 2470.12 1112.13 2481.88 1112.3 2487.04 1111.09"/>
            <polygon class="cls-28" points="59.9 947.98 60.36 952.31 60.33 1042.39 60.36 1053.75 83.46 1054.06 83.59 1064.55 72.01 1065.36 71.88 1076.3 60.3 1077.09 60.28 1087.9 60.26 1108.16 59.93 1112.03 25.28 1111.84 25.01 1107.98 25.12 960.55 48.4 960.2 48.98 948.59 59.9 947.98"/>
            <polygon class="cls-23" points="59.93 1112.03 59.82 1123.41 41.52 1123.95 25.3 1124.35 25.28 1111.84 59.93 1112.03"/>
            <polygon class="cls-10" points="71.7 1041.81 83.16 1041.92 95.49 1042.03 95.39 1065.32 83.54 1065.73 83.59 1064.55 83.46 1054.06 60.36 1053.75 60.33 1042.39 71.7 1041.81"/>
            <polygon class="cls-4" points="376.65 1206.31 376.68 1217.83 37.73 1217.81 37.5 1206.08 362.96 1206.08 376.65 1206.31"/>
            <path class="cls-28" d="M2487.27,1018.4v35.51s-8.62.82-8.62.82l-11.55,6.3-1.71,6.92-.98,8.05c1.26,5.55,1.41,10.75.7,16.32l-4.98,1.79-6.97.88-12.09-.88-.65-2.01.33-45.88,4.26.03.86-4.13,5.91-.24,5.01-.77.82-11.2,2.49-5.57c3.96-5.16,9.85-7.11,16.32-4.76l10.84-1.16Z"/>
            <path class="cls-28" d="M2487.19,997.95l-7.44-2.34-15.47-1.08c-2.36-2.49-5.68-8.89-7.36-13.75l-1.72-3.67-3.23.45-.16-14.96.19-14.55,11.64.69.28,11.44,23.48.16-.21,37.62Z"/>
            <path class="cls-14" d="M2487.26,1053.91l.08,42.28h-5.35s-13.92-.1-13.92-.1l-.86,15.98-10.23-.41-3.2-4.19-12.88-3.43.17-9.94,12.09.88,6.97-.88,4.98-1.79c.71-5.57.56-10.77-.7-16.32l.98-8.05,1.71-6.92,11.55-6.3,8.6-.82Z"/>
            <path class="cls-9" d="M2487.19,997.95l.09,20.44-10.84,1.16c-6.47-2.34-12.36-.39-16.32,4.76l-2.49,5.57-.82,11.2-5.01.77.08-11.42.11-52.88,3.23-.45,1.72,3.67c1.68,4.86,5.01,11.26,7.36,13.75l15.47,1.08,7.44,2.34Z"/>
            <polygon class="cls-5" points="2451.77 916.11 2452.07 924.71 2451.59 933.06 2454.16 936.83 2451.92 938.85 2452 948.05 2451.81 962.6 2447.29 960.48 2440.39 958.29 2440.31 920.15 2445.1 919.23 2451.77 916.11"/>
            <polygon class="cls-28" points="2487.34 1096.19 2487.04 1111.09 2481.88 1112.3 2470.12 1112.13 2467.21 1112.07 2468.07 1096.1 2481.98 1096.21 2487.34 1096.19"/>
            <polygon class="cls-28" points="2486.99 1125.05 2487.19 1130.07 2475.02 1130.2 2470.92 1124.02 2485.99 1123.84 2486.99 1125.05"/>
            <polygon class="cls-29" points="1544.2 1147.62 1560.96 1147.35 1561.01 1159.08 1573.18 1159.36 1572.4 1170.5 1584.16 1170.54 1608.29 1170.61 1631.25 1170.65 1684.38 1170.81 1689.4 1170.24 1694.67 1170.7 1988.1 1170.73 1991.54 1178.94 1991.16 1182.09 1987.77 1182.57 1572.76 1182.56 1560.21 1182.34 1560.85 1170.76 1537.61 1170.76 1538.49 1182.19 1536.64 1182.56 647.87 1182.55 646.56 1170.9 599.56 1170.71 598.76 1182.55 295.81 1182.55 294.45 1171.42 294.76 1170.62 306.92 1170.35 311.63 1170.69 582.85 1170.72 588.11 1170.35 599.61 1170.72 599.35 1159.22 635.14 1159.02 646.61 1159.64 646.82 1170.63 677.25 1170.78 681.02 1170.2 685.68 1170.71 1509.88 1170.7 1514.81 1170.41 1526.59 1170.43 1537.85 1170.65 1536.89 1159.92 1537.69 1147.49 1544.2 1147.62"/>
            <polygon class="cls-23" points="271.36 1158.55 271.33 1170.82 294.45 1171.42 295.81 1182.55 598.76 1182.55 599.56 1170.71 646.56 1170.9 647.87 1182.55 1536.64 1182.56 1537.62 1194.35 1513.89 1194.42 647.44 1194.45 646.41 1182.07 624.79 1182.98 611.04 1183.18 601.89 1182.57 599.1 1187.1 599.5 1192.93 595.74 1195.15 562.93 1194.57 375.49 1194.34 347.21 1194.87 329.5 1195.08 295.06 1194.34 294.94 1182.68 247.79 1182.7 246.66 1194.24 207.27 1194.96 175.44 1194.54 119.51 1194.36 83.63 1194.19 83.56 1182.24 247.52 1182.55 247.73 1159.73 247.83 1158 259.35 1159.33 271.36 1158.55"/>
            <polygon class="cls-23" points="1991.16 1182.09 1994.17 1182.7 1993.79 1194.43 1573.05 1194.44 1572.76 1182.56 1987.77 1182.57 1991.16 1182.09"/>
            <polygon class="cls-23" points="2099.94 1171.17 2100.47 1182.54 2405.52 1182.57 2412.17 1182.15 2414.43 1182.34 2415.53 1186.29 2419.04 1193.9 2100.55 1194.44 2100.44 1182.55 2044.18 1182.57 2042.43 1182.37 2042.15 1171.14 2099.94 1171.17"/>
            <polygon class="cls-15" points="2030.37 1159 2041.49 1159.02 2066.13 1159.09 2096.14 1159.07 2100.41 1159.66 2100.12 1170.21 2099.94 1171.17 2042.15 1171.14 2042.43 1182.37 2006.18 1182.56 1994.17 1182.7 1991.16 1182.09 1991.54 1178.94 1988.1 1170.73 2006.69 1170.66 2006.7 1159.48 2030.37 1159"/>
            <polygon class="cls-15" points="83.59 1064.55 83.54 1065.73 83.6 1088.82 72.12 1088.43 71.97 1159.86 61.01 1160.33 60.3 1157.29 60.23 1128 59.82 1123.41 59.93 1112.03 60.26 1108.16 60.28 1087.9 71.74 1088.48 71.88 1076.3 72.01 1065.36 83.59 1064.55"/>
            <polygon class="cls-23" points="2452.19 1164.07 2451.89 1176.02 2452.07 1181.35 2445.79 1182.48 2440.18 1183.3 2440 1194.27 2427.48 1194.35 2429.7 1187.9 2432.11 1182.25 2435.28 1178.46 2438.31 1170.61 2440.27 1170.74 2445.32 1167.48 2452.19 1164.07"/>
            <polygon class="cls-24" points="2451.87 1142.39 2452.31 1145.32 2451.84 1162.09 2452.19 1164.07 2445.32 1167.48 2440.27 1170.74 2440.41 1136.2 2446.31 1139.53 2451.87 1142.39"/>
            <polygon class="cls-29" points="2450.39 1112.2 2452 1115.63 2452.24 1124.43 2451.87 1142.39 2446.31 1139.53 2440.41 1136.2 2440.07 1130.14 2440.18 1112.21 2441.22 1112.11 2450.39 1112.2"/>
            <polygon class="cls-23" points="1560.21 1182.34 1538.49 1182.19 1537.61 1170.76 1560.85 1170.76 1560.21 1182.34"/>
            <polygon class="cls-24" points="2432.11 1182.25 2429.7 1187.9 2427.48 1194.35 2424.31 1202.08 2420.17 1198.71 2419.04 1193.9 2415.53 1186.29 2414.43 1182.34 2432.11 1182.25"/>
            <polygon class="cls-5" points="2456.98 1111.66 2467.21 1112.07 2470.12 1112.13 2470.89 1123.36 2452.24 1124.43 2452 1115.63 2450.39 1112.2 2456.98 1111.66"/>
            <polygon class="cls-17" points="2451.84 1162.09 2452.31 1145.32 2459.78 1148.02 2470.83 1151.69 2470.55 1155.12 2460.45 1158.84 2451.84 1162.09"/>
            <polygon class="cls-23" points="71.97 1159.86 71.23 1170.25 60.74 1170.47 61.01 1160.33 71.97 1159.86"/>
            <polygon class="cls-23" points="71.88 1076.3 71.74 1088.48 60.28 1087.9 60.3 1077.09 71.88 1076.3"/>
            <polygon class="cls-5" points="2440.1 1029.95 2451.86 1030.45 2451.78 1041.87 2445.87 1042.11 2442.76 1042.14 2440.74 1046.2 2440.41 1092.08 2441.07 1094.09 2440.9 1104.04 2441.22 1112.11 2440.18 1112.21 2427.85 1112.04 2428 1106.3 2428.69 1104.05 2428.59 1064.92 2428.7 1030.15 2440.1 1029.95"/>
            <polygon class="cls-9" points="2445.87 1042.11 2445.01 1046.23 2440.74 1046.2 2442.76 1042.14 2445.87 1042.11"/>
            <polygon class="cls-29" points="2451.81 962.6 2451.96 977.56 2451.86 1030.45 2440.1 1029.95 2440.18 1007.17 2440.39 958.29 2447.29 960.48 2451.81 962.6"/>
            <polygon class="cls-9" points="2456.98 1111.66 2450.39 1112.2 2441.22 1112.11 2440.9 1104.04 2453.78 1107.47 2456.98 1111.66"/>
            <polygon class="cls-20" points="1537.69 1147.49 1536.89 1159.92 1525.95 1159.33 1526.59 1170.43 1514.81 1170.41 1513.84 1159.18 1524.9 1158.41 1525.77 1147.36 1537.69 1147.49"/>
            <polygon class="cls-10" points="1536.89 1159.92 1537.85 1170.65 1526.59 1170.43 1525.95 1159.33 1536.89 1159.92"/>
            <polygon class="cls-20" points="1689.4 1170.24 1684.38 1170.81 1631.25 1170.65 1630.67 1159.27 1690.07 1159.02 1689.4 1170.24"/>
            <polygon class="cls-7" points="1584.15 1159.22 1573.18 1159.36 1561.01 1159.08 1560.96 1147.35 1544.2 1147.62 1542.96 1141.82 1540.2 1135.83 1560.21 1135.92 1561.44 1147.69 1584.38 1147.53 1584.15 1159.22"/>
            <polygon class="cls-20" points="1584.15 1159.22 1584.16 1170.54 1572.4 1170.5 1573.18 1159.36 1584.15 1159.22"/>
            <polygon class="cls-29" points="2111.15 1170.32 2116.16 1170.74 2241.97 1170.66 2245.95 1170.75 2323.72 1170.69 2334.15 1170.67 2395.88 1170.77 2399.95 1170.15 2407.06 1170.91 2409.31 1176.34 2412.17 1182.15 2405.52 1182.57 2100.47 1182.54 2099.94 1171.17 2100.12 1170.21 2111.15 1170.32"/>
            <polygon class="cls-14" points="2438.31 1170.61 2435.28 1178.46 2432.11 1182.25 2414.43 1182.34 2412.17 1182.15 2409.31 1176.34 2407.06 1170.91 2438.31 1170.61"/>
            <polygon class="cls-20" points="2066.13 1159.09 2041.49 1159.02 2042.1 1147.82 2065.25 1147.79 2066.13 1159.09"/>
            <polygon class="cls-20" points="2030.37 1159 2006.7 1159.48 2006.8 1147.41 2029.57 1147.64 2030.37 1159"/>
            <polygon class="cls-20" points="2111.15 1170.32 2100.12 1170.21 2100.41 1159.66 2112.31 1159.45 2111.15 1170.32"/>
            <polygon class="cls-25" points="2428 1106.3 2427.85 1112.04 2429.32 1120.34 2433.11 1126.95 2440.07 1130.14 2440.41 1136.2 2440.27 1170.74 2438.31 1170.61 2407.06 1170.91 2399.95 1170.15 2395.36 1162.88 2388.29 1159.63 2375.15 1153.37 2382.83 1150.68 2398.63 1141.35 2404.22 1135.78 2408 1133.28 2414.48 1124.36 2422.17 1107.04 2428 1106.3"/>
            <polygon class="cls-17" points="2440.18 1112.21 2440.07 1130.14 2433.11 1126.95 2429.32 1120.34 2427.85 1112.04 2440.18 1112.21"/>
            <polygon class="cls-17" points="2417.17 1088.56 2417.01 1100.55 2405.2 1101 2404.63 1128.15 2404.22 1135.78 2398.63 1141.35 2382.83 1150.68 2375.15 1153.37 2388.29 1159.63 2395.36 1162.88 2399.95 1170.15 2395.88 1170.77 2334.15 1170.67 2334.46 1159.91 2345.65 1158.88 2357.48 1158.77 2358.32 1147.98 2370.04 1147.37 2369.89 1135.89 2381.76 1135.68 2381.9 1124.11 2393.38 1123.91 2393.52 1112.13 2393.55 1089.26 2417.17 1088.56"/>
            <polygon class="cls-20" points="2428.59 1064.92 2428.69 1104.05 2428 1106.3 2422.17 1107.04 2414.48 1124.36 2408 1133.28 2404.22 1135.78 2404.63 1128.15 2405.2 1101 2417.01 1100.55 2417.17 1088.56 2417.1 1064.35 2428.59 1064.92"/>
            <polygon class="cls-9" points="2334.46 1159.91 2334.15 1170.67 2323.72 1170.69 2323.77 1159.47 2334.46 1159.91"/>
            <polygon class="cls-4" points="2358.32 1147.98 2357.48 1158.77 2345.65 1158.88 2334.46 1159.91 2334.85 1147.76 2358.32 1147.98"/>
          </g>
          <polygon class="cls-24" points="2381.9 1124.11 2381.76 1135.68 2369.89 1135.89 2370.29 1124.02 2381.9 1124.11"/>
          <polygon class="cls-8" points="2369.89 1135.89 2370.04 1147.37 2358.32 1147.98 2358.27 1135.88 2369.89 1135.89"/>
          <g>
            <polygon class="cls-15" points="177.45 105.32 177.51 117 189.34 117.01 189.4 128.16 200.89 128.64 200.92 151.78 189.31 151.5 189.05 128.73 177.5 129.28 177.48 116.99 165.85 116.96 141.55 117.01 142.3 106.85 147.28 105.15 177.45 105.32"/>
            <polygon class="cls-29" points="141.55 117.01 142.44 139.65 141.61 151.68 130.81 151.83 130.44 117.37 141.55 117.01"/>
            <polygon class="cls-17" points="141.61 151.68 142.7 153.29 142.69 163.64 153.52 163.58 154.08 175.53 177.45 175.59 177.4 163.58 189.25 163.61 189.31 151.5 200.92 151.78 200.88 175.21 189.48 175.56 189.15 187.23 177.58 187.36 142.32 187.24 142 175.31 130.6 175.59 130.81 151.83 141.61 151.68"/>
            <polygon class="cls-4" points="165.85 116.96 165.65 129.08 154.11 128.94 153.47 140.32 142.44 139.65 141.55 117.01 165.85 116.96"/>
            <polygon class="cls-8" points="177.5 129.28 177.24 140.07 153.47 140.32 154.11 128.94 165.65 129.08 165.85 116.96 177.48 116.99 177.5 129.28"/>
            <polygon class="cls-26" points="189.31 151.5 177.57 152.3 177.4 163.58 153.52 163.58 153.85 152.36 142.7 153.29 141.61 151.68 142.44 139.65 153.47 140.32 177.24 140.07 177.5 129.28 189.05 128.73 189.31 151.5"/>
            <polygon class="cls-27" points="177.4 163.58 177.45 175.59 154.08 175.53 153.52 163.58 177.4 163.58"/>
            <polygon class="cls-5" points="189.31 151.5 189.25 163.61 177.4 163.58 177.57 152.3 189.31 151.5"/>
            <polygon class="cls-22" points="153.52 163.58 142.69 163.64 142.7 153.29 153.85 152.36 153.52 163.58"/>
          </g>
          <g>
            <polygon class="cls-17" points="2323.37 151.45 2323.08 163.79 2335.81 163.63 2335.14 175.61 2358.19 175.62 2358.01 163.72 2369.9 163.61 2369.95 151.9 2381.6 151.77 2381.8 175.56 2370.03 175.64 2369.75 187.2 2334.38 187.35 2323.05 187.26 2322.62 175.67 2311.48 175.41 2311.46 151.64 2323.37 151.45"/>
            <polygon class="cls-15" points="2357.62 105.24 2369.85 105.41 2370.02 116.99 2381.93 117.14 2381.6 151.77 2369.95 151.9 2369.9 163.61 2358.01 163.72 2358.43 152.3 2369.99 151.8 2369.91 141.13 2369.95 116.93 2345.49 117.04 2334.06 117.11 2334.3 105.3 2357.62 105.24"/>
            <polygon class="cls-27" points="2323.3 129.21 2323.37 151.45 2311.46 151.64 2311.4 128.72 2323.3 129.21"/>
            <polygon class="cls-29" points="2334.06 117.11 2334.45 129.28 2323.3 129.21 2323.29 117.05 2334.06 117.11"/>
            <polygon class="cls-29" points="2358.01 163.72 2358.19 175.62 2335.14 175.61 2335.81 163.63 2358.01 163.72"/>
            <polygon class="cls-5" points="2335.81 163.63 2323.08 163.79 2323.37 151.45 2334.8 152.28 2335.81 163.63"/>
            <polygon class="cls-8" points="2345.49 117.04 2346.69 128.69 2358.05 129.05 2357.93 140.11 2334.89 140.55 2334.45 129.28 2334.06 117.11 2345.49 117.04"/>
            <polygon class="cls-4" points="2369.91 141.13 2357.93 140.11 2358.05 129.05 2346.69 128.69 2345.49 117.04 2369.95 116.93 2369.91 141.13"/>
            <polygon class="cls-26" points="2334.45 129.28 2334.89 140.55 2357.93 140.11 2369.91 141.13 2369.99 151.8 2358.43 152.3 2358.01 163.72 2335.81 163.63 2334.8 152.28 2323.37 151.45 2323.3 129.21 2334.45 129.28"/>
          </g>
          <g>
            <path class="cls-12" d="M119.62,808.43l-1.35,10.82-11.09.34.29,11.68,11.76.96-.44,22.19-11.82.15.17,23.66,11.6.27.1,11.21-11.72.89-.08,57.59,11.75.5.08,23.42-11.63.11-.15,11.95.13,33.86,11.06.97,1.23-11.22,15.66-.38,18.07-.75,12.14.14,23.79-.05.27,23.16,11.75.79.21,11.28,10.75-.06,2.65-16.06,3.16-5.61,5.53,3.06.3,4.7,1.42,14.18,10.79-.54,12.02.49-.25,11.57-15.73.54-3.45,5.47c-2,2.56-4.2,7.13-4.44,9.94l.22,42.57-11.59.11-11.58.27-.03,34.93,34.6-.05.67-11.54,11.73-.61-.72-11.06,18-.45,4.02,1.04,1.33.32.62,10.44,34.91-.05.42,11.96,103.82-.06,114.51.14,25.06.36,2.94-5.28,1.25-7.4,10.59-.86.7,1.23,33.62.02.13,11.74-8.74,1.64-3.48,10.23.96,11.08-5.26.37-271.22-.03-4.71-.34-.66-11.31-11.08.58-12.16-1.06.2-10.9-11.84-.09-2.02-.02-21.38-.08-.15,10.52-.09,1.72-10.74-.16-12.22-.2.77,11.26-90.04.16-4.92-.54v-11.14s-23.21-.33-23.21-.33l-.38-22.73-11.67-.56.16-23.22-11.99-.05.11-23.4-.06-23.08,11.85-.42.1-23.28-12.32-.11.4-11.64-11.49.42v-59.09s11.46.55,11.46.55l-.07-11.86-11.41.41.03-94.65,11.39.32.2-11.74.07-11.8,11.71-.1.04-22.64-.28-12.09-11.38.76-.04-465.24-.12-16.31,23.04.46,1.52-11.45,45.46.07.09-11.66,11.59.06.2,11.36,63.79.29,6.7.98-1.07,10.48-9.85-.04-.97,11.86-46.47-.04-.43-11.95-22.78.37-1.01,11.28-34.34.07-.45,11.65-11.38.3-.1,49.82.05,193.58,5.14,3.08,6.48-.32-.08,81-11.66.68-.18,65.36.38,39.8,11.46.21v11.79s-12.07.22-12.07.22l1.66,11.27,11.19.61ZM130.69,1018.43l-.11,11.8,35.09.32.11-11.8-35.09-.32ZM177.4,1124.15l11.79-.6.12-45.65-8.7-.22-3.2-2.39-.44-21.43-20.54-.21c-.29.33-3.09,3.48-2.67,3l-.9,7.81-6.19,1.5-4.59-4.98.86-7.36-12.51-.06.16,9.93-7.07,2.14-4.86,1.66.4,20.72,11.47,1.01.29,22.79,11.47,1.14.16,11.13,11.5.04.06,23.3,23.44.03-.05-23.32Z"/>
            <polygon class="cls-18" points="83.67 854.64 83.47 866.37 72.09 866.05 71.72 855.06 83.67 854.64"/>
            <polygon class="cls-17" points="72.07 971.61 72.05 960.7 83.46 960.29 83.53 972.15 72.07 971.61"/>
            <polygon class="cls-17" points="83.16 1041.92 71.7 1041.81 72.07 1030.7 83.56 1030.28 83.16 1041.92"/>
            <polygon class="cls-29" points="130.59 1170.24 135.51 1170.79 225.55 1170.62 236.42 1170.48 236.99 1159.56 247.73 1159.73 247.52 1182.55 83.56 1182.24 83.49 1170.66 71.23 1170.25 71.97 1159.86 83.46 1159.21 83.64 1170.65 129.62 1170.76 130.59 1170.24"/>
            <path class="cls-11" d="M658.78,1100.48l-.38,7.84-.85,3.62-10.87.62-9.53-.49-26.18-.02-23,.16-.37,11.8h-22.95s.27,10.41.27,10.41l-10.59.86-1.25,7.4-2.94,5.28-25.06-.36-114.51-.14.99-11.8h-32.38s-13.36-.28-13.36-.28l-.71-11.29-11.37-.09-.48,11.74-32.68.28c-.8-.66-3-2.5-2.86-2.38l-.18-9.54-34.21-.4-.22-4.7-4.51-2.24-4.25-1.61-3.59,2.2-1.29,7.5-4.02-1.04-18,.45-10.46-.25-1.55-5.54.1-5.35-4.19-1.34-5.83,1.27-.59,5.11-1.22,5.62-10.42.04-.51-11.5,11.59-.11-.22-42.57c.24-2.81,2.44-7.38,4.44-9.94l3.45-5.47,15.73-.54.25-11.57-12.02-.49.25-34.56,12.45-1.65.14-9.31,10.57-.42,11.76-1.13.28-10.73,11.79-.35-.07-11.3,11.5-.04.27-12.01,11.27.04-.1-11.81-11.27.03.12,11.83-11.61.04-.2,11.62h-23.59s-.21,11.66-.21,11.66l-11.26.36-.7,10.92-33.21.41-1.95-11.45-11.16.27-.13,22.63-11.77.07-23.79.05-12.14-.14.92-4.81-1.48-6.13-5.16.18-5.11-.86-.37-11.19,11.28-.04,1.1,11.44,22.8-.5.43-10.69,11.59-.6.26-11.05,11.75-.65-.09-10.71-9.71-1.11-25.61.56-.3,11.53h-11.61s.75-11.25.75-11.25c5.09-3.05,6.2-5.41,8.12-10.48l-8.76-2.25-.1-22.9,11.92-.52-.11-22.48-11.64-.91.05-11.29,11.93-.49-.56-22.84-23.44-.07v-11.85s11.71-.11,11.71-.11l.28-11.86,23.28-.14.17-46.27,23.3-.44.3-37.32-.09-20.12,11.02-.92,2.23-11.79,33.72.25-.35-23.37,11.65.07.17,11.4,23.1.18.8,11.52,23.11.13.31,10.99,5.34.5,5.73,1.98-.07,5.7,4.87,4.32,29.42.18,13.12-.34-.03,23.2,11.68.35.51,11.4,11.22.39.24,23.43,10.72.41.41,11.61-11.55.2,1.67,11.03,33.25.36.35,10.97,11.19.53,6.82,5.07,5.41,2.87.44,15.21,11.07.33.57-12.1,23.52.09-.74-11.14,11.26-1.18.67-10.68,11.42-1.15.8-10.15,11.24-1.29.33-10.93,11.03.24.97-11.62,20.63-.68,3.42,5.72-1.78,6.26-5.1.08-5.73,1.28-.24,10.27-11.46.81-.32,10.23-5.55,1.44h-5.46s-.56,4.55-.56,4.55l-1.18,6.62-20.04-.47-3.28,10.93-9.92,1.42-.82,11.33-11.14.2-.55,17.87,1.36,5.61,10.21-.42.78,11.04,11.04,1.5-.1,10.92,5.4.71,5-.1,1.33,4.37.35,6.89h11.12s.28,11.41.28,11.41l11.79.31.05,11.7,30.2-.23,4.96,1.63.06,4.39.39,4.77,1.54,1.17,21.05.1.5,11.72h37.26s9.49.03,9.49.03l.5,22.35,11.62.45.1,12.09h22.26s1.75,11.31,1.75,11.31l22.29.35.1,23.44-34.37-.05-.69-11.5-11.33-.38-.5-10.79-11.28-1.36-.18-10.98-35.35-.23-.51-10.73-15.28-.28-7.57-2.34-.95-9.14-10.9-1.03.44-21.74-.72-1.29-11.25.09.07,11.68-57.87.27-1.97-11.46-8.71-.69-2.44-4.15.24-18.89-22.75-.6-.64-11.49-23.36.3-.85,11.59-22.71-.09.17,34.32-11.14,1.45-.34,22.68-11.43,1.1-.05,11.85,10.41-.47,1.08,11.44,7.65-1.07,4.28,5.18-2.28,7.07-32.92.07.13,23.15-12.13.49.84,11.29,22.36-.04.89-11.38h22.26s1.8-11.97,1.8-11.97h107.72s20.07.04,20.07.04l11.61.16.36,23.46,32.66-.44,13.35.63.94,11.17,11.06.17.08,11.2,11.49.4.57,11.67,35.46.09ZM224,948.56l.61-11.21,10.97-1.01.87-10.92,11.32-.91.1-22.51,11.62-.67.69-11.59,34.49.21.48-11.46,11.46-.44.15-29.6-.15-16.42-4.95-.98-5.4-.06-1.19-4.4-.4-18.51-46.89.16.37,11.32-4.87.27-6.21,1.12-1.16,5.38-.22,5.16-4.6-.22-5.97,1.97-1.19,7.03,7.33,2.82,5.11,1.32-.8,10.06-11.44.26.3,22.38,11.12,1.41.36,11.66-.06,21.63-11.42,1.75-.57,10.93-11.09.75.54,22.82,10.68.5ZM412.12,913.38l.06-11.88,23.33-.03-.9-11.75-22.61.35-.45,11.13-22.83.44-.08,11.89,23.47-.15Z"/>
            <path class="cls-21" d="M177.4,1124.15l.05,23.32-23.44-.03-.06-23.3-11.5-.04-.16-11.13-11.47-1.14-.29-22.79-11.47-1.01-.4-20.72,4.86-1.66,7.07-2.14-.16-9.93,12.51.06-.86,7.36,4.59,4.98,6.19-1.5.9-7.81c-.42.47,2.37-2.67,2.67-3l20.54.21.44,21.43,3.2,2.39,8.7.22-.12,45.65-11.79.6Z"/>
            <polygon class="cls-18" points="236.02 1041.63 225.23 1042.17 223.81 1027.99 223.51 1023.29 217.98 1020.24 214.81 1025.85 212.16 1041.91 201.41 1041.97 201.2 1030.7 189.45 1029.91 189.17 1006.75 200.95 1006.68 201.08 984.05 212.23 983.78 214.18 995.23 247.39 994.81 248.09 983.9 259.34 983.54 259.55 971.89 283.15 971.88 283.35 960.26 294.96 960.22 294.85 948.39 306.12 948.36 306.22 960.17 294.96 960.13 294.68 972.14 283.18 972.18 283.25 983.47 271.46 983.82 271.18 994.55 259.42 995.68 248.85 996.11 248.71 1005.41 236.26 1007.07 236.02 1041.63"/>
            <polygon class="cls-20" points="83.6 1088.82 83.5 1112.22 95.48 1112.27 95.32 1135.49 106.99 1136.05 107.37 1158.78 130.58 1159.1 130.59 1170.24 129.62 1170.76 83.64 1170.65 83.46 1159.21 71.97 1159.86 72.12 1088.43 83.6 1088.82"/>
            <path class="cls-21" d="M410.57,1147.44l-103.82.06-.42-11.96-34.91.05-.62-10.44-1.33-.32,1.29-7.5,3.59-2.2,4.25,1.61,4.51,2.24.22,4.7,34.21.4.18,9.54c-.14-.12,2.06,1.72,2.86,2.38l32.68-.28.48-11.74,11.37.09.71,11.29,13.36.28h32.38s-.99,11.79-.99,11.79Z"/>
            <polygon class="cls-21" points="212.79 1112.31 213.3 1123.81 223.72 1123.77 224.94 1118.15 225.52 1113.04 231.36 1111.77 235.55 1113.12 235.45 1118.47 237 1124.01 247.46 1124.26 248.18 1135.32 236.45 1135.93 235.77 1147.47 201.18 1147.52 201.21 1112.58 212.79 1112.31"/>
            <polygon class="cls-18" points="610.96 1112.04 611.27 1123.87 599.83 1124.18 599.87 1135.73 634.43 1135.81 634.78 1147.21 644.69 1149.23 647.42 1158.26 646.61 1159.64 635.14 1159.02 635.36 1155.39 631.85 1147.29 599.58 1147.57 599.41 1159.37 587.14 1159.27 590.62 1149.04 599.36 1147.41 599.23 1135.66 565.62 1135.64 564.92 1134.41 564.65 1124.01 587.6 1124 587.97 1112.21 610.96 1112.04"/>
            <polygon class="cls-11" points="119.23 832.23 107.47 831.27 107.17 819.6 118.27 819.26 119.62 808.43 129.52 808.36 131.99 819.67 142.78 819.4 142.26 831.15 119.23 832.23"/>
            <rect class="cls-18" x="142.28" y="1006.94" width="11.81" height="35.09" transform="translate(-877.6002 1163.4015) rotate(-89.4818)"/>
            <polygon class="cls-10" points="283.02 1158.56 295.18 1159.62 294.76 1170.62 294.45 1171.42 271.33 1170.82 271.36 1158.55 283.02 1158.56"/>
            <polygon class="cls-29" points="269.36 1147.56 271.35 1150.04 271.36 1158.55 259.35 1159.33 247.83 1158 247.98 1147.48 269.36 1147.56"/>
            <polygon class="cls-18" points="236.99 1159.56 236.42 1170.48 225.55 1170.62 224.77 1159.36 236.99 1159.56"/>
            <polygon class="cls-18" points="306.92 1170.35 294.76 1170.62 295.18 1159.62 306.26 1159.04 306.92 1170.35"/>
            <polygon class="cls-20" points="635.14 1159.02 599.35 1159.22 599.61 1170.72 588.11 1170.35 587.14 1159.27 599.41 1159.37 599.58 1147.57 631.85 1147.29 635.36 1155.39 635.14 1159.02"/>
            <polygon class="cls-20" points="283.02 1158.56 271.36 1158.55 271.35 1150.04 271.38 1147.58 283.22 1147.66 283.02 1158.56"/>
            <polygon class="cls-10" points="271.35 1150.04 269.36 1147.56 271.38 1147.58 271.35 1150.04"/>
            <polygon class="cls-20" points="681.02 1170.2 677.25 1170.78 646.82 1170.63 646.61 1159.64 647.42 1158.26 650.98 1159.03 681.59 1159.08 681.02 1170.2"/>
            <polygon class="cls-11" points="376.94 737.23 365.17 738.28 353.5 737.21 353.19 726.14 330.1 725.85 329.59 714.62 318.57 714.04 317.84 704.75 317.86 690.64 317.88 679.62 306.81 678.44 307.24 667.08 341.72 667.47 341.96 679.08 353.26 678.71 353.42 690.44 365.15 690.6 365.27 702.5 376.9 702.53 376.94 737.23"/>
            <polygon class="cls-13" points="283.42 702.68 283.15 690.77 227.28 690.77 224.08 688.54 224.36 667.42 235.61 666.87 236.41 655.57 282.43 655.48 283.47 666.9 295.12 667.32 294.74 702.2 283.42 702.68"/>
            <polygon class="cls-13" points="728.73 1135.23 727.91 1147.13 717.15 1147.57 716.72 1123.98 693.34 1123.8 693.17 1100.34 693.45 1077.91 704.11 1076.87 705.42 1088.43 716.77 1088.86 716.95 1112.07 728.17 1112.07 728.64 1117.99 728.49 1126.07 728.73 1135.23"/>
            <polygon class="cls-21" points="224 948.56 213.31 948.07 212.77 925.25 223.86 924.51 224.44 913.57 235.85 911.82 235.91 890.19 235.55 878.54 224.43 877.12 224.13 854.74 235.57 854.48 236.37 844.42 231.26 843.1 223.92 840.29 225.12 833.25 231.09 831.29 235.68 831.51 235.9 826.35 237.06 820.96 243.27 819.84 248.14 819.57 247.77 808.25 294.66 808.09 295.06 826.6 296.26 831 301.66 831.05 306.61 832.03 306.75 848.44 306.6 878.04 295.14 878.48 294.66 889.94 260.17 889.73 259.49 901.32 247.87 902 247.78 924.51 236.45 925.42 235.58 936.34 224.61 937.35 224 948.56"/>
            <polygon class="cls-18" points="412.12 913.38 388.65 913.53 388.73 901.64 411.57 901.2 412.01 890.07 434.62 889.72 435.52 901.47 412.18 901.5 412.12 913.38"/>
            <polygon class="cls-18" points="657.55 1111.94 658.53 1123.39 669.94 1124.3 669.96 1135.61 658.01 1135.54 658.07 1124.01 646.89 1123.95 646.68 1112.55 657.55 1111.94"/>
          </g>
        </g>
      </g>
    </g>
  </g>
</svg>